<?xml version="1.0" encoding="UTF-8"?>
<svg id="Layer_1" xmlns="http://www.w3.org/2000/svg" version="1.1" viewBox="0 0 100 100">
  <!-- Generator: Adobe Illustrator 29.5.0, SVG Export Plug-In . SVG Version: 2.1.0 Build 137)  -->
  <defs>
    <style>
      .st0 {
        fill: #231c6a;
        fill-rule: evenodd;
      }
    </style>
  </defs>
  <path class="st0" d="M91.8,62.9c-1.4,11.1-7.4,21.3-16.5,27.9-.6.5-1.5.3-2-.3-.5-.6-.3-1.5.3-2,8.4-6.2,14-15.7,15.4-26,0-.8.8-1.3,1.6-1.2.8,0,1.3.8,1.2,1.6h0ZM28.5,90.6c-.5.6-1.4.8-2,.3-9.1-6.7-15.1-16.8-16.5-27.9,0-.8.4-1.5,1.2-1.6.8,0,1.5.4,1.6,1.2,1.3,10.3,6.9,19.8,15.4,26,.6.5.8,1.4.3,2h0ZM69.7,22.5c.4-.7,1.3-.9,1.9-.5,4.1,2.4,7.6,5.4,10.7,9,.8.9.1,2.3-1.1,2.3s-.8-.2-1.1-.5c-2.8-3.3-6.2-6.2-10-8.4-.7-.4-.9-1.3-.5-1.9ZM19.4,31c3-3.6,6.6-6.6,10.7-9,.7-.4,1.5-.2,1.9.5.4.7.2,1.5-.5,1.9-3.8,2.2-7.1,5-10,8.4-.5.6-1.4.7-2,.2-.6-.5-.7-1.4-.2-2h0ZM44.7,5.9c2,0,3.8.8,5.1,2.3.6.6,1.6.6,2.1,0,1.3-1.5,3.2-2.3,5.1-2.3,3.8,0,6.8,3.1,6.8,6.8,0,6.4-6.8,14.3-13,17.3-6.3-3-13-10.9-13-17.3,0-3.8,3.1-6.8,6.8-6.8h0ZM50.3,32.9c.4.2.8.2,1.1,0,7.2-3.2,15.3-12.3,15.3-20.2s-4.3-9.6-9.6-9.6-4.5.8-6.2,2.2c-1.7-1.4-3.9-2.2-6.2-2.2-5.3,0-9.7,4.3-9.7,9.6,0,7.9,8,17,15.3,20.2h0ZM61.8,79.3s0,0,.1,0l1.8,3.3v.2s-15.2,8.4-15.2,8.4l-2-3.5,15.2-8.4ZM59.9,90.4l-1.9-1.1-4.2,2.3,4.1,2.3c1,.5,2.2.2,2.7-.8.5-1,.2-2.2-.8-2.7h0ZM43.9,93.9c-1,.5-2.2.2-2.7-.8-.5-1-.2-2.2.8-2.7l2.3-1.3,2,3.5-2.3,1.3ZM38,82.9l5.8,3.2,4.2-2.3-8-4.4c0,0-.1,0-.2,0l-1.8,3.3c0,0,0,.1,0,.2ZM34.6,71.9h-5v-2.9h5.3c.4,0,.7-.1,1-.4l5.3-5.3v5l-6.7,3.7ZM22.9,70.4c0,.8.7,1.5,1.5,1.5h2.4v-2.9h-2.4c-.8,0-1.5.7-1.5,1.5h0ZM46.8,58.5c-1.5,0-2.7,1.2-2.7,2.7v17.2l6.8,3.8,6.8-3.8v-17.2c0-1.5-1.2-2.7-2.6-2.7h-8.2ZM50.9,47c2.4,0,4.4,2,4.4,4.4s-2,4.4-4.4,4.4-4.4-2-4.4-4.4,2-4.4,4.4-4.4h0ZM66.8,69h5.3v2.9h-5l-6.7-3.7v-5l5.3,5.3c.3.3.6.4,1,.4h0ZM78.9,70.4c0-.8-.7-1.5-1.5-1.5h-2.4v2.9h2.4c.8,0,1.5-.7,1.5-1.5h0ZM66.1,74.6c.2.1.4.2.7.2h10.6c2.4,0,4.3-1.9,4.3-4.3s-1.9-4.3-4.3-4.3h-10l-7.3-7.3c0,0-.1-.1-.2-.1-.7-1.4-1.9-2.4-3.4-2.8,1-1.2,1.6-2.8,1.6-4.6,0-4-3.2-7.2-7.2-7.2s-7.2,3.2-7.2,7.2.6,3.3,1.6,4.6c-1.5.4-2.8,1.4-3.4,2.8,0,0-.1,0-.2.1l-7.3,7.3h-10c-2.4,0-4.3,1.9-4.3,4.3s1.9,4.3,4.3,4.3h10.6c.2,0,.5,0,.7-.2l5.6-3.1v5.3c-1.4-.7-3.2-.2-3.9,1.2l-1.8,3.3c-.8,1.4-.3,3.2,1.2,4l4.2,2.3-.4.2c-3.8,2.1-3.1,7.7,1,8.9,1.2.4,2.6.2,3.7-.4l5.7-3.1,5.7,3.1c2.3,1.3,5.3.5,6.6-1.9,1.3-2.3.4-5.3-1.9-6.6l-.4-.2,4.2-2.3c1.4-.8,1.9-2.6,1.2-4l-1.8-3.3c-.8-1.4-2.5-1.9-3.9-1.2v-5.3l5.6,3.1ZM96.9,55h-19.2c-.2,0-.3-.1-.3-.3v-9.5l8.4,4.5v.3c0,.8.6,1.4,1.4,1.4s1.4-.6,1.4-1.4v-.3l8.4-4.5v9.5c0,.2-.1.3-.3.3h0ZM84.4,38.3c0-.1,0-.2.2-.2h5.5c0,0,.2,0,.2.2v1.3h-5.9v-1.3ZM88.6,46.4c-.5-1.2-2.2-1.2-2.6,0l-7.5-3.9h17.5l-7.5,3.9ZM96.9,39.7c1.7,0,3.1,1.4,3.1,3.1v11.9c0,1.7-1.4,3.1-3.1,3.1h-19.2c-1.7,0-3.1-1.4-3.1-3.1v-11.9c0-1.7,1.4-3.1,3.1-3.1h3.8v-1.3c0-1.7,1.4-3,3-3h5.5c1.7,0,3,1.4,3,3v1.3h3.8ZM2.8,53.9v-1.1h24.1v1.1c0,.6-.5,1.1-1.1,1.1H3.9c-.6,0-1.1-.5-1.1-1.1ZM6.8,38.9c0-.1,0-.2.2-.2h15.9c.1,0,.2,0,.2.2v11H6.8v-11ZM29.8,53.9c0,2.2-1.8,3.9-3.9,3.9H3.9c-2.2,0-3.9-1.8-3.9-3.9v-2.5c0-.8.6-1.4,1.4-1.4h2.5v-11c0-1.7,1.4-3,3-3h15.9c1.7,0,3,1.4,3,3v11h2.5c.8,0,1.4.6,1.4,1.4v2.5h0Z"/>
</svg>