<svg width="108" height="21" viewBox="0 0 108 21" fill="none" xmlns="http://www.w3.org/2000/svg">
<g id="Group 1">
<path id="Vector" d="M9.25762 0.145508C10.1763 0.145508 11.0243 0.216883 11.8017 0.428183C12.5791 0.569521 13.2151 0.852197 13.7804 1.20554C14.3458 1.55889 14.7698 2.05357 15.0525 2.69029C15.3351 3.32561 15.4765 4.10367 15.4765 4.9517C15.4765 5.94036 15.2645 6.78909 14.7698 7.42511C14.3458 8.06042 13.6391 8.62577 12.7911 9.04979C13.9924 9.40313 14.9111 10.0384 15.4765 10.8872C16.0418 11.7352 16.3952 12.7952 16.3952 13.9966C16.3952 14.9853 16.1832 15.834 15.8298 16.5407C15.4765 17.2474 14.9111 17.8834 14.2751 18.3074C13.6391 18.7321 12.8617 19.0855 12.0137 19.2968C11.1657 19.5081 10.3177 19.6501 9.46963 19.6501H0V0.145508H9.25762ZM8.69227 8.06042C9.46963 8.06042 10.1056 7.84841 10.6003 7.49507C11.095 7.14173 11.307 6.50571 11.307 5.72835C11.307 5.30434 11.2364 4.88032 11.095 4.59765C10.9537 4.31497 10.7417 4.10296 10.459 3.89096C10.1763 3.74962 9.89364 3.60828 9.5403 3.53761C9.18695 3.46694 8.83361 3.46694 8.4096 3.46694H4.3108V8.06042H8.69227ZM8.90428 16.3993C9.32829 16.3993 9.75231 16.3287 10.1056 16.2587C10.459 16.1873 10.8123 16.046 11.095 15.834C11.3777 15.622 11.5897 15.41 11.8017 15.0566C11.943 14.7033 12.0844 14.2786 12.0844 13.7846C12.0844 12.7952 11.8017 12.0885 11.2364 11.5932C10.671 11.1691 9.89364 10.9578 8.97495 10.9578H4.3108V16.3993H8.90428ZM22.5434 16.3287C23.1087 16.894 23.9568 17.1767 25.0875 17.1767C25.8648 17.1767 26.5715 16.9647 27.1369 16.6114C27.7022 16.1866 28.0555 15.7633 28.1969 15.3386H31.6597C31.0943 17.0347 30.2463 18.2367 29.1156 19.0134C27.9849 19.7201 26.6422 20.1448 25.0168 20.1448C23.8861 20.1448 22.8967 19.9321 21.978 19.5787C21.0593 19.2254 20.3526 18.7314 19.7166 18.0247C19.0806 17.3887 18.5859 16.6114 18.3032 15.692C17.9499 14.7733 17.8086 13.7846 17.8086 12.6532C17.8086 11.5932 17.9499 10.6045 18.3032 9.6851C18.6566 8.7664 19.1513 7.98975 19.7873 7.28306C20.4233 6.64704 21.2007 6.08169 22.0487 5.72835C22.9674 5.375 23.8861 5.163 25.0168 5.163C26.2182 5.163 27.2782 5.375 28.1969 5.86969C29.1156 6.36437 29.8223 6.92972 30.3876 7.77775C30.953 8.5551 31.377 9.47309 31.6597 10.4632C31.801 11.4525 31.8717 12.4419 31.801 13.5726H21.554C21.554 14.7033 21.978 15.7633 22.5434 16.3287ZM26.9955 8.90845C26.5008 8.41376 25.7235 8.13109 24.8048 8.13109C24.1688 8.13109 23.6741 8.27172 23.2501 8.48444C22.826 8.69644 22.5434 8.97841 22.2607 9.26179C21.978 9.54517 21.8367 9.89781 21.766 10.2512C21.6953 10.6045 21.6247 10.8865 21.6247 11.1699H27.9849C27.8435 10.1098 27.4902 9.40313 26.9955 8.90845ZM37.3132 0.145508V7.49507H37.3838C37.8785 6.64704 38.5145 6.08169 39.2919 5.72835C40.0693 5.375 40.7759 5.163 41.5533 5.163C42.6133 5.163 43.4614 5.30434 44.0974 5.58701C44.7334 5.86969 45.2988 6.2937 45.6521 6.78838C46.0054 7.28306 46.2881 7.91908 46.4295 8.62577C46.5708 9.33246 46.6415 10.1105 46.6415 11.0285V19.7208H42.7547V11.7352C42.7547 10.5338 42.5427 9.68581 42.1893 9.12045C41.836 8.5551 41.2 8.27243 40.2813 8.27243C39.2212 8.27243 38.4439 8.62577 38.0199 9.19183C37.5252 9.82714 37.3132 10.8872 37.3132 12.3006V19.7208H33.4264V0.145508H37.3132ZM49.4682 7.63641C49.8922 7.00039 50.3869 6.57637 51.0229 6.15165C51.659 5.79831 52.3656 5.51634 53.143 5.3743C53.9204 5.23296 54.697 5.16229 55.4751 5.16229C56.1818 5.16229 56.8884 5.23296 57.6665 5.30363C58.3732 5.3743 59.0799 5.5856 59.6445 5.86898C60.2806 6.15095 60.7046 6.57567 61.1293 7.07035C61.4819 7.56574 61.6939 8.27243 61.6939 9.12045V16.5407C61.6939 17.1767 61.7646 17.8127 61.8353 18.3788C61.9066 18.9441 62.1172 19.4388 62.33 19.7208H58.3725C58.2304 19.5794 58.1598 19.2968 58.0898 19.0855C58.0191 18.8728 58.0191 18.5908 58.0191 18.3788C57.3831 19.0141 56.6764 19.4388 55.8284 19.7208C54.9804 20.0035 54.1324 20.0741 53.2843 20.0741C52.5776 20.0741 52.0123 20.0035 51.3763 19.7922C50.8109 19.6508 50.3162 19.3674 49.8216 19.0141C49.3975 18.6608 49.0442 18.2367 48.7615 17.6721C48.5495 17.106 48.4082 16.5407 48.4082 15.7633C48.4082 14.9853 48.5495 14.2786 48.8322 13.7846C49.1149 13.2899 49.4682 12.8659 49.8922 12.5126C50.3162 12.2306 50.8816 11.9472 51.4469 11.8059C52.0123 11.6652 52.5777 11.5239 53.2137 11.4525L54.9097 11.2405C55.4751 11.1699 55.9698 11.0992 56.3938 11.0285C56.8178 10.8872 57.1711 10.7458 57.4538 10.5338C57.7365 10.3218 57.8071 10.0391 57.8071 9.61514C57.8071 9.19112 57.7365 8.83778 57.5951 8.62577C57.4538 8.41377 57.2418 8.20176 57.0298 8.06042C56.8171 7.91908 56.5351 7.84841 56.2524 7.77845C55.9698 7.70708 55.6164 7.70708 55.2631 7.70708C54.4857 7.70708 53.9204 7.84841 53.4963 8.20176C53.0723 8.5551 52.7897 9.12045 52.719 9.82714H48.8322C48.8322 8.97912 49.1149 8.20176 49.4682 7.63641ZM57.1704 13.1486C56.9591 13.2192 56.6764 13.2899 56.3931 13.3606C56.1104 13.432 55.8277 13.432 55.4744 13.5019C55.1924 13.5726 54.8391 13.5726 54.5557 13.6433L53.7076 13.8553C53.425 13.9259 53.1423 14.0673 53.001 14.2086C52.7889 14.35 52.6476 14.562 52.5063 14.774C52.295 15.0566 52.295 15.3393 52.295 15.6927C52.295 16.046 52.3656 16.3287 52.507 16.5407C52.6483 16.7527 52.7897 16.9654 53.0017 17.106C53.2137 17.2474 53.4963 17.3188 53.779 17.3887C54.0617 17.4587 54.3437 17.4594 54.697 17.4594C55.4751 17.4594 56.0397 17.3188 56.4637 17.106C56.8885 16.8241 57.1704 16.5407 57.3831 16.1873C57.5951 15.834 57.7365 15.4807 57.7365 15.1273C57.8071 14.774 57.8071 14.492 57.8071 14.2793V12.7952C57.5951 12.9366 57.3831 13.0786 57.1704 13.1486ZM67.5602 5.51634V7.49507H67.6308C68.1248 6.64704 68.7615 6.08169 69.5382 5.72835C70.3162 5.375 71.1643 5.163 71.9409 5.163C73.001 5.163 73.849 5.30434 74.485 5.58701C75.1917 5.86969 75.6871 6.2937 76.0404 6.78838C76.3938 7.28306 76.6757 7.91908 76.8877 8.62577C77.0291 9.33246 77.1005 10.1105 77.1005 11.0285V19.7208H73.2137V11.7352C73.2137 10.5338 73.001 9.68581 72.6476 9.12045C72.2943 8.5551 71.6582 8.20176 70.6689 8.20176C69.6088 8.20176 68.8308 8.62577 68.3368 9.26179C67.8421 9.89781 67.6301 10.9578 67.6301 12.3712V19.7915H63.7433V5.51634H67.5602ZM85.7913 8.06042C85.156 8.06042 84.6606 8.20176 84.2373 8.48514C83.8133 8.76711 83.4599 9.12045 83.1773 9.61584C82.8946 10.0399 82.7533 10.5345 82.6112 11.0999C82.4706 11.6659 82.4706 12.1599 82.4706 12.726C82.4706 13.22 82.5413 13.786 82.6112 14.28C82.7533 14.846 82.8939 15.2694 83.1773 15.6934C83.4599 16.1181 83.7426 16.4714 84.1666 16.7534C84.5907 17.0361 85.0846 17.1781 85.7206 17.1781C86.6401 17.1781 87.3467 16.8954 87.9114 16.4001C88.4068 15.9061 88.7601 15.1994 88.8308 14.28H92.5762C92.2943 16.188 91.5876 17.6014 90.3848 18.5915C89.1841 19.5802 87.6294 20.0755 85.7206 20.0755C84.6606 20.0755 83.6712 19.8635 82.8232 19.5102C81.9038 19.1568 81.1971 18.6622 80.5618 18.0261C79.9265 17.3901 79.4304 16.6128 79.0771 15.7647C78.7237 14.846 78.5831 13.9266 78.5831 12.8666C78.5831 11.7359 78.7237 10.7465 79.0771 9.82785C79.4304 8.90915 79.8551 8.06113 80.4904 7.35444C81.1265 6.64775 81.9038 6.15307 82.7526 5.72906C83.6705 5.37571 84.6599 5.1637 85.7906 5.1637C86.6393 5.1637 87.4167 5.30504 88.1934 5.51705C88.97 5.72905 89.6774 6.0824 90.2427 6.50571C90.8788 6.93043 91.3735 7.49507 91.7268 8.20176C92.0801 8.83778 92.2929 9.68581 92.3628 10.6045H88.5467C88.4075 8.90845 87.4881 8.06042 85.7913 8.06042ZM20.7767 1.48822H28.6916V3.39628H20.7767V1.48822ZM98.4418 16.3287C99.0078 16.894 99.9258 17.1767 100.986 17.1767C101.764 17.1767 102.471 16.9647 103.035 16.6114C103.601 16.1866 103.955 15.7633 104.095 15.3386H107.488C106.922 17.0347 106.075 18.2367 104.943 19.0134C103.812 19.7201 102.47 20.1448 100.844 20.1448C99.7138 20.1448 98.7244 19.9321 97.805 19.5787C96.9352 19.2544 96.1587 18.7207 95.5443 18.0247C94.9083 17.3887 94.4136 16.6114 94.131 15.692C93.7776 14.7733 93.6363 13.7846 93.6363 12.6532C93.6363 11.5932 93.7776 10.6045 94.131 9.6851C94.4713 8.79879 94.9747 7.98407 95.615 7.28306C96.251 6.64704 97.0284 6.08169 97.8764 5.72835C98.7951 5.375 99.7845 5.163 100.844 5.163C102.045 5.163 103.105 5.375 103.954 5.86969C104.872 6.36437 105.579 6.92972 106.145 7.77775C106.71 8.5551 107.134 9.47309 107.417 10.4632C107.699 11.4518 107.77 12.5119 107.699 13.6433H97.4517C97.4517 14.7033 97.8764 15.7633 98.4418 16.3287ZM102.965 8.90845C102.47 8.41376 101.692 8.13109 100.774 8.13109C100.138 8.13109 99.6424 8.27172 99.2184 8.48444C98.7944 8.69644 98.441 8.97841 98.2297 9.26179C98.0184 9.54517 97.805 9.89781 97.7351 10.2512C97.6651 10.6045 97.5944 10.8865 97.5944 11.1699H103.955C103.742 10.1098 103.389 9.40313 102.965 8.90845Z" fill="#146EF5"/>
</g>
</svg>
