<?xml version="1.0" encoding="UTF-8"?>
<svg id="Layer_1" data-name="Layer 1" xmlns="http://www.w3.org/2000/svg" viewBox="0 0 100 100">
  <path d="M39.57,100c-.88,0-1.76-.28-2.53-.84-1.54-1.12-2.15-3-1.56-4.81l2.73-8.42c.17-.53-.01-1.1-.46-1.42l-7.16-5.2c-1.54-1.12-2.15-3-1.56-4.81.59-1.8,2.19-2.97,4.09-2.97h8.85c.55,0,1.04-.35,1.21-.88l2.73-8.42c.59-1.8,2.19-2.97,4.09-2.97s3.5,1.17,4.09,2.97l2.73,8.42c.17.53.66.88,1.21.88h8.85c1.9,0,3.5,1.17,4.09,2.97.59,1.8-.03,3.69-1.56,4.81l-7.16,5.2c-.45.32-.63.9-.46,1.42l2.74,8.42c.59,1.8-.03,3.69-1.56,4.8-1.54,1.12-3.52,1.12-5.05,0l-7.16-5.2c-.45-.33-1.05-.33-1.49,0l-7.16,5.2c-.77.56-1.65.84-2.53.84h0ZM33.12,74.57c-.86,0-1.14.67-1.21.88-.07.21-.23.92.46,1.42l7.16,5.2c1.51,1.1,2.14,3.03,1.56,4.81l-2.73,8.42c-.26.81.29,1.29.46,1.42.18.13.8.5,1.49,0l7.16-5.2c1.51-1.1,3.54-1.1,5.05,0l7.16,5.2c.69.51,1.32.13,1.49,0,.18-.13.73-.61.46-1.42l-2.73-8.42c-.58-1.78.05-3.71,1.56-4.8l7.16-5.2c.69-.5.53-1.21.46-1.42-.07-.21-.35-.88-1.21-.88h-8.85c-1.87,0-3.51-1.19-4.09-2.97l-2.73-8.42c-.26-.82-.99-.88-1.21-.88s-.94.06-1.21.88l-2.73,8.42c-.58,1.78-2.22,2.97-4.09,2.97h-8.85Z"/>
  <path d="M85.54,80.49c-.78,0-1.57-.25-2.25-.74l-5.95-4.32c-.28-.21-.66-.21-.94,0l-5.95,4.32c-1.03.75-2.29.94-3.48.53-.53-.18-.92-.65-1-1.21-.08-.56.15-1.12.61-1.45l1.04-.76c.68-.5.53-1.2.47-1.4-.06-.21-.34-.88-1.18-.89-.48,0-.93-.25-1.2-.64s-.35-.89-.21-1.35l1.34-4.11c.11-.33,0-.69-.29-.89l-5.95-4.32c-1.37-.99-1.91-2.67-1.39-4.28.52-1.61,1.95-2.65,3.64-2.65h7.35c.35,0,.65-.22.76-.55l2.27-6.99c.52-1.61,1.95-2.64,3.64-2.64s3.12,1.04,3.64,2.64l2.27,6.99c.11.33.41.55.76.55h7.35c1.69,0,3.12,1.04,3.64,2.64.52,1.61-.02,3.29-1.39,4.28l-5.95,4.32c-.28.2-.4.56-.29.89l2.27,6.99c.52,1.61-.02,3.29-1.39,4.28-.68.5-1.47.74-2.25.74h0ZM76.87,72.25c.79,0,1.58.24,2.25.73l5.95,4.32c.42.31.8.1.94,0,.14-.1.45-.39.29-.89l-2.27-6.99c-.51-1.58.04-3.3,1.39-4.28l5.95-4.32c.42-.31.34-.73.29-.89s-.24-.55-.76-.55h-7.35c-1.66,0-3.13-1.06-3.64-2.64l-2.27-6.99c-.16-.5-.59-.55-.76-.55s-.6.05-.76.55l-2.27,6.99c-.51,1.58-1.98,2.64-3.64,2.64h-7.35c-.52,0-.71.39-.76.55-.05.17-.13.59.29.89l5.95,4.32c1.34.98,1.9,2.7,1.39,4.28l-.85,2.6c.99.51,1.75,1.4,2.11,2.54.1.31.16.62.19.93l3.45-2.51c.67-.49,1.46-.73,2.25-.73h0Z"/>
  <path d="M14.46,80.49c-.78,0-1.57-.25-2.25-.74-1.37-.99-1.91-2.67-1.39-4.28l2.27-6.99c.11-.33,0-.69-.29-.89l-5.95-4.32c-1.37-.99-1.91-2.67-1.39-4.28.52-1.61,1.95-2.64,3.64-2.64h7.35c.35,0,.65-.22.76-.55l2.27-6.99c.52-1.61,1.95-2.64,3.64-2.64s3.12,1.04,3.64,2.64l2.27,6.99c.11.33.41.55.76.55h7.35c1.69,0,3.12,1.04,3.64,2.65.52,1.61-.02,3.29-1.39,4.28l-5.95,4.32c-.28.2-.4.56-.29.89l1.34,4.11c.15.46.07.96-.21,1.35-.28.39-.72.63-1.2.64-.84.02-1.12.69-1.18.89-.06.2-.22.91.47,1.4l1.04.76c.46.33.69.89.61,1.45s-.47,1.02-1,1.21c-1.18.41-2.45.21-3.47-.53l-5.95-4.32c-.28-.21-.66-.21-.94,0l-5.95,4.32c-.68.5-1.47.74-2.25.74h0ZM9.11,59.37c-.52,0-.71.39-.76.55-.05.17-.13.59.29.89,0,0,5.95,4.32,5.95,4.32,1.35.98,1.9,2.7,1.39,4.28l-2.27,6.99c-.16.5.15.79.29.89.14.1.51.31.94,0l5.95-4.32c1.34-.98,3.15-.98,4.5,0l3.45,2.51c.03-.31.09-.62.19-.93.36-1.14,1.12-2.03,2.11-2.54l-.85-2.6c-.51-1.58.05-3.3,1.39-4.28l5.95-4.32c.42-.31.34-.73.29-.89-.05-.17-.24-.55-.76-.55h-7.35c-1.66,0-3.13-1.06-3.64-2.64l-2.27-6.99c-.16-.5-.59-.55-.76-.55s-.6.05-.76.55l-2.27,6.99c-.51,1.58-1.98,2.64-3.64,2.64h-7.35,0Z"/>
  <path d="M50,47.13c-.84,0-1.51-.68-1.51-1.51V1.51c0-.84.68-1.51,1.51-1.51s1.51.68,1.51,1.51v44.1c0,.84-.68,1.51-1.51,1.51h0Z"/>
  <path d="M37.13,41.34c-.65,0-1.25-.42-1.45-1.08l-9.3-31.02c-.24-.8.21-1.64,1.02-1.88.8-.24,1.64.22,1.88,1.02l9.3,31.02c.24.8-.21,1.64-1.02,1.88-.14.04-.29.06-.44.06h0Z"/>
  <path d="M24.2,40.53c-.45,0-.89-.2-1.19-.57l-11.14-14.03c-.52-.65-.41-1.61.24-2.13.66-.52,1.61-.41,2.13.24l11.14,14.03c.52.65.41,1.61-.24,2.13-.28.22-.61.33-.94.33h0Z"/>
  <path d="M62.87,41.34c-.14,0-.29-.02-.44-.06-.8-.24-1.26-1.08-1.02-1.88l9.3-31.02c.24-.8,1.08-1.26,1.88-1.02.8.24,1.26,1.08,1.02,1.88l-9.3,31.02c-.2.66-.8,1.08-1.45,1.08h0Z"/>
  <path d="M75.8,40.53c-.33,0-.66-.11-.94-.33-.65-.52-.76-1.47-.24-2.13l11.14-14.03c.52-.65,1.47-.76,2.13-.24.65.52.76,1.47.24,2.13l-11.14,14.03c-.3.38-.74.57-1.19.57h0Z"/>
</svg>