<?xml version="1.0" encoding="UTF-8"?>
<svg id="Layer_1" data-name="Layer 1" xmlns="http://www.w3.org/2000/svg" viewBox="0 0 500 500">
  <defs>
    <style>
      .cls-1 {
        fill: #673ddb;
      }
    </style>
  </defs>
  <path class="cls-1" d="M211.15,175.83l-28.66-8.45-16.89-24.65c-5.05-7.35-15.1-9.22-22.45-4.17-1.64,1.12-3.05,2.54-4.17,4.17l-16.9,24.65-28.66,8.45c-8.55,2.52-13.44,11.49-10.92,20.04.56,1.91,1.47,3.7,2.69,5.28l18.22,23.69-.82,29.87c-.24,8.91,6.78,16.33,15.69,16.57,1.99.05,3.97-.26,5.85-.93l28.16-10.01,28.15,10c8.39,3,17.62-1.37,20.62-9.76.67-1.88.99-3.88.93-5.88l-.82-29.87,18.22-23.69c5.4-7.16,3.98-17.35-3.19-22.75-1.52-1.14-3.22-2.01-5.04-2.57h0ZM186.12,217.02c-1.17,1.52-1.78,3.4-1.73,5.31l.88,32.03c-1.01-.17-32.98-12.23-32.99-11.21.01-1.02-32.02,11.06-32.99,11.21l.88-32.03c.05-1.92-.56-3.79-1.73-5.31l-19.54-25.41,30.74-9.06c1.84-.54,3.44-1.7,4.52-3.28l18.12-26.44,18.12,26.44c1.08,1.58,2.68,2.74,4.52,3.28l30.74,9.06-19.54,25.41Z"/>
  <path class="cls-1" d="M457.61,32.15l-11.82,8.28c-3.54-1.26-7.26-1.91-11.01-1.93H34.2c-18.43.02-33.36,14.95-33.38,33.38v283.75c.02,18.43,14.95,33.36,33.38,33.38h166.88v11.27c-31.06,5.65-50.04,18.62-50.04,34.63,0,24.65,41.98,37.55,83.46,37.55s83.46-12.9,83.46-37.55c0-16.02-19.01-29-50.1-34.64v-11.26h166.94c18.43-.02,33.36-14.95,33.38-33.38V96.11l23.46-23.43c10.26-10.5,10.06-27.33-.45-37.59-9.06-8.85-23.11-10.08-33.56-2.93h0ZM301.25,434.92c0,7.08-23.57,20.86-66.76,20.86s-66.76-13.78-66.76-20.86c0-5.08,12.34-13.56,35.44-17.98,6.29,17.28,25.39,26.2,42.68,19.91,9.26-3.37,16.55-10.66,19.92-19.92,23.13,4.41,35.49,12.9,35.49,17.99ZM251.15,405.71c-.1,9.22-7.66,16.61-16.87,16.51-9.08-.1-16.41-7.43-16.51-16.51v-16.68h33.38v16.68ZM434.78,372.33c-113.44,0-289.18,0-400.59,0-9.21-.01-16.68-7.48-16.69-16.69v-5.59h433.97v5.59c-.01,9.21-7.48,16.68-16.69,16.69ZM451.47,333.36H17.5V71.89c.01-9.21,7.48-16.68,16.69-16.69h390.54l-96.31,67.51c-8.82,6.22-12.68,17.38-9.58,27.72-4.35,3.27-8.36,6.97-11.97,11.04-24.08-10.79-52.41-1.33-65.18,21.76-10.05,23.24-15.14,48.33-14.94,73.65-50.52,74.3-167.19,38.47-167.52-51.47,0-50.69,41.08-91.79,91.78-91.8,25.84,0,50.48,10.89,67.88,29.99,3.17,3.35,8.46,3.48,11.8.31,3.25-3.08,3.49-8.19.53-11.56-40.34-44.3-108.96-47.5-153.25-7.16-22.57,20.56-35.44,49.68-35.44,80.21.92,108.64,142.12,149.11,200.34,57.56,23.69,1.82,61.31,2.09,77.51-11.6,15.22-12.93,22.02-33.22,17.67-52.71,4.65-2.84,9-6.15,12.98-9.87,9.64,4.85,21.31,2.99,28.96-4.62l71.48-71.4v220.58ZM309.64,238.61c-10.22,8.63-40.9,9.59-66.12,7.69,3.64-32.05,9.66-87.2,58.55-68.61.55,11.09,8.42,20.46,19.25,22.91,3.84,13.87-.72,28.7-11.68,38.01ZM332.34,182.7c-3.57,2.91-8.83,2.37-11.75-1.2-2.85-3.5-2.4-8.63,1.01-11.59l6.4-5.37,10.73,12.79-6.39,5.37ZM479.83,60.87l-111.63,111.5c-3.28,3.25-8.57,3.24-11.83-.04-.16-.16-.31-.32-.45-.49l-9.76-11.63-9.76-11.63c-2.96-3.56-2.47-8.85,1.09-11.8.17-.14.34-.27.52-.4,8.55-6,125.15-87.73,129.19-90.57,4.53-3.05,10.67-1.85,13.72,2.67,2.61,3.87,2.15,9.03-1.09,12.39h0Z"/>
</svg>