<svg width="72" height="20" viewBox="0 0 72 20" fill="none" xmlns="http://www.w3.org/2000/svg">
<g id="Group">
<path id="Vector" d="M18.7246 -0.0214844H22.0374V19.7135H18.7246V-0.0214844Z" fill="#17313B"/>
<path id="Vector_2" d="M33.5604 13.459C33.5604 16.5165 30.9678 16.7945 30.1036 16.7945C28.0871 16.7945 27.7991 14.9878 27.7991 14.0149V6.37109H24.4863V13.8759C24.4863 15.6827 25.0625 17.3504 26.2147 18.3233C27.2229 19.2961 28.5192 19.7131 30.1036 19.7131C31.2559 19.7131 32.6962 19.4351 33.5604 18.6012V19.7131H36.8731V6.37109H33.5604V13.459Z" fill="#17313B"/>
<path id="Vector_3" d="M43.3551 1.50684H40.0423V6.37109H37.5938V9.42863H40.0423V19.7131H43.3551V9.42863H45.8036V6.37109H43.3551V1.50684Z" fill="#17313B"/>
<path id="Vector_4" d="M56.1712 15.6833C55.451 16.2392 54.4428 16.6561 53.4346 16.6561C51.13 16.6561 49.5457 14.9884 49.5457 12.7647C49.5457 10.5411 51.13 9.0123 53.4346 9.0123C54.4428 9.0123 55.451 9.29026 56.1712 9.98515L56.6033 10.4021L58.9078 8.31741L58.3317 7.90047C57.0354 6.78864 55.307 6.09375 53.4346 6.09375C49.4016 6.09375 46.377 9.0123 46.377 12.9037C46.377 16.7951 49.4016 19.7137 53.4346 19.7137C55.307 19.7137 57.0354 19.0188 58.3317 17.9069L58.9078 17.49L56.6033 15.2663L56.1712 15.6833Z" fill="#17313B"/>
<path id="Vector_5" d="M70.5764 7.48337C69.5682 6.51052 68.56 6.09359 66.9756 6.09359C65.8233 6.09359 64.6711 6.37154 63.8069 7.20541V-0.0214844H60.4941V19.7135H63.8069V12.3476C63.8069 9.2901 65.9674 9.01214 66.8316 9.01214C68.848 9.01214 68.704 10.8189 68.704 11.7917V19.5745H72.0168V11.9307C72.0168 10.124 71.5847 8.45622 70.5764 7.48337Z" fill="#17313B"/>
<path id="Vector_6" d="M53.2908 15.127C54.5636 15.127 55.5954 14.1314 55.5954 12.9034C55.5954 11.6753 54.5636 10.6797 53.2908 10.6797C52.0181 10.6797 50.9863 11.6753 50.9863 12.9034C50.9863 14.1314 52.0181 15.127 53.2908 15.127Z" fill="#EF4335"/>
<path id="Vector_7" d="M14.1152 14.8491C12.9629 15.961 11.2345 16.6559 9.36212 16.6559C5.7613 16.6559 3.16872 13.8763 3.16872 10.1239C3.16872 6.37143 5.7613 3.59185 9.50615 3.59185C11.2345 3.59185 12.9629 4.28675 14.2592 5.53756L14.6913 5.95449L16.8518 3.86981L16.4197 3.45287C14.5473 1.64615 12.0987 0.673297 9.50615 0.673297C4.03291 0.534318 0 4.70368 0 10.1239C0 15.544 4.03291 19.7134 9.36212 19.7134C11.9547 19.7134 14.5473 18.7405 16.2757 16.9338L16.7078 16.5169L14.5473 14.4322L14.1152 14.8491Z" fill="#17313B"/>
</g>
</svg>
