<?xml version="1.0" encoding="UTF-8"?>
<svg id="Layer_1" data-name="Layer 1" xmlns="http://www.w3.org/2000/svg" viewBox="0 0 100 100">
  <path d="M98.05,40.33h-16.02v-4.13c0-1.08-.87-1.95-1.95-1.95h-42.19c-1.08,0-1.95.87-1.95,1.95s.87,1.95,1.95,1.95h40.23v14.97c0,13.15-7.02,25.38-18.36,32.03H22.27c-11.34-6.65-18.36-18.88-18.36-32.03v-14.97h13.09c1.08,0,1.95-.87,1.95-1.95s-.87-1.95-1.95-1.95H1.95C.87,34.24,0,35.12,0,36.2v16.93C0,60.51,1.98,67.75,5.74,74.06c2.53,4.26,5.82,8.02,9.66,11.1H1.95C.87,85.16,0,86.03,0,87.11,0,94.22,5.78,100,12.89,100h60.94c7.11,0,12.89-5.78,12.89-12.89,0-1.08-.87-1.95-1.95-1.95h-18.14c3.54-2.84,6.6-6.25,9.04-10.09h5.51c10.37,0,18.82-8.44,18.82-18.82v-13.96c0-1.08-.87-1.95-1.95-1.95ZM82.6,89.06c-.89,4.02-4.49,7.03-8.77,7.03H12.89c-4.28,0-7.88-3.01-8.77-7.03h78.48ZM82.03,53.13v-1.07h6.25v4.2c0,3.91-3.18,7.1-7.1,7.1h-.44c.85-3.32,1.29-6.76,1.29-10.22ZM96.09,56.25c0,8.22-6.69,14.91-14.91,14.91h-3.32c.62-1.27,1.18-2.58,1.67-3.91h1.66c6.07,0,11-4.94,11-11v-6.15c0-1.08-.87-1.95-1.95-1.95h-8.2v-3.91h14.06v12.01Z"/>
  <path d="M42.88,10.81l-1.02-1.28c-1.49-1.87-1.49-4.49,0-6.37.67-.84.53-2.07-.32-2.74-.85-.67-2.07-.53-2.74.32-2.63,3.31-2.62,7.92,0,11.23l1.02,1.28c1.95,2.45,1.95,5.87,0,8.32l-1.04,1.31c-.67.84-.53,2.07.32,2.74.36.28.79.42,1.21.42.58,0,1.15-.25,1.53-.74l1.04-1.31c3.08-3.88,3.08-9.3-.01-13.18Z"/>
  <path d="M53.71,15.2l-1.02-1.28c-1.49-1.87-1.49-4.49,0-6.37.67-.84.53-2.07-.32-2.74-.85-.67-2.07-.53-2.74.32-2.63,3.31-2.62,7.92,0,11.23l1.02,1.28c1.95,2.45,1.95,5.87,0,8.32l-1.04,1.31c-.67.84-.53,2.07.32,2.74.36.28.79.42,1.21.42.58,0,1.15-.25,1.53-.74l1.04-1.31c3.08-3.88,3.08-9.3-.01-13.18Z"/>
  <path d="M32.05,15.2l-1.02-1.28c-1.49-1.87-1.49-4.49,0-6.37.67-.84.53-2.07-.32-2.74-.85-.67-2.07-.53-2.74.32-2.63,3.31-2.62,7.92,0,11.23l1.02,1.28c1.95,2.45,1.95,5.87,0,8.32l-1.04,1.31c-.67.84-.53,2.07.32,2.74.36.28.79.42,1.21.42.58,0,1.15-.25,1.53-.74l1.04-1.31c3.08-3.88,3.08-9.3-.01-13.18Z"/>
  <path d="M29.35,34.82c-.36-.36-.87-.57-1.38-.57s-1.02.21-1.38.57c-.36.37-.57.87-.57,1.38s.21,1.02.57,1.38c.36.36.87.57,1.38.57s1.02-.21,1.38-.57c.37-.37.57-.87.57-1.38,0-.51-.21-1.02-.57-1.38Z"/>
  <path d="M70.7,51.17c-1.08,0-1.95.87-1.95,1.95,0,7.25-2.94,14.37-8.07,19.55-.76.77-.75,2,.01,2.76.38.38.88.57,1.38.57.5,0,1.01-.19,1.39-.58,5.85-5.9,9.2-14.03,9.2-22.3,0-1.08-.87-1.95-1.95-1.95Z"/>
  <path d="M57.4,77.97c-.53-.94-1.72-1.27-2.66-.74l-.04.03c-.94.53-1.27,1.72-.74,2.66.36.64,1.02.99,1.7.99.33,0,.65-.08.96-.25l.04-.03c.94-.53,1.27-1.72.74-2.66Z"/>
</svg>