<?xml version="1.0" encoding="UTF-8"?>
<svg id="Layer_1" data-name="Layer 1" xmlns="http://www.w3.org/2000/svg" viewBox="0 0 100 100">
  <g id="outline">
    <path d="M50,20.69c-5.26,0-10.43,1.41-14.95,4.11-.82.49-1.08,1.55-.59,2.37.49.81,1.54,1.08,2.36.59,3.49-2.06,7.42-3.26,11.46-3.5v8.5c0,.95.77,1.72,1.72,1.72h3.45c.95,0,1.72.77,1.72,1.72s-.77,1.72-1.72,1.72h-3.45c-.95,0-1.72.77-1.72,1.72h0v8.62h-6.9v-1.72c0-2.86-2.32-5.17-5.17-5.17s-5.17,2.32-5.17,5.17v1.73h-6.78c.25-4.04,1.45-7.97,3.5-11.46.49-.82.22-1.88-.6-2.36-.82-.48-1.87-.22-2.36.59-8.13,13.69-3.83,31.37,9.69,39.79v2.75c0,.95.77,1.72,1.72,1.72h1.73v3.45h-1.72c-.95,0-1.72.77-1.72,1.72s.77,1.72,1.72,1.72h1.72v5.17c0,.95.77,1.72,1.72,1.72h1.9c.95,4.66,5.5,7.67,10.17,6.72,3.39-.69,6.03-3.34,6.72-6.72h1.9c.95,0,1.72-.77,1.72-1.72h0v-5.17h1.72c.95,0,1.72-.77,1.72-1.72s-.77-1.72-1.72-1.72h-1.72v-3.45h1.72c.95,0,1.72-.77,1.72-1.72h0v-2.75c13.73-8.56,17.92-26.62,9.36-40.35-5.35-8.58-14.76-13.8-24.87-13.79ZM50,96.55c-2.19,0-4.14-1.38-4.88-3.45h9.75c-.73,2.06-2.69,3.45-4.88,3.45ZM58.62,89.65h-17.24v-3.45h17.24v3.45ZM41.38,82.76v-3.45h17.24v3.45h-17.24ZM51.72,41.38h1.72c2.86,0,5.17-2.32,5.17-5.17s-2.32-5.17-5.17-5.17h-1.72v-6.81c12.9.87,23.18,11.15,24.05,24.05h-8.53s0,0,0,0c-.95,0-1.72.77-1.72,1.72v3.45c0,.95-.77,1.72-1.72,1.72s-1.72-.77-1.72-1.72v-3.45c0-.95-.77-1.72-1.72-1.72h-8.62v-6.9ZM24.26,51.73h8.51c.95,0,1.72-.78,1.72-1.73v-3.45c0-.95.77-1.72,1.72-1.72s1.72.77,1.72,1.72v3.45c0,.95.77,1.72,1.72,1.72h8.62v6.9h-1.72c-2.86,0-5.17,2.32-5.17,5.17s2.32,5.17,5.17,5.17h1.72v6.9h-10.34v-2c0-.62-.33-1.19-.86-1.49-7.44-4.32-12.24-12.06-12.81-20.64ZM62.93,72.36c-.53.31-.86.88-.86,1.49v2h-10.34v-8.62c0-.95-.77-1.72-1.72-1.72h-3.45c-.95,0-1.72-.77-1.72-1.72s.77-1.72,1.72-1.72h3.45c.95,0,1.72-.77,1.72-1.72h0v-8.62h6.9v1.72c0,2.86,2.32,5.17,5.17,5.17s5.17-2.32,5.17-5.17v-1.72h6.78c-.58,8.58-5.38,16.32-12.81,20.64Z"/>
    <path d="M13.8,50c0-.95-.77-1.72-1.72-1.72H1.73c-.95,0-1.72.77-1.72,1.72s.77,1.72,1.72,1.72h10.34c.95,0,1.72-.77,1.72-1.72h0Z"/>
    <path d="M18.02,29.54l-8.96-5.17c-.82-.48-1.88-.19-2.36.63-.48.82-.19,1.88.63,2.36l8.96,5.17c.82.48,1.88.19,2.36-.63s.19-1.88-.63-2.36h0Z"/>
    <path d="M29.54,18.01c.48.82,1.53,1.11,2.36.63.82-.48,1.11-1.53.63-2.36h0l-5.17-8.96c-.48-.82-1.53-1.11-2.36-.63-.82.48-1.11,1.53-.63,2.36l5.17,8.96Z"/>
    <path d="M50,13.79c.95,0,1.72-.77,1.72-1.72h0V1.72c0-.95-.77-1.72-1.72-1.72s-1.72.77-1.72,1.72v10.34c0,.95.77,1.72,1.72,1.72h0Z"/>
    <path d="M68.1,18.64c.82.48,1.88.19,2.36-.63l5.17-8.96c.48-.82.19-1.88-.63-2.36-.82-.48-1.88-.19-2.36.63l-5.17,8.96c-.48.82-.19,1.88.63,2.36,0,0,0,0,0,0Z"/>
    <path d="M82.85,32.76c.3,0,.6-.08.86-.23l8.96-5.17c.82-.48,1.11-1.53.63-2.36-.48-.82-1.53-1.11-2.36-.63l-8.96,5.17c-.82.48-1.11,1.53-.63,2.35.31.53.88.86,1.5.86Z"/>
    <path d="M98.27,48.27h-10.34c-.95,0-1.72.77-1.72,1.72s.77,1.72,1.72,1.72h10.34c.95,0,1.72-.77,1.72-1.72s-.77-1.72-1.72-1.72Z"/>
    <path d="M92.67,72.64l-8.96-5.17c-.82-.48-1.88-.19-2.36.63-.48.82-.19,1.88.63,2.36l8.96,5.17c.82.48,1.88.19,2.36-.63.48-.82.19-1.88-.63-2.36h0Z"/>
    <path d="M16.29,67.47l-8.96,5.17c-.82.48-1.11,1.53-.63,2.36.48.82,1.53,1.11,2.36.63l8.96-5.17c.82-.48,1.11-1.53.63-2.36-.48-.82-1.53-1.11-2.36-.63Z"/>
    <path d="M29.28,29.27c-.67.67-.67,1.76,0,2.44.67.67,1.76.67,2.44,0,.67-.67.67-1.76,0-2.44-.67-.67-1.76-.67-2.44,0h0Z"/>
  </g>
</svg>