<?xml version="1.0" encoding="UTF-8"?>
<svg id="Layer_1" xmlns="http://www.w3.org/2000/svg" version="1.1" viewBox="0 0 100 100">
  <!-- Generator: Adobe Illustrator 29.5.0, SVG Export Plug-In . SVG Version: 2.1.0 Build 137)  -->
  <defs>
    <style>
      .st0 {
        fill: #231c6a;
        fill-rule: evenodd;
      }
    </style>
  </defs>
  <path class="st0" d="M97,96c0,.7-.5,1.2-1.2,1.2h-16c-.7,0-1.2-.5-1.2-1.2v-28c0-1.4-2.9-10.2-4.2-12.4-.4-.6-1.3-1.8-2.8-3.7-1.5-2-3.5-4.4-5-6.6-2-2.9-2.4-4-2.5-4.4.4-.8,1.4-1.4,2.3-1.6.4,0,1,0,1.4.4l14,14.3c-.4,5.4,4.1,10,9.4,9.7l2.9,2.9c1.8,1.8,2.9,3,2.9,4.8v24.4ZM63.8,67.1c1.5-2.2,4.4-6.5,7.2-11l-3.4-4.3-6.5,8.1c-1.7,2.1-3.3,3.7-4.8,4.9-1.7,1.8-4,2.9-6.6,2.9s-5.9-1.6-7.5-4c-1-.9-2-2-3-3.3l-6.7-8.2-3.4,4.4c2.7,4.2,5.5,8.4,6.9,10.4.5.7.8,1.2.9,1.4,1.3,2,4,9.4,4,10.7v17.5c0,.4.5.8,1,.8h16.2c.5,0,1-.4,1-.8v-17.5c0-1.3,2.7-8.7,4-10.7.1-.2.4-.6.8-1.2h0ZM21.6,68.1v28c0,.7-.5,1.2-1.2,1.2H4.4c-.7,0-1.2-.5-1.2-1.2v-24.4c0-1.8,1.1-3,2.9-4.8l2.8-2.9s0,0,.1,0c5.2,0,9.3-4.4,9.1-9.5l14.2-14.6c.4-.4,1-.4,1.4-.4.9.1,1.9.8,2.3,1.6,0,.3-.4,1.4-2.5,4.4-1.5,2.2-3.5,4.6-5,6.6-1.5,1.9-2.4,3-2.8,3.7-1.3,2.2-4.2,11-4.2,12.4h0ZM3,54.8c0,3.3,2.7,6,6,6s6-2.7,6-6-2.7-6-6-6-6,2.7-6,6ZM12.2,41.1h14.6l3.3-3.4c1-1.1,2.5-1.5,4.1-1.3,1.9.3,3.7,1.6,4.6,3.2.2.4.4.9.3,1.4h4v-9.5h-1.6c-3.2,0-5.9-2.6-5.9-5.9s2.6-5.9,5.9-5.9h1.6v-9.5h-9.5v1.6c0,3.2-2.6,5.9-5.9,5.9s-5.9-2.6-5.9-5.9v-1.6h-9.5v30.8ZM49.6,52.5c3.3,0,6,2.7,6,6s-.6,2.9-1.5,3.9c-1.6,1.2-3,1.8-4.4,1.8h0c-1.7,0-3.4-.8-5.4-2.6-.5-.9-.9-2-.9-3.1,0-3.3,2.7-6,6-6h0ZM57.1,41.1h4c0-.5,0-1,.3-1.4.9-1.7,2.6-2.9,4.6-3.2,1.6-.2,3,.2,4.1,1.3l3.3,3.4h14.6V10.3h-11.1c-.8,0-1.5-.7-1.5-1.5v-3.2c0-1.6-1.3-2.8-2.8-2.8s-2.8,1.3-2.8,2.8v3.2c0,.8-.7,1.5-1.5,1.5h-11.1v11.1c0,.8-.7,1.5-1.5,1.5h-3.2c-1.6,0-2.8,1.3-2.8,2.8s1.3,2.8,2.8,2.8h3.2c.8,0,1.5.7,1.5,1.5v11.1ZM90.9,48.8c-3.3,0-6,2.7-6,6s2.7,6,6,6,6-2.7,6-6-2.7-6-6-6h0ZM96.3,64.7l-1.6-1.6c3.1-1.4,5.3-4.6,5.3-8.2s-4.1-9.1-9.1-9.1-6.6,2.1-8.1,5l-6.5-6.6h13.2c.8,0,1.5-.7,1.5-1.5V8.8c0-.8-.7-1.5-1.5-1.5h-11.1v-1.6c0-3.2-2.6-5.9-5.9-5.9s-5.9,2.6-5.9,5.9v1.6h-11.1c-.8,0-1.5.7-1.5,1.5v11.1h-1.6c-3.2,0-5.9,2.6-5.9,5.9s2.6,5.9,5.9,5.9h1.6v11.1c0,.8.7,1.5,1.5,1.5h6.6c.8,1.4,1.9,3,3.5,5.2l-7,8.6c-.3-4.7-4.3-8.5-9.1-8.5s-8.4,3.5-9,7.9l-6.4-7.8c1.7-2.3,2.9-4,3.7-5.5h6.6c.8,0,1.5-.7,1.5-1.5v-12.6c0-.8-.7-1.5-1.5-1.5h-3.2c-1.6,0-2.8-1.3-2.8-2.8s1.3-2.8,2.8-2.8h3.2c.8,0,1.5-.7,1.5-1.5v-12.6c0-.8-.7-1.5-1.5-1.5h-12.6c-.8,0-1.5.7-1.5,1.5v3.2c0,1.6-1.3,2.8-2.8,2.8s-2.8-1.3-2.8-2.8v-3.2c0-.8-.7-1.5-1.5-1.5h-12.6c-.8,0-1.5.7-1.5,1.5v33.9c0,.8.7,1.5,1.5,1.5h13.2l-6.6,6.8c-1.5-3.1-4.6-5.2-8.2-5.2S0,49.8,0,54.8s2.2,6.9,5.4,8.3l-1.5,1.6c-1.8,1.9-3.7,3.8-3.7,6.9v24.4c0,2.3,1.9,4.2,4.2,4.2h16c2.3,0,4.2-1.9,4.2-4.2v-27.9c.1-.9,1.5-5.4,2.7-8.5,2.4,3.7,4.8,7.2,6,9,.5.7.8,1.2.9,1.4,1.1,1.6,3.3,8,3.5,9.1v17.4c0,2.1,1.8,3.8,4.1,3.8h16.2c2.2,0,4.1-1.7,4.1-3.8v-17.4c.2-1.1,2.4-7.5,3.5-9.1.1-.2.4-.6.8-1.2,1.3-2,3.8-5.7,6.4-9.7,1.2,3,2.8,8,2.9,9v27.9c0,2.3,1.9,4.2,4.2,4.2h16c2.3,0,4.2-1.9,4.2-4.2v-24.4c0-3.1-1.9-5-3.7-6.9h0Z"/>
</svg>