<?xml version="1.0" encoding="UTF-8"?>
<svg id="Layer_1" data-name="Layer 1" xmlns="http://www.w3.org/2000/svg" viewBox="0 0 100 100">
  <path d="M94.26,41.83h-.62v-14.92c0-3.3-2.69-5.99-5.99-5.99h-16.81c-.69,0-1.24.56-1.24,1.24s.56,1.24,1.24,1.24h16.81c1.93,0,3.5,1.57,3.5,3.5v14.92h-17.22c-3.17,0-5.74,2.58-5.74,5.74v19.01H24.94v-9.99c0-2.59-2.1-4.69-4.69-4.69h-11.78v-25c0-1.93,1.57-3.5,3.5-3.5h16.81c.69,0,1.24-.56,1.24-1.24s-.56-1.24-1.24-1.24H11.96c-3.3,0-5.99,2.69-5.99,5.99v25h-1.29c-2.59,0-4.69,2.1-4.69,4.69v28.52c0,2.59,2.1,4.69,4.69,4.69h15.56c2.59,0,4.69-2.1,4.69-4.69v-6.56h15.2l-1.3,4.42h-3.59c-.69,0-1.24.56-1.24,1.24v4.86c0,.69.56,1.24,1.24,1.24h29.13c.69,0,1.24-.56,1.24-1.24v-4.86c0-.69-.56-1.24-1.24-1.24h-3.8l-1.3-4.42h8.91v6.28c0,3.17,2.58,5.74,5.74,5.74h20.33c3.17,0,5.74-2.58,5.74-5.74v-37.27c0-3.17-2.58-5.74-5.74-5.74h0ZM15.4,54.39l-.79,2.38h-4.3l-.74-2.38h5.83ZM22.45,85.11c0,1.21-.99,2.2-2.2,2.2H4.69c-1.21,0-2.2-.99-2.2-2.2v-28.52c0-1.21.99-2.2,2.2-2.2h2.27l1.25,4c.16.52.64.87,1.19.87h6.12c.54,0,1.01-.34,1.18-.85l1.32-4.02h2.23c1.21,0,2.2.99,2.2,2.2v28.52ZM63.13,87.84h-26.64v-2.37h26.64v2.37h0ZM57.98,82.98h-16.55l1.3-4.42h13.94l1.3,4.42ZM24.94,76.07v-7h43.25v7H24.94ZM87.27,44.32l-.88,2.77h-4.56l-.84-2.77h6.29ZM97.51,84.84c0,1.79-1.46,3.25-3.25,3.25h-20.33c-1.79,0-3.25-1.46-3.25-3.25v-37.27c0-1.79,1.46-3.25,3.25-3.25h4.45l1.33,4.37c.16.52.64.88,1.19.88h6.4c.54,0,1.02-.35,1.18-.87l1.4-4.39h4.38c1.79,0,3.25,1.46,3.25,3.25v37.27ZM89.21,84.16c0,.69-.56,1.24-1.24,1.24h-7.73c-.69,0-1.24-.56-1.24-1.24s.56-1.24,1.24-1.24h7.73c.69,0,1.24.56,1.24,1.24ZM52.95,72.57c0,.69-.56,1.24-1.24,1.24h-3.8c-.69,0-1.24-.56-1.24-1.24s.56-1.24,1.24-1.24h3.8c.69,0,1.24.56,1.24,1.24ZM16.67,84.6c0,.69-.56,1.24-1.24,1.24h-5.92c-.69,0-1.24-.56-1.24-1.24s.56-1.24,1.24-1.24h5.92c.68,0,1.24.56,1.24,1.24ZM32.18,17.98c-.46-.51-.43-1.29.08-1.76,4.81-4.38,11.04-6.8,17.55-6.8s12.74,2.41,17.55,6.8c.51.46.54,1.25.08,1.76-.24.27-.58.41-.92.41-.3,0-.6-.11-.84-.33-4.35-3.96-9.98-6.15-15.87-6.15s-11.52,2.18-15.87,6.15c-.51.46-1.3.43-1.76-.08h0ZM60.89,23.32c-3.03-2.77-6.97-4.29-11.08-4.29s-8.05,1.52-11.08,4.29c-.24.22-.54.33-.84.33-.34,0-.67-.14-.92-.41-.46-.51-.43-1.29.08-1.76,3.49-3.19,8.02-4.94,12.76-4.94s9.26,1.76,12.76,4.94c.51.46.54,1.25.08,1.76s-1.25.54-1.76.08h0ZM56.1,28.57c-1.72-1.57-3.95-2.44-6.29-2.44s-4.57.87-6.29,2.44c-.51.46-1.29.43-1.76-.08-.46-.51-.43-1.29.08-1.76,2.18-1.99,5.01-3.09,7.96-3.09s5.78,1.1,7.96,3.09c.51.46.54,1.25.08,1.76-.24.27-.58.41-.92.41-.3,0-.6-.11-.84-.33h0ZM45.1,35.47c0,2.6,2.11,4.71,4.71,4.71s4.71-2.11,4.71-4.71-2.11-4.71-4.71-4.71-4.71,2.11-4.71,4.71h0ZM52.03,35.47c0,1.23-1,2.22-2.22,2.22s-2.22-1-2.22-2.22,1-2.22,2.22-2.22,2.22,1,2.22,2.22Z"/>
</svg>