<?xml version="1.0" encoding="UTF-8"?>
<svg id="Layer_1" data-name="Layer 1" xmlns="http://www.w3.org/2000/svg" viewBox="0 0 120 120">
  <defs>
    <style>
      .cls-1 {
        fill: #afa5ff;
      }

      .cls-2 {
        fill: #2e1c6a;
      }
    </style>
  </defs>
  <circle class="cls-1" cx="75.13" cy="75.13" r="44.87"/>
  <g id="surface1">
    <g>
      <path class="cls-2" d="M68.54,43.53v-19.03c0-.54-.25-1.05-.61-1.45L46.59.65c-.4-.42-.97-.65-1.53-.65H11.23C4.99,0,0,5.09,0,11.34v63.97c0,6.25,4.99,11.25,11.23,11.25h26.7c5.05,8.39,14.23,14,24.69,14,15.89,0,28.86-12.91,28.86-28.82.02-13.89-9.95-25.51-22.95-28.21h0ZM47.16,7.36l14.32,15.07h-9.29c-2.77,0-5.03-2.28-5.03-5.05,0,0,0-10.02,0-10.02ZM11.23,82.37c-3.92,0-7.04-3.14-7.04-7.06V11.34c0-3.94,3.12-7.15,7.04-7.15h31.73v13.18c0,5.09,4.13,9.24,9.22,9.24h12.16v16.37c-.63-.02-1.13-.09-1.67-.09-7.31,0-14.05,2.81-19.12,7.21h-26.61c-1.15,0-2.1.94-2.1,2.1s.94,2.1,2.1,2.1h22.72c-1.49,2.1-2.73,4.19-3.69,6.5h-19.03c-1.15,0-2.1.94-2.1,2.1s.94,2.1,2.1,2.1h17.67c-.52,2.1-.79,4.42-.79,6.75,0,3.77.73,7.51,2.05,10.65H11.23v-.02h0ZM62.65,96.39c-13.58,0-24.63-11.05-24.63-24.63s11.03-24.63,24.63-24.63,24.63,11.05,24.63,24.63-11.05,24.63-24.63,24.63Z"/>
      <path class="cls-2" d="M16.94,43.8h21.23c1.15,0,2.1-.95,2.1-2.1s-.94-2.1-2.1-2.1h-21.23c-1.15,0-2.1.94-2.1,2.1s.94,2.1,2.1,2.1Z"/>
      <path class="cls-2" d="M73.38,71.32l-8.61,9.29v-22.89c0-1.15-.95-2.1-2.1-2.1s-2.1.94-2.1,2.1v22.89l-8.68-9.29c-.79-.84-2.14-.9-2.98-.11s-.9,2.12-.11,2.96l12.26,13.18c.4.42.94.67,1.53.67s1.13-.25,1.53-.67l12.28-13.18c.79-.84.75-2.18-.09-2.96-.86-.79-2.16-.73-2.96.11h.01Z"/>
    </g>
  </g>
</svg>