<svg width="92" height="24" viewBox="0 0 92 24" fill="none" xmlns="http://www.w3.org/2000/svg">
<g id="Group">
<path id="Vector" d="M28.1156 9.96C29.1756 9.96 30.02 9.10517 30.02 8.07224C30.02 7.03932 29.1576 6.18449 28.1156 6.18449C27.0557 6.18449 26.2113 7.03932 26.2113 8.07224C26.2113 9.10517 27.0737 9.96 28.1156 9.96ZM91.03 16.4069C90.7426 16.211 90.509 16.1754 90.3294 16.5672C87.1315 23.4414 81.724 20.0043 82.2629 20.3071C83.4666 19.7728 86.6105 17.2617 86.1255 13.8068C85.838 11.6875 84.0056 10.7614 82.0653 11.0998C78.6699 11.6875 77.4303 15.3027 78.0591 18.5083C78.1669 19.0604 78.3645 19.5056 78.5621 19.9509C74.7355 23.0318 73.2085 17.1905 73.0468 16.4959C73.0468 16.4603 76.011 14.0027 76.8195 8.1791C77.6818 2.0706 75.7236 0.948626 73.7115 0.984244C69.9927 1.05548 68.9866 8.7668 70.334 15.1781C70.2262 15.2137 69.6873 15.4986 68.8429 15.5342C68.2321 13.6287 65.6271 11.9724 64.9444 12.6136C63.2377 14.2164 65.3576 17.3508 66.8487 17.6001C65.9505 23.0675 60.3633 21.714 61.4053 14.8575C63.2198 11.5094 64.6211 6.50505 64.3695 3.49532C64.2797 2.42678 63.4892 1.00205 61.6927 1.07329C58.2254 1.21576 57.8482 8.92708 58.2614 14.3945C58.2434 14.252 58.0458 15.0534 56.6265 15.463C56.2852 13.6109 53.285 11.7587 52.5843 12.6492C51.2549 14.3232 53.5545 17.2795 54.6324 17.4932C53.7341 22.9606 48.1469 21.6071 49.1889 14.7506C51.0034 11.4025 52.4047 6.39819 52.1532 3.38846C52.0633 2.31992 51.2729 0.895201 49.4763 0.966437C46.009 1.10891 45.6318 8.82022 46.045 14.2876C46.027 14.1451 45.8294 14.9822 44.3562 15.374C44.3023 12.9875 41.3021 11.8834 40.5835 12.6492C39.29 14.0027 40.871 16.7987 42.3441 17.4932C41.4459 22.9606 35.8587 21.6071 36.9007 14.7506C38.7151 11.4025 40.1164 6.39819 39.8649 3.38846C39.7751 2.31992 38.9846 0.895201 37.1881 0.966437C33.7208 1.10891 33.4513 9.19421 33.8466 14.6794C32.7147 19.5235 28.8881 25.5607 29.3732 13.4506C29.4271 12.5957 29.481 12.2752 29.0498 11.9546C28.7265 11.7053 28.0079 11.83 27.6126 11.83C27.1276 11.8478 27.0018 12.1327 26.894 12.5601C26.6425 13.6465 26.6066 14.715 26.5706 16.1575C26.5527 16.8343 26.4988 17.1549 26.2293 18.0809C25.9598 19.007 24.4687 20.6989 23.6423 20.4139C22.5105 20.0221 22.8698 16.8343 23.0854 14.6438C23.265 12.9163 22.6901 12.1327 21.2349 11.8478C20.3726 11.6697 19.8696 11.7053 18.9713 11.4203C18.127 11.1532 17.9473 9.58601 16.1508 10.1025C15.1627 10.3874 15.7915 12.4533 15.5579 13.9848C14.3902 21.5003 11.9828 21.714 10.869 18.0631C15.9172 5.8283 12.3242 1.00205 10.2222 1.00205C8.03047 1.00205 5.5333 2.49801 6.59325 12.0437C6.07226 11.9012 5.92854 11.8121 5.35365 11.8121C2.1738 11.8121 0 14.3588 0 17.511C0 20.6632 2.1738 23.2099 5.35365 23.2099C7.24 23.2099 8.55147 22.3551 9.55752 21.055C10.2043 21.9811 10.9947 23.2277 12.4499 23.1743C16.7796 23.014 18.0371 14.2164 18.1808 13.7177C18.6479 13.7889 19.0791 13.9136 19.5103 13.9848C20.2289 14.0917 20.2648 14.3766 20.2648 15.0712C20.0852 21.055 21.199 23.1565 23.7141 23.1565C25.1154 23.1565 26.373 21.7852 27.2353 20.8057C27.8821 22.1236 28.9061 23.1209 30.2894 23.1565C33.631 23.2455 34.9065 17.9563 34.7987 18.6508C34.7089 19.2029 35.8766 23.1209 39.326 23.1387C43.5837 23.1565 44.3922 18.5083 44.482 17.7247C44.5 17.5645 44.5 17.5823 44.482 17.7247C44.482 17.7426 44.482 17.7604 44.482 17.7782C45.8294 17.5288 46.53 16.8165 46.53 16.8165C46.53 16.8165 47.6259 23.2277 51.6501 23.1565C55.836 23.0853 56.6265 18.8823 56.7163 18.0631C56.7343 17.8672 56.7343 17.885 56.7163 18.0631V18.0809C58.3332 17.4932 58.7464 16.9233 58.7464 16.9233C58.7464 16.9233 59.6087 23.2099 63.8665 23.2634C67.6572 23.3168 69.0585 19.47 69.0585 17.8494C69.7052 17.8494 70.873 17.4754 70.855 17.4576C70.855 17.4576 72.2383 22.9428 76.1188 23.2277C77.9333 23.3524 79.2987 22.2126 80.0891 21.6962C81.9216 23.1565 88.0118 25.0443 91.8564 18.5796C92.3954 17.6535 91.2276 16.5672 91.03 16.4069ZM5.20993 21.1085C3.3595 21.1085 2.15583 19.3988 2.15583 17.5645C2.15583 15.7301 3.25171 14.0205 5.10214 14.0205C5.9465 14.0205 6.39563 14.1095 7.06035 14.6794C7.18611 15.1424 7.50948 16.211 7.67117 16.6918C7.88675 17.3329 8.15623 17.885 8.40774 18.4905C8.04844 20.0221 6.8268 21.1085 5.20993 21.1085ZM9.73717 14.7328C9.66531 14.6082 9.68328 14.6794 9.59345 14.5725C9.25211 13.6465 8.60536 11.5984 8.51554 9.28326C8.42571 6.64752 8.87484 3.56656 10.1863 3.56656C11.0666 3.56656 12.0008 9.81753 9.73717 14.7328ZM35.8946 11.9902C35.679 10.423 35.679 3.4597 37.3678 3.6556C38.284 4.02959 36.7749 10.6011 35.8946 11.9902ZM48.2008 11.9902C47.9852 10.423 47.9852 3.4597 49.674 3.6556C50.6082 4.02959 49.0811 10.6011 48.2008 11.9902ZM60.4352 12.0971C60.2196 10.5299 60.2196 3.56656 61.9083 3.76246C62.8245 4.13645 61.2975 10.708 60.4352 12.0971ZM73.9271 3.24599C75.4721 3.08571 75.4002 9.7641 72.3102 13.9848C71.897 12.4533 71.2862 3.78027 73.9271 3.24599ZM80.3946 17.6179C79.8915 15.1424 81.185 13.504 82.4965 13.3259C82.9636 13.2547 83.6283 13.5574 83.7541 14.1095C83.9697 15.1602 83.7181 16.6918 80.7718 18.6686C80.7898 18.6686 80.5023 18.17 80.3946 17.6179Z" fill="#EA4C89"/>
</g>
</svg>
