<?xml version="1.0" encoding="UTF-8"?>
<svg id="Layer_1" data-name="Layer 1" xmlns="http://www.w3.org/2000/svg" viewBox="0 0 500 500">
  <defs>
    <style>
      .cls-1 {
        fill: #673ddb;
        fill-rule: evenodd;
      }
    </style>
  </defs>
  <path class="cls-1" d="M495.51,219.44l-10.95-9.69c-3.09-2.73-7.86-2.42-10.67.73-2.81,3.2-2.53,7.98.56,10.67l11.24,9.72c3.13,2.79,7.9,2.52,10.67-.73,2.81-3.12,2.53-7.98-.84-10.7ZM479.5,120.79c1.69,0,3.65-.59,5.06-1.8l10.95-9.72c3.37-2.73,3.65-7.56.84-10.7-2.81-3.12-7.58-3.43-10.67-.7l-11.24,9.69c-5.03,4.38-2.05,13.23,5.06,13.23h0ZM479.5,171.99h12.92c4.21,0,7.58-3.43,7.58-7.58s-3.37-7.56-7.58-7.56h-12.92c-4.21,0-7.58,3.31-7.58,7.56s3.37,7.58,7.58,7.58ZM226.97,434.55h29.21c4.21,0,7.58-3.34,7.58-7.58s-3.37-7.58-7.58-7.58h-29.21c-4.21,0-7.58,3.43-7.58,7.58s3.37,7.58,7.58,7.58ZM442.7,121.6c-4.21,2.84-8.99,5.45-13.48,7.98v69.58c4.49,2.53,9.27,5.25,13.48,7.98v-85.53ZM366.57,192.28c-3.93-1.01-7.86-1.91-12.08-2.73l-5.06,35.56c-.56,4.75-2.81,8.68-6.74,11.49-3.65,2.84-8.43,3.96-12.92,3.26l-21.07-3.46c-1.69-.31-3.09-.9-4.21-1.91-13.76-13.03-26.4-20.31-39.04-22.72-1.69-.08-3.37-.28-5.06-.7-27.53-2.33-59.83,14.63-88.2,29.61-3.93,2.19-8.15,4.33-12.08,6.35-2.53,1.32-6.18,4.13-7.86,12.81l-15.17,81.01c-.45,4.8,7.45,11.14,12.08-1.63l22.19-63.71c.84-2.33,2.81-4.16,5.34-4.75l29.49-8.17c5.73-1.54,11.37,3.93,8.99,9.97l-45.51,121.29h91.29l26.69-128.26c.56-3.62,3.93-6.15,7.58-6.07l46.35,1.74c9.27.39,19.94-7.28,21.07-15.17,1.69-11.8,2.25-23.12,2.81-35.22.56-6.07.84-12.33,1.12-18.59h0ZM377.81,246.21c6.18,1.32,10.39,6.66,10.39,13.03v134.61h-111.8l24.72-118.85,39.89,1.4c15.17.62,33.99-11.32,36.52-28.06.28-.73.28-1.43.28-2.13h0ZM424.44,408.99c-5.62,21.01-20.51,36.04-36.8,36.04H95.23c-16.29,0-30.9-15.03-36.52-36.04h365.73ZM23.88,445.03c-4.78,0-8.71-3.93-8.71-8.79V159.35c0-4.83,3.93-8.68,8.71-8.68h20.79l2.25,6.97c2.81,8.4,10.39,13.96,19.38,13.96h27.25c8.99,0,16.57-5.56,19.38-13.96l2.25-6.97h20.79c4.78,0,8.71,3.85,8.71,8.68v71.4h-36.52c-15.73,0-28.65,12.72-28.65,28.48v134.61h-30.06c-4.84,0-8.12,4.62-7.58,8.6,2.53,17.36,9.55,32.3,19.66,42.58H23.88ZM60.67,150.67l.56,2.33c.84,2.13,2.53,3.43,5.06,3.43h27.25c4.16,0,4.9-2.99,5.9-5.76h-38.76ZM121.91,339.52c-.55,11.66,8.09,22.3,20.22,22.3,5.62,0,16.01-2.22,21.35-17.56l21.07-60,11.24-3.12-42.42,112.7h-58.71v-134.61c0-7.39,6.18-13.34,13.48-13.34h32.87c-1.4,3.23-2.81,6.88-3.65,11.12l-15.45,81.57v.93ZM267.42,196.74c-1.4-.22-3.09-.42-4.78-.62-11.52-2.73-20.23-13.23-20.23-25.76,0-14.63,11.8-26.46,26.4-26.46s26.4,11.83,26.4,26.46-12.08,26.46-26.4,26.46c-.56,0-1.12,0-1.4-.08h0ZM87.36,135.53v-59.47c0-11.63,9.55-21.12,21.35-21.12h218.82c11.8,0,21.07,9.49,21.07,21.12v64.33c-3.93.7-8.15,1.4-12.36,2.11-8.71,1.21-15.17,8.99-15.17,18.29v7.16c0,9.3,6.46,17.08,15.17,18.37,1.12.11,2.25.31,3.37.51l-5.06,36.26c-.07,1.06-1.01,2.01-2.53,1.71l-18.82-3.03c-7.58-6.85-14.89-12.3-22.19-16.35,11.52-7.39,19.38-20.39,19.38-35.06,0-23.01-18.82-41.6-41.57-41.6s-41.57,18.59-41.57,41.6c0,10.31,3.65,19.8,10.11,27.16-24.72,4.66-49.44,17.78-72.19,29.69-1.69,1.01-3.65,2.02-5.62,2.92v-70.79c0-13.12-10.67-23.82-23.6-23.82h-48.6ZM414.05,191.99c-21.91-9.41-47.47-16.46-75.56-20.7-1.4-.2-2.25-1.63-2.25-3.34v-7.16c0-1.71.84-3.15,2.25-3.34,28.09-4.13,53.65-11.21,75.56-20.59v55.14ZM457.87,106.85v115.11c0,6.27-7.27,9.91-12.36,5.87-16.01-12.92-37.92-23.74-63.76-31.52-1.26,11.6-1.24,22.93-2.25,34.75,13.48,2.22,23.88,14.02,23.88,28.17v134.61h30.06c4.78,0,8.2,3.82,7.58,8.6-4.49,33.4-26.97,57.75-53.37,57.75H23.88c-12.92,0-23.88-10.7-23.88-23.96V159.35c0-13.12,10.95-23.82,23.88-23.82h48.31v-59.47c0-20,16.29-36.26,36.52-36.26h218.82c19.94,0,36.24,16.26,36.24,36.26v61.1c33.71-7.89,62.36-20.42,81.74-36.26,4.82-3.93,12.36-.6,12.36,5.96h0ZM185.67,77.28c0,4.13,3.37,7.56,7.58,7.56h49.72c4.21,0,7.58-3.43,7.58-7.56s-3.37-7.58-7.58-7.58h-49.72c-4.21,0-7.58,3.34-7.58,7.58Z"/>
</svg>