<?xml version="1.0" encoding="UTF-8"?>
<svg id="Layer_1" data-name="Layer 1" xmlns="http://www.w3.org/2000/svg" viewBox="0 0 120 120">
  <defs>
    <style>
      .cls-1 {
        fill: #cec9f4;
      }

      .cls-2 {
        fill: #2e1c6a;
      }
    </style>
  </defs>
  <circle class="cls-1" cx="75.23" cy="75.22" r="44.77"/>
  <g>
    <path class="cls-2" d="M7.05,21.93c.8,0,1.45-.65,1.45-1.45v-.4c0-.8-.65-1.45-1.45-1.45s-1.45.65-1.45,1.45v.4c0,.8.65,1.45,1.45,1.45Z"/>
    <path class="cls-2" d="M5.6,42.86c0,.8.65,1.45,1.45,1.45s1.45-.65,1.45-1.45v-18.38c0-.8-.65-1.45-1.45-1.45s-1.45.65-1.45,1.45v18.38Z"/>
    <path class="cls-2" d="M11.79,65.84v.08c.04.75.74,1.37,1.55,1.37h12.89c.79,0,1.44-.64,1.45-1.44v-2.12c0-.8-.65-1.45-1.45-1.45s-1.45.65-1.45,1.45v.66h-10.09v-9.89h9.29c.8,0,1.45-.65,1.45-1.45s-.65-1.45-1.45-1.45h-10.64c-.74,0-1.54.52-1.54,1.35v12.89Z"/>
    <path class="cls-2" d="M20.33,57.52c-.56-.57-1.48-.57-2.05-.02-.57.56-.57,1.48,0,2.07l2.41,2.41c.28.28.65.43,1.02.43.33,0,.66-.11.93-.34l5.63-4.72c.61-.51.7-1.43.18-2.04-.51-.61-1.43-.7-2.04-.18l-.53.44h0l-4.09,3.43-1.48-1.48Z"/>
    <path class="cls-2" d="M33.73,57.89h17.87c.8,0,1.45-.65,1.45-1.45s-.65-1.45-1.45-1.45h-17.87c-.8,0-1.45.65-1.45,1.45s.65,1.45,1.45,1.45Z"/>
    <path class="cls-2" d="M33.73,63.69h27.1c.8,0,1.45-.65,1.45-1.45s-.65-1.45-1.45-1.45h-27.1c-.8,0-1.45.65-1.45,1.45s.65,1.45,1.45,1.45Z"/>
    <path class="cls-2" d="M26.23,74.38h-12.98c-.8,0-1.45.65-1.45,1.45v12.99c0,.8.65,1.45,1.45,1.45h12.98c.8,0,1.45-.65,1.45-1.45v-12.99c0-.8-.65-1.45-1.45-1.45ZM14.69,87.37v-10.09h10.09v10.09h-10.09Z"/>
    <path class="cls-2" d="M33.73,80.87h17.87c.8,0,1.45-.65,1.45-1.45s-.65-1.45-1.45-1.45h-17.87c-.8,0-1.45.65-1.45,1.45s.65,1.45,1.45,1.45Z"/>
    <path class="cls-2" d="M23.98,28.82h-10.65c-.83.04-1.49.69-1.53,1.53v12.89c0,.78.72,1.46,1.54,1.46h12.89c.8,0,1.45-.65,1.45-1.46v-2.12c0-.8-.65-1.45-1.45-1.45s-1.45.65-1.45,1.45v.69h-10.09v-10.09h9.29c.8,0,1.45-.65,1.45-1.45s-.65-1.45-1.45-1.45Z"/>
    <path class="cls-2" d="M28.46,32.71c-.25-.3-.6-.48-.98-.51-.38-.03-.77.09-1.06.34l-4.61,3.87-1.48-1.48c-.57-.55-1.49-.54-2.05.02-.55.56-.55,1.46,0,2.02l2.41,2.41c.28.28.65.43,1.02.43.33,0,.66-.11.93-.34l5.63-4.72c.3-.25.48-.59.51-.98.02-.23-.01-.45-.09-.65h.1l-.34-.41Z"/>
    <path class="cls-2" d="M33.73,35.31h17.87c.8,0,1.45-.65,1.45-1.45s-.65-1.45-1.45-1.45h-17.87c-.8,0-1.45.65-1.45,1.45s.65,1.45,1.45,1.45Z"/>
    <path class="cls-2" d="M33.73,41.11h27.1c.8,0,1.45-.65,1.45-1.45s-.65-1.45-1.45-1.45h-27.1c-.8,0-1.45.65-1.45,1.45s.65,1.45,1.45,1.45Z"/>
    <path class="cls-2" d="M93.42,49.31c-1.45-1.45-3.38-2.25-5.42-2.25s-3.98.8-5.42,2.25l-.43.43h.02l-7.93,7.92V18.02c0-1.98-.78-3.83-2.19-5.23-1.4-1.39-3.25-2.15-5.24-2.15h-1.76v-2.88c0-4.21-3.43-7.64-7.64-7.64s-7.64,3.43-7.64,7.64v2.88h-25.48v-2.99c0-4.21-3.43-7.64-7.64-7.64s-7.64,3.43-7.64,7.64v2.99h-1.61C3.33,10.63.02,13.94.02,18.01v6.86c0,.8.65,1.45,1.45,1.45s1.45-.65,1.45-1.45v-6.86c0-2.47,2.01-4.49,4.49-4.49h1.61v3.66c0,.81.64,1.49,1.48,1.54h12.3c.82-.04,1.48-.71,1.5-1.54v-3.66h25.48v3.66c0,.83.65,1.54,1.42,1.54h12.52c.84,0,1.35-.78,1.35-1.54v-3.66h1.74s.03,0,.05,0c1.19,0,2.31.46,3.15,1.29.86.84,1.34,1.97,1.35,3.2v42.53l-16.87,16.84c-.15.15-.26.32-.34.53l-2.13,5.85h-18.26c-.8,0-1.45.65-1.45,1.45s.65,1.45,1.45,1.45h17.21l-1.89,5.18c-.27.75.12,1.58.86,1.86.32.12.67.12.99,0l13.93-5.07c.2-.07.38-.19.53-.34l5.97-5.99v11.11c0,2.51-2.04,4.55-4.55,4.55H7.38c-2.47,0-4.48-2.01-4.48-4.48v-60.21c0-.8-.65-1.45-1.45-1.45s-1.45.65-1.45,1.45v60.21c0,4.07,3.31,7.38,7.38,7.38h59.4c4.1-.01,7.44-3.35,7.45-7.45v-14l19.2-19.24c2.99-2.99,2.99-7.86,0-10.85ZM54.78,89.21l-1.94.71.71-1.94,1.24,1.24ZM91.38,58.12l-3.05,3.06-6.76-6.76,3.06-3.05c.9-.89,2.09-1.38,3.36-1.38h.03c1.28,0,2.47.51,3.37,1.41,1.84,1.85,1.84,4.87,0,6.72ZM86.27,63.23l-21.94,21.98-2.34-2.34,21.96-21.97,2.32,2.33ZM61.71,86.68l-3.93,1.43-3.14-3.14,1.43-3.93,5.64,5.64ZM57.54,78.41l21.99-21.94,2.38,2.39-21.96,21.97-2.41-2.41ZM62.14,7.75v8.08h-9.49V7.75c0-2.62,2.13-4.74,4.74-4.74s4.74,2.13,4.74,4.74ZM11.89,15.83V7.64c0-2.62,2.13-4.74,4.74-4.74s4.74,2.13,4.74,4.74v8.19h-9.49Z"/>
  </g>
</svg>