<?xml version="1.0" encoding="UTF-8"?>
<svg id="Layer_1" data-name="Layer 1" xmlns="http://www.w3.org/2000/svg" viewBox="0 0 100 100">
  <path d="M76.4,59.06h-36.1l19.94-11.11c2.08-1.17,2.84-3.81,1.68-5.9l-2.97-5.33c-1.17-2.09-3.82-2.84-5.9-1.67l-8.3,4.62c.98-1.96,1.58-3.88,1.81-5.74.37-3.1-.33-5.91-2.04-8.1-2.77-3.57-7.62-4.76-11.78-2.89-.74.33-1.07,1.2-.74,1.94.33.74,1.2,1.07,1.94.74,2.93-1.31,6.32-.49,8.27,2.01,2.79,3.59,1.72,9.2-2.85,15.05l-1.77.99-1.28-2.29c-.33-.59-.76-1.11-1.26-1.53.31-1.86,1.18-4.27,2.14-5.85.42-.69.2-1.59-.49-2.01-.69-.42-1.59-.2-2.01.49-1.03,1.69-1.93,4.04-2.38,6.12-1.23-.2-2.47.02-3.57.63l-.51.28c-.2-4.23.45-7.76,1.93-10.32.41-.7.17-1.6-.53-2-.7-.4-1.6-.17-2,.53-1.96,3.39-2.71,7.88-2.23,13.36l-1.77.99c-7.47-5.56-14.79-6.69-19.69-3.01-3.55,2.66-4.89,7.38-3.25,11.47,1.67,4.17,5.84,6.71,11.6,7.24l-8.49,4.73c-2.08,1.16-2.83,3.81-1.67,5.89l2.97,5.33c.79,1.42,2.27,2.22,3.8,2.22.71,0,1.44-.18,2.1-.55,0,0,0,0,0,0l9.57-5.33v23.86c0,2.87,2.33,5.2,5.2,5.2h48.99c2.87,0,5.2-2.33,5.2-5.2v-31.31c0-1.96-1.6-3.55-3.56-3.55h0ZM27.59,62.79l-4.34-7.79,13.22-7.37,4.34,7.78-6.61,3.68c-.24.06-.45.18-.62.35l-5.99,3.34ZM54.48,37.6c.22-.12.45-.18.68-.18.49,0,.97.26,1.23.72l2.97,5.33c.38.68.13,1.54-.55,1.92l-15.46,8.61-4.34-7.78,15.46-8.61ZM30.17,41.77c.39-.22.83-.33,1.27-.33.24,0,.49.03.73.1.68.19,1.24.64,1.58,1.25l1.28,2.29-13.22,7.37-1.28-2.3c-.25-.45-.36-.96-.32-1.47,0-.01,0-.03,0-.04.02-.16.04-.32.09-.48.19-.68.64-1.24,1.25-1.58l8.62-4.81ZM3.41,49.43c-1.14-2.86-.2-6.16,2.29-8.03,3.59-2.69,9.14-1.84,15.11,2.25l-.68.38c-1.08.6-1.91,1.52-2.39,2.64-1.93-.61-3.67-.94-6.16-1.22-.8-.09-1.53.49-1.62,1.3-.09.8.49,1.53,1.3,1.62,2.74.3,4.35.67,6.06,1.25.09.69.31,1.36.66,1.98l1.28,2.3-1.6.89c-7.27.79-12.59-1.19-14.25-5.34h0ZM9.57,72.84c-.67.37-1.55.12-1.92-.54l-2.97-5.33c-.38-.68-.13-1.53.54-1.91l13.55-7.55s.08-.04.12-.07l1.79-1,4.34,7.79-3.69,2.05s-.02,0-.02.01l-11.75,6.55ZM23.49,93.92v-25.49l11.55-6.44h6.75v12.97c0,.81.66,1.46,1.46,1.46s1.46-.66,1.46-1.46v-12.97h11.06v34.2h-11.06v-14.29c0-.81-.66-1.46-1.46-1.46s-1.46.66-1.46,1.46v14.29h-16.03c-1.25,0-2.27-1.02-2.27-2.27h0ZM77.03,93.92c0,1.25-1.02,2.27-2.27,2.27h-16.03v-34.2h17.68c.34,0,.63.29.63.63v31.31Z"/>
  <path d="M71.03,26.24c.02.18,1.88,18.09-4.39,24.89-.55.59-.51,1.52.08,2.07.28.26.64.39.99.39.39,0,.79-.16,1.08-.47,7.16-7.77,5.24-26.4,5.15-27.19-.09-.8-.81-1.38-1.61-1.3-.8.09-1.39.81-1.3,1.61h0Z"/>
  <path d="M84.43,24.06c-2.48,3.79-3.27,7.18-3.3,7.32-.18.79.31,1.57,1.1,1.75.11.03.22.04.33.04.67,0,1.27-.46,1.43-1.14,0-.03.73-3.09,2.95-6.46,2.92-4.43,6.93-7.28,11.93-8.47.79-.19,1.27-.98,1.08-1.76-.19-.79-.98-1.27-1.76-1.08-5.7,1.36-10.46,4.75-13.76,9.8h0Z"/>
  <path d="M54.38,16.02s.01.12,0,.29l-.34,4.26c-.05.45-.15,1.46.68,2.09.84.64,1.83.24,2.26.06l3.91-1.63c.08-.02.27-.03.34,0l3.95,1.64c.25.1.69.28,1.19.28.34,0,.71-.09,1.06-.35.82-.62.73-1.64.68-2.09l-.34-4.26c-.01-.17,0-.26,0-.3l2.84-3.43c.33-.37.98-1.13.67-2.11-.31-.99-1.32-1.24-1.75-1.35l-4.32-1.07-2.27-3.8c-.21-.35-.76-1.29-1.85-1.29h0c-1.08,0-1.64.93-1.85,1.29,0,0,0,0,0,0l-2.26,3.77-.02.03-4.33,1.07c-.43.11-1.44.36-1.75,1.35-.3.98.37,1.76.67,2.11l2.85,3.42ZM57.78,10.87c.98-.24,1.33-.73,1.63-1.24l1.65-2.76,1.67,2.78c.3.51.65.98,1.62,1.22l3.21.8-2.07,2.49c-.68.8-.71,1.69-.65,2.39l.24,2.97-2.71-1.13c-.77-.33-1.81-.33-2.59,0l-2.72,1.13.24-2.97c.05-.63.03-1.55-.65-2.37l-2.08-2.5,3.21-.8Z"/>
  <path d="M99.25,46.27c.31-.35.98-1.13.68-2.11-.31-1-1.32-1.25-1.75-1.36l-4.32-1.07-2.28-3.8c-.21-.35-.77-1.29-1.85-1.29h0c-1.08,0-1.64.93-1.85,1.29l-2.26,3.76-.02.04-4.32,1.07c-.43.11-1.45.36-1.75,1.36-.3.98.37,1.76.68,2.11l2.84,3.42s0,.12,0,.29l-.35,4.26c-.05.45-.14,1.47.69,2.09.84.63,1.82.23,2.25.06l3.92-1.63c.08-.03.28-.03.34,0l3.94,1.64c.25.1.69.28,1.19.28.34,0,.71-.09,1.05-.34.83-.62.73-1.64.69-2.09l-.34-4.25c-.01-.17,0-.26,0-.3l2.84-3.42ZM94.14,47.83c-.68.8-.71,1.69-.65,2.39l.24,2.97-2.72-1.13c-.77-.32-1.81-.32-2.59,0l-2.72,1.13.24-2.97c.05-.69.02-1.58-.65-2.37l-2.08-2.5,3.21-.8c.97-.24,1.32-.72,1.62-1.24l1.66-2.76,1.6,2.66.06.1c.3.52.65,1,1.62,1.24l3.21.8-2.07,2.49Z"/>
  <path d="M84.37,15.52c4.04,0,7.33-3.28,7.33-7.32s-3.29-7.33-7.33-7.33-7.33,3.29-7.33,7.33,3.29,7.32,7.33,7.32ZM84.37,3.81c2.43,0,4.4,1.97,4.4,4.4s-1.97,4.39-4.4,4.39-4.4-1.97-4.4-4.39c0-2.42,1.97-4.4,4.4-4.4Z"/>
</svg>