<?xml version="1.0" encoding="UTF-8"?>
<svg id="Layer_1" data-name="Layer 1" xmlns="http://www.w3.org/2000/svg" viewBox="0 0 500 500">
  <defs>
    <style>
      .cls-1 {
        fill: #673ddb;
      }
    </style>
  </defs>
  <path class="cls-1" d="M403.38,426c-20.83,18.08-44.5,32.25-69.83,41.92v-34.42c0-1.75.83-3.42,2.25-4.5l19.5-14.42c7.75-5.83,10.92-15.83,7.83-24.92l-11.08-32.75c-.58-1.75-.25-3.83.75-5.17l12.33-16.17c1.83-2.5,5.5-3,8-1.17l37.33,26.33c8.67,6,21.17,5.08,28.83-2.33,3.33-3.25,3.33-8.5.17-11.75s-8.5-3.42-11.75-.17c-2.08,2-5.42,2.17-7.67.67l-37.33-26.33c-10-7.08-23.58-4.92-30.92,4.75l-12.42,16.17c-4.33,5.83-5.58,13.5-3.33,20.5l11.08,32.83c.75,2.33,0,4.75-2,6.25l-19.42,14.33c-5.67,4.17-9.08,10.83-9.08,17.92v40.08c-21.5,6.42-43.92,9.83-66.67,9.83-69.92,0-132.75-31-175.58-79.92l20.75-17.08c12.58-10.33,16-27.42,8.42-41.42l-15.83-29.42c-4-7.42-1.67-16.5,5.67-21.67,9.25-6.5,14.83-16.83,14.83-27.67,0-4.42-.92-8.75-2.67-13l-4.83-11.17c-3-6.92-4.5-14.17-4.5-21.67,0-15.17-4.75-29.67-13.83-42.17-3.5-4.83-6.67-10-9.33-15.33-2.08-4.08-7.08-5.75-11.25-3.67-4.08,2.08-5.75,7.08-3.67,11.25,3.08,6.08,6.67,11.92,10.75,17.5,7,9.58,10.67,20.75,10.67,32.33,0,9.75,2,19.33,5.83,28.33l4.83,11.08c.92,2.08,1.33,4.25,1.33,6.42,0,5.5-2.83,10.58-7.67,14-14.42,10-19,28.17-10.83,43.25l15.83,29.42c3.83,7.08,2.08,15.42-4.42,20.67l-20.75,17.08c-29.58-39.08-47.25-87.83-47.25-140.58s17.33-102.92,50.08-144.33c2.83-3.58,2.25-8.83-1.33-11.75s-8.83-2.25-11.67,1.33C18.37,139.75-.21,193.25-.21,250s20.92,114.08,55.67,157c.17.25.25.5.42.75.17.17.33.25.5.42,45.92,56,115.58,91.83,193.42,91.83,26.75,0,53.08-4.33,78.08-12.5.08,0,.17,0,.25-.08,31.33-10.33,60.5-26.83,85.83-48.83,3.5-3,3.83-8.25.83-11.75-3-3.5-8.33-3.83-11.75-.83h.33Z"/>
  <path class="cls-1" d="M486.71,199.92c-4.5.83-7.58,5.17-6.75,9.67,2.33,13.17,3.5,26.83,3.5,40.5,0,5.58-.25,11.17-.67,16.67h-36.58c-3.42,0-6.58-1.08-9.25-3.25-2.75-2.17-4.67-5.17-5.5-8.75-1-4-2.67-7.58-4.67-10.42-3.17-4.92-7.75-8.83-12.83-11.08-2.42-1.17-5-2-7.58-2.5l-62.25-11.58c-4.42-.83-8.17-4.08-9.83-8.5,0-.17,0-.25-.08-.42-1.58-5-.42-10.33,3.08-13.83l6.75-6.83c5.5-5.67,8.58-13.08,8.58-21.08,0-2.33-.33-4.75-.92-7.33-.75-3.17-.42-6.25,1-9.08,2-4.17.33-9.08-3.83-11.17-4.17-2-9.17-.33-11.17,3.83-3.08,6.25-3.83,13.5-2.25,20.33.25,1.25.42,2.42.42,3.42,0,3.58-1.33,6.92-3.75,9.42l-6.75,6.92c-7.67,7.83-10.42,19.33-7.25,30,0,.25.17.5.25.83,3.5,10.42,12.17,18.08,22.75,20.08l62.33,11.58c1.17.17,2.17.5,3.42,1.17,2.5,1.08,4.58,2.83,6.17,5.42,1,1.42,1.75,3.17,2.25,5.08,1.75,7.08,5.67,13.17,11.25,17.67,5.58,4.58,12.42,6.92,19.67,6.92h34.75c-6.33,44.5-25.08,85.75-54.83,119.83-3,3.5-2.67,8.75.83,11.75,1.58,1.42,3.5,2.08,5.5,2.08,2.33,0,4.67-1,6.25-2.83,34.08-39,54.83-86.83,60.17-138.33.83-8.5,1.33-17.17,1.33-25.83,0-14.58-1.25-29.25-3.83-43.42-.83-4.5-5.17-7.58-9.67-6.75v-.17Z"/>
  <path class="cls-1" d="M82.87,84.08c2.08,0,4.17-.75,5.75-2.33C132.21,39.75,189.54,16.67,250.21,16.67c31.83,0,62.92,6.5,91.67,18.83v15.33c0,1.75-.92,3.33-2.33,4.17l-26.5,15.92c-1.83,1.17-4.33.83-5.92-.75-8.08-8.08-22.33-8.08-30.42,0l-12.42,12.42c-.75.75-1.83,1.33-2.92,1.42l-50.58,6.33c-10.75,1.33-18.83,10.5-18.83,21.42,0,2.75-2.17,4.92-4.92,4.92h-6.25c-1.33,0-2.58-.5-3.5-1.5l-21.75-21.75c-7.25-7.25-18.67-8.33-27.17-2.67l-10,6.75c-6.08,4-9.67,10.67-9.67,17.92v5.17c0,1-.33,2.08-1,2.92-7.08,9.5-10.83,20.75-10.83,32.58,0,13.08,4.75,25.75,13.42,35.75l17,19.5c1.67,1.92,4,2.83,6.25,2.83,1.92,0,3.92-.67,5.5-2.08,3.5-3,3.83-8.33.83-11.75l-17-19.5c-6-6.92-9.33-15.75-9.33-24.83,0-8.25,2.58-16,7.42-22.5,2.83-3.67,4.42-8.33,4.42-13v-5.17c0-1.58.83-3.17,2.25-4.08l10.08-6.75c1.92-1.33,4.5-1,6.17.67l21.75,21.75c4,4,9.58,6.33,15.33,6.33h6.25c11.92,0,21.58-9.67,21.58-21.67,0-2.42,1.83-4.5,4.25-4.83l50.75-6.33c4.75-.67,9.17-2.92,12.42-6.17l12.42-12.42c1.25-1.25,2.67-1.42,3.42-1.42s2.25.17,3.42,1.42c7.08,7.08,18,8.42,26.33,3.25l26.33-15.75c6.5-3.83,10.5-10.92,10.5-18.5v-7.42c6.92,3.67,13.67,7.5,20.25,11.83,3.83,2.58,9,1.5,11.58-2.33s1.5-9-2.33-11.58c-11-7.33-22.58-13.58-34.42-19h-.17C321.38,7.75,286.38,0,250.38,0c-64.92,0-126.42,24.75-173.08,69.75-3.33,3.17-3.42,8.5-.25,11.75,1.67,1.67,3.83,2.58,6,2.58h-.17Z"/>
  <path class="cls-1" d="M154.79,434.83c1.08,0,2.17-.17,3.17-.67,3.92-1.67,7.25-4.33,9.75-7.92l8.5-12.75c1.25-1.92,3.75-2.67,5.83-1.75l18.92,7.58c9.92,3.92,21.08,4.5,31.33,1.58l11.33-3.25c23.25-6.75,38.17-29.75,34.75-53.5l-.33-2.83c-1.17-8.42-4.67-16.5-10.08-23.25-2.83-3.58-8.08-4.17-11.75-1.25-3.58,2.92-4.17,8.08-1.25,11.75,3.5,4.42,5.83,9.67,6.58,15l.33,2.83c2.25,15.67-7.5,30.75-22.83,35.17l-11.33,3.25c-6.75,1.92-14.08,1.5-20.67-1.08l-18.92-7.58c-9.5-3.83-20.42-.42-25.92,8l-8.42,12.67c-.58.83-1.42,1.5-2.33,1.83-4.25,1.75-6.25,6.67-4.5,10.92,1.33,3.17,4.42,5.17,7.67,5.17l.17.08Z"/>
  <path class="cls-1" d="M233.79,196.67c-7.92-3.33-16.42-5-25.25-5-36.75,0-66.67,29.92-66.67,66.67,0,45,58.75,95.83,61.25,98,1.58,1.33,3.5,2,5.42,2s3.83-.67,5.42-2c2.5-2.17,61.25-53,61.25-98,0-13.58-4-26.58-11.67-37.67-2.58-3.83-7.83-4.75-11.58-2.17s-4.75,7.83-2.17,11.58c5.67,8.25,8.67,18,8.67,28.17,0,27.83-32.25,63.83-50,80.42-17.75-16.67-50-52.67-50-80.42s22.42-50,50-50c6.58,0,13,1.25,18.92,3.67,4.25,1.75,9.17-.25,10.92-4.5s-.25-9.17-4.5-10.92v.17Z"/>
  <path class="cls-1" d="M208.54,225c-18.42,0-33.33,14.92-33.33,33.33s14.92,33.33,33.33,33.33,33.33-14.92,33.33-33.33-14.92-33.33-33.33-33.33ZM208.54,275c-9.17,0-16.67-7.5-16.67-16.67s7.5-16.67,16.67-16.67,16.67,7.5,16.67,16.67-7.5,16.67-16.67,16.67Z"/>
  <path class="cls-1" d="M366.88,125c0,45,58.75,95.83,61.25,98,1.58,1.33,3.5,2,5.42,2s3.83-.67,5.42-2c2.5-2.17,61.25-53,61.25-98,0-8.83-1.67-17.33-5-25.25-1.75-4.25-6.67-6.25-10.92-4.5s-6.25,6.67-4.5,10.92c2.42,5.92,3.67,12.25,3.67,18.92,0,27.83-32.25,63.83-50,80.42-17.75-16.67-50-52.67-50-80.42s22.42-50,50-50c10.17,0,19.92,3,28.17,8.67,3.83,2.58,9,1.67,11.58-2.17s1.67-9-2.17-11.58c-11.08-7.58-24.08-11.67-37.67-11.67-36.75,0-66.67,29.92-66.67,66.67h.17Z"/>
  <path class="cls-1" d="M433.54,91.67c-18.42,0-33.33,14.92-33.33,33.33s14.92,33.33,33.33,33.33,33.33-14.92,33.33-33.33-14.92-33.33-33.33-33.33ZM433.54,141.67c-9.17,0-16.67-7.5-16.67-16.67s7.5-16.67,16.67-16.67,16.67,7.5,16.67,16.67-7.5,16.67-16.67,16.67Z"/>
</svg>