<svg width="90" height="29" viewBox="0 0 90 29" fill="none" xmlns="http://www.w3.org/2000/svg">
<g id="Company Icon/Google">
<path id="Vector" d="M38.6097 14.8806C38.6097 18.909 35.3246 21.8775 31.2931 21.8775C27.2616 21.8775 23.9766 18.909 23.9766 14.8806C23.9766 10.8239 27.2616 7.88379 31.2931 7.88379C35.3246 7.88379 38.6097 10.8239 38.6097 14.8806ZM35.4068 14.8806C35.4068 12.3633 33.5029 10.6409 31.2931 10.6409C29.0834 10.6409 27.1794 12.3633 27.1794 14.8806C27.1794 17.3727 29.0834 19.1204 31.2931 19.1204C33.5029 19.1204 35.4068 17.3696 35.4068 14.8806Z" fill="#EA4335"/>
<path id="Vector_2" d="M54.3929 14.8806C54.3929 18.909 51.1078 21.8775 47.0763 21.8775C43.0448 21.8775 39.7598 18.909 39.7598 14.8806C39.7598 10.827 43.0448 7.88379 47.0763 7.88379C51.1078 7.88379 54.3929 10.8239 54.3929 14.8806ZM51.19 14.8806C51.19 12.3633 49.2861 10.6409 47.0763 10.6409C44.8666 10.6409 42.9626 12.3633 42.9626 14.8806C42.9626 17.3727 44.8666 19.1204 47.0763 19.1204C49.2861 19.1204 51.19 17.3696 51.19 14.8806Z" fill="#FBBC05"/>
<path id="Vector_3" d="M69.5191 8.3065V20.868C69.5191 26.0352 66.3426 28.1456 62.5873 28.1456C59.0523 28.1456 56.9248 25.8775 56.1224 24.0226L58.9109 22.909C59.4075 24.0478 60.6242 25.3917 62.584 25.3917C64.9878 25.3917 66.4774 23.969 66.4774 21.2907V20.2844H66.3656C65.6488 21.133 64.2676 21.8743 62.5248 21.8743C58.8781 21.8743 55.5371 18.827 55.5371 14.9059C55.5371 10.9563 58.8781 7.88379 62.5248 7.88379C64.2644 7.88379 65.6455 8.62511 66.3656 9.44846H66.4774V8.30966H69.5191V8.3065ZM66.7043 14.9059C66.7043 12.4421 64.9911 10.6409 62.8109 10.6409C60.6012 10.6409 58.7498 12.4421 58.7498 14.9059C58.7498 17.3444 60.6012 19.1204 62.8109 19.1204C64.9911 19.1204 66.7043 17.3444 66.7043 14.9059Z" fill="#4285F4"/>
<path id="Vector_4" d="M74.5341 0.943359V21.4481H71.4102V0.943359H74.5341Z" fill="#34A853"/>
<path id="Vector_5" d="M86.7094 17.1837L89.1953 18.7736C88.393 19.9124 86.4594 21.8745 83.1185 21.8745C78.9752 21.8745 75.8809 18.802 75.8809 14.8777C75.8809 10.7168 79.0015 7.88086 82.7601 7.88086C86.5449 7.88086 88.3963 10.7704 89.0013 12.332L89.3335 13.1269L79.5835 17.0007C80.33 18.4045 81.4908 19.1206 83.1185 19.1206C84.7495 19.1206 85.8807 18.3509 86.7094 17.1837ZM79.0574 14.6663L85.5749 12.0701C85.2164 11.1963 84.1379 10.5875 82.8686 10.5875C81.2408 10.5875 78.9752 11.966 79.0574 14.6663Z" fill="#EA4335"/>
<path id="Vector_6" d="M12.1522 13.0603V10.0919H22.5795C22.6814 10.6092 22.7341 11.2212 22.7341 11.8837C22.7341 14.1108 22.0994 16.8647 20.0541 18.8269C18.0646 20.8143 15.5227 21.8742 12.1555 21.8742C5.9142 21.8742 0.666016 16.9972 0.666016 11.0099C0.666016 5.02248 5.9142 0.145508 12.1555 0.145508C15.6082 0.145508 18.0679 1.44519 19.916 3.1392L17.7325 5.23383C16.4073 4.04141 14.6119 3.11396 12.1522 3.11396C7.59455 3.11396 4.02999 6.63762 4.02999 11.0099C4.02999 15.3821 7.59455 18.9058 12.1522 18.9058C15.1084 18.9058 16.792 17.767 17.8706 16.7323C18.7453 15.8931 19.3208 14.6944 19.5477 13.0572L12.1522 13.0603Z" fill="#4285F4"/>
</g>
</svg>
