<?xml version="1.0" encoding="UTF-8"?>
<svg id="Layer_1" xmlns="http://www.w3.org/2000/svg" version="1.1" viewBox="0 0 20 20">
  <!-- Generator: Adobe Illustrator 29.3.1, SVG Export Plug-In . SVG Version: 2.1.0 Build 151)  -->
  <defs>
    <style>
      .st0 {
        fill: #673ddb;
      }
    </style>
  </defs>
  <path class="st0" d="M19.41,0h-2.38C16.71,0,16.45.26,16.45.59v.59h-4.8C11.41.49,10.76,0,10,0s-1.41.49-1.65,1.17H3.55v-.59C3.55.26,3.29,0,2.97,0H.59C.26,0,0,.26,0,.59v2.34c0,.32.26.59.59.59h2.38c.32,0,.59-.26.59-.59v-.59h2.41c-2.03,1.27-3.37,3.5-3.53,6-.7.23-1.22.88-1.22,1.66,0,.97.79,1.76,1.76,1.76s1.76-.79,1.76-1.76c0-.75-.47-1.38-1.13-1.64.2-2.79,2.14-5.13,4.85-5.8.29.57.88.96,1.56.96s1.26-.39,1.56-.96c2.7.67,4.65,3.02,4.85,5.8-.66.25-1.13.89-1.13,1.64,0,.97.79,1.76,1.76,1.76s1.76-.79,1.76-1.76c0-.78-.51-1.43-1.22-1.66-.16-2.5-1.5-4.72-3.53-5.99h2.41v.59c0,.32.26.59.59.59h2.38c.32,0,.59-.26.59-.59V.59C20,.26,19.74,0,19.41,0Z"/>
  <path class="st0" d="M11.76,17.62h-3.52c-1.04,0-1.92.72-2.23,1.66-.12.36.19.73.57.73h6.83c.38,0,.69-.37.57-.73-.31-.94-1.19-1.66-2.23-1.66Z"/>
  <path class="st0" d="M10.59,5.14v5.56c.68.24,1.17.89,1.17,1.65,0,.97-.79,1.76-1.76,1.76s-1.76-.79-1.76-1.76c0-.76.49-1.41,1.17-1.65v-5.56l-4.59,6.88c-.16.23-.12.54.07.74,1.08,1.08,1.76,2.46,2.03,3.95.41-.17.85-.26,1.32-.26h3.52c.47,0,.91.1,1.32.26.27-1.49.95-2.87,2.03-3.95.2-.2.23-.51.07-.74l-4.59-6.88Z"/>
  <path class="st0" d="M10,12.93c.32,0,.59-.26.59-.59s-.26-.59-.59-.59-.59.26-.59.59.26.59.59.59Z"/>
</svg>