<?xml version="1.0" encoding="UTF-8"?>
<svg id="Layer_1" data-name="Layer 1" xmlns="http://www.w3.org/2000/svg" viewBox="0 0 100 100">
  <path d="M67.51,47.03h-8.4v-8.4c.01-1.69-1.35-3.08-3.05-3.09h-12.12c-1.69,0-3.07,1.37-3.07,3.07v8.4h-8.37c-1.69-.01-3.08,1.35-3.09,3.05v12.12c0,1.69,1.37,3.07,3.07,3.07h8.4v8.37c-.01,1.69,1.35,3.08,3.05,3.09h12.1c1.69,0,3.07-1.37,3.07-3.07h0v-8.4h8.4c1.69.01,3.08-1.35,3.09-3.05v-12.1c0-1.69-1.37-3.07-3.07-3.07ZM66.46,61.13h-9.4c-1.14,0-2.06.92-2.06,2.06v9.4h-10v-9.4c0-1.14-.92-2.06-2.06-2.06h-9.4v-9.98h9.4c1.14,0,2.06-.92,2.06-2.06v-9.42h9.98v9.4c0,1.14.92,2.06,2.06,2.06h9.42v10Z"/>
  <path d="M85.8,20.16h-16.95v-7.24c.11-3.31-2.49-6.07-5.79-6.18-.17,0-.34,0-.51,0h-25.1c-3.3-.17-6.12,2.37-6.29,5.67,0,.17-.01.34,0,.51v7.2H14.2c-6.54,0-14.2,3.72-14.2,14.2v44.75c0,10.47,7.65,14.2,14.2,14.2h71.6c6.54,0,14.2-3.72,14.2-14.2v-44.71c0-10.47-7.63-14.2-14.2-14.2ZM35.27,12.92c0-.6,0-2.2,2.2-2.2h25.08c2.2,0,2.2,1.58,2.2,2.2v7.2h-29.49v-7.2ZM95.88,79.07c0,9.09-7.04,10.08-10.08,10.08H14.2c-3.02,0-10.08-.99-10.08-10.08v-44.71c0-9.09,7.04-10.08,10.08-10.08h71.6c3.02,0,10.08.99,10.08,10.08v44.71h0Z"/>
</svg>