<?xml version="1.0" encoding="UTF-8"?>
<svg id="Layer_1" xmlns="http://www.w3.org/2000/svg" version="1.1" viewBox="0 0 100 100">
  <!-- Generator: Adobe Illustrator 29.5.0, SVG Export Plug-In . SVG Version: 2.1.0 Build 137)  -->
  <defs>
    <style>
      .st0 {
        fill: #231c6a;
      }
    </style>
  </defs>
  <g id="layer1">
    <g id="path9448" vector-effect="none">
      <path class="st0" d="M33.3,0c-.9,0-1.6.8-1.6,1.7v8.3c0,2.2,3.3,2.2,3.3,0V3.3h30v46.7h-8.3v-15c0-.9-.8-1.7-1.7-1.7h-10c-.9,0-1.7.7-1.7,1.7v15h-8.3v-25c0-2.2-3.3-2.2-3.3,0v26.7c0,.9.7,1.7,1.7,1.7h33.3c.9,0,1.7-.7,1.7-1.7V1.7c0-.9-.7-1.7-1.7-1.7h-33.4ZM40,6.7c-.9,0-1.7.8-1.7,1.7v6.7c0,.9.7,1.7,1.7,1.7h6.7c.9,0,1.7-.7,1.7-1.7v-6.7c0-.9-.7-1.7-1.7-1.7h-6.7ZM53.3,6.7c-.9,0-1.7.7-1.7,1.7v6.7c0,.9.8,1.7,1.7,1.7h6.7c.9,0,1.7-.7,1.7-1.7v-6.7c0-.9-.7-1.7-1.7-1.7h-6.7ZM41.7,10h3.3v3.3h-3.3v-3.3ZM55,10h3.3v3.3h-3.3v-3.3ZM33.3,15c-.9,0-1.6.8-1.6,1.7v1.7c0,2.2,3.3,2.2,3.3,0v-1.7c0-.9-.8-1.7-1.7-1.7ZM40,20c-.9,0-1.7.8-1.7,1.7v6.7c0,.9.7,1.7,1.7,1.7h6.7c.9,0,1.7-.8,1.7-1.7v-6.7c0-.9-.7-1.7-1.7-1.7h-6.7ZM53.3,20c-.9,0-1.7.7-1.7,1.7v6.7c0,.9.7,1.7,1.7,1.7h6.7c.9,0,1.7-.8,1.7-1.7v-6.7c0-.9-.7-1.7-1.7-1.7h-6.7ZM41.7,23.3h3.3v3.3h-3.3v-3.3ZM55,23.3h3.3v3.3h-3.3v-3.3ZM26.8,25h-6.7c-2.7,0-5,2.3-5,5v16.7c0,2.2,3.3,2.2,3.3,0v-16.7c0-1,.7-1.7,1.7-1.7h6.7c2.3,0,2.2-3.3,0-3.3h0ZM73.2,25c-2.1,0-2,3.3,0,3.3,2.2,0,6.7,0,6.7,0,1,0,1.7.7,1.7,1.7v16.7c0,2.2,3.3,2.2,3.3,0v-16.7c0-2.7-2.3-5-5-5h-6.8ZM46.7,36.7h6.7v13.3h-6.7v-13.3ZM15,51.7c-3.7,0-6.7,3-6.7,6.7v6.7c0,1.9.7,3.7,1.8,5.1-3.4.6-6.1,3.4-6.7,6.8C1.5,77.6,0,79.5,0,81.7v13.3C0,97.7,2.3,100,5,100h23.3c2.7,0,5-2.3,5-5v-13.3s0,0,0,0c0-2.1-1.5-4-3.5-4.7-.6-3.4-3.3-6.2-6.7-6.8,1.1-1.4,1.8-3.2,1.8-5.1v-6.7c0-3.7-3-6.7-6.7-6.7h-3.3ZM81.7,51.7c-3.7,0-6.7,3-6.7,6.7v6.7c0,1.9.7,3.7,1.8,5.1-3.4.6-6.1,3.4-6.7,6.8-2,.7-3.5,2.5-3.5,4.7v13.3c0,2.7,2.3,5,5,5h23.3c2.7,0,5-2.3,5-5v-13.3s0,0,0,0c0-2.1-1.5-4-3.5-4.7-.6-3.4-3.3-6.2-6.7-6.8,1.1-1.4,1.8-3.2,1.8-5.1v-6.7c0-3.7-3-6.7-6.7-6.7h-3.3ZM15,55h3.3c1.9,0,3.3,1.5,3.3,3.3v.6l-.9-.5c-.5-.2-.9-.2-1.3,0-.4.1-3.8,1.2-7.8,1.5v-1.6c0-1.9,1.5-3.3,3.3-3.3ZM81.7,55h3.3c1.9,0,3.3,1.5,3.3,3.3v.6l-.9-.5c-.5-.2-.9-.2-1.3,0-.4.1-3.7,1.2-7.8,1.5v-1.6c0-1.9,1.5-3.3,3.3-3.3h0ZM19.8,61.8l1.8.9v2.3c0,2.8-2.2,5-5,5s-5-2.2-5-5v-1.7c4.2-.3,7.6-1.3,8.2-1.5h0ZM86.5,61.8l1.8.9v2.3c0,2.8-2.2,5-5,5s-5-2.2-5-5v-1.7c4.2-.3,7.6-1.3,8.2-1.5h0ZM11.7,73.3h10c2.2,0,4,1.4,4.7,3.3H7c.7-2,2.5-3.3,4.7-3.3ZM78.3,73.3h10c2.2,0,4,1.4,4.7,3.3h-19.4c.7-2,2.5-3.3,4.7-3.3ZM5,80h23.3c1,0,1.6.7,1.7,1.7v13.3c0,1-.7,1.7-1.7,1.7H5c-1,0-1.7-.7-1.7-1.7v-13.3c0-1,.7-1.7,1.7-1.7ZM71.7,80h23.3c1,0,1.6.7,1.7,1.7v13.3c0,1-.7,1.7-1.7,1.7h-23.3c-1,0-1.7-.7-1.7-1.7v-13.3c0-1,.7-1.7,1.7-1.7ZM16.7,86.7c-.9,0-1.7.7-1.7,1.7,0,.9.7,1.7,1.7,1.7s1.7-.7,1.7-1.7c0-.9-.7-1.7-1.7-1.7ZM83.3,86.7c-.9,0-1.7.7-1.7,1.7,0,.9.7,1.7,1.7,1.7s1.7-.7,1.7-1.7c0-.9-.7-1.7-1.7-1.7ZM38.3,86.7c-2.3,0-2.1,3.3,0,3.3h23.3c2.3,0,2.3-3.4,0-3.3h-23.4Z"/>
    </g>
  </g>
</svg>