<?xml version="1.0" encoding="UTF-8"?>
<svg id="Layer_1" xmlns="http://www.w3.org/2000/svg" version="1.1" viewBox="0 0 100 100">
  <!-- Generator: Adobe Illustrator 29.5.0, SVG Export Plug-In . SVG Version: 2.1.0 Build 137)  -->
  <defs>
    <style>
      .st0 {
        fill: #231c6a;
      }
    </style>
  </defs>
  <path class="st0" d="M64.9,80.7c.5-.5.5-1.4,0-1.9s-1.4-.5-1.9,0l-8.2,8.2c-1.1-.8-2.5-1.2-4-1.2-3.9,0-7.1,3.2-7.1,7.1s3.2,7.1,7.1,7.1,7.1-3.2,7.1-7.1-.5-2.9-1.2-4l8.2-8.2ZM50.8,97.3c-2.4,0-4.4-2-4.4-4.4s2-4.4,4.4-4.4,2.3.5,3.1,1.3c0,0,0,0,0,0,0,0,0,0,0,0,.8.8,1.3,1.9,1.3,3.1,0,2.4-2,4.4-4.4,4.4ZM77.6,66.1c0,0-.1-.1-.2-.2-6.8-6.8-16.2-10.9-26.6-10.9s-19.7,4.2-26.6,10.9c0,0-.1,0-.2.2,0,0-.1.1-.2.2-6.8,6.8-10.9,16.2-10.9,26.6s.6,1.4,1.4,1.4h23.2c.8,0,1.4-.6,1.4-1.4s-.6-1.4-1.4-1.4h-12c.7-13.3,11.8-24,25.3-24s24.6,10.6,25.3,24h-12c-.8,0-1.4.6-1.4,1.4s.6,1.4,1.4,1.4h23.2c.8,0,1.4-.6,1.4-1.4,0-10.4-4.2-19.7-10.9-26.6,0,0,0-.1-.2-.2h0ZM22.8,91.5h-7.1c.3-8.7,3.8-16.5,9.3-22.5l5,5c-4.2,4.7-6.9,10.8-7.3,17.5ZM49.4,64.8c-6.7.3-12.8,3-17.5,7.3l-5-5c6-5.5,13.8-9,22.5-9.3v7.1ZM52.2,64.8v-7.1c8.7.3,16.5,3.8,22.5,9.3l-5,5c-4.7-4.2-10.8-6.9-17.5-7.3h0ZM78.8,91.5c-.3-6.7-3-12.8-7.3-17.5l5-5c5.5,6,9,13.8,9.3,22.5h-7.1ZM25.3,60v-4.9h-9.6v19.5c0,.8-.6,1.4-1.4,1.4s-1.4-.6-1.4-1.4v-20.9c0-.8.6-1.4,1.4-1.4h12.4c.8,0,1.4.6,1.4,1.4v6.2c0,.8-.6,1.4-1.4,1.4s-1.4-.6-1.4-1.4ZM18.1,37.3c3.7,0,6.8-3,6.8-6.8s-.3-2.4-.9-3.3l11.5-7.8s0,0,0,0c1.2,1.1,2.8,1.8,4.6,1.8s3-.5,4.2-1.4l10.7,7.9c-.4.9-.6,1.8-.6,2.8,0,3.7,3,6.8,6.8,6.8s6.8-3,6.8-6.8-.5-2.9-1.3-4.1l10-13.5c.9.4,1.8.6,2.9.6,3.7,0,6.8-3,6.8-6.8s-3-6.8-6.8-6.8-6.8,3-6.8,6.8.7,3.3,1.7,4.5l-9.9,13.4c-1-.6-2.2-.9-3.4-.9-1.8,0-3.4.7-4.6,1.8l-10.6-7.8c.5-1,.8-2.1.8-3.3,0-3.7-3-6.8-6.8-6.8s-6.8,3-6.8,6.8.2,1.9.6,2.7l-11.8,8c-1.1-.9-2.6-1.4-4.1-1.4-3.7,0-6.8,3-6.8,6.8,0,3.7,3,6.8,6.8,6.8h0ZM79.7,2.7c2.2,0,4,1.8,4,4s-1.8,4.1-4,4.1-4.1-1.8-4.1-4.1,1.8-4,4.1-4h0ZM61.3,26.5c2.2,0,4.1,1.8,4.1,4s-1.8,4.1-4.1,4.1-4-1.8-4-4.1,1.8-4,4-4h0ZM40.3,10.4c2.2,0,4,1.8,4,4.1s-.1,1.1-.3,1.6c-.4.8-1,1.5-1.8,2-.6.3-1.2.5-1.9.5-2.2,0-4.1-1.8-4.1-4s1.8-4.1,4.1-4.1h0ZM18.1,26.5c2.2,0,4.1,1.8,4.1,4s-1.8,4.1-4.1,4.1-4-1.8-4-4.1,1.8-4,4-4ZM88.6,27.4v47.3c0,.8-.6,1.4-1.4,1.4s-1.4-.6-1.4-1.4V28.7h-9.6v31.2c0,.8-.6,1.4-1.4,1.4s-1.4-.6-1.4-1.4V27.4c0-.8.6-1.4,1.4-1.4h12.4c.8,0,1.4.6,1.4,1.4h0ZM65.7,55.5v-11.3h-9.7v8.1c0,.8-.6,1.4-1.4,1.4s-1.4-.6-1.4-1.4v-9.4c0-.8.6-1.4,1.4-1.4h12.4c.8,0,1.4.6,1.4,1.4v12.6c0,.8-.6,1.4-1.4,1.4s-1.4-.6-1.4-1.4h0ZM45.5,52.3v-23.3h-9.7v26.5c0,.8-.6,1.4-1.4,1.4s-1.4-.6-1.4-1.4v-27.9c0-.8.6-1.4,1.4-1.4h12.4c.8,0,1.4.6,1.4,1.4v24.7c0,.8-.6,1.4-1.4,1.4s-1.4-.6-1.4-1.4h0Z"/>
</svg>