<?xml version="1.0" encoding="UTF-8"?>
<svg id="Layer_1" data-name="Layer 1" xmlns="http://www.w3.org/2000/svg" viewBox="0 0 100 100">
  <path d="M64.8,57.99s-.01-.03-.02-.04c-.27-.66-.91-1.09-1.62-1.09h0c-.71,0-1.35.43-1.62,1.09,0,.01,0,.02-.01.03l-4.79,12.57c-.29.76.09,1.6.85,1.89s1.6-.09,1.89-.85l.83-2.19h5.67l.82,2.18c.22.59.78.95,1.37.95.17,0,.35-.03.52-.09.76-.29,1.14-1.13.85-1.89l-4.74-12.57ZM61.42,66.48l1.73-4.55,1.72,4.55h-3.45Z"/>
  <path d="M41.94,69.6h0c-1.04,0-2.15,0-2.99.01v-11.29c0-.81-.66-1.46-1.46-1.46s-1.46.66-1.46,1.46v12.74c0,.71.51,1.32,1.22,1.44.1.02.19.03,1.6.03.68,0,1.67,0,3.12-.01.81,0,1.46-.66,1.46-1.47,0-.81-.66-1.46-1.46-1.46h0Z"/>
  <path d="M90.27,59.85c.81,0,1.46-.66,1.46-1.46s-.66-1.46-1.46-1.46h-5.32c-.81,0-1.46.66-1.46,1.46v12.63c0,.81.66,1.46,1.46,1.46h5.32c.81,0,1.46-.66,1.46-1.46s-.66-1.46-1.46-1.46h-3.86v-3.39h3.47c.81,0,1.46-.66,1.46-1.46s-.66-1.46-1.46-1.46h-3.47v-3.39h3.86Z"/>
  <path d="M52.75,59.85c.81,0,1.46-.66,1.46-1.46s-.66-1.46-1.46-1.46h-5.32c-.81,0-1.46.66-1.46,1.46v12.63c0,.81.66,1.46,1.46,1.46h5.32c.81,0,1.46-.66,1.46-1.46s-.66-1.46-1.46-1.46h-3.86v-3.39h3.47c.81,0,1.46-.66,1.46-1.46s-.66-1.46-1.46-1.46h-3.47v-3.39h3.86Z"/>
  <path d="M80.01,56.96c-.77-.26-1.6.16-1.85.93l-3.07,9.24-3.22-9.28c-.27-.76-1.1-1.17-1.86-.9-.76.27-1.17,1.1-.9,1.86l4.36,12.57c.25.7.91,1.17,1.65,1.17h.01c.75,0,1.41-.48,1.65-1.2l4.16-12.53c.25-.77-.16-1.6-.93-1.85h0Z"/>
  <path d="M93.84,48.54h-59.6v-3.23c0-5.12-4.17-9.29-9.29-9.29h-3.13c-5.12,0-9.29,4.17-9.29,9.29v4.8H2.93v-29.85c0-2.65,2.15-4.8,4.8-4.8h31.31c2.65,0,4.8,2.15,4.8,4.8v23.48c0,.81.66,1.46,1.46,1.46s1.46-.66,1.46-1.46v-23.48c0-4.26-3.47-7.73-7.73-7.73H7.73C3.47,12.53,0,15.99,0,20.25v59.49C0,84.01,3.47,87.47,7.73,87.47h31.31c3.76,0,6.9-2.7,7.59-6.26h47.21c3.4,0,6.16-2.76,6.16-6.16v-20.35c0-3.4-2.76-6.16-6.16-6.16ZM39.04,84.55H7.73c-2.65,0-4.8-2.15-4.8-4.8v-26.72h18.89c.81,0,1.46-.66,1.46-1.46s-.66-1.46-1.46-1.46h-6.36v-4.8c0-3.51,2.85-6.36,6.36-6.36h3.13c3.51,0,6.36,2.85,6.36,6.36v3.41c-2.69.66-4.7,3.09-4.7,5.98v18.18l-5.83,5.83c-.42.42-.54,1.05-.32,1.6.23.55.76.9,1.35.9h21.79c-.62,1.93-2.43,3.33-4.57,3.33h0ZM97.07,75.05c0,1.78-1.45,3.23-3.23,3.23H25.35l3.76-3.76c.27-.27.43-.65.43-1.04v-18.79c0-1.78,1.45-3.23,3.23-3.23h61.06c1.78,0,3.23,1.45,3.23,3.23v20.35Z"/>
  <path d="M20.25,21.92c-1.67,0-3.03,1.36-3.03,3.03v3.13c0,3.4,2.76,6.16,6.16,6.16s6.16-2.76,6.16-6.16v-3.13c0-1.67-1.36-3.03-3.03-3.03h-6.26ZM26.62,24.95v3.13c0,1.78-1.45,3.23-3.23,3.23s-3.23-1.45-3.23-3.23v-3.13c0-.06.05-.1.1-.1h6.26c.06,0,.1.05.1.1h0Z"/>
  <path d="M9.29,63.99h12.53c.81,0,1.46-.66,1.46-1.46s-.66-1.46-1.46-1.46h-12.53c-.81,0-1.46.66-1.46,1.46s.66,1.46,1.46,1.46Z"/>
  <path d="M9.29,70.25h12.53c.81,0,1.46-.66,1.46-1.46s-.66-1.46-1.46-1.46h-12.53c-.81,0-1.46.66-1.46,1.46s.66,1.46,1.46,1.46Z"/>
  <path d="M17.12,73.59h-7.83c-.81,0-1.46.66-1.46,1.46s.66,1.46,1.46,1.46h7.83c.81,0,1.46-.66,1.46-1.46s-.66-1.46-1.47-1.46Z"/>
</svg>