<?xml version="1.0" encoding="UTF-8"?>
<svg id="Layer_1" data-name="Layer 1" xmlns="http://www.w3.org/2000/svg" viewBox="0 0 100 100">
  <path d="M18.05,68.5c-1.31-1.31-3.43-1.31-4.74,0l-6.38,6.4c-1.32,1.29-1.34,3.41-.05,4.73,0,0,.02.02.03.03l19.31,19.33c1.3,1.32,3.43,1.34,4.75.04,0,0,.01-.01.02-.02l6.41-6.42c1.14-1.15,1.3-2.95.37-4.27,4.92-.68,11.12-1.54,16.39-2.26,2.82,8.32,10.62,13.93,19.41,13.95,19.3-.02,27.78-24.5,12.92-36.45l5.37-5.38c1.44-1.42,2.25-3.37,2.24-5.39-.08-4.35-3.66-7.81-8.01-7.73-.51,0-1.03.07-1.53.18-2.38-8.94-8.94-17.31-14.24-22.92-.99-1.41-3.13-2.44-3.22-3.79,0-1.44-.62-2.81-1.69-3.77l3.03-12.47c.53-4.58-8.65-.85-9.28-.4-1.84,1.01-3.91,1.51-6,1.45-2.09.06-4.17-.44-6-1.45-.75-.56-9.81-4.09-9.28.4l3.03,12.47c-1.07.96-1.68,2.33-1.69,3.77-.09,1.41-2.35,2.52-3.21,3.8-4.68,4.85-8.63,10.34-11.73,16.33-.41.89-.03,1.96.87,2.37.87.4,1.91.05,2.34-.81,3.47-6.66,8.03-12.69,13.49-17.85.92.82,2.11,1.28,3.35,1.28h17.67c1.24,0,2.44-.46,3.37-1.29.75.74,1.55,1.55,2.37,2.42,5.16,5.47,11.59,13.67,13.57,22.16-.13.11-.26.19-.38.31l-12.29,12.34c-2.21,1.02-1.6-.9-3.09-2.08-1.43-1.43-3.36-2.23-5.38-2.22h-24.17c-2.34.03-4.57.97-6.23,2.61l-2.07,2.07c-2.63-3.33-3.71-7.62-2.96-11.8.17-.97-.47-1.9-1.45-2.07-.97-.17-1.9.47-2.07,1.45,0,0,0,0,0,0-.95,5.32.49,10.79,3.95,14.95l-6.57,6.58-.54-.54ZM41.89,3.79c4.53.93,5.37,3.13,11.24,3.09,5.88.04,6.72-2.15,11.24-3.09l-2.33,9.6c-.17-.01-17.66-.02-17.82,0l-2.33-9.6ZM61.97,20.05h-17.67c-.85,0-1.54-.7-1.54-1.55,0-.85.69-1.53,1.54-1.54h17.67c.85.02,1.53.73,1.51,1.58-.02.83-.68,1.49-1.51,1.51ZM83.41,49.74c1.71-1.59,4.39-1.48,5.97.23.71.77,1.11,1.77,1.12,2.81,0,1.08-.43,2.11-1.19,2.86l-5.86,5.87c-2.84-1.57-6.01-2.43-9.25-2.53l9.2-9.24ZM32.27,60.39c.99-.98,2.32-1.54,3.72-1.57h24.15c1.65-.02,3.14,1,3.73,2.54-2.55,1.35-4.78,3.23-6.54,5.51l-11.74.02c-.99.02-1.77.83-1.75,1.82.02.96.79,1.73,1.75,1.75h9.53c-.63,1.8-3.06,5.43-.22,6.43.96.22,1.92-.37,2.15-1.33,1.19-5.12,4.71-9.39,9.5-11.55,10.82-5.13,24.23,3.39,23.95,15.46,0,9.36-7.59,16.96-16.96,16.95-7.76,0-14.53-5.27-16.43-12.79-.1-.3-.26-.57-.48-.8-.39-.39-.94-.59-1.49-.54-6.48.88-14.91,2.05-20.48,2.82l-8.52-8.52c-.7-.7-1.83-.7-2.52,0s-.7,1.83,0,2.52c0,0,0,0,0,0l11.08,11.08-6.05,6.16-19.07-19.09,6.1-6.11c1.13,1.06,2.5,3.19,4.17,1.65,2.47-2.48,10.09-10.1,12.42-12.44h0Z"/>
  <path d="M70.06,85.2c.7.7,1.83.7,2.52,0h0s8.92-8.92,8.92-8.92c.7-.69.71-1.82.02-2.52-.69-.7-1.82-.71-2.52-.02,0,0-.01.01-.02.02l-7.66,7.66-3.2-3.2c-.71-.68-1.84-.66-2.52.05-.66.69-.66,1.78,0,2.47l4.46,4.46Z"/>
</svg>