<?xml version="1.0" encoding="UTF-8"?>
<svg id="Layer_1" xmlns="http://www.w3.org/2000/svg" version="1.1" viewBox="0 0 20 20">
  <!-- Generator: Adobe Illustrator 29.3.1, SVG Export Plug-In . SVG Version: 2.1.0 Build 151)  -->
  <defs>
    <style>
      .st0 {
        fill: #673ddb;
      }
    </style>
  </defs>
  <path class="st0" d="M5.63,7.37h-2.5c-1.72,0-3.13,1.42-3.13,3.16s1.4,3.16,3.13,3.16h2.5c.35,0,.63-.28.63-.63v-5.05c0-.35-.28-.63-.63-.63h0ZM5.63,7.37"/>
  <path class="st0" d="M19.97,3.16c-.07-.23-.27-.4-.5-.43l-2.27-.33-1.01-2.08c-.21-.43-.91-.43-1.12,0l-1.01,2.08-2.27.33c-.24.03-.43.2-.5.43-.07.23-.01.48.16.65l1.64,1.62-.39,2.28c-.04.24.06.48.25.62.19.14.45.16.66.05l2.03-1.08,2.03,1.08c.09.05.19.07.29.07.13,0,.26-.04.37-.12.19-.14.29-.38.25-.62l-.39-2.28,1.64-1.62c.17-.17.23-.42.16-.65h0ZM19.97,3.16"/>
  <path class="st0" d="M15.63,8.72v6.58c0,.42-.2.8-.54,1.04-.21.15-.46.23-.71.23-.14,0-.29-.03-.43-.08l-6.84-2.28c.24-.32.39-.73.39-1.16v-5.05c0-.43-.15-.83-.39-1.16l4.2-1.4.43.42-.28,1.63c-.12.71.16,1.43.74,1.86.33.24.71.36,1.1.36.3,0,.6-.08.87-.22l1.44-.76ZM15.63,8.72"/>
  <path class="st0" d="M6.25,14.83v3.27c0,1.04-.84,1.9-1.88,1.9s-1.88-.85-1.88-1.9v-3.21c.21.04.41.05.63.05h2.5c.22,0,.43-.04.63-.11h0ZM6.25,14.83"/>
</svg>