<?xml version="1.0" encoding="UTF-8"?>
<svg id="Layer_1" data-name="Layer 1" xmlns="http://www.w3.org/2000/svg" viewBox="0 0 120 120">
  <defs>
    <style>
      .cls-1 {
        fill: #2e1c6a;
      }
    </style>
  </defs>
  <path class="cls-1" d="M88.4,74.19c1.14,0,2.15-.77,2.46-1.87l3.21-8.88c6.82-.48,13.22-3.39,18.06-8.23,5.35-5.35,8.3-12.47,8.3-20.04,0-7.57-2.95-14.69-8.3-20.04-6.23-6.23-14.81-9.18-23.56-8.08-8.65,1.08-16.18,5.95-20.72,13.41H18.74l-2.59-11.41v-.03c-.2-1.26-1.26-2.18-2.53-2.18H2.12c-1.41,0-2.56,1.15-2.56,2.56s1.15,2.56,2.56,2.56h9.45s13.51,59.56,13.51,59.56l-3.58,11.19c-.08.26-.12.52-.12.78,0,.68.27,1.32.75,1.8.3.3.66.51,1.05.63l.6.12h69.29c1.41,0,2.55-1.15,2.56-2.56,0-1.41-1.15-2.56-2.56-2.56H27.43l2.16-6.74h58.81ZM68.86,35.17c0-6.2,2.42-12.04,6.81-16.43,4.39-4.39,10.22-6.8,16.42-6.8h0c6.21,0,12.04,2.42,16.42,6.81,9.05,9.06,9.05,23.79,0,32.85l-.05.05h0c-4.38,4.36-10.19,6.75-16.38,6.75h0c-6.21,0-12.04-2.42-16.42-6.81-4.39-4.39-6.8-10.22-6.8-16.43ZM29.76,69.08l-9.86-43.5h45.51c-.79,2.21-1.31,4.5-1.54,6.84-1.49,15.34,9.59,29.06,24.81,30.9l-2.08,5.76H29.76Z"/>
  <path class="cls-1" d="M33.51,89.42h0c-6.55,0-11.87,5.33-11.88,11.88,0,6.55,5.33,11.88,11.88,11.88s11.88-5.33,11.88-11.88c0-3.17-1.24-6.15-3.48-8.4-2.24-2.24-5.22-3.48-8.4-3.48ZM28.73,106.08c-1.28-1.28-1.98-2.97-1.98-4.78,0-1.81.7-3.5,1.98-4.78s2.97-1.98,4.78-1.98h0c1.8,0,3.5.7,4.78,1.98,2.63,2.64,2.63,6.93,0,9.57-2.63,2.63-6.92,2.63-9.56,0Z"/>
  <path class="cls-1" d="M80.48,89.42c-6.55,0-11.87,5.33-11.88,11.88,0,6.55,5.33,11.88,11.88,11.88s11.88-5.33,11.88-11.88-5.33-11.88-11.88-11.88ZM85.26,106.08c-2.63,2.63-6.92,2.63-9.56,0-2.64-2.64-2.64-6.92,0-9.56,1.28-1.28,2.97-1.98,4.78-1.98h0c1.8,0,3.5.7,4.78,1.98,2.64,2.64,2.64,6.93,0,9.57Z"/>
  <path class="cls-1" d="M88.03,47.51c-.68,0-1.33-.27-1.81-.75l-10.22-10.22c-1-1-1-2.62,0-3.62,1-1,2.62-1,3.62,0l8.42,8.42,17.75-17.75c1-1,2.62-1,3.62,0,1,1,1,2.62,0,3.62l-19.55,19.55c-.48.48-1.13.75-1.81.75Z"/>
</svg>