<?xml version="1.0" encoding="UTF-8"?>
<svg id="Layer_1" xmlns="http://www.w3.org/2000/svg" version="1.1" viewBox="0 0 120 120">
  <!-- Generator: Adobe Illustrator 29.5.0, SVG Export Plug-In . SVG Version: 2.1.0 Build 137)  -->
  <defs>
    <style>
      .st0 {
        fill: #fff;
      }
    </style>
  </defs>
  <path class="st0" d="M88.4,74.2c1.1,0,2.2-.8,2.5-1.9l3.2-8.9c6.8-.5,13.2-3.4,18.1-8.2,5.3-5.3,8.3-12.5,8.3-20s-2.9-14.7-8.3-20c-6.2-6.2-14.8-9.2-23.6-8.1-8.7,1.1-16.2,5.9-20.7,13.4H18.7l-2.6-11.4h0c-.2-1.3-1.3-2.2-2.5-2.2H2.1c-1.4,0-2.6,1.2-2.6,2.6s1.1,2.6,2.6,2.6h9.4l13.5,59.6-3.6,11.2c0,.3-.1.5-.1.8,0,.7.3,1.3.8,1.8.3.3.7.5,1,.6h.6c0,.1,69.3.1,69.3.1,1.4,0,2.6-1.2,2.6-2.6,0-1.4-1.2-2.6-2.6-2.6H27.4l2.2-6.7h58.8ZM68.9,35.2c0-6.2,2.4-12,6.8-16.4s10.2-6.8,16.4-6.8h0c6.2,0,12,2.4,16.4,6.8,9.1,9.1,9.1,23.8,0,32.9h0c-4.4,4.4-10.2,6.8-16.4,6.8h0c-6.2,0-12-2.4-16.4-6.8-4.4-4.4-6.8-10.2-6.8-16.4h0ZM29.8,69.1l-9.9-43.5h45.5c-.8,2.2-1.3,4.5-1.5,6.8-1.5,15.3,9.6,29.1,24.8,30.9l-2.1,5.8H29.8Z"/>
  <path class="st0" d="M33.5,89.4h0c-6.5,0-11.9,5.3-11.9,11.9,0,6.6,5.3,11.9,11.9,11.9s11.9-5.3,11.9-11.9-1.2-6.2-3.5-8.4c-2.2-2.2-5.2-3.5-8.4-3.5ZM28.7,106.1c-1.3-1.3-2-3-2-4.8s.7-3.5,2-4.8,3-2,4.8-2h0c1.8,0,3.5.7,4.8,2,2.6,2.6,2.6,6.9,0,9.6-2.6,2.6-6.9,2.6-9.6,0h0Z"/>
  <path class="st0" d="M80.5,89.4c-6.6,0-11.9,5.3-11.9,11.9,0,6.6,5.3,11.9,11.9,11.9s11.9-5.3,11.9-11.9-5.3-11.9-11.9-11.9ZM85.3,106.1c-2.6,2.6-6.9,2.6-9.6,0-2.6-2.6-2.6-6.9,0-9.6s3-2,4.8-2h0c1.8,0,3.5.7,4.8,2,2.6,2.6,2.6,6.9,0,9.6h0Z"/>
  <path class="st0" d="M88,47.5c-.7,0-1.3-.3-1.8-.8l-10.2-10.2c-1-1-1-2.6,0-3.6s2.6-1,3.6,0l8.4,8.4,17.8-17.8c1-1,2.6-1,3.6,0s1,2.6,0,3.6l-19.6,19.5c-.5.5-1.1.8-1.8.8h0Z"/>
</svg>