<?xml version="1.0" encoding="UTF-8"?>
<svg id="Layer_1" xmlns="http://www.w3.org/2000/svg" version="1.1" viewBox="0 0 100 100">
  <!-- Generator: Adobe Illustrator 29.5.0, SVG Export Plug-In . SVG Version: 2.1.0 Build 137)  -->
  <defs>
    <style>
      .st0 {
        fill: #231c6a;
        fill-rule: evenodd;
      }
    </style>
  </defs>
  <path class="st0" d="M13.3,74.9H2.5c-.5,0-.9-.2-1.2-.5s-.5-.8-.4-1.3c1.5-13.9,11.5-25.2,24.7-28.7-5.5-3-9.2-8.8-9.2-15.5,0-9.7,7.9-17.6,17.6-17.6s17.6,7.9,17.6,17.6-3.7,12.5-9.2,15.5c12.1,3.1,21.5,12.9,24.1,25.1h2.9l3.1-9.6c.3-1.1,1.3-1.8,2.5-1.8s2.1.7,2.5,1.8l3.1,9.6h10.1c1.1,0,2.1.7,2.5,1.8.3,1.1,0,2.2-.9,2.9l-8.2,5.9,3.1,9.6c.3,1.1,0,2.2-.9,2.9-.9.7-2.1.7-3,0l-8.2-5.9-8.2,5.9c-.9.7-2.1.7-3,0s-1.3-1.8-.9-2.9l3.1-9.6-7.3-5.3h-4.1c.3.3.5.7.5,1.2v5.3c0,.7-.4,1.3-1,1.5l-2.5,1c-.4,1.3-.9,2.6-1.6,3.8l1.1,2.4c.3.6.1,1.3-.3,1.8l-3.8,3.8c-.5.5-1.2.6-1.8.3l-2.4-1.1c-1.2.7-2.5,1.2-3.8,1.6l-1,2.5c-.2.6-.8,1-1.5,1h-5.3c-.7,0-1.3-.4-1.5-1l-1-2.5c-1.3-.4-2.6-.9-3.8-1.6l-2.4,1.1c-.6.3-1.3.1-1.8-.3l-3.8-3.8c-.5-.5-.6-1.2-.3-1.8,0,0,1.1-2.4,1.1-2.4-.7-1.2-1.2-2.5-1.6-3.8l-2.5-1c-.6-.2-1-.8-1-1.5v-5.3c0-.5.2-.9.5-1.2h0ZM34,46.6c-14.9,0-27.3,10.8-29.7,25.1h12.7c.3-.6.6-1.2.9-1.8l-1.1-2.4c-.3-.6-.1-1.3.3-1.8l3.8-3.8c.5-.5,1.2-.6,1.8-.3l2.4,1.1c1.2-.7,2.5-1.2,3.8-1.6l1-2.5c.2-.6.8-1,1.5-1h5.3c.7,0,1.3.4,1.5,1l1,2.5c1.3.4,2.6.9,3.8,1.6l2.4-1.1c.6-.3,1.3-.1,1.8.3l3.8,3.8c.5.5.6,1.2.3,1.8,0,0-1.1,2.4-1.1,2.4.3.6.6,1.2.9,1.8h5.8c0-.1,0-.2,0-.3.3-1.1,1.3-1.8,2.5-1.8h3.8c-3.2-13.2-15.1-23-29.2-23h0ZM61.4,72.8l6.9,5c.9.7,1.3,1.8.9,2.9l-2.7,8.2,6.9-5c.9-.7,2.1-.7,3,0l6.9,5-2.7-8.2c-.3-1.1,0-2.2.9-2.9l6.9-5h-8.6c-1.1,0-2.1-.7-2.5-1.8l-2.7-8.2-2.7,8.2c-.3,1.1-1.3,1.8-2.5,1.8h-8.6ZM34,43.4c7.9,0,14.4-6.5,14.4-14.4s-6.5-14.4-14.4-14.4-14.4,6.5-14.4,14.4,6.5,14.4,14.4,14.4ZM36.4,63l-.9-2.2h-3.1l-.9,2.2c-.2.5-.6.9-1.1,1-1.6.4-3.1,1-4.4,1.8-.5.3-1,.3-1.5.1l-2.2-1-2.2,2.2,1,2.2c.2.5.2,1-.1,1.5-.8,1.4-1.5,2.9-1.8,4.4-.1.5-.5.9-1,1.1l-2.2.9v3.1l2.2.9c.5.2.9.6,1,1.1.4,1.6,1,3.1,1.8,4.4.3.5.3,1,.1,1.5l-1,2.2,2.2,2.2,2.2-1c.5-.2,1-.2,1.5,0,1.4.8,2.9,1.5,4.4,1.8.5.1.9.5,1.1,1l.9,2.2h3.1l.9-2.2c.2-.5.6-.9,1.1-1,1.6-.4,3.1-1,4.4-1.8.5-.3,1-.3,1.5-.1l2.2,1,2.2-2.2-1-2.2c-.2-.5-.2-1,0-1.5.8-1.4,1.5-2.9,1.8-4.4.1-.5.5-.9,1-1.1l2.2-.9v-3.1l-2.2-.9c-.5-.2-.9-.6-1-1.1-.4-1.6-1-3.1-1.8-4.4-.3-.5-.3-1-.1-1.5l1-2.2-2.2-2.2-2.2,1c-.5.2-1,.2-1.5-.1-1.4-.8-2.9-1.5-4.4-1.8-.5-.1-.9-.5-1.1-1h0ZM34,67.9c6,0,10.9,4.9,10.9,10.9s-4.9,10.9-10.9,10.9-10.9-4.9-10.9-10.9,4.9-10.9,10.9-10.9ZM34,71.1c-4.2,0-7.6,3.4-7.6,7.6s3.4,7.6,7.6,7.6,7.6-3.4,7.6-7.6-3.4-7.6-7.6-7.6ZM94.9,14.3c-2.3-2.7-7.3-8.6-9-10.7l-9,10.7h3.3c.9,0,1.6.7,1.6,1.6v28.5c0,.9-.7,1.6-1.6,1.6s-1.6-.7-1.6-1.6v-26.8h-3.4c-1,0-1.8-.5-2.2-1.4-.4-.9-.3-1.8.4-2.6L84,.8c.5-.6,1.1-.8,1.8-.8s1.3.3,1.8.8c0,0,0,0,0,0l10.8,12.8c.6.7.7,1.7.3,2.6-.4.9-1.2,1.4-2.2,1.4h-3.4v17.9c0,.9-.7,1.6-1.6,1.6s-1.6-.7-1.6-1.6V15.9c0-.9.7-1.6,1.6-1.6h3.3ZM90.1,39.9c0-.9.7-1.6,1.6-1.6s1.6.7,1.6,1.6v4.5c0,.9-.7,1.6-1.6,1.6s-1.6-.7-1.6-1.6v-4.5ZM90.1,48.9c0-.9.7-1.6,1.6-1.6s1.6.7,1.6,1.6v4.4c0,.9-.7,1.6-1.6,1.6s-1.6-.7-1.6-1.6v-4.4ZM81.7,53.2c0,.9-.7,1.6-1.6,1.6s-1.6-.7-1.6-1.6v-4.4c0-.9.7-1.6,1.6-1.6s1.6.7,1.6,1.6v4.4ZM71.6,31.8c-2-2.3-5.7-6.7-7.3-8.6l-7.3,8.6h2.3c.9,0,1.6.7,1.6,1.6v14.6c0,.9-.7,1.6-1.6,1.6s-1.6-.7-1.6-1.6v-13h-2.7c-.9,0-1.7-.5-2.1-1.3-.4-.8-.3-1.7.3-2.4,0,0,9.3-10.9,9.3-10.9.4-.5,1-.8,1.7-.8s1.3.3,1.7.8c0,0,0,0,0,0l9.3,11c.6.7.7,1.6.3,2.4-.4.8-1.2,1.3-2.1,1.3h-2.7v22.6c0,.9-.7,1.6-1.6,1.6s-1.6-.7-1.6-1.6v-24.2c0-.9.7-1.6,1.6-1.6h2.3Z"/>
</svg>