<?xml version="1.0" encoding="UTF-8"?>
<svg id="Layer_1" data-name="Layer 1" xmlns="http://www.w3.org/2000/svg" viewBox="0 0 100 100">
  <path d="M89.2,85.43h-1.75c4.5-8.64,5.5-16.39,2.95-23.07-3.92-10.26-15.16-15.21-21.52-17.25-2.81-.9-5.44-2.31-7.81-4.2l-.21-.16c-3.27-2.62-5.76-5.97-7.32-9.79.09,0,.19.01.28.01,6.74,0,12.75-4.26,14.95-10.59.21-.61.05-1.29-.41-1.74-.46-.45-1.14-.59-1.74-.38-1.29.48-2.69.72-4.15.72-6.92,0-12.55-5.64-12.55-12.58,0-1.45.24-2.86.72-4.18.22-.61.07-1.29-.38-1.74s-1.13-.61-1.74-.4c-6.33,2.23-10.59,8.24-10.59,14.97,0,6.33,3.72,11.8,9.09,14.36-.31.95-.67,1.89-1.11,2.8-1.57,3.28-3.91,6.23-6.75,8.51l-.25.19c-2.36,1.88-4.98,3.28-7.79,4.18-6.35,2.04-17.6,6.99-21.52,17.25-2.55,6.67-1.55,14.43,2.95,23.07h-1.75c-4.02,0-7.29,3.27-7.29,7.29s3.27,7.29,7.29,7.29h78.39c4.02,0,7.29-3.27,7.29-7.29s-3.27-7.29-7.29-7.29h0ZM41.27,15.07c0-4.19,2.08-8.02,5.41-10.32-.06.55-.09,1.11-.09,1.67,0,8.77,7.13,15.91,15.89,15.91.56,0,1.11-.03,1.66-.09-2.29,3.32-6.12,5.4-10.31,5.4-6.92,0-12.55-5.64-12.55-12.58ZM12.72,63.55c3.42-8.96,13.64-13.41,19.42-15.27,3.2-1.02,6.18-2.62,8.84-4.74l.25-.2c3.25-2.61,5.91-5.96,7.69-9.69.41-.85.77-1.71,1.08-2.59,1.73,4.82,4.75,9.04,8.8,12.29l.21.17c2.67,2.13,5.65,3.73,8.85,4.75,5.79,1.86,16,6.31,19.42,15.27,2.34,6.12,1.12,13.48-3.61,21.87H16.33c-4.74-8.4-5.95-15.75-3.61-21.87h0ZM89.2,96.67H10.81c-2.18,0-3.95-1.77-3.95-3.95s1.77-3.96,3.95-3.96h78.39c2.18,0,3.95,1.77,3.95,3.96s-1.77,3.95-3.95,3.95h0Z"/>
  <path d="M18.11,76.15c.13,0,.26-.01.39-.05.9-.22,1.45-1.12,1.23-2.01-3.06-12.79,7.01-16.33,7.45-16.48.87-.29,1.35-1.23,1.06-2.1s-1.22-1.35-2.1-1.07c-.14.04-13.44,4.58-9.65,20.42.18.76.87,1.28,1.62,1.28Z"/>
</svg>