<?xml version="1.0" encoding="UTF-8"?>
<svg id="Layer_1" data-name="Layer 1" xmlns="http://www.w3.org/2000/svg" viewBox="0 0 100 100">
  <path d="M37.5,39.06v-3.12c0-4.31-3.5-7.81-7.81-7.81s-7.81,3.5-7.81,7.81v3.12c0,4.31,3.5,7.81,7.81,7.81s7.81-3.5,7.81-7.81ZM25,39.06v-3.12c0-2.59,2.1-4.69,4.69-4.69s4.69,2.1,4.69,4.69v3.12c0,2.59-2.1,4.69-4.69,4.69s-4.69-2.1-4.69-4.69Z"/>
  <path d="M85.94,100c.86,0,1.56-.7,1.56-1.56v-31.25c0-.86-.7-1.56-1.56-1.56h-23.44v-6.25h10.94c.76,0,1.41-.55,1.54-1.3l3.12-18.75c.14-.85-.43-1.66-1.28-1.8-.09-.01-.17-.02-.26-.02h-28.12c-.76,0-1.41.55-1.54,1.3l-3.12,18.75c-.14.85.43,1.66,1.28,1.8.09.01.17.02.26.02h14.06v6.25h-7.12c.56-.95.86-2.02.87-3.12,0-.8-.6-1.47-1.39-1.55l-13.44-1.49-7.41-8.89c-.3-.36-.74-.56-1.2-.56h-3.12c-4.31,0-7.81,3.5-7.81,7.81v18.75c0,1.7.57,3.34,1.6,4.69h-4.73v-26.56c0-.86-.7-1.56-1.56-1.56s-1.56.7-1.56,1.56v28.12c0,.86.7,1.56,1.56,1.56h7.81v12.5h-4.69c-.86,0-1.56.7-1.56,1.56s.7,1.56,1.56,1.56h12.5c.86,0,1.56-.7,1.56-1.56s-.7-1.56-1.56-1.56h-4.69v-12.5h11.59l7.05,12.34c.03.05.07.11.11.16,1.48,1.96,3.79,3.12,6.25,3.12h4.69c.86,0,1.56-.7,1.56-1.56,0-.26-.06-.51-.18-.73l-12.2-22.95c-.06-.11-.14-.22-.22-.31-1.48-1.63-3.58-2.56-5.78-2.56h-5.05v-3.12h51.56v29.69c0,.86.7,1.56,1.56,1.56ZM49.76,40.63h24.96l-2.6,15.62h-24.96l2.6-15.62ZM27.78,58.4c-.54-.67-1.52-.78-2.2-.24-.67.54-.78,1.52-.24,2.2h0l4.35,5.43v7.66c0,.86.7,1.56,1.56,1.56h6.61c1.26,0,2.46.51,3.35,1.41l10.88,20.47h-2.09c-1.44,0-2.8-.67-3.7-1.8l-7.45-13.04c-.28-.48-.8-.78-1.36-.78h-10.94c-2.59,0-4.69-2.1-4.69-4.69v-18.75c0-2.59,2.1-4.69,4.69-4.69h2.39l7.34,8.81c.26.31.63.51,1.03.55l12.36,1.37c-.52,1.08-1.61,1.76-2.81,1.76h-13.31l-5.78-7.23Z"/>
  <path d="M2.52,40.3L50,3.54l22.48,17.4c.68.53,1.66.4,2.19-.28.21-.27.33-.61.33-.95v-7.2h9.37v16.89c0,.48.22.94.61,1.24l12.5,9.67c.68.53,1.66.4,2.19-.28s.4-1.66-.28-2.19l-11.89-9.2V10.94c0-.86-.7-1.56-1.56-1.56h-12.5c-.86,0-1.56.7-1.56,1.56v5.58L50.96.33c-.56-.44-1.35-.44-1.91,0L.61,37.83c-.68.53-.81,1.51-.28,2.19.53.68,1.51.81,2.19.28Z"/>
  <path d="M62.5,87.5c-.86,0-1.56.7-1.56,1.56,0,.09,0,.17.02.26l1.56,9.37c.13.75.78,1.3,1.54,1.3h9.37c.76,0,1.41-.55,1.54-1.3l1.56-9.37c.14-.85-.43-1.66-1.28-1.8-.09-.01-.17-.02-.26-.02h-4.69v-2.29l3.99-2.66c.73-.46.95-1.43.48-2.16-.46-.73-1.43-.95-2.16-.48-.02.01-.04.03-.06.04l-2.26,1.5v-3.33c0-.86-.7-1.56-1.56-1.56s-1.56.7-1.56,1.56v3.33l-2.26-1.5c-.71-.5-1.68-.33-2.18.38-.5.71-.33,1.68.38,2.18.02.01.04.03.06.04l3.99,2.66v2.29h-4.69ZM72.11,96.87h-6.73l-1.04-6.25h8.81l-1.04,6.25Z"/>
</svg>