<?xml version="1.0" encoding="UTF-8"?>
<svg id="Layer_1" data-name="Layer 1" xmlns="http://www.w3.org/2000/svg" viewBox="0 0 120 120">
  <defs>
    <style>
      .cls-1 {
        fill: #e4e4f9;
      }

      .cls-2 {
        fill: #2e1c6a;
        fill-rule: evenodd;
      }
    </style>
  </defs>
  <circle class="cls-1" cx="75.13" cy="75.13" r="44.87"/>
  <path class="cls-2" d="M96.18,97.52h-22.34v-4.97h22.34v4.97ZM80.07,87.44c-.01-.16-.04-.31-.11-.46-2.42-6.02-2.91-12.99-1.53-21.31.11-.6-.17-1.21-.68-1.54l-9.51-6.04c-1.75-1.12-1.26-3.79.73-4.23.62-.14,1.23-.03,1.76.3l11.45,7.27c1.02.64,2.35-.09,2.35-1.29v-23.14c4.65,5.91,5.9,16.83,7.04,26.63.56,4.82,1.09,9.37,1.98,13.25.18.89.36,7.9-.03,12.61h-13.3l-.15-2.07h0ZM23.7,82.82h51.81c-1.09-4.97-1.17-10.48-.23-16.65l-8.66-5.5c-2.5-1.59-3.25-4.91-1.65-7.41,1.58-2.5,4.91-3.24,7.41-1.65l9.11,5.78V16.04h-6.88c-3.36,0-6.11-2.74-6.11-6.11V3.04H20.8c-1.69,0-3.07,1.38-3.07,3.06v51.28l9.13-5.78c1.2-.77,2.65-1.01,4.04-.7,4.69,1.05,5.71,7.23,1.71,9.78l-8.66,5.5c.94,6.18.86,11.68-.24,16.65h0ZM5.7,89.5c-.4-4.71-.22-11.72-.03-12.61.89-3.89,1.41-8.43,1.97-13.25,1.13-9.79,2.4-20.72,7.05-26.63v23.14c0,1.19,1.33,1.93,2.34,1.29l11.46-7.27c1.69-1.08,3.96.39,3.51,2.47-.13.61-.5,1.13-1.01,1.46l-9.51,6.04c-.52.32-.78.93-.69,1.54,1.4,8.33.9,15.3-1.52,21.31-.07.15-.11.3-.11.46l-.14,2.07H5.7ZM25.37,97.52H3.04v-4.97h22.33v4.97h0ZM71.53,5.2l7.79,7.79h-4.73c-1.69,0-3.07-1.37-3.07-3.06v-4.73h0ZM96.58,89.52c.37-4.86.23-12.03-.07-13.3-2.99-13.04-1.87-35.27-11.98-43.55V14.52c0-.4-.17-.79-.45-1.08L71.09.45c-.3-.3-.68-.45-1.08-.45H20.8c-3.37,0-6.12,2.73-6.12,6.1v26.56c-10.11,8.27-9.01,30.52-11.98,43.55-.3,1.28-.44,8.45-.07,13.3-1.48.18-2.64,1.45-2.64,2.99v5.05c0,1.65,1.35,3,3,3h22.42c1.65,0,3-1.35,3-3v-5.05c0-1.65-1.35-3-3-3h-3.36l.11-1.61c.26-.66.49-1.34.72-2.03h53.43c.22.68.46,1.36.72,2.03l.11,1.61h-3.36c-1.65,0-3,1.34-3,3v5.05c0,1.65,1.35,3,3,3h22.42c1.65,0,3-1.35,3-3v-5.05c0-1.54-1.16-2.81-2.65-2.99h0ZM54.99,45.33l2.54,2.83c.56.64,1.52.68,2.14.12l6.33-5.65c.63-.56.69-1.52.13-2.15-.56-.63-1.53-.68-2.16-.13l-5.2,4.64-1.52-1.69c-.56-.63-1.53-.68-2.16-.12-.62.56-.68,1.53-.11,2.15h0ZM66.49,74.66c0-.84-.68-1.52-1.53-1.52h-30.72c-.83,0-1.52.68-1.52,1.52s.68,1.52,1.52,1.52h30.72c.85,0,1.53-.68,1.53-1.52ZM54.99,31.4c-.56-.62-.5-1.59.11-2.15.63-.56,1.6-.51,2.16.12l1.52,1.69,5.2-4.64c.63-.56,1.6-.5,2.16.13.56.63.5,1.59-.13,2.15l-6.33,5.65c-.62.55-1.58.51-2.14-.12l-2.54-2.83h0ZM32.86,65.51c0-.84.68-1.52,1.53-1.52h28.85c.85,0,1.53.68,1.53,1.52s-.68,1.52-1.53,1.52h-28.85c-.85,0-1.53-.68-1.53-1.52h0ZM54.99,17.46c-.56-.63-.5-1.59.11-2.15.63-.56,1.6-.51,2.16.12l1.52,1.69,5.2-4.64c.63-.56,1.6-.5,2.16.12.56.63.5,1.6-.13,2.15l-6.33,5.65c-.62.55-1.58.51-2.14-.12l-2.54-2.83h0ZM48.68,45.62h-19.47v-9.97c0-5.37,4.37-9.73,9.73-9.73s9.73,4.37,9.73,9.73v9.97h0ZM34.03,17.96c0-2.71,2.2-4.91,4.9-4.91s4.9,2.2,4.9,4.91-2.2,4.9-4.9,4.91c-2.71,0-4.9-2.2-4.9-4.91ZM51.72,47.14c0,.84-.68,1.52-1.52,1.52h-22.52c-.83,0-1.52-.68-1.52-1.52v-11.5c0-5.2,3.1-9.68,7.57-11.67-1.68-1.46-2.76-3.61-2.76-6.02,0-4.39,3.57-7.96,7.96-7.96s7.96,3.57,7.96,7.96c0,2.4-1.08,4.55-2.76,6.02,4.45,1.99,7.57,6.47,7.57,11.67v11.5h0Z"/>
</svg>