<?xml version="1.0" encoding="UTF-8"?>
<svg id="Layer_1" xmlns="http://www.w3.org/2000/svg" version="1.1" viewBox="0 0 120 120">
  <!-- Generator: Adobe Illustrator 29.5.0, SVG Export Plug-In . SVG Version: 2.1.0 Build 137)  -->
  <defs>
    <style>
      .st0 {
        fill: #fff;
      }
    </style>
  </defs>
  <path class="st0" d="M68,5.3c0-2.2,2.2-4,4.8-4s4.8,1.8,4.8,4v17.3c0,2.2-2.2,4-4.8,4s-4.8-1.8-4.8-4V5.3h0ZM89.2,57.1c4.2,0,8.1.8,11.8,2.3,3.8,1.6,7.2,3.8,10,6.7s5.1,6.2,6.7,10c1.5,3.6,2.3,7.6,2.3,11.8s-.8,8.1-2.3,11.8c-1.6,3.8-3.8,7.2-6.7,10s-6.2,5.1-10,6.7c-3.6,1.5-7.6,2.3-11.8,2.3s-8.1-.8-11.8-2.3c-3.8-1.6-7.2-3.8-10-6.7s-5.1-6.2-6.7-10c-1.5-3.6-2.3-7.6-2.3-11.8s.8-8.1,2.3-11.8c1.6-3.8,3.8-7.2,6.7-10s6.2-5.1,10-6.7c3.6-1.5,7.6-2.3,11.8-2.3h0ZM86.9,75c0-.7.3-1.4.8-1.9h0c.5-.5,1.2-.8,1.9-.8s1.4.3,1.9.8.8,1.2.8,1.9v14.4l10.8,6.4h0c.6.4,1,1,1.1,1.6.2.7,0,1.4-.3,2h0s0,0,0,.1c-.4.6-1,1-1.6,1.1-.7.2-1.4,0-2-.3l-12-7.1c-.4-.2-.8-.6-1-1-.2-.4-.4-.9-.4-1.4h0v-16h0ZM107.2,69.9c-2.3-2.3-5.1-4.2-8.2-5.5-3-1.2-6.3-1.9-9.7-1.9s-6.7.7-9.7,1.9c-3.1,1.3-5.9,3.2-8.2,5.5s-4.2,5.1-5.5,8.2c-1.2,3-1.9,6.3-1.9,9.7s.7,6.7,1.9,9.7c1.3,3.1,3.2,5.9,5.5,8.2s5.1,4.2,8.2,5.5c3,1.2,6.3,1.9,9.7,1.9s6.7-.7,9.7-1.9c3.1-1.3,5.9-3.2,8.2-5.5,4.6-4.6,7.4-10.9,7.4-17.9s-.7-6.7-1.9-9.7c-1.3-3.1-3.2-5.9-5.5-8.2h0ZM13.1,57.4c-.3,0-.5-1.2-.5-2.7s.2-2.7.5-2.7h13.2c.3,0,.5,1.2.5,2.7s-.2,2.7-.5,2.7h-13.2ZM34.1,57.4c-.3,0-.5-1.2-.5-2.7s.2-2.7.5-2.7h13.2c.3,0,.5,1.2.5,2.7s-.2,2.7-.5,2.7h-13.2ZM55.1,57.4c-.3,0-.5-1.2-.5-2.7s.2-2.7.5-2.7h13.2c.3,0,.5,1.2.5,2.7-1.3.8-2.6,1.7-3.8,2.7h-9.9,0ZM13.2,72.7c-.3,0-.5-1.2-.5-2.7s.2-2.7.5-2.7h13.2c.3,0,.5,1.2.5,2.7s-.2,2.7-.5,2.7h-13.2ZM34.2,72.7c-.3,0-.5-1.2-.5-2.7s.2-2.7.5-2.7h13.2c.3,0,.5,1.2.5,2.7s-.2,2.7-.5,2.7h-13.2ZM13.2,88c-.3,0-.5-1.2-.5-2.7s.2-2.7.5-2.7h13.2c.3,0,.5,1.2.5,2.7s-.2,2.7-.5,2.7h-13.2ZM34.2,88c-.3,0-.5-1.2-.5-2.7s.2-2.7.5-2.7h13.2c.3,0,.5,1.2.5,2.7s-.2,2.7-.5,2.7h-13.2ZM24.7,5.3c0-2.2,2.1-4,4.8-4s4.8,1.8,4.8,4v17.3c0,2.2-2.2,4-4.8,4s-4.8-1.8-4.8-4V5.3h0ZM5.3,39.2h91.9v-19.9c0-.7-.3-1.3-.7-1.7-.4-.4-1.1-.7-1.7-.7h-8.8c-1.5,0-2.7-1.2-2.7-2.7s1.2-2.7,2.7-2.7h8.8c2.2,0,4.1.9,5.5,2.3s2.3,3.3,2.3,5.5v31.6c-1.8-.6-3.6-1.1-5.4-1.5v-4.9h0H5.3v51.6c0,.7.3,1.3.7,1.7s1.1.7,1.7.7h43.7c.5,1.9,1.1,3.7,1.9,5.4H7.8c-2.2,0-4.1-.9-5.5-2.3C.9,100.3,0,98.3,0,96.2V19.3C0,17.2.9,15.2,2.3,13.8c1.4-1.4,3.3-2.3,5.5-2.3h9.4c1.5,0,2.7,1.2,2.7,2.7s-1.2,2.7-2.7,2.7H7.8c-.7,0-1.3.3-1.7.7-.4.4-.7,1.1-.7,1.7v19.9h0,0ZM42.1,16.9c-1.5,0-2.7-1.2-2.7-2.7s1.2-2.7,2.7-2.7h17.9c1.5,0,2.7,1.2,2.7,2.7s-1.2,2.7-2.7,2.7h-17.9Z"/>
</svg>