<?xml version="1.0" encoding="UTF-8"?>
<svg id="Layer_1" data-name="Layer 1" xmlns="http://www.w3.org/2000/svg" viewBox="0 0 120 120">
  <defs>
    <style>
      .cls-1 {
        fill: #2e1c6a;
      }
    </style>
  </defs>
  <path class="cls-1" d="M68.02,5.34c0-2.18,2.15-3.95,4.82-3.95s4.82,1.77,4.82,3.95v17.3c0,2.18-2.15,3.95-4.82,3.95s-4.82-1.77-4.82-3.95V5.34h0ZM89.22,57.07c4.16,0,8.13.83,11.77,2.33,3.78,1.56,7.17,3.85,10,6.68,2.83,2.83,5.12,6.23,6.68,9.99,1.5,3.63,2.33,7.61,2.33,11.77s-.83,8.13-2.33,11.77c-1.56,3.78-3.85,7.17-6.68,10-2.83,2.83-6.23,5.12-9.99,6.68-3.63,1.5-7.61,2.33-11.77,2.33s-8.13-.83-11.77-2.33c-3.78-1.56-7.17-3.85-10-6.68-2.83-2.83-5.12-6.23-6.68-10-1.5-3.63-2.33-7.61-2.33-11.77s.83-8.13,2.33-11.77c1.56-3.78,3.85-7.17,6.68-10,2.83-2.83,6.23-5.12,9.99-6.68,3.63-1.49,7.6-2.32,11.77-2.32h0ZM86.92,74.98c0-.74.3-1.42.79-1.9h0c.49-.49,1.16-.79,1.91-.79s1.43.3,1.91.79.79,1.16.79,1.91v14.39l10.76,6.39.09.06c.6.38.99.96,1.14,1.59.17.66.09,1.39-.27,2.01l-.02.03s-.04.07-.07.1c-.38.59-.96.98-1.58,1.13-.66.17-1.39.09-2.01-.27l-12.03-7.12c-.42-.22-.77-.57-1.03-.97-.25-.41-.4-.89-.4-1.4h0v-15.96h0ZM107.17,69.89c-2.34-2.34-5.14-4.23-8.23-5.51-2.99-1.24-6.27-1.91-9.72-1.91s-6.73.68-9.72,1.91c-3.1,1.28-5.89,3.16-8.23,5.51s-4.23,5.14-5.51,8.23c-1.24,2.99-1.91,6.27-1.91,9.72s.68,6.73,1.91,9.72c1.28,3.1,3.16,5.89,5.51,8.23s5.14,4.23,8.23,5.51c2.99,1.24,6.27,1.91,9.72,1.91s6.73-.68,9.72-1.91c3.1-1.28,5.89-3.16,8.23-5.51,4.6-4.6,7.43-10.94,7.43-17.95,0-3.45-.68-6.73-1.91-9.72-1.29-3.1-3.17-5.89-5.52-8.23h0ZM13.13,57.39c-.27,0-.52-1.2-.52-2.68s.21-2.67.52-2.67h13.16c.27,0,.52,1.2.52,2.67s-.21,2.68-.52,2.68h-13.16ZM34.12,57.39c-.27,0-.52-1.2-.52-2.68s.21-2.67.52-2.67h13.16c.27,0,.52,1.2.52,2.67s-.21,2.68-.52,2.68h-13.16ZM55.1,57.39c-.27,0-.52-1.2-.52-2.68s.21-2.67.52-2.67h13.16c.27,0,.52,1.19.52,2.66-1.32.82-2.59,1.72-3.8,2.69h-9.88ZM13.16,72.7c-.27,0-.52-1.2-.52-2.68s.21-2.68.52-2.68h13.16c.27,0,.52,1.2.52,2.68s-.21,2.68-.52,2.68h-13.16ZM34.15,72.7c-.27,0-.52-1.2-.52-2.68s.21-2.68.52-2.68h13.16c.27,0,.52,1.2.52,2.68s-.21,2.68-.52,2.68h-13.16ZM13.19,88.03c-.27,0-.52-1.2-.52-2.68s.21-2.68.52-2.68h13.16c.27,0,.52,1.2.52,2.68s-.21,2.68-.52,2.68h-13.16ZM34.18,88.03c-.27,0-.52-1.2-.52-2.68s.21-2.68.52-2.68h13.16c.27,0,.52,1.2.52,2.68s-.21,2.68-.52,2.68h-13.16ZM24.7,5.34c0-2.18,2.15-3.95,4.82-3.95s4.82,1.77,4.82,3.95v17.3c0,2.18-2.16,3.95-4.82,3.95s-4.82-1.77-4.82-3.95V5.34h0ZM5.31,39.21h91.87v-19.92c0-.68-.27-1.28-.71-1.72-.44-.44-1.06-.71-1.72-.71h-8.81c-1.47,0-2.68-1.2-2.68-2.68s1.2-2.68,2.68-2.68h8.81c2.16,0,4.09.87,5.51,2.28s2.28,3.35,2.28,5.51v31.63c-1.76-.61-3.56-1.09-5.42-1.45v-4.94h.06H5.31v51.59c0,.68.27,1.28.71,1.72.44.44,1.06.71,1.72.71h43.66c.5,1.86,1.12,3.66,1.87,5.4H7.79c-2.15,0-4.09-.87-5.51-2.28-1.42-1.41-2.28-3.34-2.28-5.5V19.31c0-2.15.87-4.09,2.28-5.51,1.42-1.42,3.35-2.28,5.51-2.28h9.4c1.47,0,2.68,1.2,2.68,2.68s-1.2,2.68-2.68,2.68H7.79c-.68,0-1.28.27-1.72.71-.44.44-.71,1.06-.71,1.72v19.92h-.05ZM42.06,16.86c-1.47,0-2.68-1.2-2.68-2.68s1.2-2.68,2.68-2.68h17.93c1.47,0,2.68,1.2,2.68,2.68s-1.2,2.68-2.68,2.68h-17.93Z"/>
</svg>