<?xml version="1.0" encoding="UTF-8"?>
<svg id="Layer_1" data-name="Layer 1" xmlns="http://www.w3.org/2000/svg" viewBox="0 0 100 100">
  <g id="layer1">
    <path id="path7579" d="M50,0c-3.7,0-6.67,3-6.67,6.66s2.97,6.67,6.67,6.67,6.67-3.01,6.67-6.67S53.7,0,50,0ZM50,3.33c1.82,0,3.34,1.47,3.34,3.33s-1.51,3.34-3.34,3.34-3.34-1.48-3.34-3.34,1.51-3.33,3.34-3.33ZM38.79,10l-22.32,10.3c-2.01.88-.66,3.97,1.4,3.03l22.32-10.3c1.56-.69,1.15-3.06-.59-3.19-.28-.02-.56.04-.81.16ZM82.13,23.32c2.06.94,3.41-2.14,1.4-3.03l-22.32-10.3c-.25-.12-.53-.18-.81-.16-1.74.13-2.15,2.49-.59,3.19l22.32,10.3ZM45.63,19.02c-1.24.6-1.71,1.53-1.98,2.19-.27.66-.38,1.03-.73,1.45-.34.42-.97.96-2.43,1.58-1.46.62-2.31.7-2.87.66-.56-.04-.9-.21-1.54-.46-.64-.25-1.63-.57-2.87-.16-1.11.37-2.21,1.25-3.43,2.49-1.32,1.34-2.12,2.44-2.44,3.46-.39,1.23-.04,2.22.22,2.85.26.63.43.97.48,1.53.05.55-.03,1.41-.62,2.87-.59,1.46-1.13,2.12-1.55,2.48-.42.36-.78.48-1.4.74-.81.34-1.62.82-2.15,1.86-.49.94-.69,2.27-.67,4.11-.01,1.69.14,3.07.67,4.11.54,1.04,1.35,1.52,2.15,1.86.62.26.96.37,1.38.73.42.36.98,1.03,1.57,2.49.58,1.43.66,2.28.62,2.83-.04.55-.21.89-.46,1.49-.3.72-.58,1.63-.3,2.73.21.81.64,1.56,1.33,2.4-1.13,1.86-2.03,3.84-2.65,5.98-1.2-1.78-2.79-3.18-4.66-4.21,1.25-1.46,1.99-3.34,1.99-5.41,0-4.58-3.7-8.34-8.33-8.34s-8.34,3.75-8.34,8.34c0,2.06.75,3.95,2,5.41-4.19,2.26-6.99,6.68-6.99,11.77v1.96c0,4.17,3.37,7.53,7.5,7.53h11.66c1.54,0,2.98-.46,4.17-1.27v6.28c0,2,.63,3.96,2.15,5.25,1.53,1.29,3.76,1.69,6.31,1.19.04,0,.07-.02.11-.03l16.41-4.42,16.48,4.43c2.61.51,4.78.16,6.37-1.18,1.53-1.28,2.16-3.24,2.16-5.23v-6.3c1.2.81,2.63,1.26,4.17,1.26h11.66c4.13,0,7.5-3.35,7.5-7.53v-1.96c0-5.09-2.8-9.52-6.99-11.77,1.25-1.46,2-3.34,2-5.41,0-4.58-3.71-8.34-8.34-8.34s-8.33,3.75-8.33,8.34c0,2.06.75,3.95,1.99,5.41-1.86,1-3.46,2.44-4.67,4.22-.62-2.14-1.51-4.14-2.64-6,.69-.84,1.13-1.57,1.34-2.39.29-1.11,0-2.01-.3-2.73-.25-.6-.41-.93-.46-1.49-.04-.55.03-1.4.62-2.83.59-1.46,1.15-2.13,1.57-2.49.42-.36.76-.47,1.38-.73.8-.34,1.62-.82,2.15-1.86.54-1.04.69-2.42.67-4.11.01-1.84-.18-3.16-.67-4.11-.54-1.04-1.35-1.52-2.15-1.86-.62-.26-.98-.38-1.4-.74-.42-.36-.96-1.02-1.55-2.48-.59-1.46-.66-2.31-.62-2.87.05-.55.22-.89.48-1.53.26-.63.61-1.62.22-2.85-.32-1.01-1.12-2.12-2.44-3.46-1.22-1.23-2.32-2.12-3.43-2.49-1.23-.41-2.23-.09-2.87.16s-.98.42-1.54.46c-.56.04-1.41-.05-2.87-.66-1.45-.61-2.08-1.15-2.43-1.58-.34-.42-.45-.79-.73-1.45-.27-.66-.73-1.59-1.98-2.19-1.08-.52-2.37-.69-4.37-.69-1.99,0-3.29.16-4.37.69h0ZM6.67,20c-3.7,0-6.67,3-6.67,6.66s2.97,6.67,6.67,6.67,6.67-3.01,6.67-6.67-2.97-6.66-6.67-6.66ZM93.33,20c-3.7,0-6.67,3-6.67,6.66s2.97,6.67,6.67,6.67,6.67-3.01,6.67-6.67-2.97-6.66-6.67-6.66ZM52.92,22.01c.23.11.25.29.36.49.18.44.47,1.34,1.22,2.26.75.92,1.9,1.79,3.7,2.55,1.8.76,3.22,1,4.4.92,1.18-.08,2.05-.5,2.52-.68.28-.11.42-.17.6-.11.24.08.85.39,2.11,1.66,1.2,1.22,1.55,1.88,1.62,2.12.05.2-.03.37-.12.59-.16.38-.61,1.32-.71,2.5-.1,1.18.11,2.62.85,4.42.73,1.8,1.56,2.98,2.46,3.75.9.77,1.81,1.09,2.28,1.29.26.11.39.12.49.32.1.2.33.85.32,2.57.01,1.62-.18,2.31-.32,2.57-.1.2-.29.23-.49.32-.47.2-1.38.52-2.28,1.29-.9.77-1.73,1.95-2.46,3.75-.72,1.77-.94,3.18-.85,4.34.09,1.17.47,1.96.7,2.51.1.28.19.43.15.62-.01.05-.09.23-.15.35-2.47-2.99-5.65-5.41-9.25-6.99,2.05-2.35,3.28-5.41,3.28-8.76,0-7.34-5.99-13.33-13.34-13.33s-13.34,5.99-13.34,13.33c0,3.35,1.23,6.41,3.28,8.76-3.61,1.58-6.78,4-9.25,6.99-.06-.12-.14-.3-.15-.35-.05-.19.05-.34.15-.62.23-.55.61-1.34.7-2.51.09-1.17-.13-2.57-.85-4.34-.73-1.8-1.56-2.98-2.46-3.75-.9-.77-1.81-1.09-2.28-1.29-.2-.09-.39-.12-.49-.32-.14-.26-.33-.95-.32-2.57-.01-1.72.22-2.37.32-2.57.1-.2.23-.21.49-.32.47-.2,1.38-.52,2.28-1.29.9-.77,1.73-1.95,2.46-3.75.73-1.8.95-3.24.85-4.42-.1-1.18-.56-2.11-.71-2.5-.09-.22-.18-.39-.12-.59.07-.24.42-.9,1.62-2.12,1.26-1.28,1.87-1.58,2.11-1.66.18-.06.32,0,.6.11.47.18,1.34.6,2.52.68,1.18.08,2.61-.16,4.4-.92,1.8-.76,2.95-1.63,3.7-2.55.75-.92,1.03-1.82,1.22-2.26.11-.2.13-.38.36-.49.27-.13,1.15-.35,2.92-.35s2.65.21,2.92.35ZM6.67,23.33c1.82,0,3.34,1.47,3.34,3.33s-1.51,3.34-3.34,3.34-3.33-1.48-3.33-3.34,1.51-3.33,3.33-3.33ZM93.33,23.33c1.82,0,3.33,1.47,3.33,3.33s-1.51,3.34-3.33,3.34-3.34-1.48-3.34-3.34,1.51-3.33,3.34-3.33ZM9.67,36.04c-1.15-.07-2.02,1.01-1.71,2.12l2.93,11.1c.51,2.24,3.88,1.35,3.22-.85l-2.93-11.1c-.17-.71-.79-1.22-1.51-1.27ZM90.33,36.04c-.73.04-1.34.56-1.51,1.27l-2.93,11.1c-.65,2.2,2.71,3.08,3.22.85l2.93-11.1c.31-1.11-.56-2.19-1.71-2.12h0ZM50,36.67c5.49,0,10,4.46,10,10s-4.49,10-10,10-10-4.46-10-10,4.51-10,10-10ZM15,56.66c2.74,0,4.99,2.22,4.99,5s-2.24,5-4.99,5-5.01-2.22-5.01-5,2.26-5,5.01-5ZM85,56.66c2.74,0,5.01,2.22,5.01,5s-2.26,5-5.01,5-4.99-2.22-4.99-5,2.25-5,4.99-5ZM38.34,84.09v-5.77c-.05-2.17-3.29-2.17-3.33,0v6.63l-.42.11c-2.16.55-1.33,3.78.82,3.24l25.2-6.47c1.92-.49,3.79.62,4.28,2.45.5,1.85-.58,3.77-2.47,4.28l-29.59,7.97s0,0-.01,0c-1.89.36-2.91.03-3.51-.47-.6-.51-.97-1.38-.97-2.71v-15.01c0-9.5,6.06-17.52,14.45-20.45,2.08,1.33,4.56,2.12,7.22,2.12s5.13-.78,7.21-2.12c8.44,2.95,14.46,10.95,14.46,20.45v15.03c0,1.31-.38,2.18-.97,2.68-.6.5-1.61.83-3.51.47l-10.77-2.9,6.86-1.85c3.62-.98,5.81-4.69,4.82-8.36-.49-1.82-1.64-3.23-3.1-4.1v-1c-.05-2.17-3.29-2.15-3.33.06-.5-.04-1.26.04-1.89.21l-21.43,5.51ZM56.67,68.33c-2.17.05-2.17,3.29,0,3.33h4.99c2.17-.05,2.17-3.28,0-3.33h-4.99ZM11.77,69.34c.93.41,2.1.65,3.23.65s2.26-.25,3.24-.65c3.96,1.33,6.76,5.11,6.76,9.51v1.96c0,2.32-1.84,4.2-4.17,4.2h-11.66c-2.33,0-4.16-1.9-4.16-4.2v-1.96c0-4.4,2.81-8.17,6.77-9.51ZM81.76,69.34c.94.41,2.11.66,3.24.66s2.27-.23,3.23-.66c3.96,1.33,6.77,5.11,6.77,9.51v1.96c0,2.3-1.83,4.2-4.16,4.2h-11.66c-2.33,0-4.17-1.9-4.17-4.2v-1.96c0-4.39,2.81-8.18,6.76-9.51h0Z" vector-effect="none"/>
  </g>
</svg>