<?xml version="1.0" encoding="UTF-8"?>
<svg id="Layer_1" xmlns="http://www.w3.org/2000/svg" version="1.1" viewBox="0 0 100 100">
  <!-- Generator: Adobe Illustrator 29.5.0, SVG Export Plug-In . SVG Version: 2.1.0 Build 137)  -->
  <defs>
    <style>
      .st0 {
        fill: #231c6a;
      }
    </style>
  </defs>
  <path class="st0" d="M83.4,64.3c-3.2-5.2-4.8-10.7-4.8-16.3s-.7-1.5-1.5-1.5h-.3l6.4-13c.6-1.2.7-2.5.2-3.7s-1.3-2.2-2.5-2.8l-6.5-3.2c-2.4-1.2-5.3-.2-6.5,2.2l-10,20.4h-3.7s0,0,0,0,0,0,0,0h-.5v-8.9c0-1.9-2.9-1.9-2.9,0v8.9h-2.5v-8.9c0-1.9-2.9-1.9-2.9,0v8.9h-6.1l-4.2-12.4c0-.2-.2-.5-.4-.6l-11.2-9.4c-.4-.3-.9-.4-1.4-.3-.5.2-.8.6-1,1.1l-3,14.5c0,.3,0,.5,0,.8l2.1,6.3h-1.4c-.7,0-1.2.4-1.4,1.1,0,.2-1.3,5-1.3,11.5,0,8.6,2.2,16,6.5,21.2,1.2,1.5,3.5-.4,2.3-1.8-8-9.9-5.7-24.9-4.9-29h32.8c-.4,5.3-3.1,8.4-4.5,9.7-1.8-1.8-4.2-2.6-5.9-2.6-4.5,0-8.2,3.7-8.2,8.2s2.6,7,6.1,7.9c-3.4,6.7-9.2,9.9-10.6,10.5-.8,0-1.4.7-1.4,1.5v13.8c0,.8.7,1.5,1.5,1.5h23c.8,0,1.5-.7,1.5-1.5v-6.5h3.7c11.8,0,21.4-9.2,22-20.8,1.6,0,3-.9,3.7-2.3.8-1.4.8-3.2,0-4.6ZM70.6,27.5c.5-1,1.6-1.4,2.6-.9l6.5,3.2c1,.5,1.4,1.6.9,2.6l-1.1,2.3-2.6-1.3c-1.7-.8-3,1.8-1.3,2.6l2.6,1.3-2.2,4.6-4.2-2c-1.7-.8-3,1.8-1.3,2.6l4.2,2-1,2.1h-12.4l9.4-19.1ZM31,46.6l-1.9-5.8,3.8-3.5,3.2,9.3h-5ZM22.6,30.9l2.9-1,5.8,4.8-4.4,4.1-5.9-.4,1.6-7.6ZM21.4,41.5l5,.3,1.6,4.8h-4.8l-1.8-5.2ZM80.9,67.5c-.1.2-.5.8-1.3.8h-1.3c-.9,0-1.5.8-1.5,1.7,0,10.6-8.6,19.1-19.1,19.1h-5.2c-.8,0-1.5.7-1.5,1.5v6.5h-20.1v-11.2c2.3-1.1,9.2-5.1,12.6-13.7.3-.7,0-1.6-.8-1.9-.2,0-.4-.1-.6-.1,0,0,0,0,0,0-2.9,0-5.3-2.4-5.3-5.3s2.4-5.3,5.3-5.3,3.3.9,4.6,2.6c.5.6,1.3.8,2,.4.3-.2,6.3-4.1,6.9-13h20.2c.3,5.6,2,11.1,5.2,16.3.3.5.3,1.1,0,1.6Z"/>
  <path class="st0" d="M65.5,54.1c-3,0-5.4,2.4-5.4,5.4s2.9,1.9,2.9,0,1.1-2.4,2.4-2.4,2.4,1.1,2.4,2.4,2.9,1.9,2.9,0c0-3-2.4-5.4-5.4-5.4Z"/>
  <path class="st0" d="M24.7,13.1h1.5v1.5c0,1.9,2.9,1.9,2.9,0v-1.5h1.5c1.9,0,1.9-2.9,0-2.9h-1.5v-1.5c0-1.9-2.9-1.9-2.9,0v1.5h-1.5c-1.9,0-1.9,2.9,0,2.9Z"/>
  <path class="st0" d="M62.8,5.9h1.5v1.5c0,1.9,2.9,1.9,2.9,0v-1.5h1.5c1.9,0,1.9-2.9,0-2.9h-1.5v-1.5c0-1.9-2.9-1.9-2.9,0v1.5h-1.5c-1.9,0-1.9,2.9,0,2.9Z"/>
  <path class="st0" d="M72.9,16.8h1.5v1.5c0,1.9,2.9,1.9,2.9,0v-1.5h1.5c1.9,0,1.9-2.9,0-2.9h-1.5v-1.5c0-1.9-2.9-1.9-2.9,0v1.5h-1.5c-1.9,0-1.9,2.9,0,2.9Z"/>
  <path class="st0" d="M38.7,36.4c.6.2,1.3,0,1.6-.5,0,0,1.5-1.8,2.9-3.8,1.6,1.5,3.8,2.4,6,2.4h0c2.3,0,4.4-.9,6.1-2.4,1.4,2,2.8,3.7,2.9,3.7.8,1,2.6.4,2.6-.9v-9.1c0-1.2-.4-2.3-1.2-3.1-.4-.4-.9-.7-1.4-.9v-6.2c0-5.6-2.7-11-7.8-15.2-1.5-1.2-3.3,1-1.9,2.3,3.4,2.8,5.6,6.2,6.4,9.8h-11.1c.4-1.6,1.1-3.2,2.1-4.8,1-1.6-1.5-3.2-2.5-1.6-1.9,3-2.9,6.2-2.9,9.5v6.2c-1.6.7-2.7,2.3-2.8,4.1v9.1c0,.6.3,1.2.9,1.4ZM40.7,25.9c0-.9.7-1.5,1.6-1.6h0c.4,0,.8.2,1.1.5.3.3.4.6.4,1-.2.7-1.6,2.7-3.2,4.9v-4.8ZM58,30.7c-1.6-2.2-3-4.2-3.2-4.9,0-.8.8-1.5,1.6-1.5h0c.4,0,.8.2,1.1.5.3.3.4.7.4,1.1v4.9ZM55.3,15.3c0,0,0,.1,0,.2v6c-2,.5-3.5,2.2-3.5,4.3,0,.6.2,1.4,1.8,3.9-1.1,1.2-2.7,1.9-4.4,1.9h0c-1.7,0-3.2-.7-4.3-1.9,1.7-2.5,1.9-3.3,1.9-3.9,0-1.2-.5-2.3-1.3-3.1-.6-.6-1.3-1-2.1-1.2v-6c0,0,0-.2,0-.2h11.9Z"/>
  <path class="st0" d="M41.8,63.3c-1.9,0-1.9,2.9,0,2.9s1.9-2.9,0-2.9Z"/>
</svg>