<?xml version="1.0" encoding="UTF-8"?>
<svg id="Layer_1" data-name="Layer 1" xmlns="http://www.w3.org/2000/svg" viewBox="0 0 100 100">
  <path d="M21.06,31.87c-6.61,0-11.97-5.37-11.97-11.98,0-6.61,5.37-11.97,11.98-11.97,6.61,0,11.97,5.36,11.97,11.97,0,6.61-5.37,11.97-11.98,11.97ZM21.06,11.35c-4.72,0-8.54,3.83-8.53,8.55,0,4.72,3.83,8.54,8.55,8.53,4.71,0,8.53-3.83,8.53-8.54,0-4.72-3.83-8.54-8.55-8.54Z"/>
  <path d="M21.06,6.61c-.95,0-1.72-.77-1.72-1.72V1.72c0-.95.77-1.72,1.72-1.72s1.72.77,1.72,1.72v3.18c0,.95-.77,1.72-1.72,1.72Z"/>
  <path d="M10.45,11c-.46,0-.89-.18-1.21-.5l-2.25-2.25c-.67-.67-.67-1.76,0-2.43s1.76-.67,2.43,0l2.25,2.25c.67.67.67,1.76,0,2.43-.32.32-.76.5-1.22.5Z"/>
  <path d="M6.06,21.61h-3.18c-.95,0-1.72-.77-1.72-1.72s.77-1.72,1.72-1.72h3.18c.95,0,1.72.77,1.72,1.72s-.77,1.72-1.72,1.72Z"/>
  <path d="M8.2,34.46c-.95,0-1.72-.77-1.72-1.72,0-.46.18-.89.5-1.22l2.25-2.25c.67-.67,1.76-.67,2.43,0,.67.67.67,1.76,0,2.43l-2.25,2.25c-.32.32-.76.51-1.21.5Z"/>
  <path d="M21.06,39.79c-.95,0-1.72-.77-1.72-1.72v-3.18c0-.95.77-1.72,1.72-1.72s1.72.77,1.72,1.72v3.18c0,.95-.77,1.72-1.72,1.72Z"/>
  <path d="M33.91,34.46c-.46,0-.89-.18-1.21-.5l-2.25-2.25c-.65-.69-.63-1.77.06-2.43.66-.63,1.7-.63,2.36,0l2.25,2.25c.67.67.67,1.76,0,2.43-.32.32-.76.5-1.22.5Z"/>
  <path d="M39.23,21.61h-3.18c-.95,0-1.72-.77-1.72-1.72s.77-1.72,1.72-1.72h3.18c.95,0,1.72.77,1.72,1.72s-.77,1.72-1.72,1.72Z"/>
  <path d="M31.66,11c-.95,0-1.72-.77-1.72-1.72,0-.46.18-.89.5-1.21l2.25-2.25c.69-.65,1.77-.63,2.43.06.63.66.63,1.7,0,2.36l-2.25,2.25c-.32.32-.76.5-1.21.5Z"/>
  <path d="M97.1,83.28H20.82c-4.65,0-8.79-2.95-10.32-7.34l-6.52-18.7c-1.16-3.36.6-7.03,3.95-8.22,3.37-1.19,7.06.58,8.25,3.95,0,0,0,.02,0,.02l4.27,12.32c1.05,3.02,3.89,5.04,7.08,5.04h69.56c.95,0,1.72.77,1.72,1.72v9.5c0,.95-.77,1.72-1.72,1.72h0ZM10.09,52.08c-1.67,0-3.03,1.36-3.03,3.03,0,.34.06.67.17.99l6.51,18.7c1.05,3.01,3.89,5.03,7.08,5.04h74.57v-6.06H27.55c-4.66,0-8.8-2.95-10.33-7.35l-4.27-12.31c-.42-1.22-1.57-2.03-2.86-2.04h0Z"/>
  <path d="M32.91,100h-7.81c-.95,0-1.72-.77-1.72-1.72,0-.24.05-.48.15-.7l7.46-16.72c.39-.87,1.4-1.26,2.27-.87.87.39,1.26,1.4.87,2.27h0l-6.37,14.31h4.04l7-15.71c.39-.87,1.4-1.26,2.27-.87.87.39,1.26,1.4.87,2.27h0l-7.45,16.72c-.28.62-.89,1.02-1.57,1.02h0Z"/>
  <path d="M87.71,100h-7.8c-.68,0-1.29-.4-1.57-1.02l-7.45-16.72c-.39-.87,0-1.88.87-2.27.87-.39,1.88,0,2.27.87l7,15.71h4.04l-6.38-14.31c-.4-.86-.02-1.88.84-2.28.86-.4,1.88-.02,2.28.84,0,.01.01.03.02.04l7.46,16.72c.39.87,0,1.88-.87,2.27-.22.1-.46.15-.7.15h0Z"/>
  <path d="M97.1,49.97c-.95,0-1.72-.77-1.72-1.72-.01-14.93-12.11-27.03-27.04-27.04-14.8,0-26.94,12.05-27.02,26.86,0,.95-.77,1.72-1.72,1.72h-.01c-.95,0-1.71-.78-1.71-1.73h0c.1-16.75,13.72-30.28,30.47-30.27,16.8,0,30.47,13.67,30.47,30.47,0,.95-.78,1.71-1.73,1.71,0,0,0,0,0,0Z"/>
  <path d="M79.47,49.97c-.95,0-1.72-.77-1.72-1.72,0-7.47-1.12-14.47-3.14-19.71-1.77-4.59-4.11-7.32-6.26-7.32s-4.49,2.74-6.26,7.32c-2.03,5.24-3.14,12.23-3.14,19.71,0,.95-.77,1.72-1.72,1.72s-1.72-.77-1.72-1.72c0-7.88,1.2-15.32,3.37-20.95,2.37-6.14,5.74-9.52,9.46-9.52s7.08,3.38,9.46,9.52c2.18,5.62,3.37,13.06,3.37,20.95,0,.95-.77,1.72-1.72,1.72Z"/>
  <path d="M57.23,49.97c-.95,0-1.72-.77-1.72-1.72-.05-3.92-3.26-7.06-7.18-7.02-3.8.04-6.89,3.07-7.01,6.87-.02.95-.81,1.7-1.76,1.67s-1.7-.81-1.67-1.76h0c.12-5.81,4.93-10.43,10.74-10.32,5.73.12,10.32,4.8,10.32,10.53,0,.94-.76,1.71-1.71,1.72v.02Z"/>
  <path d="M97.1,49.97c-.95,0-1.72-.77-1.72-1.72-.05-3.92-3.26-7.06-7.18-7.02-3.8.04-6.89,3.07-7.01,6.87-.02.93-.79,1.67-1.72,1.67h-.05c-.95-.02-1.7-.81-1.67-1.76.12-5.81,4.93-10.43,10.74-10.32,5.73.12,10.32,4.8,10.32,10.53,0,.95-.77,1.72-1.72,1.72v.02Z"/>
  <path d="M79.48,49.97c-.94,0-1.71-.76-1.72-1.7,0-1.81-.94-3.53-2.61-4.85-1.8-1.42-4.21-2.21-6.8-2.21-5.06,0-9.28,3.11-9.41,6.92-.03.95-.82,1.69-1.77,1.66-.95-.03-1.69-.82-1.66-1.77.18-5.74,5.82-10.24,12.84-10.24,3.36,0,6.53,1.05,8.93,2.95,2.5,1.98,3.89,4.65,3.91,7.51,0,.95-.76,1.72-1.71,1.73h-.01Z"/>
  <path d="M68.35,73.78c-.95,0-1.72-.77-1.72-1.72v-32.58c0-.95.77-1.72,1.72-1.72s1.72.77,1.72,1.72v32.58c0,.95-.77,1.72-1.72,1.72Z"/>
  <path d="M68.35,21.22c-.95,0-1.72-.77-1.72-1.72v-7.65c0-.95.77-1.72,1.72-1.72s1.72.77,1.72,1.72v7.65c0,.95-.77,1.72-1.72,1.72Z"/>
  <path d="M32.73,73.78c-.95,0-1.72-.77-1.72-1.72,0-5.36-4.35-9.7-9.7-9.71h-4.28c-.95,0-1.72-.77-1.72-1.72s.77-1.72,1.72-1.72h4.29c7.25,0,13.13,5.89,13.14,13.14,0,.95-.77,1.72-1.72,1.72,0,0,0,0,0,0Z"/>
</svg>