<?xml version="1.0" encoding="UTF-8"?>
<svg id="Layer_1" xmlns="http://www.w3.org/2000/svg" version="1.1" viewBox="0 0 20 20">
  <!-- Generator: Adobe Illustrator 29.3.1, SVG Export Plug-In . SVG Version: 2.1.0 Build 151)  -->
  <defs>
    <style>
      .st0 {
        fill: #673ddb;
      }
    </style>
  </defs>
  <path class="st0" d="M20,2.56v1.16H0v-1.16C0,1.14,1.14,0,2.56,0h14.88c1.42,0,2.56,1.14,2.56,2.56h0ZM20,5.12v12.33c0,1.42-1.14,2.56-2.56,2.56H2.56C1.14,20,0,18.86,0,17.44V5.12h20ZM5.25,11.86l1.83-1.83c.28-.27.28-.72,0-.99-.27-.27-.71-.27-.98,0l-2.33,2.33c-.27.27-.27.72,0,.99l2.33,2.33c.14.14.31.2.49.2s.36-.06.49-.2c.28-.27.28-.72,0-.99l-1.83-1.83ZM11.34,7.47c-.37-.11-.75.1-.86.47l-2.28,7.44c-.12.37.09.76.47.87.06.02.13.03.2.03.3,0,.58-.19.66-.49l2.28-7.44c.12-.37-.09-.76-.47-.87h0ZM16.23,11.37l-2.33-2.33c-.28-.27-.71-.27-.98,0-.28.27-.28.72,0,.99l1.83,1.83-1.83,1.83c-.28.27-.28.72,0,.99.13.14.31.2.49.2s.35-.06.49-.2l2.33-2.33c.27-.27.27-.72,0-.99h0ZM16.23,11.37"/>
</svg>