<?xml version="1.0" encoding="UTF-8"?>
<svg id="Layer_1" xmlns="http://www.w3.org/2000/svg" version="1.1" viewBox="0 0 181.31 181.31">
  <!-- Generator: Adobe Illustrator 29.2.1, SVG Export Plug-In . SVG Version: 2.1.0 Build 116)  -->
  <defs>
    <style>
      .st0 {
        fill: #00e04c;
        fill-rule: evenodd;
      }

      .st1 {
        fill: #c3e5c3;
      }
    </style>
  </defs>
  <circle class="st1" cx="113.51" cy="113.51" r="67.79"/>
  <path class="st0" d="M145.31,147.33h-33.75v-7.51h33.75v7.51ZM120.97,132.1c-.02-.24-.06-.47-.16-.69-3.65-9.09-4.4-19.62-2.31-32.2.16-.91-.25-1.83-1.03-2.32l-14.37-9.12c-2.65-1.69-1.91-5.72,1.11-6.39.93-.21,1.86-.04,2.66.46l17.3,10.99c1.54.97,3.55-.14,3.55-1.95v-34.96c7.02,8.93,8.92,25.43,10.63,40.23.85,7.28,1.65,14.15,2.99,20.02.27,1.34.54,11.93-.04,19.05h-20.1l-.23-3.12ZM35.81,125.13h78.27c-1.65-7.51-1.77-15.83-.35-25.16l-13.09-8.31c-3.78-2.4-4.91-7.42-2.5-11.2,2.38-3.77,7.42-4.9,11.19-2.5l13.77,8.74V24.23h-10.4c-5.08,0-9.23-4.14-9.23-9.23V4.6H31.43c-2.56,0-4.64,2.08-4.64,4.62v77.47l13.79-8.74c1.82-1.16,4-1.53,6.11-1.06,7.08,1.58,8.63,10.92,2.58,14.77l-13.09,8.31c1.42,9.34,1.3,17.65-.37,25.16h0ZM8.61,135.22c-.6-7.12-.33-17.71-.04-19.05,1.34-5.87,2.13-12.74,2.97-20.02,1.71-14.79,3.63-31.3,10.65-40.23v34.96c0,1.8,2.01,2.92,3.53,1.95l17.32-10.99c2.55-1.63,5.99.59,5.3,3.73-.19.92-.76,1.7-1.53,2.2l-14.37,9.12c-.78.49-1.18,1.41-1.05,2.32,2.11,12.58,1.36,23.11-2.29,32.2-.1.22-.16.45-.17.69l-.21,3.12H8.61ZM38.33,147.33H4.6v-7.51h33.73v7.51h0ZM108.07,7.86l11.77,11.77h-7.14c-2.56,0-4.64-2.07-4.64-4.62v-7.15h0ZM145.91,135.25c.56-7.34.35-18.17-.1-20.1-4.51-19.7-2.82-53.28-18.1-65.8v-27.42c0-.61-.25-1.19-.68-1.63L107.41.68C106.96.23,106.38,0,105.78,0H31.43C26.34,0,22.19,4.13,22.19,9.22v40.13c-15.27,12.5-13.62,46.11-18.1,65.8-.45,1.94-.66,12.76-.1,20.1C1.75,135.52,0,137.44,0,139.76v7.63C0,149.89,2.04,151.93,4.54,151.93h33.87c2.5,0,4.54-2.04,4.54-4.54v-7.63c0-2.5-2.04-4.54-4.54-4.54h-5.08l.17-2.43c.39-1,.74-2.03,1.09-3.06h80.73c.33,1.03.7,2.06,1.09,3.06l.17,2.43h-5.08c-2.5,0-4.54,2.03-4.54,4.54v7.63c0,2.5,2.04,4.54,4.54,4.54h33.87c2.5,0,4.54-2.04,4.54-4.54v-7.63c0-2.32-1.75-4.24-4-4.51h0ZM83.08,68.49l3.84,4.27c.85.96,2.3,1.02,3.24.18l9.56-8.53c.95-.85,1.05-2.3.19-3.25-.85-.95-2.31-1.03-3.26-.19l-7.86,7.01-2.29-2.56c-.85-.95-2.31-1.03-3.26-.18-.93.85-1.03,2.31-.17,3.25h0ZM100.46,112.8c0-1.27-1.03-2.3-2.31-2.3h-46.42c-1.26,0-2.29,1.03-2.29,2.3s1.03,2.3,2.29,2.3h46.42c1.28,0,2.31-1.03,2.31-2.3ZM83.08,47.44c-.85-.94-.76-2.4.17-3.25.95-.85,2.41-.77,3.26.18l2.29,2.56,7.86-7.01c.95-.85,2.41-.76,3.26.19.85.95.76,2.4-.19,3.25l-9.56,8.54c-.94.83-2.39.77-3.24-.18l-3.84-4.27ZM49.64,98.98c0-1.27,1.03-2.3,2.31-2.3h43.59c1.28,0,2.31,1.03,2.31,2.3s-1.03,2.3-2.31,2.3h-43.59c-1.28,0-2.31-1.03-2.31-2.3h0ZM83.08,26.38c-.85-.95-.76-2.4.17-3.25.95-.85,2.41-.77,3.26.18l2.29,2.56,7.86-7.01c.95-.85,2.41-.76,3.26.18.85.95.76,2.41-.19,3.25l-9.56,8.54c-.94.83-2.39.77-3.24-.18l-3.84-4.27ZM73.54,68.92h-29.41v-15.06c0-8.11,6.6-14.7,14.7-14.7s14.7,6.6,14.7,14.7v15.06ZM51.42,27.13c0-4.09,3.32-7.42,7.41-7.42s7.41,3.33,7.41,7.42-3.32,7.41-7.41,7.42c-4.09,0-7.41-3.33-7.41-7.42ZM78.14,71.22c0,1.27-1.03,2.3-2.29,2.3h-34.02c-1.26,0-2.29-1.03-2.29-2.3v-17.37c0-7.85,4.69-14.62,11.44-17.63-2.54-2.2-4.17-5.46-4.17-9.09,0-6.63,5.39-12.02,12.03-12.02s12.03,5.39,12.03,12.02c0,3.63-1.63,6.88-4.17,9.09,6.73,3.01,11.44,9.78,11.44,17.63v17.37h0Z"/>
</svg>