<?xml version="1.0" encoding="UTF-8"?>
<svg id="Layer_1" xmlns="http://www.w3.org/2000/svg" version="1.1" viewBox="0 0 101.32 94.08">
  <!-- Generator: Adobe Illustrator 29.2.1, SVG Export Plug-In . SVG Version: 2.1.0 Build 116)  -->
  <defs>
    <style>
      .st0 {
        fill: #663cd9;
      }
    </style>
  </defs>
  <path class="st0" d="M23.22,0C21.05,0,19.3,1.76,19.3,3.92v3.92c-8.66,0-15.67,7.02-15.68,15.68v54.88c0,8.66,7.02,15.67,15.68,15.68h62.72c8.66,0,15.67-7.02,15.68-15.68V23.52c0-8.66-7.02-15.67-15.68-15.68v-3.92C82.02,1.76,80.27,0,78.1,0s-3.92,1.76-3.92,3.92v3.92h-19.6v-3.92C54.58,1.76,52.83,0,50.66,0s-3.92,1.76-3.92,3.92v3.92h-19.6v-3.92C27.14,1.76,25.38,0,23.22,0h0ZM89.86,78.4c0,4.33-3.51,7.84-7.84,7.84H19.3c-4.33,0-7.84-3.51-7.84-7.84v-39.2h78.4v39.2h0ZM46.74,15.68v3.92c0,2.17,1.76,3.92,3.92,3.92s3.92-1.76,3.92-3.92v-3.92h19.6v3.92c0,2.17,1.76,3.92,3.92,3.92s3.92-1.76,3.92-3.92v-3.92c4.33,0,7.84,3.51,7.84,7.84v7.84H11.46v-7.84c0-4.33,3.51-7.84,7.84-7.84v3.92c0,2.17,1.76,3.92,3.92,3.92s3.92-1.76,3.92-3.92v-3.92h19.6Z"/>
  <g>
    <rect class="st0" x="55.84" y="47.74" width="6.14" height="5.97"/>
    <rect class="st0" x="45.82" y="49.55" width="7.98" height="4.15"/>
    <path class="st0" d="M45.32,69.15h19.12l3.42-13.41h-27.88l3.32,12.52v5.43h1.88c-.18.41-.28.86-.28,1.34,0,1.86,1.51,3.37,3.37,3.37s3.37-1.51,3.37-3.37c0-.48-.1-.93-.28-1.34h5.61c-.18.41-.28.86-.28,1.34,0,1.86,1.51,3.37,3.37,3.37s3.37-1.51,3.37-3.37c0-.48-.1-.93-.28-1.34h1.53v-2.03h-19.37v-2.51ZM59.24,59.12h2.03v6.45h-2.03v-6.45ZM55.03,59.12h2.03v6.45h-2.03v-6.45ZM50.82,59.12h2.03v6.45h-2.03v-6.45ZM46.62,59.12h2.03v6.45h-2.03v-6.45Z"/>
    <polygon class="st0" points="39.77 47.04 33.47 47.04 33.47 49.08 38.21 49.08 39.43 53.71 41.54 53.71 39.77 47.04"/>
  </g>
</svg>