<?xml version="1.0" encoding="UTF-8"?>
<svg id="Layer_1" xmlns="http://www.w3.org/2000/svg" version="1.1" viewBox="0 0 101.32 94.08">
  <!-- Generator: Adobe Illustrator 29.2.1, SVG Export Plug-In . SVG Version: 2.1.0 Build 116)  -->
  <defs>
    <style>
      .st0 {
        fill: #663cd9;
      }
    </style>
  </defs>
  <path class="st0" d="M90.47,21.71h-7.24v-10.86c0-6-4.86-10.86-10.86-10.86H10.86C4.86,0,0,4.86,0,10.86v72.37c0,6,4.86,10.86,10.86,10.86h77.8c6.99,0,12.67-5.67,12.67-12.67v-48.85c0-6-4.86-10.86-10.86-10.86ZM7.24,83.23V10.86c0-2,1.62-3.62,3.62-3.62h61.52c2,0,3.62,1.62,3.62,3.62v70.56c0,1.88.44,3.74,1.27,5.43H10.86c-2,0-3.62-1.62-3.62-3.62ZM94.08,81.42c0,3-2.43,5.43-5.43,5.43s-5.43-2.43-5.43-5.43V28.95h7.24c2,0,3.62,1.62,3.62,3.62v48.85Z"/>
  <path class="st0" d="M65.14,25.33H28.95c-2,0-3.62,1.62-3.62,3.62s1.62,3.62,3.62,3.62h36.19c2,0,3.62-1.62,3.62-3.62s-1.62-3.62-3.62-3.62Z"/>
  <path class="st0" d="M65.14,43.42H18.09c-2,0-3.62,1.62-3.62,3.62s1.62,3.62,3.62,3.62h47.04c2,0,3.62-1.62,3.62-3.62s-1.62-3.62-3.62-3.62Z"/>
  <path class="st0" d="M65.14,61.52H18.09c-2,0-3.62,1.62-3.62,3.62s1.62,3.62,3.62,3.62h47.04c2,0,3.62-1.62,3.62-3.62s-1.62-3.62-3.62-3.62Z"/>
</svg>