<?xml version="1.0" encoding="UTF-8"?>
<svg id="Layer_1" xmlns="http://www.w3.org/2000/svg" version="1.1" viewBox="0 0 181.31 181.31">
  <!-- Generator: Adobe Illustrator 29.2.1, SVG Export Plug-In . SVG Version: 2.1.0 Build 116)  -->
  <defs>
    <style>
      .st0 {
        fill: #d3cfe5;
      }

      .st1 {
        fill: #663cd9;
      }
    </style>
  </defs>
  <circle class="st0" cx="113.51" cy="113.51" r="67.79"/>
  <g id="surface1">
    <g>
      <path class="st1" d="M103.55,65.77v-28.75c0-.82-.38-1.58-.92-2.19L70.39.98c-.6-.63-1.46-.98-2.31-.98H16.97C7.54,0,0,7.69,0,17.13v96.65c0,9.44,7.54,17,16.97,17h40.34c7.63,12.67,21.5,21.15,37.3,21.15,24,0,43.6-19.51,43.6-43.54.03-20.99-15.04-38.54-34.67-42.62ZM71.25,11.12l21.63,22.77h-14.03c-4.18,0-7.6-3.45-7.6-7.63v-15.14ZM16.97,124.45c-5.92,0-10.64-4.75-10.64-10.67V17.13c0-5.95,4.72-10.8,10.64-10.8h47.94v19.92c0,7.69,6.24,13.96,13.93,13.96h18.37v24.73c-.95-.03-1.71-.13-2.53-.13-11.05,0-21.22,4.24-28.88,10.89H25.59c-1.74,0-3.17,1.42-3.17,3.17s1.42,3.17,3.17,3.17h34.33c-2.25,3.17-4.12,6.33-5.57,9.82h-28.75c-1.74,0-3.17,1.42-3.17,3.17s1.42,3.17,3.17,3.17h26.69c-.79,3.17-1.2,6.68-1.2,10.2,0,5.7,1.11,11.34,3.1,16.09H16.97v-.03ZM94.65,145.63c-20.52,0-37.21-16.69-37.21-37.21s16.66-37.21,37.21-37.21,37.21,16.69,37.21,37.21-16.69,37.21-37.21,37.21Z"/>
      <path class="st1" d="M25.59,66.18h32.08c1.74,0,3.17-1.43,3.17-3.17s-1.42-3.17-3.17-3.17H25.59c-1.74,0-3.17,1.42-3.17,3.17s1.42,3.17,3.17,3.17Z"/>
      <path class="st1" d="M110.86,107.76l-13.01,14.03v-34.58c0-1.74-1.43-3.17-3.17-3.17s-3.17,1.42-3.17,3.17v34.58l-13.11-14.03c-1.2-1.27-3.23-1.36-4.5-.16-1.27,1.2-1.36,3.2-.16,4.47l18.52,19.92c.6.63,1.42,1.01,2.31,1.01s1.71-.38,2.31-1.01l18.56-19.92c1.2-1.27,1.14-3.29-.13-4.47-1.3-1.2-3.26-1.11-4.47.16Z"/>
    </g>
  </g>
</svg>