<?xml version="1.0" encoding="UTF-8"?>
<svg id="Layer_1" xmlns="http://www.w3.org/2000/svg" version="1.1" viewBox="0 0 181.31 181.31">
  <!-- Generator: Adobe Illustrator 29.2.1, SVG Export Plug-In . SVG Version: 2.1.0 Build 116)  -->
  <defs>
    <style>
      .st0 {
        fill: #eaddce;
      }

      .st1 {
        fill: #ff8c00;
      }
    </style>
  </defs>
  <circle class="st0" cx="113.51" cy="113.51" r="67.79"/>
  <g>
    <path class="st1" d="M10.29,32.44c1,0,1.82-.81,1.82-1.82v-.61c0-1-.81-1.82-1.82-1.82s-1.82.81-1.82,1.82v.61c0,1,.81,1.82,1.82,1.82Z"/>
    <path class="st1" d="M8.47,64.51c0,1,.81,1.82,1.82,1.82s1.82-.81,1.82-1.82v-27.83c0-1-.81-1.82-1.82-1.82s-1.82.81-1.82,1.82v27.83Z"/>
    <path class="st1" d="M17.85,99.32c0,1,.96,1.79,1.96,1.79h19.52c.99,0,1.8-.79,1.81-1.78,0,0,0-.01,0-.02v-3.21c0-1-.81-1.82-1.82-1.82s-1.82.81-1.82,1.82v1.38h-16.03v-15.73h14.44c1,0,1.82-.81,1.82-1.82s-.81-1.82-1.82-1.82h-16.11c-1,0-1.96.67-1.96,1.67v19.52Z"/>
    <path class="st1" d="M39.86,83.37l-7.25,6.08-2.48-2.48c-.7-.71-1.85-.72-2.57-.02-.71.7-.72,1.85-.02,2.57,0,0,.01.01.02.02l3.65,3.65c.67.67,1.73.71,2.45.11l8.52-7.14c.77-.64.87-1.79.23-2.56-.64-.77-1.79-.87-2.56-.23h0Z"/>
    <path class="st1" d="M50.68,86.89h27.06c1,0,1.82-.81,1.82-1.82s-.81-1.82-1.82-1.82h-27.06c-1,0-1.82.81-1.82,1.82s.81,1.82,1.82,1.82Z"/>
    <path class="st1" d="M50.68,95.67h41.03c1,0,1.82-.81,1.82-1.82s-.81-1.82-1.82-1.82h-41.03c-1,0-1.82.81-1.82,1.82s.81,1.82,1.82,1.82Z"/>
    <path class="st1" d="M17.85,134.09c0,1,.81,1.82,1.82,1.82h19.66c1,0,1.82-.81,1.82-1.82v-19.66c0-1-.81-1.82-1.82-1.82h-19.66c-1,0-1.82.81-1.82,1.82v19.66ZM21.48,116.24h16.03v16.03h-16.03v-16.03Z"/>
    <path class="st1" d="M50.68,121.68h27.06c1,0,1.82-.81,1.82-1.82s-.81-1.82-1.82-1.82h-27.06c-1,0-1.82.81-1.82,1.82s.81,1.82,1.82,1.82Z"/>
    <path class="st1" d="M35.92,43.63h-16.11c-1.05.05-1.9.89-1.96,1.94v19.52c0,1,.96,1.83,1.96,1.83h19.52c1,0,1.81-.83,1.81-1.83v-3.21c0-1-.81-1.82-1.82-1.82s-1.82.81-1.82,1.82v1.42h-16.03v-16.03h14.44c1,0,1.82-.81,1.82-1.82s-.81-1.82-1.82-1.82Z"/>
    <path class="st1" d="M42.41,49.38c-.64-.77-1.79-.87-2.56-.22l-7.24,6.08-2.48-2.48c-.72-.7-1.87-.68-2.57.03-.69.7-.69,1.83,0,2.53l3.65,3.65c.67.67,1.73.71,2.45.11l8.52-7.14c.77-.64.87-1.79.22-2.56,0,0,0,0,0,0Z"/>
    <path class="st1" d="M50.68,52.71h27.06c1,0,1.82-.81,1.82-1.82s-.81-1.82-1.82-1.82h-27.06c-1,0-1.82.81-1.82,1.82s.81,1.82,1.82,1.82Z"/>
    <path class="st1" d="M50.68,61.48h41.03c1,0,1.82-.81,1.82-1.82s-.81-1.82-1.82-1.82h-41.03c-1,0-1.82.81-1.82,1.82s.81,1.82,1.82,1.82Z"/>
    <path class="st1" d="M124.93,74.55l-13.3,13.28V26.9c-.02-5.98-4.89-10.82-10.87-10.8-.01,0-.02,0-.03,0h-3.01v-4.74c0-6.18-5.01-11.19-11.19-11.19s-11.19,5.01-11.19,11.19v4.74h-39.33v-4.91c0-6.18-5.01-11.19-11.19-11.19s-11.19,5.01-11.19,11.19v4.91h-2.82c-5.96,0-10.79,4.83-10.79,10.79h0v10.38c0,1,.81,1.82,1.82,1.82s1.82-.81,1.82-1.82v-10.38c0-3.96,3.21-7.17,7.17-7.17h2.81v5.92c0,1.04.82,1.89,1.86,1.95h18.61c1.05-.05,1.88-.9,1.91-1.95v-5.92h39.33v5.92c0,1,.77,1.95,1.77,1.95h18.95c1,0,1.66-.95,1.66-1.95v-5.92h3.01c3.98-.04,7.23,3.15,7.27,7.13,0,.01,0,.03,0,.04v64.55l-25.65,25.6c-.19.19-.33.41-.43.66l-3.32,9.11h-27.91c-1,0-1.82.81-1.82,1.82s.81,1.82,1.82,1.82h26.59l-3.04,8.35c-.34.94.14,1.98,1.08,2.33.4.15.84.15,1.24,0l21.09-7.68c.25-.09.48-.24.66-.42l9.69-9.71v17.73c0,4.01-3.25,7.26-7.26,7.26H10.79c-3.96,0-7.16-3.21-7.16-7.16V49.99c0-1-.81-1.82-1.82-1.82s-1.82.81-1.82,1.82v91.15c0,5.96,4.83,10.79,10.79,10.79h89.93c6.01-.02,10.89-4.89,10.9-10.9v-21.35l29.18-29.24h0c4.39-4.39,4.39-11.5,0-15.89-4.39-4.39-11.5-4.39-15.89,0h0ZM32.37,23.97h-15.13v-12.78c0-4.18,3.39-7.56,7.56-7.56s7.56,3.39,7.56,7.56v12.78ZM94.08,23.97h-15.13v-12.61c0-4.18,3.39-7.56,7.56-7.56s7.56,3.39,7.56,7.56v12.61ZM120.02,84.57l4.15,4.15-33.79,33.79-4.18-4.18,33.83-33.76ZM78.98,136.38l1.55-4.26,2.71,2.71-4.26,1.55ZM87,133.46l-5.1-5.1,2.45-6.73,9.38,9.38-6.73,2.45ZM97.02,129.17l-4.09-4.09,33.79-33.79,4.05,4.06-33.76,33.82ZM138.24,87.88l-4.89,4.9-10.77-10.77,4.9-4.89c2.98-2.96,7.8-2.93,10.76.05,2.94,2.96,2.94,7.74,0,10.71h0Z"/>
  </g>
</svg>