<?xml version="1.0" encoding="UTF-8"?>
<svg id="Layer_1" xmlns="http://www.w3.org/2000/svg" version="1.1" viewBox="0 0 20 20">
  <!-- Generator: Adobe Illustrator 29.2.1, SVG Export Plug-In . SVG Version: 2.1.0 Build 116)  -->
  <defs>
    <style>
      .st0 {
        fill: #2e1c6a;
      }
    </style>
  </defs>
  <path class="st0" d="M19.18,16.47c.19,0,.31-.12.31-.31,0-13.67.06-12.82-.12-12.98-3.21-3.18-3.15-3.18-3.34-3.18H5.89c-.19,0-.31.12-.31.31v2.12H1.12c-.34,0-.62.28-.62.62v2.5c0,.34.28.62.62.62h4.46v2.81c-8.77,5.34.34-.22-4.93,3.09-.16.09-.19.28-.09.44.09.16.28.19.44.09l.53-.37v7.15h-.47c-.19,0-.31.12-.31.31s.12.31.31.31h12.82c.19,0,.31-.12.31-.31s-.12-.31-.31-.31h-.5v-2.87h5.8v-.03ZM18.4,3.15h-2.09V1.06l2.09,2.09ZM10.79,3.06v.94H1.15v-.94h9.64ZM13.22,4.31l-1.81,1.03v-2.06l1.81,1.03ZM1.15,4.62h9.64v.94H1.15v-.94ZM6.2,6.18c4.84,0,4.9.03,5.02-.03l2.78-1.56c.09-.06.16-.16.16-.28s-.06-.22-.16-.28c-2.93-1.65-2.81-1.59-2.9-1.59h-4.87V.62h9.49v2.84c0,.19.12.31.31.31h2.84v12.07h-5.46v-3.65l.53.37c.16.09.34.06.44-.09s.06-.34-.09-.44c.84.41-5.27-3.31-6.65-4.12-.09-.06-.22-.06-.31,0l-1.09.66v-2.4h-.03ZM2.15,19.34v-5.15h1.06c.19,0,.31-.12.31-.31s-.12-.31-.31-.31h-1.06v-1.78l5.3-3.21,5.3,3.21v1.78h-1.06c-.19,0-.31.12-.31.31s.12.31.31.31h1.06v5.15H2.15Z"/>
  <path class="st0" d="M9.48,13.57h-4.06c-.19,0-.31.12-.31.31v4.06c0,.19.12.31.31.31h4.06c.19,0,.31-.12.31-.31v-4.06c0-.19-.12-.31-.31-.31ZM9.17,15.6h-1.4v-1.4h1.4v1.4ZM5.77,14.2h1.4v1.4h-1.4v-1.4ZM5.77,16.22h1.4v1.4h-1.4v-1.4ZM9.17,17.6h-1.4v-1.4h1.4v1.4Z"/>
  <path class="st0" d="M5.27,11.42h.62v.62h-.62v-.62Z"/>
  <path class="st0" d="M7.14,11.42h.62v.62h-.62v-.62Z"/>
  <path class="st0" d="M9.01,11.42h.62v.62h-.62v-.62Z"/>
  <path class="st0" d="M13.94,5.71h3.43v.62h-3.43v-.62Z"/>
  <path class="st0" d="M12.69,8.27h4.68v.62h-4.68v-.62Z"/>
  <path class="st0" d="M15.5,13.39h1.87v.62h-1.87v-.62Z"/>
  <path class="st0" d="M14.57,10.83h2.81v.62h-2.81v-.62Z"/>
</svg>