<?xml version="1.0" encoding="UTF-8"?>
<svg id="Layer_1" xmlns="http://www.w3.org/2000/svg" version="1.1" viewBox="0 0 20 20">
  <!-- Generator: Adobe Illustrator 29.2.1, SVG Export Plug-In . SVG Version: 2.1.0 Build 116)  -->
  <defs>
    <style>
      .st0 {
        fill: #2e1c6a;
      }
    </style>
  </defs>
  <path class="st0" d="M17.81,3.92h-.98V1.15c0-.64-.52-1.15-1.15-1.15H4.32c-.64,0-1.15.52-1.15,1.15v2.76h-.98C1.03,3.92.09,4.85.09,6.01v9.71c0,1.15.94,2.09,2.09,2.09h4.61l-.8,1.56h-.58c-.17,0-.31.14-.31.31s.14.31.31.31h9.17c.17,0,.31-.14.31-.31s-.14-.31-.31-.31h-.58l-.8-1.56h4.61c1.15,0,2.09-.94,2.09-2.09V6.01c0-1.15-.94-2.09-2.09-2.09ZM3.8,3.47h12.4v7.26c0,.29-.24.52-.52.52H4.32c-.29,0-.52-.24-.52-.52V3.47ZM3.8,1.15c0-.29.24-.52.52-.52h11.36c.29,0,.52.24.52.52v1.69H3.8v-1.69ZM2.19,4.54h.98v6.18c0,.64.52,1.15,1.15,1.15h11.36c.64,0,1.15-.52,1.15-1.15v-6.18h.98c.81,0,1.46.66,1.46,1.46v8.33H.72V6.01c0-.81.66-1.46,1.46-1.46ZM13.3,19.37h-6.59l.8-1.56h4.99l.8,1.56ZM17.81,17.18H2.19c-.81,0-1.46-.66-1.46-1.46v-.75h18.55v.75c0,.81-.66,1.46-1.46,1.46Z"/>
  <circle class="st0" cx="10" cy="16.02" r=".32"/>
  <path class="st0" d="M5.38,1.42c-.17,0-.32.14-.32.32s.14.32.32.32.32-.14.32-.32-.14-.32-.32-.32Z"/>
  <path class="st0" d="M6.9,1.42c-.17,0-.32.14-.32.32s.14.32.32.32.32-.14.32-.32-.14-.32-.32-.32Z"/>
  <path class="st0" d="M8.42,1.42c-.17,0-.32.14-.32.32s.14.32.32.32.32-.14.32-.32-.14-.32-.32-.32Z"/>
  <path class="st0" d="M7.58,9.01c.06.06.14.09.22.09s.16-.03.22-.09c.12-.12.12-.32,0-.44l-1.26-1.26,1.26-1.26c.12-.12.12-.32,0-.44s-.32-.12-.44,0l-1.48,1.48c-.06.06-.09.14-.09.22s.03.16.09.22l1.49,1.49Z"/>
  <path class="st0" d="M11.97,9.01c.06.06.14.09.22.09s.16-.03.22-.09l1.49-1.49c.12-.12.12-.32,0-.44l-1.48-1.48c-.12-.12-.32-.12-.44,0s-.12.32,0,.44l1.26,1.26-1.26,1.26c-.12.12-.12.32,0,.44Z"/>
  <path class="st0" d="M9,10.03s.07.02.11.02c.13,0,.25-.08.3-.21l1.79-4.85c.06-.16-.02-.34-.19-.4-.16-.06-.34.02-.4.19l-1.79,4.85c-.06.16.02.34.19.4Z"/>
</svg>