<?xml version="1.0" encoding="UTF-8"?>
<svg id="Layer_1" xmlns="http://www.w3.org/2000/svg" version="1.1" viewBox="0 0 20 20">
  <!-- Generator: Adobe Illustrator 29.2.1, SVG Export Plug-In . SVG Version: 2.1.0 Build 116)  -->
  <defs>
    <style>
      .st0 {
        fill: #2e1c6a;
      }
    </style>
  </defs>
  <g id="branding">
    <path class="st0" d="M19.95,12.34c-.14-.27-.17-.2-4.6-.2,0-9.05.04-8.92-.04-9.07-.04-.09.18.14-2.92-2.96-.16-.16.24-.1-10.25-.1-.2,0-.36.16-.36.36v4.64H.36C.16,5.01,0,5.17,0,5.36v5c0,.2.16.36.36.36h1.43v7.5c0,.2.16.36.36.36h5.71v1.07c0,.2.16.36.36.36h11.42c.2,0,.36-.16.36-.36,0-7.46.02-7.19-.04-7.3ZM18.12,12.86l-4.2,2.1-4.2-2.1h8.4ZM14.14,2.87h-1.64v-1.64l1.64,1.64ZM.72,5.72h6.43v4.28H.72v-4.28ZM2.5,17.86v-7.14h5c.2,0,.36-.16.36-.36v-5c0-.2-.16-.36-.36-.36H2.5V.72h9.28v2.5c0,.2.16.36.36.36h2.5v8.57c-6.54,0-6.6-.08-6.74.2-.06.12-.04-.12-.04,5.52H2.5ZM8.57,19.29v-6.2c5.66,2.83,5.23,2.63,5.35,2.63s-.27.18,5.35-2.63v6.2h-10.71Z"/>
    <path class="st0" d="M17.89,11.64c.07.09.17.15.29.15.23,0,.19,0,1.38-1.57.11-.14.07.44.07-7.71,0-.25-.14-.49-.36-.61v-.81c0-.59-.48-1.07-1.07-1.07s-1.07.48-1.07,1.07v.81c-.22.13-.36.36-.36.61,0,8.21-.03,7.57.07,7.71l1.04,1.43ZM18.92,9.88l-.74.95-.69-.95V2.51h1.43v7.37ZM17.85,1.08c0-.2.16-.36.36-.36s.36.16.36.36v.71h-.71v-.71Z"/>
    <path class="st0" d="M3.57,7.51c0-.59-.48-1.07-1.07-1.07s-1.07.48-1.07,1.07.48,1.07,1.07,1.07,1.07-.48,1.07-1.07ZM2.15,7.51c0-.2.16-.36.36-.36s.36.16.36.36-.16.36-.36.36-.36-.16-.36-.36Z"/>
    <path class="st0" d="M4.64,8.22h1.43c.2,0,.36-.16.36-.36s-.16-.36-.36-.36h-1.43c-.2,0-.36.16-.36.36s.16.36.36.36Z"/>
    <path class="st0" d="M4.64,9.29h1.43c.2,0,.36-.16.36-.36s-.16-.36-.36-.36h-1.43c-.2,0-.36.16-.36.36s.16.36.36.36Z"/>
    <path class="st0" d="M5,1.44c-.79,0-1.43.64-1.43,1.43s.64,1.43,1.43,1.43,1.43-.64,1.43-1.43-.64-1.43-1.43-1.43ZM5,3.58c-.39,0-.71-.32-.71-.71s.32-.71.71-.71.71.32.71.71-.32.71-.71.71Z"/>
    <path class="st0" d="M7.5,2.51h3.21c.2,0,.36-.16.36-.36s-.16-.36-.36-.36h-3.21c-.2,0-.36.16-.36.36s.16.36.36.36Z"/>
    <path class="st0" d="M9.28,3.22h-1.78c-.2,0-.36.16-.36.36s.16.36.36.36h1.78c.2,0,.36-.16.36-.36s-.16-.36-.36-.36Z"/>
    <path class="st0" d="M10.53,16.07c-.69,0-1.25.56-1.25,1.25s.56,1.25,1.25,1.25,1.25-.56,1.25-1.25-.56-1.25-1.25-1.25ZM10.53,17.86c-.3,0-.54-.24-.54-.54s.24-.54.54-.54.54.24.54.54-.24.54-.54.54Z"/>
    <path class="st0" d="M16.07,16.43h-3.21c-.2,0-.36.16-.36.36s.16.36.36.36h3.21c.2,0,.36-.16.36-.36s-.16-.36-.36-.36Z"/>
    <path class="st0" d="M14.64,17.86h-1.78c-.2,0-.36.16-.36.36s.16.36.36.36h1.78c.2,0,.36-.16.36-.36s-.16-.36-.36-.36Z"/>
  </g>
</svg>