<?xml version="1.0" encoding="UTF-8"?>
<svg id="Layer_1" xmlns="http://www.w3.org/2000/svg" version="1.1" viewBox="0 0 20 20">
  <!-- Generator: Adobe Illustrator 29.2.1, SVG Export Plug-In . SVG Version: 2.1.0 Build 116)  -->
  <defs>
    <style>
      .st0 {
        fill: #2e1c6a;
      }
    </style>
  </defs>
  <path class="st0" d="M19.18,2.3h.33c.18,0,.33-.15.33-.33V.66c0-.18-.15-.33-.33-.33h-1.31c-.18,0-.33.15-.33.33v.33h-6.56V.33c0-.18-.15-.33-.33-.33h-1.97c-.18,0-.33.15-.33.33v.66H2.13v-.33c0-.18-.15-.33-.33-.33H.49c-.18,0-.33.15-.33.33v1.31c0,.18.15.33.33.33h.33v15.41h-.33c-.18,0-.33.15-.33.33v1.31c0,.18.15.33.33.33h1.31c.18,0,.33-.15.33-.33v-.33h6.56v.66c0,.18.15.33.33.33h1.97c.18,0,.33-.15.33-.33v-.66h6.56v.33c0,.18.15.33.33.33h1.31c.18,0,.33-.15.33-.33v-1.31c0-.18-.15-.33-.33-.33h-.33V2.3ZM18.52.98h.66v.66h-.66v-.66ZM9.34.66h1.31v1.31h-1.31V.66ZM.82.98h.66v.66h-.66v-.66ZM1.48,2.3h.33c.18,0,.33-.15.33-.33v-.33h4.42c-2.33.92-4.16,2.74-5.08,5.01V2.3ZM1.48,19.02h-.66v-.66h.66v.66ZM1.8,17.7h-.33v-4.35c.92,2.27,2.75,4.09,5.08,5.01H2.13v-.33c0-.18-.15-.33-.33-.33ZM8.11,7.83l1.16,3.17c-.42.3-.6.86-.42,1.36.11.3.33.54.62.67.16.07.33.11.5.11.14,0,.28-.02.41-.07.3-.11.54-.33.67-.62.13-.29.15-.61.04-.91-.19-.51-.68-.81-1.2-.77l-1.16-3.17,4.51,3.59c-.53.73-.68,1.61-.39,2.4l.38,1.04-3.97,1.45-.38-1.04c-.29-.8-.99-1.37-1.9-1.57l1.13-5.64ZM10.48,11.78c.05.13.04.28-.02.41-.06.13-.17.23-.3.28-.13.05-.28.04-.41-.02-.13-.06-.23-.17-.28-.3-.1-.28.04-.58.32-.68.06-.02.12-.03.18-.03.22,0,.42.13.5.35ZM9.49,16.7l3.97-1.45.74,2.02s-.04.02-.05.03c-.19.1-.38.2-.58.29-.03.01-.05.02-.08.03-.01,0-.03.01-.04.02-.2.09-.4.17-.6.24,0,0,0,0,0,0-.03.01-.06.02-.1.03-.2.07-.4.13-.61.18-.04.01-.09.02-.13.03-.22.05-.44.1-.66.13-.01,0-.02,0-.03,0v-.55c0-.18-.15-.33-.33-.33h-1.25l-.25-.68ZM10.66,19.34h-1.31v-1.31h1.31v1.31ZM19.18,19.02h-.66v-.66h.66v.66ZM18.52,13.37v4.34h-.33c-.18,0-.33.15-.33.33v.33h-4.43s.01,0,.02,0c.2-.08.39-.17.58-.26.05-.02.1-.05.15-.07.2-.1.39-.2.58-.32,0,0,0,0,0,0,.2-.12.39-.24.57-.37.06-.04.12-.08.17-.13.13-.09.25-.19.37-.29.06-.05.12-.1.18-.15.12-.1.24-.21.35-.32.05-.05.1-.09.15-.14.16-.16.31-.32.45-.48.01-.02.03-.03.04-.05.13-.15.25-.31.37-.47.04-.06.08-.12.12-.17.09-.12.17-.25.25-.38.04-.06.08-.13.12-.19.08-.14.16-.27.23-.41.03-.06.06-.11.09-.17.1-.2.19-.39.27-.6,0,0,0,0,0-.01h0ZM14.77,16.92l-1.3-3.55c-.24-.67-.07-1.4.48-2.01.06-.07.09-.16.08-.25,0-.09-.05-.17-.12-.23l-5.6-4.45c-.05-.2-.16-.75.16-1.15.36-.45,1.19-.62,2.4-.48,1.22.14,2.06-.05,2.51-.55.35-.39.36-.89.31-1.12l-.64.14s.05.3-.16.54c-.29.33-.99.44-1.95.34-1.47-.17-2.48.08-2.99.73-.52.66-.34,1.49-.26,1.77l-1.41,7.04c-.02.09,0,.18.06.26.05.07.14.12.23.13.84.09,1.46.53,1.71,1.2l.77,2.11h-.02c-.18,0-.33.15-.33.33v.55c-4.14-.62-7.21-4.11-7.21-8.26S4.55,2.36,8.69,1.74v.55c0,.18.15.33.33.33h1.97c.18,0,.33-.15.33-.33v-.55c4.14.62,7.21,4.11,7.21,8.26,0,2.81-1.4,5.37-3.76,6.92h0ZM13.44,1.64h4.42v.33c0,.18.15.33.33.33h.33v4.35c-.92-2.27-2.75-4.09-5.08-5.01Z"/>
</svg>