<?xml version="1.0" encoding="UTF-8"?>
<svg id="Layer_1" xmlns="http://www.w3.org/2000/svg" version="1.1" viewBox="0 0 20 20">
  <!-- Generator: Adobe Illustrator 29.2.1, SVG Export Plug-In . SVG Version: 2.1.0 Build 116)  -->
  <defs>
    <style>
      .st0 {
        fill: #2e1c6a;
      }
    </style>
  </defs>
  <path class="st0" d="M19.95,2.95c-.05-.07-.12-.12-.2-.14l-2.97-.66v-.53c0-.18-.14-.32-.32-.32h-3.52L7.15,0c-.18-.04-.35.07-.38.24l-.23,1.04h-2.99c-.18,0-.32.14-.32.32v2.56l-2.97.66c-.17.04-.28.21-.24.38l3.23,14.53h0c.03.14.15.25.31.25h12.9c.18,0,.32-.14.32-.32v-1.99l3.22-14.5c.02-.08,0-.17-.04-.24h0ZM7.33.71l2.63.58h-2.76l.13-.58ZM3.23,4.83v11.9L.71,5.39l2.52-.56ZM16.13,19.35H3.87V1.94h12.26v17.42ZM16.77,14.71V2.81l2.52.56-2.52,11.34Z"/>
  <path class="st0" d="M8.16,7.97c.06.06.14.09.23.09h1.94c.09,0,.17-.03.23-.09l3-3c.21-.21.32-.48.32-.78s-.11-.57-.32-.78l-.19-.19c-.42-.42-1.14-.42-1.56,0l-.67.67-1.22-1.22c-.06-.06-.14-.09-.23-.09h-1.61c-.13,0-.25.08-.3.2-.05.12-.02.26.07.35l2.03,2.03-.97.97h-.06l-.55-.55c-.06-.06-.14-.09-.23-.09h-1.61c-.13,0-.25.08-.3.2-.05.12-.02.26.07.35l1.94,1.94ZM8.84,3.23h.7l1.13,1.13-.35.35-1.48-1.48ZM7.93,6.13l.55.55c.06.06.14.09.23.09h.32c.09,0,.17-.03.23-.09l3-3c.17-.17.48-.17.65,0l.19.19c.08.08.13.2.13.32s-.05.24-.13.32l-2.9,2.9h-1.67l-1.29-1.29h.7Z"/>
  <path class="st0" d="M5.48,11.29h9.03c.18,0,.32-.14.32-.32v-1.94c0-.18-.14-.32-.32-.32H5.48c-.18,0-.32.14-.32.32v1.94c0,.18.14.32.32.32ZM5.81,9.36h8.39v1.29H5.81v-1.29Z"/>
  <path class="st0" d="M6.45,12.26h7.1v.65h-7.1v-.65Z"/>
  <path class="st0" d="M6.45,13.55h7.1v.65h-7.1v-.65Z"/>
  <path class="st0" d="M5.16,14.84h9.68v.65H5.16v-.65Z"/>
</svg>