<?xml version="1.0" encoding="UTF-8"?>
<svg id="Layer_1" xmlns="http://www.w3.org/2000/svg" version="1.1" viewBox="0 0 20 20">
  <!-- Generator: Adobe Illustrator 29.2.1, SVG Export Plug-In . SVG Version: 2.1.0 Build 116)  -->
  <defs>
    <style>
      .st0 {
        fill: #2e1c6a;
      }
    </style>
  </defs>
  <path class="st0" d="M4.48,10.21h-1.25c-.42,0-.73.31-.73.73v1.25c0,.42.31.73.73.73h1.25c.38,0,.73-.35.73-.73v-1.25c0-.42-.31-.73-.73-.73ZM4.58,12.19s-.07.1-.1.1h-1.25c-.08,0-.1-.03-.1-.1v-1.25c0-.08.03-.1.1-.1h1.25c.08,0,.1.03.1.1v1.25Z"/>
  <path class="st0" d="M4.48,5.71h-1.25c-.42,0-.73.31-.73.73v1.25c0,.42.31.73.73.73h1.25c.38,0,.73-.35.73-.73v-1.25c0-.42-.31-.73-.73-.73ZM4.58,7.69s-.07.1-.1.1h-1.25c-.08,0-.1-.03-.1-.1v-1.25c0-.08.03-.1.1-.1h1.25c.08,0,.1.03.1.1v1.25Z"/>
  <path class="st0" d="M4.48,14.67h-1.25c-.42,0-.73.31-.73.73v1.25c0,.42.31.73.73.73h1.25c.4,0,.73-.33.73-.73v-1.25c0-.42-.31-.73-.73-.73ZM4.58,16.65c0,.08-.07.1-.1.1h-1.25c-.08,0-.1-.03-.1-.1v-1.25c0-.08.03-.1.1-.1h1.25c.08,0,.1.03.1.1v1.25Z"/>
  <path class="st0" d="M6.85,6.5h5.13c.17,0,.31-.14.31-.31s-.14-.31-.31-.31h-5.13c-.17,0-.31.14-.31.31s.14.31.31.31Z"/>
  <path class="st0" d="M6.85,7.58c-.17,0-.31.14-.31.31s.14.31.31.31h2.71c.17,0,.31-.14.31-.31s-.14-.31-.31-.31h-2.71Z"/>
  <path class="st0" d="M6.85,11h5.13c.17,0,.31-.14.31-.31s-.14-.31-.31-.31h-5.13c-.17,0-.31.14-.31.31s.14.31.31.31Z"/>
  <path class="st0" d="M9.56,12.08h-2.71c-.17,0-.31.14-.31.31s.14.31.31.31h2.71c.17,0,.31-.14.31-.31s-.14-.31-.31-.31Z"/>
  <path class="st0" d="M8.23,14.87h-1.38c-.17,0-.31.14-.31.31s.14.31.31.31h1.38c.17,0,.31-.14.31-.31s-.14-.31-.31-.31Z"/>
  <path class="st0" d="M7.44,16.58h-.58c-.17,0-.31.14-.31.31s.14.31.31.31h.58c.17,0,.31-.14.31-.31s-.14-.31-.31-.31Z"/>
  <path class="st0" d="M15.8,10.17l1.12,1.92c.06.1.16.16.27.16s.21-.06.27-.16l1.17-2s0-.04,0-.06c.01-.04.04-.06.04-.1,0-.06-.02-.11-.04-.16,0,0,0,0,0,0,0,0,0,0,0,0h0V3.5s.04-.06.04-.1-.03-.07-.04-.1v-.92s.04-.06.04-.1-.03-.07-.04-.1v-.86c0-.71-.6-1.31-1.31-1.31h-.33c-.71,0-1.31.6-1.31,1.31v8.63c0,.1.06.18.13.24ZM16.29,3.71h1.71v5.92h-1.71V3.71ZM18,3.08h-1.71v-.5h1.71v.5ZM17.19,11.32l-.62-1.07h1.25l-.62,1.07ZM16.98.62h.33c.37,0,.69.32.69.69v.65h-1.71v-.65c0-.37.32-.69.69-.69Z"/>
  <path class="st0" d="M19.66,13.69s0-.04-.02-.06c-.05-.07-.13-.11-.21-.12-.18-.12-.39-.21-.63-.21h-4.6V3.4c0-.96-.81-1.77-1.77-1.77h-1.69v-.35c0-.7-.59-1.27-1.31-1.27h-4.63c-.71,0-1.27.56-1.27,1.27v.31h-1.73C.85,1.58.04,2.39.04,3.35v14.87c0,.96.81,1.77,1.77,1.77h8.67s.07-.03.1-.04h8.27c.33,0,.64-.13.85-.36.19-.21.28-.48.26-.76v-4.4c0-.29-.12-.55-.3-.75ZM18.73,13.92l-4.05,3.01s-.04.01-.06,0l-4.05-3.01h8.17ZM4.17,1.27c0-.37.28-.65.65-.65h4.63c.38,0,.69.29.69.65v.57s-.04.06-.04.1v.62c0,.37-.28.65-.65.65h-4.63c-.37,0-.65-.28-.65-.65v-1.29ZM.67,18.23V3.35c0-.62.52-1.15,1.15-1.15h1.73v.4c0,.71.56,1.27,1.27,1.27h4.67c.71,0,1.27-.56,1.27-1.27v-.35h1.69c.62,0,1.15.52,1.15,1.15v9.9h-3.15c-.63,0-1.15.51-1.15,1.15v4.38c0,.21.07.39.17.56H1.81c-.62,0-1.15-.52-1.15-1.15ZM19.24,19.18c-.09.1-.23.16-.38.16h-8.42c-.29,0-.52-.23-.52-.52v-4.38c0-.07.02-.13.04-.19l4.3,3.19s0,0,.01,0c.11.08.25.11.38.11s.27-.04.38-.11c0,0,0,0,.01,0l4.26-3.17c.02.05.03.11.03.16v4.42s0,.02,0,.03c.01.11-.02.22-.1.3Z"/>
</svg>