<?xml version="1.0" encoding="UTF-8"?>
<svg id="Layer_1" xmlns="http://www.w3.org/2000/svg" version="1.1" viewBox="0 0 20 20">
  <!-- Generator: Adobe Illustrator 29.2.1, SVG Export Plug-In . SVG Version: 2.1.0 Build 116)  -->
  <defs>
    <style>
      .st0 {
        fill: #2e1c6a;
      }
    </style>
  </defs>
  <path class="st0" d="M18.33,6.67h-.23l-2.86-5c-.22-.39-.58-.66-1.01-.78-.16-.04-.32-.06-.48-.06-.27,0-.53.09-.77.22L.83,8.13C.29,8.44,0,9.01,0,9.58c0,.28.07.56.22.82l2.28,3.98v3.12c0,.92.75,1.67,1.67,1.67h14.17c.92,0,1.67-.75,1.67-1.67v-9.17c0-.92-.75-1.67-1.67-1.67ZM2.5,8.33v4.37l-1.56-2.72c-.23-.4-.09-.91.3-1.14l1.28-.74c-.01.07-.02.15-.02.22ZM13.4,1.78c.19-.11.41-.14.62-.08.21.06.39.19.5.39l2.63,4.58H5L13.4,1.78ZM19.17,17.5c0,.46-.37.83-.83.83H4.17c-.46,0-.83-.37-.83-.83v-9.17c0-.46.37-.83.83-.83h14.17c.46,0,.83.37.83.83v9.17Z"/>
  <path class="st0" d="M17.92,14.17h-5c-.23,0-.42.19-.42.42s.19.42.42.42h5c.23,0,.42-.19.42-.42,0-.23-.19-.42-.42-.42Z"/>
  <path class="st0" d="M17.92,11.67h-6.67c-.23,0-.42.19-.42.42s.19.42.42.42h6.67c.23,0,.42-.19.42-.42,0-.23-.19-.42-.42-.42Z"/>
  <path class="st0" d="M7.5,13.33c.92,0,1.67-.75,1.67-1.67s-.75-1.67-1.67-1.67-1.67.75-1.67,1.67.75,1.67,1.67,1.67ZM7.5,10.83c.46,0,.83.37.83.83s-.37.83-.83.83-.83-.37-.83-.83c0-.46.37-.83.83-.83Z"/>
  <path class="st0" d="M9.99,14.36c-.58-.28-1.49-.61-2.49-.61s-1.91.33-2.49.61c-.52.25-.84.75-.84,1.3v.19c0,.45.37.81.83.81h5c.46,0,.83-.36.83-.81v-.19c0-.55-.32-1.05-.84-1.3ZM10,15.83l-5,.03v-.19c0-.23.14-.44.37-.55.5-.24,1.28-.53,2.13-.53s1.62.29,2.13.53c.23.11.37.32.37.55v.16Z"/>
</svg>