<?xml version="1.0" encoding="UTF-8"?>
<svg id="Layer_1" xmlns="http://www.w3.org/2000/svg" version="1.1" viewBox="0 0 20 20">
  <!-- Generator: Adobe Illustrator 29.2.1, SVG Export Plug-In . SVG Version: 2.1.0 Build 116)  -->
  <defs>
    <style>
      .st0 {
        fill: #2e1c6a;
      }
    </style>
  </defs>
  <path class="st0" d="M18.75.33H1.25C.56.33,0,.89,0,1.58v12.36C0,14.63.56,15.19,1.25,15.19h7.28v1.6c-1.29.03-2.33,1.09-2.33,2.39,0,.27.22.5.5.5h6.62c.27,0,.5-.22.5-.5,0-1.3-1.04-2.36-2.33-2.39v-1.6h7.28c.69,0,1.25-.56,1.25-1.25V1.58c0-.69-.56-1.25-1.25-1.25ZM13.18,19.05h-6.35c.07-.92.83-1.64,1.76-1.64h2.82c.93,0,1.7.72,1.76,1.64ZM10.85,16.78h-1.69v-1.6h1.69v1.6ZM19.38,13.94c0,.34-.28.63-.62.63H1.25c-.34,0-.63-.28-.63-.63V1.58c0-.34.28-.63.63-.63h17.5c.34,0,.62.28.62.63v12.36Z"/>
  <path class="st0" d="M10.56,13.16h-1.11c-.17,0-.31.14-.31.31s.14.31.31.31h1.11c.17,0,.31-.14.31-.31s-.14-.31-.31-.31Z"/>
  <path class="st0" d="M14,7.7c1.44,0,2.6-1.17,2.6-2.6s-1.17-2.6-2.6-2.6-2.6,1.17-2.6,2.6,1.17,2.6,2.6,2.6ZM14,3.12c1.09,0,1.98.89,1.98,1.98s-.89,1.98-1.98,1.98-1.98-.89-1.98-1.98.89-1.98,1.98-1.98Z"/>
  <path class="st0" d="M13.17,6.61c.06.03.13.05.19.05s.13-.02.19-.05l2.03-1.17c.12-.07.19-.2.19-.34s-.07-.27-.19-.34h0l-2.03-1.17c-.12-.07-.27-.07-.39,0-.12.07-.19.2-.19.34v2.34c0,.14.07.27.19.34ZM13.6,4.34l1.32.76-1.32.76v-1.52Z"/>
  <path class="st0" d="M17.65,8.46H5.81c.33-2.19,3.19-3.4,3.22-3.42.16-.07.23-.25.17-.41-.07-.16-.25-.23-.41-.17-.12.05-2.46,1.04-3.32,2.96-.86-1.92-3.2-2.91-3.32-2.96-.16-.07-.34.01-.41.17-.07.16,0,.34.17.41.03.01,2.89,1.22,3.22,3.42h-2.77c-.35,0-.64.29-.64.64v1.01c0,.35.29.64.64.64h15.3c.35,0,.64-.29.64-.64v-1.01c0-.35-.29-.64-.64-.64ZM17.66,10.1s0,.01-.01.01H2.34s.01-1.03.01-1.03h15.32v1.02Z"/>
  <path class="st0" d="M5.57,5.41c.58,0,1.04-.47,1.04-1.04s-.47-1.04-1.04-1.04-1.04.47-1.04,1.04.47,1.04,1.04,1.04ZM5.57,3.95c.23,0,.42.19.42.42s-.19.42-.42.42-.42-.19-.42-.42.19-.42.42-.42Z"/>
</svg>