<?xml version="1.0" encoding="UTF-8"?>
<svg id="Layer_1" xmlns="http://www.w3.org/2000/svg" version="1.1" viewBox="0 0 20 20">
  <!-- Generator: Adobe Illustrator 29.2.1, SVG Export Plug-In . SVG Version: 2.1.0 Build 116)  -->
  <defs>
    <style>
      .st0 {
        fill: #2e1c6a;
      }
    </style>
  </defs>
  <path class="st0" d="M11.64,17.38h-.66v-3.21c0-.18-.15-.33-.33-.33s-.33.15-.33.33v3.21H1.8v-6.56h2.73c.18,0,.33-.15.33-.33s-.15-.33-.33-.33H1.48c-.18,0-.33.15-.33.33v6.89H.49c-.18,0-.33.15-.33.33v.66c0,.91.73,1.64,1.64,1.64h8.52c.91,0,1.64-.73,1.64-1.64v-.66c0-.18-.15-.33-.33-.33ZM11.31,18.36c0,.54-.44.98-.98.98h-.66v-.33c0-.18-.15-.33-.33-.33s-.33.15-.33.33v.33H3.11v-.33c0-.18-.15-.33-.33-.33s-.33.15-.33.33v.33h-.66c-.54,0-.98-.44-.98-.98v-.33h10.49v.33Z"/>
  <path class="st0" d="M17.21,2.3h.66c.18,0,.33-.15.33-.33s-.15-.33-.33-.33h-.66c-.54,0-.98.44-.98.98v.33h-.33c-.18,0-.33.15-.33.33s.15.33.33.33h.33v.98c0,.18.15.33.33.33s.33-.15.33-.33v-.98h.33c.18,0,.33-.15.33-.33s-.15-.33-.33-.33h-.33v-.33c0-.18.15-.33.33-.33Z"/>
  <path class="st0" d="M18.85.33h-3.93c-.54,0-.98.44-.98.98v.66c0,.18.15.33.33.33s.33-.15.33-.33v-.66c0-.18.15-.33.33-.33h3.93c.18,0,.33.15.33.33v3.93c0,.18-.15.33-.33.33h-3.93c-.18,0-.33-.15-.33-.33v-1.97c0-.18-.15-.33-.33-.33s-.33.15-.33.33v1.97c0,.54.44.98.98.98h3.93c.54,0,.98-.44.98-.98V1.31c0-.54-.44-.98-.98-.98Z"/>
  <path class="st0" d="M15.57,13.44c0,.72.59,1.31,1.31,1.31s1.31-.59,1.31-1.31-.59-1.31-1.31-1.31-1.31.59-1.31,1.31ZM17.54,13.44c0,.36-.29.66-.66.66s-.66-.29-.66-.66.29-.66.66-.66.66.29.66.66Z"/>
  <path class="st0" d="M18.85,10.49h-3.93c-.54,0-.98.44-.98.98v3.93c0,.54.44.98.98.98h3.93c.54,0,.98-.44.98-.98v-.66c0-.18-.15-.33-.33-.33s-.33.15-.33.33v.66c0,.18-.15.33-.33.33h-3.93c-.18,0-.33-.15-.33-.33v-3.93c0-.18.15-.33.33-.33h3.93c.18,0,.33.15.33.33v1.97c0,.18.15.33.33.33s.33-.15.33-.33v-1.97c0-.54-.44-.98-.98-.98Z"/>
  <path class="st0" d="M7.53,4.21c.05.03.11.05.17.05.05,0,.1-.01.15-.04l1.97-.98c.16-.08.22-.28.14-.44-.03-.06-.08-.11-.14-.14l-1.97-.98c-.16-.08-.36-.02-.44.15-.02.05-.03.1-.04.15v1.97c0,.11.06.22.15.28ZM8.03,2.5l.9.45-.9.45v-.9Z"/>
  <path class="st0" d="M8.36,5.9c1.63,0,2.95-1.32,2.95-2.95s-1.32-2.95-2.95-2.95-2.95,1.32-2.95,2.95,1.32,2.95,2.95,2.95ZM8.36.66c1.27,0,2.3,1.03,2.3,2.3s-1.03,2.3-2.3,2.3-2.3-1.03-2.3-2.3,1.03-2.3,2.3-2.3Z"/>
  <path class="st0" d="M11.64,7.21c.1,0,.2-.05.26-.13l.98-1.31c.11-.14.08-.35-.07-.46-.14-.11-.35-.08-.46.07l-.98,1.31c-.11.14-.08.35.07.46.06.04.13.07.2.07Z"/>
  <path class="st0" d="M12.36,8.39c.06.08.16.13.26.13.07,0,.14-.02.2-.07l1.31-.98c.14-.11.17-.31.07-.46-.11-.14-.31-.17-.46-.07l-1.31.98c-.14.11-.17.31-.07.46h0Z"/>
  <path class="st0" d="M15.57,9.11c-.03-.18-.2-.3-.38-.26,0,0,0,0-.01,0l-1.64.33c-.18.02-.31.18-.3.36.02.18.18.31.36.3h.07l1.64-.33c.18-.03.3-.2.26-.38,0,0,0,0,0-.01Z"/>
  <path class="st0" d="M.49,9.18h3.93c.18,0,.33-.15.33-.33V3.61c0-.18-.15-.33-.33-.33H.49c-.18,0-.33.15-.33.33v5.25c0,.18.15.33.33.33ZM.82,3.93h3.28v4.59H.82V3.93Z"/>
  <path class="st0" d="M3.11,4.59h-.66c-.18,0-.33.15-.33.33s.15.33.33.33h.66c.18,0,.33-.15.33-.33s-.15-.33-.33-.33Z"/>
  <path class="st0" d="M3.11,5.9h-1.31c-.18,0-.33.15-.33.33s.15.33.33.33h1.31c.18,0,.33-.15.33-.33s-.15-.33-.33-.33Z"/>
  <path class="st0" d="M3.11,7.21h-1.31c-.18,0-.33.15-.33.33s.15.33.33.33h1.31c.18,0,.33-.15.33-.33s-.15-.33-.33-.33Z"/>
  <path class="st0" d="M11.35,9.08c-.09-.16-.29-.21-.45-.12-.16.09-.21.29-.12.45l1.45,2.5-5.25,1.97h-.05l-.85.49-.57.33c-.15.09-.33.11-.5.07-.17-.05-.31-.15-.4-.3l-.66-1.13c-.16-.31-.05-.69.25-.87l1.13-.66.82,1.42c.06.1.17.16.29.16.18,0,.33-.15.33-.33,0-.06-.01-.12-.04-.17l-.85-1.46,4.11-3.39.13.23c.09.16.29.21.45.12.16-.09.21-.29.12-.45l-.33-.57c-.05-.08-.13-.14-.23-.16-.1-.02-.19,0-.27.07l-4.59,3.78-1.4.81c-.52.3-.76.91-.6,1.49l-.33.19c-.47.27-.63.87-.36,1.34.13.23.35.39.6.46.08.02.17.03.26.03.17,0,.34-.05.49-.13l.33-.19c.16.16.36.28.57.34.11.03.23.05.34.05.23,0,.46-.06.66-.18l.29-.16.66,1.14c.27.47.87.63,1.34.36.47-.27.63-.87.36-1.34h0s-.6-1.04-.6-1.04l4.92-1.85c.09-.03.16-.11.19-.2.03-.09.02-.19-.02-.27l-1.63-2.83ZM3.61,14.69c-.08.04-.17.06-.25.03-.08-.02-.16-.08-.2-.15-.04-.08-.06-.17-.03-.25.02-.08.08-.16.15-.2l.29-.16.33.57-.29.16ZM7.92,15.6c.04.08.06.17.03.25-.02.08-.08.15-.15.2-.16.09-.35.04-.45-.12l-.66-1.14.54-.31h.03l.65,1.12Z"/>
</svg>