<?xml version="1.0" encoding="UTF-8"?>
<svg id="Layer_1" xmlns="http://www.w3.org/2000/svg" version="1.1" viewBox="0 0 20 20">
  <!-- Generator: Adobe Illustrator 29.2.1, SVG Export Plug-In . SVG Version: 2.1.0 Build 116)  -->
  <defs>
    <style>
      .st0 {
        fill: #2e1c6a;
      }
    </style>
  </defs>
  <g id="Billboard">
    <path class="st0" d="M6.17,12.26c.06.1.16.16.28.16h6.77c.18,0,.32-.14.32-.32,0-.06-.02-.12-.05-.17l-1.94-3.23c-.09-.15-.29-.2-.44-.11-.05.03-.08.07-.11.11l-.37.61-1.17-1.96c-.09-.15-.29-.2-.44-.11-.05.03-.08.07-.11.11l-2.74,4.57c-.06.1-.06.22,0,.32ZM11.29,9.5l1.37,2.28h-.54l-1.1-1.83.27-.45ZM9.19,8.15l2.17,3.62h-4.34l2.17-3.62Z"/>
    <path class="st0" d="M12.74,8.23c.62,0,1.13-.51,1.13-1.13s-.51-1.13-1.13-1.13-1.13.51-1.13,1.13h0c0,.62.51,1.13,1.13,1.13ZM12.74,6.61c.27,0,.48.22.48.48s-.22.48-.48.48-.48-.22-.48-.48c0-.27.22-.48.48-.48Z"/>
    <path class="st0" d="M5.16,5.32c0-.18-.14-.32-.32-.32h-1.61c-.18,0-.32.14-.32.32s.14.32.32.32h1.61c.18,0,.32-.14.32-.32Z"/>
    <path class="st0" d="M5.81,5.65h.32c.18,0,.32-.14.32-.32s-.14-.32-.32-.32h-.32c-.18,0-.32.14-.32.32s.14.32.32.32Z"/>
    <path class="st0" d="M18.39,17.9h-2.26v-3.23h1.94c.18,0,.32-.14.32-.32V4.03c0-.18-.14-.32-.32-.32h-1.61v-.65h.97c.18,0,.32-.14.32-.32v-.97c0-.18-.14-.32-.32-.32h-2.58c-.18,0-.32.14-.32.32v.97c0,.18.14.32.32.32h.97v.65h-5.48v-.65h.97c.18,0,.32-.14.32-.32v-.97c0-.18-.14-.32-.32-.32h-2.58c-.18,0-.32.14-.32.32v.97c0,.18.14.32.32.32h.97v.65h-5.48v-.65h.97c.18,0,.32-.14.32-.32v-.97c0-.18-.14-.32-.32-.32h-2.58c-.18,0-.32.14-.32.32v.97c0,.18.14.32.32.32h.97v.65h-1.61c-.18,0-.32.14-.32.32v10.32c0,.18.14.32.32.32h1.94v3.23H.32c-.18,0-.32.14-.32.32s.14.32.32.32h18.06c.18,0,.32-.14.32-.32s-.14-.32-.32-.32ZM15.16,2.42v-.32h1.94v.32h-1.94ZM9.03,2.42v-.32h1.94v.32h-1.94ZM2.9,2.42v-.32h1.94v.32h-1.94ZM2.26,4.35h15.48v9.68H2.26V4.35ZM14.19,14.68v3.23H5.81v-3.23h8.39ZM4.52,17.9v-3.23h.65v3.23h-.65ZM14.84,17.9v-3.23h.65v3.23h-.65Z"/>
    <path class="st0" d="M19.68,17.9h-.32c-.18,0-.32.14-.32.32s.14.32.32.32h.32c.18,0,.32-.14.32-.32s-.14-.32-.32-.32Z"/>
  </g>
</svg>