<?xml version="1.0" encoding="UTF-8"?>
<svg id="Layer_1" xmlns="http://www.w3.org/2000/svg" version="1.1" viewBox="0 0 20 20">
  <!-- Generator: Adobe Illustrator 29.2.1, SVG Export Plug-In . SVG Version: 2.1.0 Build 116)  -->
  <defs>
    <style>
      .st0 {
        fill: #2e1c6a;
      }
    </style>
  </defs>
  <path class="st0" d="M19.12,0h-3.1c-.16,0-.29.13-.29.29s.13.29.29.29h3.1c.16,0,.29.13.29.29v4.37c0,.16-.13.29-.29.29H.88c-.16,0-.29-.13-.29-.29V.88c0-.16.13-.29.29-.29h13.96c.16,0,.29-.13.29-.29S15,0,14.84,0H.88C.4,0,0,.4,0,.88v4.37C0,5.74.4,6.13.88,6.13h18.24c.49,0,.88-.4.88-.88V.88C20,.4,19.6,0,19.12,0h0Z"/>
  <path class="st0" d="M6.11,1.52c-.09-.06-.21-.07-.3-.02-.1.05-.16.15-.16.26v2.57c0,.11.06.21.16.26.04.02.09.03.14.03.06,0,.12-.02.17-.05l1.82-1.28c.08-.05.12-.14.12-.24s-.05-.18-.12-.24l-1.82-1.28ZM6.23,3.76v-1.44l1.02.72-1.02.72Z"/>
  <path class="st0" d="M3.02,4.53c.16,0,.29-.13.29-.29V1.8c0-.16-.13-.29-.29-.29h-.52c-.16,0-.29.13-.29.29s.13.29.29.29h.23v2.15c0,.16.13.29.29.29Z"/>
  <path class="st0" d="M17.88,2.23c0-.16-.13-.29-.29-.29h-7.62c-.16,0-.29.13-.29.29s.13.29.29.29h7.62c.16,0,.29-.13.29-.29Z"/>
  <path class="st0" d="M9.96,3.56c-.16,0-.29.13-.29.29s.13.29.29.29h4.23c.16,0,.29-.13.29-.29s-.13-.29-.29-.29h-4.23Z"/>
  <path class="st0" d="M19.12,6.93H4.91c-.16,0-.29.13-.29.29s.13.29.29.29h14.21c.16,0,.29.13.29.29v4.37c0,.16-.13.29-.29.29H.88c-.16,0-.29-.13-.29-.29v-4.37c0-.16.13-.29.29-.29h2.86c.16,0,.29-.13.29-.29s-.13-.29-.29-.29H.88C.4,6.93,0,7.33,0,7.82v4.37C0,12.67.4,13.07.88,13.07h18.24c.49,0,.88-.4.88-.88v-4.37c0-.49-.4-.88-.88-.88h0Z"/>
  <path class="st0" d="M5.94,11.56c.06,0,.12-.02.17-.05l1.82-1.28c.08-.05.12-.14.12-.24s-.05-.18-.12-.24l-1.82-1.28c-.09-.06-.21-.07-.3-.02-.1.05-.16.15-.16.26v2.57c0,.11.06.21.16.26.04.02.09.03.14.03h0ZM6.23,9.26l1.02.72-1.02.72v-1.44Z"/>
  <path class="st0" d="M2.82,9.78c-.39.55-.62.85-.74,1.02-.15.2-.23.3-.18.46.03.1.1.17.2.2.04.01.08.03.55.03.19,0,.44,0,.79,0,.16,0,.29-.14.29-.3s-.14-.29-.3-.29c-.23,0-.48,0-.69,0,.13-.18.32-.43.56-.78.16-.22.26-.44.3-.63,0,0,0-.02,0-.03v-.09s.01-.02.01-.04c0-.51-.41-.92-.92-.92-.44,0-.82.31-.9.74-.03.16.07.31.23.34.16.03.31-.07.34-.23.03-.15.17-.27.32-.27.18,0,.32.14.33.32v.06c-.04.12-.11.26-.22.41h0Z"/>
  <path class="st0" d="M9.96,9.46h7.62c.16,0,.29-.13.29-.29s-.13-.29-.29-.29h-7.62c-.16,0-.29.13-.29.29s.13.29.29.29h0Z"/>
  <path class="st0" d="M9.96,11.09h4.23c.16,0,.29-.13.29-.29s-.13-.29-.29-.29h-4.23c-.16,0-.29.13-.29.29s.13.29.29.29h0Z"/>
  <path class="st0" d="M19.12,13.87h-3.07c-.16,0-.29.13-.29.29s.13.29.29.29h3.07c.16,0,.29.13.29.29v4.37c0,.16-.13.29-.29.29H.88c-.16,0-.29-.13-.29-.29v-4.37c0-.16.13-.29.29-.29h13.99c.16,0,.29-.13.29-.29s-.13-.29-.29-.29H.88C.4,13.87,0,14.26,0,14.75v4.37C0,19.6.4,20,.88,20h18.24c.49,0,.88-.4.88-.88v-4.37c0-.49-.4-.88-.88-.88Z"/>
  <path class="st0" d="M6.11,15.39c-.09-.06-.21-.07-.3-.02-.1.05-.16.15-.16.26v2.57c0,.11.06.21.16.26.04.02.09.03.14.03.06,0,.12-.02.17-.05l1.82-1.28c.08-.05.12-.14.12-.24s-.05-.18-.12-.24l-1.82-1.28ZM6.23,17.63v-1.44l1.02.72-1.02.72Z"/>
  <path class="st0" d="M17.88,16.1c0-.16-.13-.29-.29-.29h-7.62c-.16,0-.29.13-.29.29s.13.29.29.29h7.62c.16,0,.29-.13.29-.29Z"/>
  <path class="st0" d="M9.96,17.43c-.16,0-.29.13-.29.29s.13.29.29.29h4.23c.16,0,.29-.13.29-.29s-.13-.29-.29-.29h-4.23Z"/>
  <path class="st0" d="M2.76,15.37c-.44,0-.82.31-.9.74-.03.16.07.31.23.34.16.03.31-.07.34-.23.03-.15.17-.27.32-.27.18,0,.33.15.33.33s-.15.33-.33.33c-.16,0-.29.13-.29.29s.13.29.29.29c.18,0,.33.15.33.33s-.15.33-.33.33c-.16,0-.3-.12-.33-.28,0-.02,0-.03,0-.05,0-.16-.13-.29-.29-.29s-.29.13-.29.29c0,.04,0,.09,0,.13.06.45.45.79.91.79.51,0,.92-.41.92-.92,0-.24-.09-.46-.25-.62.15-.16.25-.38.25-.62,0-.51-.41-.92-.92-.92Z"/>
</svg>