<?xml version="1.0" encoding="UTF-8"?>
<svg id="Layer_1" xmlns="http://www.w3.org/2000/svg" version="1.1" viewBox="0 0 20 20">
  <!-- Generator: Adobe Illustrator 29.2.1, SVG Export Plug-In . SVG Version: 2.1.0 Build 116)  -->
  <defs>
    <style>
      .st0 {
        fill: #2e1c6a;
      }
    </style>
  </defs>
  <path class="st0" d="M19,2.52h-2.76V.76c0-.42-.34-.76-.76-.76H4.53c-.42,0-.76.34-.76.76v1.76H1C.45,2.52,0,2.97,0,3.52v.72c0,.16.13.29.29.29s.29-.13.29-.29v-.72c0-.23.18-.41.41-.41h2.76v7.19h-.31c-.16,0-.29.13-.29.29s.13.29.29.29h13.09c.16,0,.29-.13.29-.29s-.13-.29-.29-.29h-.31V3.11h2.76c.23,0,.41.18.41.41v8.83H.59v-6.75c0-.16-.13-.29-.29-.29S0,5.44,0,5.6v8.95c0,.55.45,1,1,1h6.95l-.24,1.82h-1.02c-.55,0-1,.45-1,1v1.19c0,.25.2.45.45.45h7.71c.25,0,.45-.2.45-.45v-1.19c0-.55-.45-1-1-1h-1.02l-.24-1.82h4.9c.16,0,.29-.13.29-.29s-.13-.29-.29-.29H1c-.23,0-.41-.18-.41-.41v-1.61h18.82v1.61c0,.23-.18.41-.41.41h-.68c-.16,0-.29.13-.29.29s.13.29.29.29h.68c.55,0,1-.45,1-1V3.52c0-.55-.45-1-1-1h0ZM4.53.59h10.95c.1,0,.18.08.18.18v.5H4.35v-.5c0-.1.08-.18.18-.18ZM4.35,10.3V1.84h11.3v8.45H4.35ZM13.72,18.37v1.05h-7.43v-1.05c0-.23.18-.41.41-.41h6.61c.23,0,.41.18.41.41ZM11.7,17.37h-3.4l.24-1.82h2.92l.24,1.82Z"/>
  <path class="st0" d="M9.13,13.66c-.16,0-.29.13-.29.29s.13.29.29.29h1.74c.16,0,.29-.13.29-.29s-.13-.29-.29-.29h-1.74Z"/>
  <path class="st0" d="M10.72,5.93v-2.94c0-.29-.24-.53-.53-.53h-4.24c-.29,0-.53.24-.53.53v2.94c0,.29.24.53.53.53h4.24c.29,0,.53-.24.53-.53ZM10.14,3.05v1.54l-.84-.47c-.11-.06-.23-.06-.34,0l-1,.49-.61-.79c-.11-.14-.3-.18-.46-.1l-.86.44v-1.11h4.12ZM6.01,5.87v-1.06l.97-.5.61.79c.11.14.3.18.46.11l1.05-.52,1.03.57v.61h-4.12Z"/>
  <path class="st0" d="M13.28,7.66h-5.71c-.25,0-.45.2-.45.45v.94c0,.25.2.45.45.45h5.71c.25,0,.45-.2.45-.45v-.94c0-.25-.2-.45-.45-.45ZM13.15,8.91h-5.44v-.67h5.44v.67Z"/>
  <path class="st0" d="M14.28,3.63h-2.31c-.16,0-.29.13-.29.29s.13.29.29.29h2.31c.16,0,.29-.13.29-.29s-.13-.29-.29-.29Z"/>
  <path class="st0" d="M11.97,3.05h2.31c.16,0,.29-.13.29-.29s-.13-.29-.29-.29h-2.31c-.16,0-.29.13-.29.29s.13.29.29.29Z"/>
  <path class="st0" d="M13.61,4.8h-1.64c-.16,0-.29.13-.29.29s.13.29.29.29h1.64c.16,0,.29-.13.29-.29s-.13-.29-.29-.29Z"/>
</svg>