<?xml version="1.0" encoding="UTF-8"?>
<svg id="Layer_1" data-name="Layer 1" xmlns="http://www.w3.org/2000/svg" viewBox="0 0 500 364">
  <defs>
    <style>
      .cls-1 {
        fill: #999;
      }

      .cls-1, .cls-2, .cls-3 {
        fill-rule: evenodd;
      }

      .cls-2 {
        fill: #e6e6e6;
      }

      .cls-3, .cls-4 {
        fill: #b3b3b3;
      }
    </style>
  </defs>
  <path class="cls-3" d="M265.48,308.3c1.08-53.43,3.14-159.11,4.24-211.95,1.1-52.84,1.24-52.84,1.24-52.84,0,0-.14,0,10,52.46,10.14,52.47,30.56,157.4,40.77,209.87l10.21,52.47h0l-8.27-3.33c-8.27-3.33-24.82-10-33.09-13.34l-8.27-3.33h0l-3.09,4.4c-3.09,4.4-9.26,13.21-12.27,17.51-3.01,4.3-2.87,4.09-2.75,3.4.12-.7.21-1.88,1.29-55.31Z"/>
  <path class="cls-1" d="M272.43,51.51c1.32,6.97,3.81,20.02,8.53,44.47,10.14,52.47,30.56,157.4,40.77,209.87l10.21,52.47h0l-8.27-3.33c-8.27-3.33-24.82-10-33.09-13.34l-8.27-3.33h0l-1.48,2.12c-.28-8.64-.69-22.42-1.35-45.26-1.49-51.1-4.27-147.55-5.66-195.77l-1.38-47.89Z"/>
  <rect class="cls-4" x="291.04" y="230.41" width="6.41" height="32.69" transform="translate(41.81 536.14) rotate(-88.88)"/>
  <path class="cls-2" d="M333.34,358.34c1.46.03,4.32.08,5.72.11,1.39.03,1.33.03,1.29.03t-12.18-58.75c-12.15-58.75-36.44-176.24-48.58-234.98l-12.15-58.75-.25-.99c-.25-.99-.74-2.98-1.03-3.96-.29-.98-.39-.96-.44-.95t-1.23,60.56c-1.18,60.54-3.54,181.63-4.97,242.24-1.43,60.6-1.92,60.73-2.17,60.79-.25.07-.24.07.94.05,1.18-.02,3.54-.07,4.72-.09l1.18-.02h0l1.13-53.35c1.13-53.35,3.38-160.05,4.54-213.22,1.16-53.17,1.22-52.81,1.25-52.63l.03.18,10.08,52c10.08,52,30.23,156.01,40.33,208.3,10.1,52.29,10.14,52.85,10.19,53.14.06.28.13.29,1.59.31Z"/>
  <path class="cls-2" d="M261.09,87.17c-2.79-6.1-8.35-18.21-11.13-24.26l-2.78-6.05h0l-4.89,50.36c-4.89,50.36-14.67,151.08-19.56,201.44l-4.89,50.36,1.39.03c1.39.03,4.18.08,5.58.11q1.4.03,1.39.1c0,.07,0,.21,4.2-47.41,4.21-47.62,12.62-142.99,16.83-190.68l4.21-47.69,2.04,4.31c2.04,4.31,6.13,12.94,8.17,17.25l2.04,4.31.04-.98c.04-.98.11-2.93.13-3.96.02-1.03-.01-1.13-2.81-7.23Z"/>
  <path class="cls-3" d="M247.26,121.06c-4.21,47.66-12.62,142.92-16.83,190.55l-4.21,47.63,5.33-1.49c5.33-1.49,16-4.46,21.33-5.95l5.33-1.49.92-41.91c.92-41.91,2.77-125.73,3.69-167.64l.92-41.91h0l-2.05-4.27c-2.05-4.27-6.14-12.8-8.18-17.07l-2.05-4.27v.03s0,.1-4.21,47.77Z"/>
  <path class="cls-1" d="M247.75,353.24l5.13-1.43,5.33-1.49.92-41.91c.92-41.91,2.77-125.73,3.69-167.64l.92-41.91h0l-2.05-4.27-3.51-7.32-.86,22.64c-1.93,50.67-5.8,152-7.86,203.57-.76,19.06-1.28,31.32-1.72,39.75Z"/>
  <path class="cls-2" d="M238.74,126.79c-1.41-2.59-4.27-7.33-5.69-9.7l-1.43-2.37-8.92,40.62c-8.92,40.62-26.76,121.87-35.68,162.49l-8.92,40.62,1.67.03c1.67.03,5.02.1,6.7.06,1.68-.04,1.68-.18,1.68-.21,0-.03,0,.04,7.69-38.62,7.7-38.66,23.09-116.05,30.78-154.74l7.7-38.69.95.7c.95.7,2.86,2.11,3.82,2.77.96.67.96.59.99.33.03-.26.07-.7-1.34-3.3Z"/>
  <path class="cls-3" d="M239.13,129.91c-.92-.76-2.75-2.11-3.66-2.79l-.91-.68-7.73,38.65c-7.73,38.65-23.2,115.94-30.94,154.59l-7.73,38.65,5.02-.61c5.02-.61,15.06-1.82,20.09-2.43l5.02-.61,3.63-37.2c3.63-37.2,10.9-111.59,14.54-148.87,3.64-37.28,3.64-37.46,3.63-37.62,0-.17-.03-.33-.95-1.08Z"/>
  <path class="cls-1" d="M239.13,129.91c-.21-.17-.47-.38-.75-.6l-5.27,36.74c-5.63,39.27-16.89,117.82-22.18,158.18-2.03,15.52-3.18,25.39-3.75,31.79l6.08-.73,5.02-.61,3.63-37.2c3.63-37.2,10.9-111.59,14.54-148.87,3.64-37.28,3.64-37.46,3.63-37.62,0-.17-.03-.33-.95-1.08Z"/>
  <path class="cls-2" d="M218.17,171.24c-.85-1-2.52-2.94-3.35-3.91l-.84-.97-13.38,32.08c-13.38,32.08-40.14,96.25-53.52,128.33l-13.38,32.08,1.58.03c1.58.03,4.74.09,6.32.12l1.58.03,12.09-30.44c12.09-30.44,36.28-91.31,48.38-121.75l12.09-30.44.22.87c.22.87.65,2.62.84,3.5.19.88.15.89.12.9t.33-1.52c.35-1.52,1.05-4.57,1.41-6.13.36-1.56.37-1.63.37-1.69,0-.06-.02-.11-.87-1.11Z"/>
  <path class="cls-3" d="M216.76,180.73c-.2-.9-.6-2.61-.8-3.46q-.2-.85-12.29,29.58c-12.09,30.44-36.28,91.31-48.38,121.75l-12.09,30.44h0l5.99-.86c5.99-.86,17.96-2.59,23.95-3.46l5.99-.86h0l6.28-28.62c6.28-28.62,18.85-85.85,25.16-114.49,6.31-28.63,6.37-28.67,6.4-28.72.03-.05.03-.12.03-.21,0-.09-.01-.19-.22-1.09Z"/>
  <path class="cls-1" d="M216.76,180.73l-.03-.15c-.7,1.73-2.75,7.94-9.14,29.43-9.11,30.6-27.03,92.18-35.95,124.35-2.61,9.42-4.45,16.31-5.74,21.4l7.22-1.04,5.99-.86h0l6.28-28.62c6.28-28.62,18.85-85.85,25.16-114.49,6.31-28.63,6.37-28.67,6.4-28.72.03-.05.03-.12.03-.21,0-.09-.01-.19-.22-1.09Z"/>
  <path class="cls-2" d="M167.39,260.72c-15.42,19.56-46.23,58.64-61.63,78.18q-15.4,19.54-15.44,19.58s-.11.11,1.56.18c1.67.07,5.08.14,6.76.13,1.67,0,1.6-.08,14.33-17.15,12.73-17.07,38.27-51.13,50.99-68.19,12.72-17.06,12.62-17.11,12.57-17.13t1.02-2.56c1.07-2.54,3.2-7.61,4.27-10.14l1.07-2.54-.02.02s-.05.06-15.47,19.62Z"/>
  <path class="cls-3" d="M105.74,358.34c5.63.07,16.8.29,22.38.4q5.58.11,5.58.11h0s0,0,7.1-17.02c7.1-17.02,21.3-51.07,28.4-68.1l7.1-17.02-12.73,16.95c-12.73,16.95-38.18,50.85-50.91,67.8l-12.73,16.95h0l.04-.04s.13-.11,5.76-.03Z"/>
  <path class="cls-1" d="M122.75,358.63l5.38.1q5.58.11,5.58.11h0s0,0,7.1-17.02c7.1-17.02,21.3-51.07,28.4-68.1l4.85-11.63c-1.84,2.64-4.26,7.18-8.29,14.66-9.62,17.85-28.4,52.43-37.97,71.46-2.09,4.16-3.74,7.58-5.05,10.4Z"/>
  <path class="cls-2" d="M120.99,309.69c-15.61,9.92-46.8,29.72-62.4,39.62l-15.59,9.9h0l1.74.03c1.74.03,5.23.1,6.98.03,1.75-.07,1.75-.29,1.72-.29-.03,0-.09.22,12.82-8.41,12.91-8.64,38.8-26.13,51.74-34.87l12.94-8.75h0l.96-1.22c.96-1.22,2.88-3.65,3.83-4.86q.96-1.22.96-1.21s0,.01-.03.04c-.02.03-.06.07-15.67,9.99Z"/>
  <path class="cls-3" d="M59.45,358.94c6.28-.12,18.57-.29,24.72-.37l6.15-.08h0l6.77-8.59c6.77-8.59,20.31-25.77,27.09-34.36l6.77-8.59h0l-13.06,8.71c-13.06,8.71-39.17,26.13-52.22,34.84q-13.06,8.71-12.92,8.67c.14-.04.41-.11,6.7-.24Z"/>
  <path class="cls-1" d="M81.8,358.6l2.36-.03,6.15-.08h0l6.77-8.59c6.77-8.59,20.31-25.77,27.09-34.36l5.44-6.9c-1.71,1.41-4.2,4.02-8.36,8.37-9.85,10.3-29.09,30.34-39.45,41.59Z"/>
  <path class="cls-2" d="M14.6,355.06c12.95-3.82,37.99-10.83,50.51-14.33l12.52-3.5-1.35.86c-1.35.86-4.06,2.58-5.41,3.43l-1.35.86h0l-10.52,2.97c-10.52,2.97-31.56,8.9-42.09,11.86l-10.52,2.97-1-.02c-1-.02-3-.06-4.07-.06-1.07,0-1.22.03-1.29.05-.07.02-.07.01.35-.31.42-.32,1.27-.96,14.22-4.78Z"/>
  <path class="cls-3" d="M12.46,360.02c6.14-.16,18.34-.48,24.44-.64l6.1-.16h0l4.53-2.88c4.53-2.88,13.6-8.63,18.13-11.51l4.53-2.88h0l-10.26,2.91c-10.26,2.91-30.78,8.74-41.39,11.74-10.61,3-11.32,3.19-11.73,3.31-.41.12-.53.19-.55.22-.02.03.06.04,6.2-.12Z"/>
  <path class="cls-2" d="M393.21,338.94c-12.98-18.23-38.7-54.45-51.56-72.56l-12.86-18.11h0l6.08,17.55c6.08,17.55,18.24,52.64,25.37,70.26,7.13,17.61,9.24,17.75,16.19,18.47,6.95.72,18.75,2.02,24.64,2.65,5.89.63,5.87.59,5.82.56-.05-.04-.14-.08-.31-.21-.17-.13-.41-.36-13.38-18.59Z"/>
  <path class="cls-3" d="M316.93,218.95c11.2,27.7,33.54,82.91,44.72,110.51q11.17,27.6,11.32,27.6c.15,0,.44,0,.58.01q.15,0-5.51-.21c-5.65-.21-16.96-.62-22.61-.83l-5.65-.21-5.69-27.5c-5.69-27.5-17.06-82.5-22.75-110l-5.69-27.5.02.1c.02.1.06.31,11.26,28.01Z"/>
  <path class="cls-1" d="M352.14,356.28l-6.71-.25-5.65-.21-5.69-27.5c-5.69-27.5-17.06-82.5-22.75-110l-4.4-21.28c1.4,3.36,3.39,10.46,6.86,22.85,8.14,29.01,24.4,87,33.15,117.96,2.16,7.66,3.87,13.66,5.18,18.41Z"/>
  <path class="cls-3" d="M371.71,301.28c13.34,11.08,39.66,32.79,52.81,43.65l13.16,10.86-5.62-.24c-5.62-.24-16.86-.72-22.48-.97q-5.62-.24-5.6-.22s.05.07-7.67-10.77c-7.72-10.84-23.2-32.56-30.94-43.42q-7.74-10.86-7.55-10.64c.19.22.56.67,13.9,11.74Z"/>
  <path class="cls-1" d="M414.02,354.77l-4.44-.19q-5.62-.24-5.6-.22s.05.07-7.67-10.77c-7.72-10.84-23.2-32.56-30.94-43.42l-3.4-4.78c1.65,1.59,3.79,3.79,6.55,6.74,11,11.73,31.88,35.28,42.6,48.88,1.06,1.35,2.03,2.6,2.9,3.76Z"/>
  <path class="cls-2" d="M398.05,318.63c14.79,7.79,44.22,23.24,58.93,30.96q14.71,7.72,14.82,7.73c.11,0,.33,0,.54.05.22.04.43.12-5.34-.14-5.78-.26-17.55-.85-23.43-1.15l-5.89-.3h0l-9.12-7.54c-9.13-7.54-27.37-22.61-36.5-30.14l-9.12-7.54h0l.08.07c.08.07.24.2,15.04,7.99Z"/>
  <path class="cls-3" d="M443.08,339.82c11.48,3.55,34.2,10.53,45.56,14.01q11.36,3.49,11.36,3.52s0,.11,0,.15t-4.61,0c-4.61-.03-13.83-.09-18.44-.12q-4.61-.03-11.48-3.59c-6.87-3.56-20.6-10.67-27.47-14.22l-6.87-3.56.12.06c.12.06.35.18,11.82,3.73Z"/>
</svg>