<?xml version="1.0" encoding="UTF-8"?>
<svg id="Layer_1" xmlns="http://www.w3.org/2000/svg" version="1.1" xmlns:xlink="http://www.w3.org/1999/xlink" viewBox="0 0 1000 900.6">
  <!-- Generator: Adobe Illustrator 29.3.1, SVG Export Plug-In . SVG Version: 2.1.0 Build 151)  -->
  <defs>
    <style>
      .st0 {
        fill: #fb886e;
      }

      .st1 {
        fill: #e0d9ff;
      }

      .st2 {
        fill: #afa5ff;
      }

      .st3 {
        fill: #de4028;
      }

      .st4 {
        fill: #fcc4a5;
      }

      .st5 {
        fill: #fff;
      }

      .st6 {
        fill: #ffa423;
      }

      .st7 {
        fill: none;
      }

      .st8 {
        fill: #f9f9f9;
      }

      .st9 {
        fill: #673ddb;
      }

      .st10 {
        fill: #f4f3ff;
      }

      .st11 {
        clip-path: url(#clippath);
      }
    </style>
    <clipPath id="clippath">
      <path class="st7" d="M499.4,389h210.2c5.9,0,10.9-4.6,11.3-10.5l14.7-133.3c.4-5.1-3.6-9.4-8.7-9.4h-214.3c-5.3,0-9.6,4.1-10,9.3l-14.6,131.7c-.5,6.6,4.7,12.2,11.3,12.2h0Z"/>
    </clipPath>
  </defs>
  <path class="st2" d="M871,186c7.8,0,14.1-6.4,14.1-14.3s-6.3-14.3-14.1-14.3-14.1,6.4-14.1,14.3,6.3,14.3,14.1,14.3ZM871,160.6c6,0,10.9,5,10.9,11.1s-4.9,11.1-10.9,11.1-10.9-5-10.9-11.1,4.9-11.1,10.9-11.1Z"/>
  <path class="st2" d="M128.9,296.9c7.8,0,14.1-6.4,14.1-14.3s-6.3-14.3-14.1-14.3-14.1,6.4-14.1,14.3,6.3,14.3,14.1,14.3ZM128.9,271.6c6,0,10.9,5,10.9,11.1s-4.9,11.1-10.9,11.1-10.9-5-10.9-11.1,4.9-11.1,10.9-11.1h0Z"/>
  <path class="st5" d="M903.9,315.6h67.7c.9,0,1.6-.7,1.6-1.6s-.7-1.6-1.6-1.6h-67.7c-.9,0-1.6.7-1.6,1.6s.7,1.6,1.6,1.6Z"/>
  <path class="st2" d="M548.3,66.9h120.1c3,0,5.4-2.4,5.4-5.4h0c0-3-2.4-5.4-5.4-5.4h-120.1c-3,0-5.4,2.4-5.4,5.4h0c0,3,2.4,5.4,5.4,5.4Z"/>
  <g>
    <g>
      <rect class="st10" x="9.3" y="138.4" width="169.6" height="54.6" rx="2.5" ry="2.5"/>
      <g>
        <path class="st9" d="M46.3,158.7h106.5c.4,0,.7-.3.7-.7s-.3-.7-.7-.7H46.3c-.4,0-.7.3-.7.7s.3.7.7.7Z"/>
        <path class="st9" d="M110.6,171.5h42.2c.4,0,.7-.3.7-.7s-.3-.7-.7-.7h-42.2c-.4,0-.7.3-.7.7s.3.7.7.7Z"/>
      </g>
    </g>
    <polygon class="st10" points="158 186.8 158 208.2 131.1 186.8 158 186.8"/>
  </g>
  <g>
    <path class="st9" d="M851.5,61.4h60.7c8.1,0,14.7-6.6,14.7-14.7h0c0-8.1-6.6-14.7-14.7-14.7h-60.7c-8.1,0-14.7,6.6-14.7,14.7h0c0,8.1,6.6,14.7,14.7,14.7Z"/>
    <g>
      <path class="st1" d="M894.2,46.8c0,2.1,1.7,3.8,3.7,3.8s3.8-1.7,3.8-3.7-1.7-3.8-3.7-3.8-3.8,1.7-3.8,3.7Z"/>
      <path class="st1" d="M878.1,46.7c0,2.1,1.7,3.8,3.7,3.8s3.8-1.7,3.8-3.7-1.7-3.8-3.7-3.8-3.8,1.7-3.8,3.7Z"/>
      <path class="st1" d="M862,46.7c0,2.1,1.7,3.8,3.7,3.8s3.8-1.7,3.8-3.7-1.7-3.8-3.7-3.8-3.8,1.7-3.8,3.7Z"/>
    </g>
  </g>
  <g>
    <rect class="st9" x="250.6" width="119" height="88.5" rx="3.6" ry="3.6"/>
    <g>
      <rect class="st8" x="280.6" y="24.9" width="43.1" height="38.7" rx="2.4" ry="2.4"/>
      <path class="st8" d="M327.7,37.5v11.7c0,.6.3,1.2.9,1.5l13.8,7.4c1.1.6,2.5-.2,2.5-1.5v-24.6c0-1.2-1.2-2.1-2.4-1.6l-13.8,5.5c-.7.3-1.1.9-1.1,1.6h0Z"/>
    </g>
  </g>
  <g>
    <g>
      <g>
        <g>
          <g>
            <rect class="st9" x="876.9" y="497.3" width="7" height="407.9" transform="translate(-144.2 235.4) rotate(-14.1)"/>
            <rect class="st9" x="564.7" y="697.9" width="407.9" height="7" transform="translate(-98.6 1276.3) rotate(-75.9)"/>
          </g>
          <g>
            <rect class="st2" x="769.6" y="497.3" width="7" height="407.9" transform="translate(-147.5 209.3) rotate(-14.1)"/>
            <rect class="st2" x="457.4" y="697.8" width="407.9" height="7" transform="translate(-179.8 1172.2) rotate(-75.9)"/>
          </g>
        </g>
        <g>
          <g>
            <rect class="st9" x="329.8" y="497.4" width="7" height="407.9" transform="translate(-160.7 102.2) rotate(-14.1)"/>
            <rect class="st9" x="17.6" y="697.9" width="407.9" height="7" transform="translate(-512.6 745.7) rotate(-75.9)"/>
          </g>
          <g>
            <rect class="st2" x="222.5" y="497.4" width="7" height="407.9" transform="translate(-163.9 76.1) rotate(-14.1)"/>
            <rect class="st2" x="-89.6" y="697.9" width="407.9" height="7" transform="translate(-593.8 641.6) rotate(-75.9)"/>
          </g>
        </g>
        <g>
          <rect class="st2" x="779.7" y="487" width="196.4" height="33.1"/>
          <rect class="st9" x="35.7" y="487" width="744.1" height="33.1"/>
        </g>
      </g>
      <g>
        <path class="st9" d="M854.3,486.7h15.4c11.9,0,21.5-9.6,21.5-21.5v-41.9h-58.4v41.9c0,11.9,9.6,21.5,21.5,21.5Z"/>
        <path class="st9" d="M829.2,468.7h8.4v-6.1h-8.4c-6.6,0-11.9-5.3-11.9-11.9s5.3-11.9,11.9-11.9h7.3v-6.1h-7.3c-9.9,0-18,8.1-18,18s8.1,18,18,18Z"/>
      </g>
      <g>
        <g>
          <g>
            <path class="st2" d="M458.8,435.5h317.9c8.5,0,15.6-6.6,16.3-15.1l22.4-208.9c.6-8.2-5.9-15.3-14.2-15.3h-320.2c-8.5,0-15.6,6.6-16.3,15.1l-22.3,206.7c-.7,9.5,6.8,17.5,16.3,17.5h0Z"/>
            <path class="st9" d="M441.7,435.5h317.9c8.5,0,15.6-6.6,16.3-15.1l22.4-208.9c.6-8.2-5.9-15.3-14.2-15.3h-320.2c-8.5,0-15.6,6.6-16.3,15.1l-22.3,206.7c-.7,9.5,6.8,17.5,16.3,17.5h0Z"/>
            <path class="st5" d="M455.2,420.7h292.9c8.3,0,15.2-6.4,15.8-14.7l20.6-185.7c.5-7.1-5.1-13.1-12.1-13.1h-298.5c-7.3,0-13.4,5.7-13.9,13l-20.4,183.5c-.7,9.2,6.6,17,15.8,17h0Z"/>
          </g>
          <g>
            <path class="st1" d="M596.7,196.2h49.1l2.1-19c.3-3-2-5.5-5-5.5h-39.1c-2.5,0-4.7,1.9-5,4.5l-2.2,20h0Z"/>
            <g>
              <path class="st9" d="M620.4,192.4c4.6,0,8.3-3.7,8.3-8.3s-3.7-8.3-8.3-8.3-8.3,3.7-8.3,8.3,3.7,8.3,8.3,8.3ZM620.4,177.3c3.8,0,6.8,3.1,6.8,6.8s-3.1,6.8-6.8,6.8-6.8-3.1-6.8-6.8,3.1-6.8,6.8-6.8Z"/>
              <circle cx="620.4" cy="184.1" r="2.8"/>
            </g>
            <path class="st3" d="M603.8,177.8c0,1.4,1.1,2.5,2.5,2.5s2.5-1.1,2.5-2.5-1.1-2.5-2.5-2.5-2.5,1.1-2.5,2.5Z"/>
          </g>
          <g>
            <polygon class="st2" points="662.3 435.5 675.9 487.8 592.7 487.8 579.6 435.5 662.3 435.5"/>
            <polygon class="st9" points="645.2 435.5 658.8 487.8 575.6 487.8 562.5 435.5 645.2 435.5"/>
          </g>
        </g>
        <g>
          <path class="st1" d="M499.4,389h210.2c5.9,0,10.9-4.6,11.3-10.5l14.7-133.3c.4-5.1-3.6-9.4-8.7-9.4h-214.3c-5.3,0-9.6,4.1-10,9.3l-14.6,131.7c-.5,6.6,4.7,12.2,11.3,12.2h0Z"/>
          <g class="st11">
            <g>
              <path class="st9" d="M671.9,360.1h-92.7l11.8,61.1,105.1-3.5-6.3-44.1c-2.3-8-9.6-13.5-17.9-13.5h0Z"/>
              <g>
                <g>
                  <path class="st2" d="M558,292.7c-1,6.9,3.9,13.2,10.7,14.2,6.9,1,13.2-3.9,14.2-10.7s-3.9-13.2-10.7-14.2c-6.9-1-13.2,3.9-14.2,10.7Z"/>
                  <path d="M564.5,266.6s-10.5,10.8,6.3,15.8l10.5-15.1-16.8-.7h0Z"/>
                  <path d="M625.9,288.3c-.6,16.4-15,29.2-32.2,28.5-17.2-.6-30.6-14.4-30-30.8.6-16.4,15-29.2,32.2-28.5,17.2.6,30.6,14.4,30,30.8Z"/>
                  <polygon class="st4" points="585.4 317.9 584.8 352.3 611.1 345.7 604.1 298.8 585.4 317.9"/>
                  <polygon class="st0" points="585 336.6 601.9 315.8 585.4 317.9 585 336.6"/>
                  <path class="st4" d="M568.5,269c-2.2,1.7-3.6,4.1-4.2,6.8-1.9,7.9-3.9,20.3-3,29.1,1.1,10.5,11.9,20.4,26.4,18.2,0,0,17.3-1.1,21.7-22.8,6.9-34.6-22.3-45.8-40.8-31.3h0Z"/>
                  <polygon points="599.4 264.8 604.3 301 624.9 283.5 599.4 264.8"/>
                  <path d="M600.5,273.2s-45.2,1.3-41-13.5c5.6-19.8,26.5-5.4,35.2-6.1,6.5-.5,20.1-1.3,24.6,8.5,8.3,18.2-18.8,11.1-18.8,11.1Z"/>
                  <path d="M619.4,266.6s17.2,11,2.7,35l-11.7-35h9Z"/>
                  <path d="M558.3,258.2c0,7.2,6.2,13,13.7,13s13.7-5.8,13.7-13-6.2-13-13.7-13-13.7,5.8-13.7,13Z"/>
                  <path d="M579.3,247.2s9.8,6.8,20.1,6.2l-4.6,7.8-23.5-4.9,8-9.1h0Z"/>
                  <path d="M565.2,269.5s10.1,7.2,35.3,3.8l-8.9-9.7-26.4,6Z"/>
                  <g>
                    <g>
                      <path d="M571.4,302.9c.2,0,.3-.1.3-.3,0-.2,0-.4-.3-.4l-2-.5c-.2,0-.4-.3-.3-.6l1.3-3.3c0-.2,0-.4-.2-.5-.2,0-.4,0-.5.2l-1.3,3.3c-.2.7.2,1.3.8,1.5l2.1.5h0Z"/>
                      <circle cx="581.3" cy="293.9" r="2"/>
                      <circle cx="565.2" cy="293.2" r="1.9"/>
                      <path d="M577.6,280.9l14.6,2.5s-2.7-4.7-6.9-5.4c-4.2-.7-7.8,2.9-7.8,2.9h0Z"/>
                      <path d="M571.5,280.6l-11.3,1.8s1.9-4.5,5.1-5c3.3-.5,6.2,3.2,6.2,3.2h0Z"/>
                      <path d="M574.2,308.8c2,0,4.4-.6,6.8-2.6.2-.1.2-.3,0-.5-.1-.2-.3-.2-.5,0-5.1,4.2-10.3,1.6-10.3,1.6-.2,0-.4,0-.5.2,0,.2,0,.4.2.5,0,0,1.8.9,4.3.9h0Z"/>
                    </g>
                    <g>
                      <path class="st5" d="M583,303.9c5.3,0,9.7-4.4,9.8-9.8,0-2.7-.9-5.2-2.7-7.1s-4.3-3-6.9-3.1c-2.6,0-5.1.9-7,2.8-1.9,1.9-2.9,4.3-3,7-.1,5.5,4.2,10.1,9.6,10.2h.2,0ZM583,285h.2c2.3,0,4.5,1,6.1,2.7,1.6,1.7,2.5,4,2.4,6.4,0,4.9-4,8.8-8.7,8.8h-.2c-4.8,0-8.7-4.2-8.6-9.1,0-2.4,1-4.6,2.7-6.3,1.6-1.6,3.8-2.5,6.1-2.5h0Z"/>
                      <path class="st5" d="M561.9,303c4.1,0,7.4-4.2,7.5-9.4.1-5.3-3.2-9.7-7.3-9.7h-.1c-4.1,0-7.4,4.2-7.5,9.4h0c-.1,5.3,3.2,9.7,7.3,9.7h.1ZM562,284.8h0c3.6,0,6.4,4,6.3,8.7,0,4.7-3,8.5-6.5,8.5h0c-3.6,0-6.4-4-6.3-8.7h0c0-4.7,3-8.5,6.5-8.5Z"/>
                      <path class="st5" d="M573.7,294.3c.1,0,.2,0,.3-.1.2-.2.3-.5,0-.7,0,0-2.4-2.8-5.6-.2-.2.2-.3.5,0,.7s.5.3.7,0c2.3-1.9,3.9-.1,4.1,0,.1.1.3.2.4.2h0Z"/>
                      <path class="st5" d="M603.6,296.4c.3,0,.5-.2.5-.4,0-.3-.2-.6-.4-.6l-11.4-1.8c-.3,0-.6.2-.6.4,0,.3.2.6.4.6l11.4,1.8h0,0Z"/>
                    </g>
                  </g>
                  <path class="st9" d="M616.1,286.3s3.2-22.1-10.5-33.1c0,0-8.4-5.5-14.3-.6,0,0,18.2,8.7,14.8,34.7l10-.9h0Z"/>
                  <g>
                    <path class="st2" d="M600.4,293.9c-1,6.9,3.9,13.2,10.7,14.2,6.9,1,13.2-3.9,14.2-10.7s-3.9-13.2-10.7-14.2c-6.9-1-13.2,3.9-14.2,10.7Z"/>
                    <path class="st9" d="M609.4,294.9c-.5,3.7,2.1,7,5.7,7.5,3.7.5,7-2.1,7.5-5.7.5-3.7-2.1-7-5.7-7.5-3.7-.5-7,2.1-7.5,5.7"/>
                  </g>
                </g>
                <g>
                  <path class="st6" d="M561.7,352.8s-15.8,9.2-18.3,32v32.4l25.7-.9-7.4-63.5h0Z"/>
                  <g>
                    <path class="st6" d="M581.1,345.5s-12.9,2.5-19.4,7.4l-1.9,116.3c41.5,25,88.9.7,88.9.7l-12.9-116.4s-1.7-6.6-19.7-8h-35Z"/>
                    <path class="st4" d="M616.2,345.5s-14.9-3.3-35,0c0,0-1.9,12,14.3,12.5,17.5.5,20.8-12.5,20.8-12.5Z"/>
                  </g>
                  <path class="st6" d="M628.1,347.7s38.8,6.4,43.4,69.5h-47.8l-3.1-40.8,7.5-28.7Z"/>
                </g>
              </g>
            </g>
          </g>
        </g>
      </g>
      <g>
        <g>
          <path class="st2" d="M406.3,358.3l-29,39.1,32.7,25.3c11.1,8.6,27,6.6,35.6-4.5h0c8.9-11.5,6.3-28-5.5-36.3l-33.8-23.6h0Z"/>
          <path class="st9" d="M381.4,392.1l21.3-28.8-24-18.6c-8.1-6.3-19.9-4.8-26.2,3.3h0c-6.5,8.4-4.7,20.6,4.1,26.7l24.8,17.4h0Z"/>
          <path class="st9" d="M422.2,405c.8,5.1,5.6,8.6,10.7,7.8,5.1-.8,8.6-5.6,7.8-10.7-.8-5.1-5.6-8.6-10.7-7.8-5.1.8-8.6,5.6-7.8,10.7Z"/>
        </g>
        <rect class="st2" x="404.3" y="409.1" width="15.4" height="77.9"/>
      </g>
    </g>
    <g>
      <g>
        <g>
          <path class="st5" d="M316.6,283c.3,0,.6,0,.9,0,7.1-.5,12.3-7.6,11.7-15.7s-6.9-14.3-13.9-13.7c-3.5.3-6.6,2.1-8.8,5.1-2.2,3-3.2,6.7-2.9,10.6.3,3.9,1.9,7.5,4.5,10.1s5.4,3.7,8.6,3.7h0ZM316.1,256.1c5.4,0,10,5,10.5,11.4.5,6.7-3.7,12.5-9.3,12.9-2.7.2-5.3-.8-7.4-2.9s-3.5-5.1-3.7-8.4h0c-.2-3.3.6-6.4,2.4-8.9,1.8-2.4,4.2-3.8,6.9-4,.2,0,.5,0,.7,0h0Z"/>
          <polygon class="st4" points="246 293.4 235.1 364.1 284.7 359.3 286.2 293.1 246 293.4"/>
          <polygon class="st0" points="267.4 313.9 285.1 340.8 286 310 267.4 313.9"/>
          <path class="st4" d="M271.4,216.9s43.9-6.7,46.3,31.5c1.1,17.6,1.1,33.8.9,47.9-.2,15-13.3,26.5-28.2,24.8l-43.7-3.3,24.7-100.9Z"/>
          <path class="st4" d="M317.3,269l7.8,13.7c.6,1.3-.4,2.8-1.8,2.8l-8.8,1.6,2.9-18.1Z"/>
          <path d="M232.3,212.7h0c4.1-2.3,16-6.9,21.5-7.9,34.3-6.2,89.2,6.6,37.9,31.7,0,0,11,8.5-10,40.1l-9.9,1.3s9,33-27.4,27.3c0,0-25.7-30.4-30.6-48.7-8.2-30.8,18.4-43.8,18.4-43.8h0Z"/>
          <g>
            <path d="M294,213.4l-25.9,2c1,12.7,13.5,22.3,27.7,21.2,14.2-1.1,25.1-12.4,24.1-25.2-1-12.7-13.5-22.3-27.7-21.2-13.3,1-23.8,11-24.2,22.9l26,.3h0Z"/>
            <path d="M287.8,190.9s-29.3,8.5-41.2,21.6c-11.9,13.2,40,7.1,40,7.1l1.2-28.7h0Z"/>
          </g>
          <polygon points="290.5 244.5 292.7 274.6 282.4 276.4 273.7 251.8 290.5 244.5"/>
          <rect class="st5" x="287.3" y="271.4" width="40.8" height="2.6" transform="translate(-36 47.1) rotate(-8.3)"/>
          <path d="M320.9,251.8c-.1,0-.9-7-5.3-6.6-4.4.4-9.2,4.8-10.1,10.4l15.4-3.8h0Z"/>
          <g>
            <path class="st9" d="M282.5,259.5s3-38.4-23.3-55.2c0,0-10.3-4.1-19.8,5.6,0,0,26.7,6.7,25.7,53.1l17.4-3.5h0Z"/>
            <g>
              <path class="st2" d="M251.1,274.9c-.4,12.3,9.3,22.6,21.6,23,12.3.4,22.6-9.3,23-21.6.4-12.3-9.3-22.6-21.6-23-12.3-.4-22.6,9.3-23,21.6Z"/>
              <path class="st9" d="M264.9,275.3c-.2,6.5,4.9,12,11.5,12.2s12-4.9,12.2-11.5c.2-6.5-4.9-12-11.5-12.2s-12,4.9-12.2,11.5"/>
            </g>
          </g>
        </g>
        <g>
          <path class="st6" d="M237.6,356.5c16.6-.7,27.2-.7,48.5,1.8,28.1,3.3,47.2,24.8,47.1,53.1l1.7,162.5-124.8,3.4s-19.3-136.3-19.2-177.4c0-22.7,17.7-42.1,46.7-43.3h0Z"/>
          <g>
            <g>
              <path class="st6" d="M399.8,543.5l-7.8-39.1-36.6-64.5-2.8-5.3-22.9-43.2c-6.5-16.2-24.3-24.6-40.9-19.4-17.9,5.6-27.7,24.9-21.6,42.7,4.4,12.7,14.9,33.3,26.4,55.1.6,1.1,1.2,2.2,1.8,3.3,15.4,28.8,40.4,70.4,40.4,70.4,6.9,19.8,26.5,27.5,45.6,19h0c2.8-1.2,5.1-2.9,7.2-5h0s0,0,0,0c3.4-3.4,9.6-9.1,11.2-14h0Z"/>
              <path d="M334.6,541.2c.1,0,.2,0,.3,0,.3-.2.4-.5.2-.8l-56.1-104c-.2-.3-.5-.4-.8-.2-.3.2-.4.5-.2.8l56.1,104c.1.2.3.3.5.3Z"/>
            </g>
            <g>
              <g>
                <path class="st4" d="M543.9,456.8l44.2-9c2.5-.5,4.9,1,5.5,3.4h0c.6,2.5-.7,5-3.2,5.7l-20.7,6.4-25.9-6.6Z"/>
                <path class="st4" d="M470.5,476.5l18.6-15.2s14.4-18.7,37.1-21.1c14.2-1.5,22.9-4.6,27.5-6.8,2.4-1.1,5.2-.4,6.7,1.8h0c1.6,2.3,1.1,5.4-1.1,7.1-4.3,3.3-11.9,8.3-21.4,11.5l55,5c2.4.2,4.2,2.4,3.8,4.8h0c-.3,1.7-1.6,3-3.3,3.3l-63.7,10.6s-35.5,10-44.5,15.6l-14.4-16.6h0Z"/>
              </g>
              <g>
                <path class="st6" d="M370.9,498.8c2.7.5,117.3-37.6,117.3-37.6l7.3,47.5-114.1,53.8-10.5-63.7h0Z"/>
                <path d="M361.8,501.8s.1,0,.2,0l24.6-6.7c.3,0,.5-.4.4-.7s-.4-.5-.7-.4l-24.6,6.7c-.3,0-.5.4-.4.7,0,.3.3.5.6.5h0Z"/>
              </g>
            </g>
          </g>
        </g>
        <g>
          <g>
            <g>
              <polygon class="st5" points="439.2 861.7 386.4 765.2 427.9 748.6 474 845.5 439.2 861.7"/>
              <g>
                <g>
                  <path class="st9" d="M427.9,842c9.7,4.3,21.1,6.2,34.5-.4,0,0,9.2-18.6,20.1-6.9,0,0,17.2,19.1,42.6,24.1,35.3,7,36.9,23.4,36.9,23.4l-144.6.6s.4-22.3,2.7-36.4c.6-3.6,4.4-5.9,7.8-4.4h0Z"/>
                  <rect class="st5" x="417.3" y="882.5" width="144.6" height="16.3" transform="translate(-3.4 1.9) rotate(-.2)"/>
                </g>
                <path class="st5" d="M501,863.2c.4,0,.7-.2.9-.5,4-7.1,8.9-7.2,9.1-7.2.6,0,1.1-.5,1.1-1.1s-.5-1.1-1.1-1.1h0c-.4,0-6.4.1-11,8.3-.3.5-.1,1.2.4,1.5.2,0,.3.1.5.1h0Z"/>
                <path class="st5" d="M493.8,859.4c.4,0,.7-.2.9-.5,4-7.1,8.9-7.2,9.1-7.2.6,0,1.1-.5,1.1-1.1s-.5-1.1-1.1-1.1c-.3,0-6.4,0-11,8.3-.3.5-.1,1.2.4,1.5.2,0,.3.1.5.1h0Z"/>
                <path class="st5" d="M486.4,854.9c.4,0,.7-.2.9-.5,4-7.1,8.9-7.2,9.1-7.2.6,0,1.1-.5,1.1-1.1s-.5-1.1-1.1-1.1c-.4,0-6.4,0-11,8.3-.3.5-.1,1.2.4,1.5.2,0,.3.1.5.1h0Z"/>
              </g>
            </g>
            <polygon class="st9" points="390.1 602 475.6 805.1 402.4 822.1 313.3 635.9 390.1 602"/>
          </g>
          <g>
            <path class="st9" d="M334.9,573.8l92.3,5.9c23.1,1.5,40.3,21.9,37.8,45h0c-2.3,20.6-19.7,36.2-40.4,36.2h-193.2s-48.7-11.2-21.3-83.7l124.8-3.4h0Z"/>
            <g>
              <g>
                <polygon class="st5" points="541 861.7 488.3 765.2 529.8 748.6 575.9 845.5 541 861.7"/>
                <g>
                  <g>
                    <path class="st9" d="M529.8,842c9.7,4.3,21.1,6.2,34.5-.4,0,0,9.2-18.6,20.1-6.9,0,0,17.2,19.1,42.6,24.1,35.3,7,36.9,23.4,36.9,23.4l-144.6.6s.4-22.3,2.7-36.4c.6-3.6,4.4-5.9,7.8-4.4h0Z"/>
                    <rect class="st5" x="519.2" y="882.5" width="144.6" height="16.3" transform="translate(-3.4 2.3) rotate(-.2)"/>
                  </g>
                  <path class="st5" d="M602.9,863.2c.4,0,.7-.2.9-.5,4-7.1,8.9-7.2,9.1-7.2.6,0,1.1-.5,1.1-1.1s-.5-1.1-1.1-1.1c-.3,0-6.4,0-11,8.3-.3.5-.1,1.2.4,1.5.2,0,.3.1.5.1h0Z"/>
                  <path class="st5" d="M595.7,859.4c.4,0,.7-.2.9-.5,4-7.1,8.9-7.2,9.1-7.2.6,0,1.1-.5,1.1-1.1s-.5-1.1-1.1-1.1c-.2,0-6.3,0-11,8.3-.3.5-.1,1.2.4,1.5.2,0,.3.1.5.1h0Z"/>
                  <path class="st5" d="M588.3,854.9c.4,0,.7-.2.9-.5,4-7.1,8.9-7.2,9.1-7.2.6,0,1.1-.5,1.1-1.1s-.5-1.1-1.1-1.1c-.2,0-6.3,0-11,8.3-.3.5-.1,1.2.4,1.5.2,0,.3.1.5.1h0Z"/>
                </g>
              </g>
              <polygon class="st9" points="458.5 597.8 575.9 803.2 502.7 828.2 386.4 640.6 458.5 597.8"/>
            </g>
          </g>
        </g>
      </g>
      <g>
        <g>
          <g>
            <path class="st2" d="M418,871h0c2.2-4.6.3-10.2-4.4-12.4l-123.6-42.2-8,16.8,123.6,42.2c4.6,2.2,10.2.3,12.4-4.4h0Z"/>
            <path class="st2" d="M394.1,883.1c0,8.7,7.1,15.8,15.8,15.8s15.8-7.1,15.8-15.8-7.1-15.8-15.8-15.8-15.8,7.1-15.8,15.8Z"/>
          </g>
          <g>
            <path class="st2" d="M144.8,871h0c-2.2-4.6-.3-10.2,4.4-12.4l123.6-42.2,8,16.8-123.6,42.2c-4.6,2.2-10.2.3-12.4-4.4h0Z"/>
            <path class="st2" d="M168.7,883.1c0,8.7-7.1,15.8-15.8,15.8s-15.8-7.1-15.8-15.8,7.1-15.8,15.8-15.8,15.8,7.1,15.8,15.8Z"/>
          </g>
          <g>
            <path class="st2" d="M347.7,883.1c0,8.7,7.1,15.8,15.8,15.8s15.8-7.1,15.8-15.8-7.1-15.8-15.8-15.8-15.8,7.1-15.8,15.8Z"/>
            <path class="st2" d="M187.9,883.1c0,8.7,7.1,15.8,15.8,15.8s15.8-7.1,15.8-15.8-7.1-15.8-15.8-15.8-15.8,7.1-15.8,15.8Z"/>
            <path class="st9" d="M280.8,833.4h0c5.1,0,9.3-4.2,9.3-9.3v-99.9h-18.6v99.9c0,5.1,4.2,9.3,9.3,9.3h0Z"/>
            <path class="st9" d="M371.6,871h0c2.2-4.6.3-10.2-4.4-12.4l-79.5-42.2-8,16.8,79.5,42.2c4.6,2.2,10.2.3,12.4-4.4h0Z"/>
            <path class="st9" d="M188.8,871h0c-2.2-4.6-.3-10.2,4.4-12.4l79.5-42.2,8,16.8-79.5,42.2c-4.6,2.2-10.2.3-12.4-4.4h0Z"/>
            <rect class="st2" x="264.2" y="690.8" width="33" height="57.8"/>
          </g>
        </g>
        <g>
          <rect class="st2" x="144.8" y="659.5" width="266" height="31.4" rx="12.2" ry="12.2"/>
          <g>
            <g>
              <path class="st2" d="M149.4,633.9h131.6c11.9,0,20.4-11.5,16.9-22.9l-64.1-209.5c-2.3-7.4-9.1-12.5-16.9-12.5H85.3c-11.9,0-20.4,11.5-16.9,22.9l64.1,209.5c2.3,7.4,9.1,12.5,16.9,12.5h0Z"/>
              <path class="st9" d="M124.5,633.9h131.6c11.9,0,20.4-11.5,16.9-22.9l-64.1-209.5c-2.3-7.4-9.1-12.5-16.9-12.5H60.3c-11.9,0-20.4,11.5-16.9,22.9l64.1,209.5c2.3,7.4,9.1,12.5,16.9,12.5Z"/>
            </g>
            <g>
              <polygon class="st2" points="250 633.9 259.5 660.9 192.3 660.9 182.8 633.9 250 633.9"/>
              <polygon class="st2" points="250 633.9 182.8 633.9 186.2 643.5 253.3 643.5 250 633.9"/>
            </g>
          </g>
          <g>
            <polygon class="st2" points="314.7 690.8 363.5 588.2 394.8 588.2 347.4 690.8 314.7 690.8"/>
            <path class="st2" d="M334,574.8h95.8c8.7,0,15.7,7,15.7,15.7h0c0,8.7-7,15.7-15.7,15.7h-95.8c-8.7,0-15.7-7-15.7-15.7h0c0-8.7,7-15.7,15.7-15.7Z"/>
          </g>
        </g>
      </g>
    </g>
    <rect class="st9" x="0" y="898.4" width="1000" height="2.2"/>
  </g>
</svg>