<?xml version="1.0" encoding="UTF-8"?>
<svg id="Layer_1" xmlns="http://www.w3.org/2000/svg" version="1.1" viewBox="0 0 1000 1000">
  <!-- Generator: Adobe Illustrator 29.5.0, SVG Export Plug-In . SVG Version: 2.1.0 Build 137)  -->
  <defs>
    <style>
      .st0 {
        opacity: .5;
      }

      .st0, .st1 {
        fill: #fbfbfb;
      }

      .st2 {
        fill: #eef0f2;
      }

      .st3 {
        fill: #231c6a;
      }

      .st4 {
        fill: #fff;
      }

      .st5 {
        fill: #f4f3ff;
      }

      .st6 {
        fill: #afa5ff;
      }

      .st7 {
        fill: #cdc6ff;
      }

      .st8 {
        fill: none;
        stroke: #f4f6f7;
        stroke-miterlimit: 10;
        stroke-width: .2px;
      }

      .st9 {
        opacity: 0;
      }

      .st10 {
        fill: #673ddb;
      }

      .st11 {
        fill: #e0d9ff;
      }
    </style>
  </defs>
  <g>
    <rect class="st5" x="594.2" y="578.4" width="279.6" height="385.8"/>
    <rect class="st6" x="580.6" y="564.1" width="306.7" height="14.3"/>
    <rect class="st1" x="887.3" y="564.1" width="96.4" height="14.3"/>
    <rect class="st6" x="873.8" y="578.4" width="94.7" height="385.8"/>
    <g>
      <rect class="st8" x="624.6" y="633.7" width="218.7" height="123"/>
      <g>
        <rect class="st11" x="703.4" y="669.5" width="42.7" height="24.5"/>
        <rect class="st11" x="716" y="671.3" width="42.7" height="20.8"/>
      </g>
    </g>
    <g>
      <rect class="st8" x="624.6" y="789" width="218.7" height="123"/>
      <g>
        <rect class="st11" x="703.4" y="824.8" width="42.7" height="24.5"/>
        <rect class="st11" x="716" y="826.7" width="42.7" height="20.8"/>
      </g>
    </g>
  </g>
  <g>
    <ellipse class="st5" cx="207.7" cy="87" rx="87.2" ry="87"/>
    <ellipse class="st11" cx="211.7" cy="88.9" rx="83.2" ry="83"/>
    <ellipse class="st4" cx="211.7" cy="88.9" rx="78" ry="77.8"/>
    <path class="st0" d="M287.9,72.4c-35.5,21.5-93.9,56.6-126.5,75.9-9.1-7.7-16.5-17.5-21.3-28.6L248,20.1c20.1,10.5,35,29.6,39.9,52.3Z"/>
    <path class="st0" d="M289.6,91.6c-.3,8.9-2.1,17.4-5.2,25.3l-97.2,45.9c-4.3-1.4-8.4-3.2-12.3-5.3,29.4-16.9,83.1-47.7,114.7-65.9Z"/>
    <g>
      <rect class="st7" x="210.9" y="16.8" width="1.5" height="11.8"/>
      <polygon class="st7" points="180.8 37.1 174.9 26.8 176.2 26.1 182.1 36.3 180.8 37.1"/>
      <polygon class="st7" points="158.9 59.4 148.7 53.5 149.4 52.2 159.7 58.1 158.9 59.4"/>
      <rect class="st7" x="139.4" y="88.2" width="11.8" height="1.5"/>
      <polygon class="st7" points="149.4 125.6 148.7 124.3 158.9 118.4 159.7 119.7 149.4 125.6"/>
      <polygon class="st7" points="176.2 151.8 174.9 151 180.8 140.8 182.1 141.5 176.2 151.8"/>
      <rect class="st7" x="210.9" y="149.2" width="1.5" height="11.8"/>
      <polygon class="st7" points="247.2 151.8 241.3 141.5 242.6 140.8 248.5 151 247.2 151.8"/>
      <polygon class="st7" points="273.9 125.6 263.7 119.7 264.5 118.4 274.7 124.3 273.9 125.6"/>
      <rect class="st7" x="272.2" y="88.2" width="11.8" height="1.5"/>
      <polygon class="st7" points="264.5 59.4 263.7 58.1 273.9 52.2 274.7 53.5 264.5 59.4"/>
      <polygon class="st7" points="242.6 37.1 241.3 36.3 247.2 26.1 248.5 26.8 242.6 37.1"/>
    </g>
    <g>
      <polygon class="st7" points="212.8 22.1 215.4 94.2 208 94.1 210.8 22.1 212.8 22.1"/>
      <polygon class="st2" points="257.8 63.8 209.2 94.7 205.7 88.3 256.8 62 257.8 63.8"/>
      <path class="st7" d="M214.2,88.9c0,1.4-1.1,2.5-2.5,2.5s-2.5-1.1-2.5-2.5,1.1-2.5,2.5-2.5,2.5,1.1,2.5,2.5Z"/>
    </g>
  </g>
  <path class="st3" d="M0,964.3c249.2-.3,750.8-.3,1000,0-249.2.3-750.8.3-1000,0h0Z"/>
  <g>
    <rect class="st11" x="757" y="0" width="243" height="270.4"/>
    <rect class="st5" x="773" y="16" width="211" height="238.6"/>
    <g>
      <g>
        <rect class="st11" x="792.1" y="56" width="74.4" height="87.9"/>
        <path class="st6" d="M831.9,64.1c0,1.5-1.2,2.7-2.7,2.7s-2.7-1.2-2.7-2.7,1.2-2.7,2.7-2.7,2.7,1.2,2.7,2.7Z"/>
        <path class="st1" d="M806.2,75.8c7.5-.6,15-.6,22.6-.7,7.5,0,15,.1,22.6.7-7.5.6-15,.6-22.6.7-7.5,0-15-.1-22.6-.7Z"/>
        <path class="st1" d="M806.2,82.7c4.1-.5,8.2-.7,12.3-.7,4.1,0,8.2.2,12.3.7-4.1.5-8.2.7-12.3.7-4.1,0-8.2-.2-12.3-.7Z"/>
        <path class="st1" d="M806.2,89.6c5.2-.5,10.4-.7,15.7-.7,5.2,0,10.4.2,15.7.7-5.2.5-10.4.7-15.7.7-5.2,0-10.4-.2-15.7-.7Z"/>
        <path class="st1" d="M806.2,96.6c6.5-.5,13.1-.7,19.6-.7,6.5,0,13.1.2,19.6.7-6.5.5-13.1.7-19.6.7-6.5,0-13.1-.2-19.6-.7Z"/>
        <path class="st1" d="M806.2,103.5c5.7-.5,11.4-.7,17-.7,5.7,0,11.4.2,17,.7-5.7.5-11.4.7-17,.7-5.7,0-11.4-.2-17-.7Z"/>
        <path class="st1" d="M806.2,110.5c7.3-.6,14.5-.6,21.8-.7,7.3,0,14.5.1,21.8.7-7.3.6-14.5.6-21.8.7-7.3,0-14.5-.1-21.8-.7Z"/>
        <path class="st1" d="M806.2,117.4c4.7-.5,9.4-.7,14.1-.7,4.7,0,9.4.2,14.1.7-4.7.5-9.4.7-14.1.7-4.7,0-9.4-.2-14.1-.7Z"/>
        <path class="st1" d="M806.2,124.4c7.5-.6,15-.6,22.6-.7,7.5,0,15,.1,22.6.7-7.5.6-15,.6-22.6.7-7.5,0-15-.1-22.6-.7Z"/>
        <path class="st1" d="M806.2,131.3c7.5-.6,15-.6,22.6-.7,7.5,0,15,.1,22.6.7-7.5.6-15,.6-22.6.7-7.5,0-15-.1-22.6-.7Z"/>
      </g>
      <g>
        <rect class="st11" x="877.8" y="110.8" width="88" height="104"/>
        <path class="st6" d="M924.4,127c0,1.5-1.2,2.7-2.7,2.7s-2.7-1.2-2.7-2.7,1.2-2.7,2.7-2.7,2.7,1.2,2.7,2.7Z"/>
        <g>
          <path class="st1" d="M890.1,138.9c3.3-.5,6.5-.7,9.8-.7,3.3,0,6.5.2,9.8.7-3.3.5-6.5.7-9.8.7-3.3,0-6.5-.2-9.8-.7Z"/>
          <path class="st1" d="M890.1,146.7c4.2-.5,8.4-.7,12.6-.7,4.2,0,8.4.2,12.6.7-4.2.5-8.4.7-12.6.7-4.2,0-8.4-.2-12.6-.7Z"/>
          <path class="st1" d="M890.1,154.6c3.9-.5,7.8-.7,11.7-.7,3.9,0,7.8.2,11.7.7-3.9.5-7.8.7-11.7.7-3.9,0-7.8-.2-11.7-.7Z"/>
          <path class="st1" d="M890.1,162.4c3.9-.5,7.8-.7,11.7-.7,3.9,0,7.8.2,11.7.7-3.9.5-7.8.7-11.7.7-3.9,0-7.8-.2-11.7-.7Z"/>
          <path class="st1" d="M890.1,170.2c3.4-.5,6.8-.7,10.2-.7,3.4,0,6.8.2,10.2.7-3.4.5-6.8.7-10.2.7-3.4,0-6.8-.2-10.2-.7Z"/>
          <path class="st1" d="M890.1,178.1c4.3-.5,8.7-.7,13-.7,4.3,0,8.7.2,13,.7-4.3.5-8.7.7-13,.7-4.3,0-8.7-.2-13-.7Z"/>
          <path class="st1" d="M890.1,185.9c3.6-.5,7.2-.7,10.7-.7,3.6,0,7.2.2,10.7.7-3.6.5-7.2.7-10.7.7-3.6,0-7.2-.2-10.7-.7Z"/>
          <path class="st1" d="M890.1,193.8c4.5-.5,9-.7,13.5-.7,4.5,0,9,.2,13.5.7-4.5.5-9,.7-13.5.7-4.5,0-9-.2-13.5-.7Z"/>
          <path class="st1" d="M890.1,201.6c4.5-.5,9-.7,13.5-.7,4.5,0,9,.2,13.5.7-4.5.5-9,.7-13.5.7-4.5,0-9-.2-13.5-.7Z"/>
        </g>
        <g>
          <path class="st1" d="M928.5,138.9c4.3-.5,8.5-.7,12.8-.7,4.3,0,8.5.2,12.8.7-4.3.5-8.5.7-12.8.7-4.3,0-8.5-.2-12.8-.7Z"/>
          <path class="st1" d="M928.5,146.7c2.8-.5,5.6-.7,8.4-.7,2.8,0,5.6.2,8.4.7-2.8.5-5.6.7-8.4.7-2.8,0-5.6-.2-8.4-.7Z"/>
          <path class="st1" d="M928.5,154.6c4-.5,8-.7,12-.7,4,0,8,.2,12,.7-4,.5-8,.7-12,.7-4,0-8-.2-12-.7Z"/>
          <path class="st1" d="M928.5,162.4c3.9-.5,7.8-.7,11.7-.7,3.9,0,7.8.2,11.7.7-3.9.5-7.8.7-11.7.7-3.9,0-7.8-.2-11.7-.7Z"/>
          <path class="st1" d="M928.5,170.2c4.3-.5,8.5-.7,12.8-.7,4.3,0,8.5.2,12.8.7-4.3.5-8.5.7-12.8.7-4.3,0-8.5-.2-12.8-.7Z"/>
          <path class="st1" d="M928.5,178.1c3.4-.5,6.8-.7,10.2-.7,3.4,0,6.8.2,10.2.7-3.4.5-6.8.7-10.2.7-3.4,0-6.8-.2-10.2-.7Z"/>
          <path class="st1" d="M928.5,185.9c4-.5,8-.7,12-.7,4,0,8,.2,12,.7-4,.5-8,.7-12,.7-4,0-8-.2-12-.7Z"/>
          <path class="st1" d="M928.5,193.8c3.1-.5,6.2-.7,9.3-.7,3.1,0,6.2.2,9.3.7-3.1.5-6.2.7-9.3.7-3.1,0-6.2-.2-9.3-.7Z"/>
          <path class="st1" d="M928.5,201.6c3-.5,6-.7,8.9-.7,3,0,6,.2,8.9.7-3,.5-6,.7-8.9.7-3,0-6-.2-8.9-.7Z"/>
        </g>
      </g>
      <g>
        <rect class="st10" x="859.6" y="34" width="44.7" height="44.6"/>
        <path class="st6" d="M884.7,38.5c0,1.5-1.2,2.7-2.7,2.7s-2.7-1.2-2.7-2.7,1.2-2.7,2.7-2.7,2.7,1.2,2.7,2.7Z"/>
      </g>
    </g>
    <rect class="st6" x="977.8" y="16" width="6" height="238.8"/>
  </g>
  <g>
    <g>
      <g>
        <polygon class="st6" points="356.8 621 363.9 669.4 412 964.3 419.7 964.3 384.7 669.4 379.6 621 356.8 621"/>
        <polygon class="st2" points="379.6 621 356.8 621 363.9 669.4 384.7 669.4 379.6 621"/>
      </g>
      <g>
        <polygon class="st6" points="205.6 964.3 213.4 964.3 261.5 669.4 268.6 621 245.8 621 240.6 669.4 205.6 964.3"/>
        <polygon class="st10" points="245.8 621 240.6 669.4 261.5 669.4 268.6 621 245.8 621"/>
      </g>
      <g>
        <polygon class="st6" points="61.2 964.3 69 964.3 117.1 669.4 124.2 621 101.4 621 96.2 669.4 61.2 964.3"/>
        <polygon class="st10" points="96.2 669.4 117.1 669.4 124.2 621 101.4 621 96.2 669.4"/>
      </g>
      <polygon class="st6" points="73.5 641 426.2 641 426.2 603.9 294.2 603.9 249.8 292.7 62.6 292.7 73.5 641"/>
      <polygon class="st6" points="75 603.9 426.2 603.9 426.2 641 73.7 641 75 603.9"/>
      <polygon class="st10" points="73.5 641 92.8 641 80.9 292.7 62.6 292.7 73.5 641"/>
    </g>
    <g>
      <g>
        <g>
          <g>
            <path class="st5" d="M409.9,991.8c-7.8-1-203.1-98.3-208.1-106.4-.6-.9,7.8-18.7,19.8-42.9,27-54.8,81-147.4,81-147.4l117.6,65.9-64.8,122.3s21.7,26.2,39.4,48.5c0,0,0,0,0,0,10.9,13.7,20.2,25.9,21.9,29.5,4.5,9.5.9,31.5-6.9,30.4Z"/>
            <path class="st10" d="M409.9,991.8c-7.8-1-203.1-98.3-208.1-106.4-.6-.9,7.8-18.7,19.8-42.9,43.4,34.1,164.6,113.7,173.3,105.3,3.5-3.3,2.6-9.4,0-15.9,10.9,13.7,20.2,25.9,21.9,29.5,4.5,9.5.9,31.5-6.9,30.4Z"/>
          </g>
          <g>
            <path class="st11" d="M378.8,872.4l-136.3-71.7s104-203.2,101.2-206.7c-9.5-12.3-124.6-6.7-174.4-56-52.6-52.2-12.4-126.5-12.4-126.5h137.5s-1.3,37.2,4.7,42.1c3.9,3.2,206.1,22.7,214,75.9,13.7,92.1-134.4,342.8-134.4,342.8Z"/>
            <g>
              <path class="st10" d="M387.3,847.1c-16.4-9.9-33.2-19-50-28-16.8-9.1-33.8-17.9-50.9-26.4-9.7-4.8-19.5-9.1-29.2-13.8-.3-.1-.6.3-.3.5,8.5,4.5,16.7,9.5,25.2,14.1,8.3,4.5,16.7,9,25.1,13.4,16.9,8.9,33.9,17.7,50.9,26.5,9.6,5,19.2,9.7,29,14.3.4.2.7-.4.3-.6Z"/>
              <path class="st10" d="M397.9,571.4c-3.4-7-12.4-8-19-9.7-18.3-4.6-36.6-9.1-54.9-13.6-32.4-8-65.8-15.6-94.8-32.7-13.9-8.2-27.3-18.5-34.3-33.4-6.8-14.6-6.9-30.8-7-46.6,0-3.9.2-7.8.5-11.7,0-.3-.5-.3-.5,0-1,15.5-2.6,31.1.9,46.4,1.7,7.4,4.5,14.6,8.7,20.9,4.3,6.4,9.8,11.8,15.8,16.6,25.7,20.1,57.9,29.7,89,37.6,17.6,4.5,35.3,8.7,52.9,13.1,9.1,2.2,18.2,4.4,27.3,6.7,3.8.9,8.2,1.7,11.2,4.4,2.8,2.5,3.6,6.2,3.4,9.8-.3,3.7-1.4,7.3-2.8,10.8-1.6,4.3-3.4,8.5-5.1,12.7-3.4,8.3-6.8,16.5-10.3,24.6-7.1,16.5-14.5,32.9-22.2,49.1-15.3,32.4-31.6,64.3-48.3,96-2.1,3.9-4.1,7.9-6.1,11.9-.1.2.2.4.4.2,17.8-31.3,34.5-63.4,50.4-95.7,15.8-32.1,30.7-64.8,43.5-98.2,2.3-5.9,4.4-13.2,1.5-19.2Z"/>
            </g>
          </g>
        </g>
        <g>
          <g>
            <path class="st5" d="M801.6,999c-7.4,2.4-225.8.1-233.8-5.1-1-.6-1-47.2-1-47.2-35.8-81.2-68.3-159.7-68.3-159.7l152.6-.2,54,138.2s31,14.1,56.7,26.5c0,0,0,0,0,0,15.8,7.6,29.5,14.5,32.6,17,8.2,6.6,14.6,28,7.1,30.4Z"/>
            <path class="st10" d="M801.6,999c-7.4,2.4-225.8.1-233.8-5.1-1-.6-1.2-20.3-1-47.2,54,11.7,197.8,30.5,202,19.2,1.6-4.5-1.8-9.6-7-14.3,15.8,7.6,29.5,14.5,32.6,17,8.2,6.6,14.6,28,7.1,30.4Z"/>
          </g>
          <g>
            <path class="st11" d="M693.8,895.9l-164.8-1.2s-82.9-212.9-96.3-227.2c-6.8-7.2-52.1-15.3-106.3-27.1h-.3c-20-4.4-41.2-9.3-62.1-15-54.4-14.5-106.7-33.5-130.5-59.8-49.8-54.9,0-154.1,0-154.1h140.3s3.5,43.2-7.3,69.6c0,0,103.2,15.1,190.2,43.3,49.3,15.9,93.3,36.1,110.3,60,33.3,46.9,126.7,311.5,126.7,311.5Z"/>
            <g>
              <path class="st10" d="M675.2,871.2c-19.1-1.4-38.2-1.9-57.3-2.3-19.1-.5-38.3-.7-57.4-.4-10.8.1-21.6.7-32.3.9-.3,0-.4.5,0,.5,9.6.2,19.2.9,28.9,1.2,9.5.3,19,.5,28.5.6,19.1.3,38.3.4,57.4.6,10.8.1,21.6,0,32.3-.3.5,0,.5-.7,0-.7Z"/>
              <path class="st10" d="M205,431.9c-.2.7-.5,1.3-.8,1.9,0,.1,0,.3,0,.3-1.9,5.7-2.6,11.8-4.4,17.6-1.9,6.2-5.2,11.4-10.7,15.2-10.9,7.5-24,10.9-36.6,14.1-.4.1-.3.7.1.7,7.2.2,14.7-1.2,21.6-3.3,6.4-1.9,12.9-4.6,18.2-8.7,5.3-4.1,8.7-9.2,10.4-15.7.9-3.3,1.3-6.7,1.8-10.1.6-3.8,1.3-7.9,1.3-11.8,0-.6-.9-.7-1.1-.1Z"/>
              <path class="st10" d="M292.3,471.5c-8.7,2.1-17.1,6.1-25.2,9.6-.1,0-.3.1-.4.2.2-.5.3-1,.4-1.5,0-.6.2-1.2.3-1.8.1-.6.1-1.3.2-1.9,0-.3,0-.6,0-1,0,0,0,0,0-.1,2-.1,3.9-1,5.4-2.8,1.9-2.3,2.6-5.1,3.4-7.9,1-3.6,1.8-7.2,2.6-10.8.9-4,1.6-8.1,2.3-12.1.6-4,1.4-8,1.4-12,0-.6-1-.7-1.1-.1-.9,3.7-1.4,7.5-2.1,11.3-.7,3.8-1.5,7.5-2.4,11.3-.9,3.7-1.8,7.5-2.8,11.2-.9,3.3-1.8,8.1-5.7,9.1-7.9,2.2-4.3-15.4-4-18.8.8-8,1.3-16.1,2.7-24,0-.3-.4-.5-.5-.1-1.7,7.3-3.7,14.4-5,21.8-.6,3.6-1.1,7.3-1.5,10.9-.3,3.1-.7,6.5.7,9.4,1.2,2.3,3.1,3.5,5.2,3.8,0,.3-.2.5-.2.8-.2.6-.4,1.2-.5,1.8-.1.6-.3,1.2-.4,1.8-.2.7-.5,1.5-.3,2.2,0,.2.2.4.4.5-3.4,1.5-6.7,2.9-10.1,4.4-4,1.9-8.4,3.4-12.1,5.9-.5.2,0,.8.3.7,4.3-.9,8.5-3,12.7-4.6,4.2-1.6,8.4-3.3,12.5-5,8-3.3,16.6-6.5,24-11.1.4-.2.1-.8-.3-.7Z"/>
              <path class="st10" d="M516.6,791.7c-8.7-21.4-17.9-42.7-27.6-63.7-9.8-21-20-41.9-30.7-62.4-4.7-8.9-8.9-18-18.3-22.8-4.2-2.2-8.9-3.5-13.5-4.8-5.5-1.5-11-2.9-16.4-4.2-44.7-11.3-89.9-20.6-134.3-33-22.2-6.2-44.2-13.2-65.7-21.6-17.4-6.8-34.8-14.7-49.3-26.7-6.9-5.7-13.1-12.4-17.7-20.1-5.5-9.2-18.4-34.2.7-109.9,0-.3-.4-.6-.5-.3-15.2,53.9-12,83.2-9.2,93.9,2.4,9.1,6.6,17.7,12.5,25.1,11.2,14.3,27.1,24.2,43.3,32,19.3,9.2,39.8,16.1,60.2,22.5,44.3,13.8,89.6,23.5,134.7,34.2,11.2,2.6,22.3,5.3,33.5,8.2,10,2.5,21.6,4.5,28.7,12.6,3.5,4,5.9,9,8.3,13.7,2.7,5.1,5.3,10.3,7.9,15.5,5.4,10.6,10.6,21.2,15.8,31.9,20.3,42.2,38.8,85.4,55.3,129.2,2,5.4,4.1,10.9,6.2,16.3.2.4.8.2.7-.2-7.3-22.1-15.8-43.9-24.6-65.5Z"/>
              <path class="st10" d="M456.3,713.2c-2.7-10-7.2-20-11.9-29.3-4.4-8.6-9.3-18.8-18.9-22.5-5-1.9-10.4-3-15.6-4.3-5.5-1.4-11.1-2.8-16.6-4.1-11.1-2.6-22.2-5.1-33.4-7.4-12.4-2.6-25-5-37.6-6.4-.3,0-.3.4,0,.5,10.7,3.1,21.6,5.4,32.4,8,10.5,2.5,21.1,5,31.6,7.6,10.8,2.6,21.6,5.3,32.4,8.2,4.9,1.3,8.9,3.1,12.6,6.7,4.8,4.7,21.5,39.6,24.1,44.8.8,1.5,1.3-.2.9-1.8Z"/>
              <path class="st10" d="M513.7,544.9c-6.9-4.1-25-13.2-40-18.3-15.8-5.3-31.8-9.8-47.9-14.2-33-9-66.5-16.5-100.2-22.5-9.6-1.7-19.2-3.3-28.9-4.9-9.4-1.5-18.9-3.1-28.4-3.5-.3,0-.4.5,0,.6,8.3,2,16.9,3.3,25.4,4.8,8.4,1.4,16.7,2.9,25.1,4.5,16.7,3.2,33.3,6.7,49.9,10.4,32.8,7.4,65.6,15.5,97.7,25.6,17.1,5.4,32.4,12.2,46.8,18.6.8.4,1.4-.8.7-1.2Z"/>
            </g>
          </g>
        </g>
      </g>
      <g>
        <path class="st10" d="M261.1,160.3c3.9,2.5,9,2.7,12.9.3,3.9-2.4,6-6.9,5.7-11.4,4.3,2.3,9.6,2.6,13.4-1.2,4-3.9,3.8-9.6.7-13.9,0,0,0,0,0,0,2.4,4.2,2.4,9.7-1.2,13.2-3.2,3-7,3.1-10.6,1.8,3.6,0,7.3-1.1,9.8-3.8,2.8-3,3.6-7.5,1.9-11.2,4.2-1.9,8.1-5.4,9.1-10,.8-3.9-.6-8.2-3.9-10.5,3.8-2.6,5.8-7.5,4.8-12-1-4.3-4.5-7.6-8.7-8.6,5.4-4.4,4.3-13-2-16,1.6-1.9,1.8-4.6.8-6.9-1.2-2.6-3.8-4.2-6.5-5.2.3-2.6-.6-5.2-2.6-6.9-2.8-2.2-6.6-1.9-9.1.3-2.6-3.8-5.9-7.6-10.6-8.8-3.8-1-8.2,0-10.6,3.3-5.5-6.2-15.2-6.2-20.8,0-2.9-1.9-6.7-1.8-9.8-.2-3.1,1.6-4.7,3.5-5.3,4.5-2.8-1.5-6.2-.9-8.5,1.3-2.2,2.1-2.8,5-2.6,7.8-.4.7-.9,1.3-1.6,1.8-3.5,2.6-5.5,6.4-5.4,10.7-4.9,1.5-7.3,7.5-5,12-4.3,3-5.2,9.4-2.1,13.5-3.1,2.7-5,6.6-4.9,10.7,0,3.2,1.4,6.7,4.5,7.8-1.7,1.8-1,4.8.6,6.6.6.7,1.4,1.2,2.1,1.7.9.6,2.2,1.1,2.9,2,.7.9.5,2.2.7,3.3.1.8.4,1.5.7,2.2,2.3,5.4,8.6,8.7,14.4,7.4.8,4.1,4.8,6.5,8.7,7.4,1.3.3,2.6.4,3.9.4,1.2,0,2.3.2,3.3.9.6.4,1.1,1,1.8,1.5,2.1,1.5,4.6,1.4,7,1,2.6,11,16.4,11.4,22.4,3ZM209.6,60c2.1-2.7,5.3-3.6,8.5-2.7-.1.2-.2.3-.2.3,0,0-1.1,0-1.6,0-.9.1-1.9.3-2.7.7-1.8.8-3.4,2.1-4.5,3.7-.5.7-.8,1.5-1.1,2.4,0,.1,0,.2-.1.3.2-1.7.6-3.3,1.8-4.8ZM284.1,60.5c-2.1-2.2-5.5-3-8.4-1.7,0,0,0-.1-.1-.2,2.7-1.7,5.6-2.5,8.4-.2,2,1.7,2.4,3.9,2.2,6.1,0,0,0,0,0,0-.3-1.5-1-2.9-2.1-4ZM239.2,157.2s0,0,.1,0c3.6,6.6,11.6,8.7,17.8,5.6-6.6,3.9-14.7,3.5-17.9-5.6Z"/>
        <g>
          <g>
            <path class="st5" d="M251.4,278.1c20.6,58.5,57.3,127.3,70.8,137.7,17.1,13.1,122.4,28.7,127.6,28.7,12.8-.1,21-87.6,7.3-88-20.8-.7-88.8-2.5-93.8-6.6-5.2-4.3-41-40.3-78.4-81.3-25.8-28.4-46.4-26.8-33.6,9.5Z"/>
            <g>
              <path class="st5" d="M433.5,441.4c1.5.6,22.8,8.4,35.6,10.6,9.6,1.6,37.3,5.7,40.2-4.7,2-7.1-14.1-11.3-25.3-14.6-5.9-1.7-13.6-6.9-12.3-10.7,2.2-6.7,17.5-1.9,27.8,2.6,19.8,8.7,46.7,25.3,57,14.6,3.9-4-1.8-9.9-9.8-15.5,12.7,6.1,25.9,10.7,30.4,6.4,2.6-2.5,2.4-5.4.4-8.6,3.8.8,7,.2,9-2.4,3.4-4.4.9-10.2-4-15.8,1.3-.3,2.5-1.1,3.2-2.7,6.8-13.3-38-44.3-52.4-46-42.5-5.2-86,1.5-86,1.5-14.8,14.8-13.8,85.2-13.7,85.2Z"/>
              <g>
                <path class="st10" d="M490.2,396.6c9.9.4,19.9,3,28.8,7.5,11.3,5.7,19.2,13.1,28.9,20.2.3.2,0,.6-.3.4-4.6-3.4-23.7-16-28.5-18.8-8.9-5.1-18.6-8.4-28.9-9.1-.1,0,0-.2,0-.2Z"/>
                <path class="st10" d="M496,378.2c11.2,1.8,22.7,3.5,33.4,7.5,11.7,4.4,21.4,12.6,30.9,20.5,5.7,4.7,11.3,9.6,16.8,14.6.2.2,0,.6-.3.4-9.7-8.1-19.6-16-29.7-23.6-9.5-7.1-19.9-12.2-31.4-15.2-6.5-1.7-13.1-2.8-19.7-4-.1,0-.1-.2,0-.2Z"/>
                <path class="st10" d="M505.9,361.5c10.8,1,20.3,1.8,30.3,6.4,13.2,6.1,26.6,17.4,31.3,21.4,5.2,4.4,10.2,9,15.2,13.7.2.2-.1.5-.3.4-11.3-10.2-23.3-19.7-35.9-28.3-6-4.1-12.4-7.6-19.4-9.7-6.9-2.1-14.1-2.9-21.3-3.8,0,0,0,0,0,0Z"/>
              </g>
            </g>
          </g>
          <g>
            <path class="st3" d="M446.2,347.5l-20.3,102.9s-87.9-14.7-105.3-29.8c-17.4-15-55.9-98.2-69-139.2-13.1-40.9,8.2-42.3,30.7-18,22.5,24.2,78.3,82.8,81.1,83.9s82.8.2,82.8.2Z"/>
            <path class="st6" d="M285.5,266.9c0,0-.2-.2-.2-.3-.8.5-1.6,1-2.4,1.5-7.8,5-15.6,10.4-22.7,16.4-2.3-2.5-5.6-4.1-8.9-4.3,0,.2.1.4.2.6,3.1.2,6.1,1.6,8.4,4-.5.5-1.1.9-1.6,1.4-1.3,1.1-2.5,2.3-3.7,3.6,0,.2.1.4.2.7.6-.7,1.2-1.3,1.8-1.9,1.1-1.2,2.4-2.2,3.6-3.3.6.8,1.2,1.7,1.7,2.6,2.1,4.4,1.1,9.4.2,14-.3,1.7-.7,3.4-1.1,5.1.1.3.2.6.3.9.4-1.3.7-2.7,1-4,1-4.7,2.4-9.9.8-14.7-.5-1.6-1.4-3-2.4-4.2,5.8-5.1,12.3-9.6,18.7-13.9,2.1-1.4,4.2-2.8,6.4-4.2ZM318.9,302.3c-2.5,1.2-5.1,2.1-7.7,2.9-4.9,1.4-9.8,1.9-14.8,2.1-4.3.2-8.8.6-12.7,2.6-6.2,3.2-10.5,9.2-16.6,12.6,0,.3.2.5.3.8,4.5-2.4,8.2-6.7,12.1-9.7,3.8-3,7.8-4.6,12.7-5.1,5.2-.5,10.3-.4,15.5-1.5,3.8-.8,7.8-2.2,11.7-4.1-.2-.2-.4-.4-.6-.6ZM323.9,407.8c-1.6-5.8-4.4-11.2-7-16.6-.9-1.9-1.8-3.8-2.8-5.6,1.3,0,2.7,0,4,0,.2,0,.2-.4,0-.4-1.4.2-2.8.2-4.2.1-.4-.8-.9-1.7-1.3-2.5,0-.2-.5,0-.4.2.3.8.7,1.6,1.1,2.3-9.2-.7-17.2-6.6-23.5-13.2.4.8.8,1.5,1.1,2.2,5.5,5.4,12,9.7,19.7,11,1,.2,1.9.2,2.9.3,4.3,9.2,9.8,18.3,10.7,28.6.3,3,.2,6.1-.3,9,.2.1.4.3.7.4,0-.8.2-1.6.3-2.4.4-4.5,0-9-1.1-13.3ZM362.8,346.9c-2.5.5-5.1.6-7.7.6-4.6,0-9-.1-13.5,1-4,1-7.7,2.8-11.1,5.1-5.4,3.5-11.7,8.4-18.5,5.8-6.2-2.4-9.6-9.4-10.6-15.6-.5-3.4-.3-7,1.1-10.1,1.4-3.1,3.9-5.4,6.6-7.3,3.1-2.1,6.5-3.6,9.9-5,3.9-1.6,8-3,12-4.2.6-.2,1.1-.3,1.7-.5.2.2.3.3.5.5-1.1.3-2.2.6-3.3,1-4.3,1.3-8.5,2.9-12.6,4.8-3.5,1.6-7,3.2-9.9,5.7-5.9,5-6.5,12.7-3.9,19.6,2.3,6.2,7.6,12,14.7,10.6,6.6-1.3,11.5-6.7,17.5-9.4,3.3-1.5,6.8-2.4,10.4-2.7,3.9-.4,7.9,0,11.8-.2,1.3,0,2.6-.2,3.9-.4.3.3.7.6.9.7ZM429,434.7c-.4-2.7-1.5-5.4-3-7.8-2.5-4.1-6-7.4-8.9-11.2-3.3-4.3-5.1-8.9-5.3-14.3-.4-8.9,2.4-18.3-1.4-26.8-3.5-7.7-12.2-10.5-20-7.9,0-2-.9-3.6-2.2-4.9-1.3-1.3-3.1-2.1-4.9-2.6-4.1-.9-8.5-.2-12.3,1.6-4,2-6.5,5.3-9.1,8.9-1.5,2.1-3,4.1-5.3,5.5-1.7,1-3.6,1.7-5.5,2.4-3.2,1.2-6.7,2.8-7.7,6.4-1,3.9,1.2,7.8,4.3,10,7.3,5,17.5,3.5,25-.7-.5,1.7-1.1,3.4-1.8,5.1-1.9,4.3-4.9,7.5-8.2,10.7-3,2.9-6.1,6-7.7,9.9-1.5,3.9-1.6,8.2-.7,12.3.3,1.2.7,2.5,1.1,3.6.3,0,.6.2,1,.3-1.4-3.4-2-7-1.7-10.6.4-4.5,2.5-8.4,5.6-11.7,2.8-3,6-5.5,8.5-8.8,2.3-3,3.8-6.5,4.9-10.2.1-.5.3-1,.4-1.4l.4-.2c8.2-5.3,15-14.7,15.6-24.6,6-2.2,13-1.6,17.3,3.6,5.7,6.7,4,16.5,3.6,24.5-.3,4.5-.2,9.3,1.5,13.5,1.5,3.8,4.1,7,6.7,10.1,3,3.5,6.2,7,8,11.3,1.9,4.5,1.5,9.1-1,13.2-1.3,2.1-2.9,4-4.8,5.5.3,0,.5,0,.8.1,2-1.7,3.8-3.8,5.1-6.2,0,0,0,0,0,0,.8-1.4,1.4-3,1.7-4.6.2-1.4.3-2.8,0-4.2ZM377.8,389c-1.1.9-2.2,1.8-3.4,2.6,2-7.2,3.5-14.8,9.3-20,1.7-1.5,3.7-2.7,5.9-3.6-.8,8.1-5.7,15.8-11.8,21.1ZM389.7,366.5c0,.1,0,.3,0,.4-3.9,1.4-7.3,4-9.7,7.3-2.5,3.4-3.9,7.4-5.1,11.4-.6,2.2-1.2,4.4-1.8,6.7-6.1,3.6-13.5,5.2-20.4,3.2-4.2-1.2-8.4-4.2-8.8-9-.3-4.4,3.1-6.6,6.7-7.9,3.1-1.2,6.2-2.1,8.7-4.4,2.7-2.6,4.4-6.1,6.9-8.9,3.1-3.4,7.6-5.4,12.2-5.7,4.6-.3,11.2,1.4,11.6,6.7-.1,0-.3,0-.3.2ZM249.8,251c-.2.3-.4.6-.6,1,.6,3.1.4,6.5-.5,9.7-.2.9-.6,1.8-1,2.6,0,.4,0,.8.1,1.2.1-.1.2-.3.3-.5,2.1-4.1,2.8-9.3,1.7-13.9Z"/>
            <path class="st10" d="M412.7,407.1c2.5-12.1,5.1-24.3,7.1-36.5,1.2-7,2.4-13.9,3.5-20.9,0-.3-.4-.4-.5-.1-3,12.1-6,24.2-8.4,36.4-2.4,12.2-4.9,24.3-7.2,36.5-1.3,6.9-2.4,13.9-3.2,20.9,0,.1.2.2.2,0,3.4-12,5.9-24.2,8.5-36.4Z"/>
            <path class="st9" d="M381.4,441.5c-1.3-.3-2.6-.6-3.9-.9-7.4-1.7-14.9-3.6-22-5.7-.9-.2-1.8-.5-2.7-.8-1.4-.4-2.9-.8-4.3-1.3-.7-.2-1.4-.4-2.1-.6-.2,0-.5-.2-.7-.2-.7-.2-1.4-.5-2.2-.7-2.8-.9-5.5-1.9-8.1-2.9-.6-.2-1.2-.5-1.8-.7-4.6-1.9-8.5-3.8-11.3-5.7-.3-.2-.7-.5-1-.7-.3-.2-.6-.5-.9-.7-17.4-15-55.9-98.2-69-139.2-.1-.5-.3-1-.4-1.4,0-.1,0-.2,0-.3-.9-3.1-1.9-7-2.8-11.2h0c-3.5-20.8,6-25.3,19.2-17.5,37.9,61.8,96.7,164.4,113.9,190.5Z"/>
          </g>
        </g>
        <g>
          <g>
            <path class="st3" d="M302.5,449.3l-191-6.8s53-146.9,94.9-186.5c19.1-18,50.1-17.5,67.4,0,3.4,3.4,34.1,57.8,36.7,78.2,2.3,18.1-13.4,37-13.4,37l5.4,78Z"/>
            <path class="st3" d="M307.1,354.5c-.1.3-.3.7-.5,1-4,9.2-9.5,15.8-9.5,15.8l.5,7.5v.8c0,0,4.9,69.7,4.9,69.7l-35.9-1.3h-1.2s-27-1-27-1h-.6s-27.2-1-27.2-1h-.8s-60.1-2.2-60.1-2.2h-1.2s0,0,0,0l-37.2-1.3s4.8-13.4,12.7-33.2c0-.3.2-.6.3-.8,4.3-10.7,9.4-23.2,15.2-36.4.1-.2.2-.5.3-.8,1.6-3.7,3.2-7.4,4.9-11.1,0-.2.2-.5.3-.7,4.8-10.7,10-21.8,15.3-32.5,0-.2.2-.4.3-.6,3-6.1,6.1-12.1,9.3-17.9.1-.3.3-.6.5-.8,10-18.4,20.4-34.8,30.3-46,.1-.2.3-.4.5-.5,1.7-1.9,3.3-3.6,5-5.2,2.5-2.4,5.2-4.4,8.1-6.1.2-.1.4-.2.5-.3,8.8-5.2,18.9-7.4,28.7-6.8.4,0,.9,0,1.3,0,10.8.9,21.2,5.4,28.9,13.1,1,.9,4,5.8,7.9,12.8,0,0,.1.2.2.3,5.7,10.1,13.3,24.4,19.2,37.7.1.3.2.6.4.8,3,6.9,5.6,13.4,7.3,18.9,0,.3.2.6.2.9.7,2.5,1.3,4.8,1.5,6.8.9,7-.9,14.1-3.4,20.2Z"/>
            <path class="st6" d="M301.2,306.9c-1.6.2-3.2.3-4.8.3-4.3.2-8.8.6-12.7,2.6-6.3,3.2-10.6,9.4-16.8,12.7-3.5,1.9-7.6,2.4-11.3.8-.9-.4-1.7-.9-2.5-1.4,1.6-1.2,2.9-2.8,4-4.5,2.7-4.1,3.9-8.9,4.9-13.6,1-4.7,2.4-9.9.8-14.7-.5-1.6-1.4-3-2.4-4.2,5.8-5.1,12.3-9.6,18.7-13.9.9-.6,1.9-1.3,2.8-1.9,0-.1-.1-.2-.2-.3-7.5,4.8-14.9,10-21.6,15.8-4.2-4.6-11.5-5.9-16.9-2.4-4.6,2.3-8.1,6.4-8.7,11.8-.3,2.7.1,5.5.5,8.2.4,2.6.5,5.2.4,7.9-.2,4.1-.6,8.7,2.6,11.9,2.5,2.5,6.4,3.4,9.8,2.6,1.7-.4,3.2-1.1,4.6-2.1,2.5,1.9,5.5,3,8.8,2.7,7.6-.6,12.8-7.3,18.4-11.7,3.8-3,7.8-4.6,12.7-5.1,3.1-.3,6.2-.4,9.3-.7-.1-.3-.2-.6-.4-.8ZM250.6,322.9c-3.4,1.8-7.8,1.8-11-.5-3.7-2.6-3.7-7.2-3.5-11.3,0-1.9.2-3.8,0-5.8-.2-2.3-.7-4.5-1-6.8-.5-4.6.3-8.8,3.4-12.4,1.1-1.3,2.4-2.4,3.9-3.3-.2.2-.5.4-.7.6-.1.1,0,.4.2.3,5.6-4.3,13.4-3.8,17.9,1.2-.5.5-1.1.9-1.6,1.4-6.9,6.2-13.1,14.6-12.2,24.4.4,4.3,2.6,8.6,6,11.4-.4.3-.8.6-1.3.9ZM247.5,314.4c-3.3-9.5,2.4-19.2,9-25.7,1.1-1.2,2.4-2.2,3.6-3.3.6.8,1.2,1.7,1.7,2.6,2.1,4.4,1.1,9.4.2,14-.9,4.2-1.8,8.5-3.7,12.4-1.3,2.8-3.2,5.4-5.7,7.2-2.4-1.8-4.2-4.4-5.1-7.2ZM297.7,378.8c-3.6-2.7-6.9-5.9-9.8-9.2-3.6-4.2-6.5-8.9-10.4-12.7-3.4-3.3-7.5-5.5-12.2-6.1-9.1-1.2-18.1,3.5-21.6,12.1-1.6,3.9-2,8.4-1.1,12.5,1.1,4.8,4.1,8.5,7.5,11.8,3.9,3.7,8.2,7,11.1,11.6,0,0,0,0,0,0-1.4,1.3-2.4,2.9-3.3,4.6-1.5,3-2.7,6.1-4.8,8.8-3.9,4.9-9.2,8.4-13,13.3-3.7,4.8-5.1,10.6-3.8,16.5.3,1.7.9,3.3,1.6,4.9h.6c-2.6-5.6-2.8-12.4.2-17.9,2.7-4.9,7.2-8.4,11.2-12.2,1.9-1.8,3.7-3.7,5.1-5.9,1.5-2.4,2.5-5,3.8-7.4.8-1.5,1.7-2.8,2.9-3.9,2.8,4.7,4.2,10.2,4,15.7-.4,10.9-6.8,21.8-.6,32.2,0,.2.2.3.4.5h1.2c.5-4.8-.6-10,.7-14.8,1.9-6.8,7.4-11.7,10.1-18.1,2.2-5.1,3-11.9-1.6-15.9-3.4-3-8.8-3.7-12.8-1.6-.5.3-1,.6-1.4,1-1.3-2.1-2.9-4.1-4.8-5.9-3.6-3.5-7.8-6.5-10.7-10.7-2.8-3.9-3.9-8.7-3.4-13.5,1.2-9.9,9.3-17.1,19.3-17.2,5,0,9.8,1.7,13.6,5,4,3.5,6.9,8.2,10.2,12.3,3.4,4.2,7.3,8.1,11.7,11.1v-.8ZM264.8,397.7c2.2-.8,4.7-.8,6.8,0,6.1,1.9,7.9,8.1,6.4,13.9-1.6,6-5.9,10.7-8.9,16-1.3,2.4-2.4,5-2.8,7.8-.4,3.2,0,6.5,0,9.7,0,1,0,2-.2,2.9-2.2-3.5-3.3-7.4-3.2-11.6.2-5.8,2.2-11.4,3-17.1,1.1-7.1-.3-14-3.9-19.9.8-.7,1.6-1.2,2.6-1.6ZM174.5,367.7c-4.2-.8-8.6-.4-12.8-1.1s-1.7-.3-2.6-.6c1-4.5,1.7-9,4.3-13.1,2.9-4.5,6.3-8.5,6.5-14.1.1-4.8-2.4-8.8-6.5-11.2-.8-.4-1.6-.8-2.4-1.2,0,.2-.2.4-.3.6h.4c4.5,2,8,5.7,8.2,10.8.2,5.2-2.6,9.2-5.4,13.2-2.8,4-4.1,8-5,12.7-.1.6-.2,1.3-.4,2-3.1-.9-6.1-2.2-8.9-3.8-1.4-.8-2.8-1.7-4.2-2.5,0,.2-.2.5-.3.7.2.1.5.3.7.4,3.1,1.8,6.1,3.7,9.5,4.9,1,.4,2,.7,3,.9-.8,4.2-2,9-6,10.5-4.7,1.7-9.5-1.8-12.1-5.4v-.2c-.3.2-.4.5-.5.8,2.3,3.1,5.5,5.7,9.4,6,5.5.4,8-4.1,9.2-8.7.2-.9.4-1.8.6-2.7,2.3.5,4.6.9,6.9,1,4.1.2,8.5,0,12.4,1.8,3,1.4,5.6,3.9,7,6.9,3.4,7,.2,14.9-6.2,18.8-5.5,3.4-12,4.4-17.5,7.8-5.5,3.5-9.4,9.3-15.5,11.9-7.7,3.3-15.6-.8-21.3-6-.1,0-.2-.2-.3-.3,0,.3-.2.6-.3.8,4.3,4,9.4,7.2,15.5,7.5,7.5.3,12.6-5.1,17.8-9.7,2.9-2.6,6-4.6,9.7-6.1,3.2-1.3,6.5-2.4,9.7-3.9,6.3-3,11-8.6,10.5-15.9-.5-7-6-12.4-12.8-13.7ZM231.1,363.3c3.1-5,5.1-10.2,4.5-16.1-.6-6.3-3.9-12.3-9.1-16-4.1-2.9-9-4.3-13.9-4.1,0-.1,0-.2-.2-.2-.2,0-.4.2-.6.2-1.2,0-2.3.2-3.5.5-.3,0-.2.6.1.5.5-.1,1.1-.2,1.6-.3-4.2,1.9-8.3,4.5-10.7,8.6-3.2,5.6-1.3,11.5,1,17.1,2.9,6.9,4.6,14,4.2,21.5-.3,6.3-2.6,13.5,1.7,19,3.3,4.2,9.8,4.2,14.1,1.6,6-3.7,2.6-10.6,3-16.2.4-6.2,4.7-11.2,7.8-16.2ZM223.3,390.2c-1,6.3-10.7,8.5-15.3,4.7-5.1-4.3-3.7-11.7-3.1-17.4.7-6.3,0-12.7-1.9-18.7-2-6.3-6.6-12.9-4.4-19.7,1.8-5.5,7-9.4,12.4-11.4,10.7-1,21,5.8,23.5,16.6,1.3,5.7.2,11.3-2.6,16.4-2.6,4.5-6,8.6-8,13.5-.8,2-1.3,4.2-1.3,6.5,0,3.2,1.2,6.4.7,9.7ZM214.9,440c-1.2,2.1-2.6,4.2-4.1,6.1h-.8c2.4-2.9,4.4-6.1,5.9-9.5,2.9-6.6,3.6-14.9.3-21.5-1.7-3.4-4.5-5.8-8.3-6.2-3.4-.4-6.8.7-9.8,2.4-6,3.4-10.6,8.8-16.4,12.6-6.1,4-12.8,6.8-19.2,10.4-4.6,2.6-9.1,5.7-12.6,9.7h-1.2c4.5-5.6,10.8-9.4,17-12.6,7.4-3.9,14.9-7.4,21.4-12.8,5.3-4.4,10.8-9.8,18.1-10.4,3-.3,6,.4,8.4,2.3,2.6,2.1,4.1,5.5,4.8,8.7,1.7,7.1,0,14.6-3.5,21ZM307.5,328.8c-5.9,5-6.5,12.7-3.9,19.6.8,2.2,2,4.4,3.6,6.2-.1.3-.3.7-.5,1-2.9-3.2-4.6-7.7-5.2-11.7-.5-3.4-.3-7,1.1-10.1,1.3-2.9,3.7-5.3,6.3-7,0,.3.2.6.2.9-.6.4-1.1.8-1.6,1.2ZM245,243c-.4,0-.8,0-1.3,0,5.7,4.1,7,11.9,4.9,18.7-.6,2.2-1.6,4.5-3.6,5.8-2.1,1.3-4.7,1.2-7,.7-2.3-.5-4.6-1.4-7-1.7-2.2-.3-4.5-.2-6.8.1-1.5.2-3,.4-4.5.5.8-2.7,1.1-5.4.6-8.2-.6-3.7-2.6-6.8-5.4-9.2-.2,0-.4.2-.5.3,1.6,1.3,2.9,2.9,3.9,4.7,2.1,4,1.8,8.3.6,12.4-3,.2-6,.2-9-.6-3.3-.8-6.5-2.6-8.6-5.3-.2.2-.3.3-.5.5,1.1,1.4,2.5,2.6,4.1,3.5,4.1,2.5,9,2.9,13.7,2.6-.9,2.9-2.2,5.7-3.4,8.3-2.9,6.2-4.5,12.6-6.5,19.1-2,6.5-5,13-11.1,16.6-5.9,3.5-13.5,3.9-19.8,1.1-2.7-1.2-5.2-3.1-7.2-5.3-.2.3-.3.5-.5.8.7.8,1.4,1.4,2.2,2.1,5.4,4.4,12.6,6.1,19.4,4.5,7-1.6,12.1-6.4,15.1-12.7,3.3-6.9,4.3-14.6,7.1-21.6,1.7-4.2,4.1-8.5,5.5-13h.2c2.9-.3,5.7-.9,8.6-.9,3,0,5.8,1,8.7,1.7,4.3,1,8.8.5,11.1-3.8,3.5-6.8,3-16.8-3.1-22Z"/>
          </g>
          <path class="st10" d="M285.4,371.1c-3.8-.5-7.7-.7-11.6-.3-1.8.2-3.7.3-5.4.7-2,.4-4,1-6,1.4-.3,0-.2.6.2.5,2-.4,4-.6,6-.7,1.8-.1,3.7-.4,5.5-.5,3.8-.3,7.5-.5,11.3-.7.1,0,.2-.2,0-.3Z"/>
          <path class="st10" d="M287,363c-8.7.4-17,1.6-25.3,4-8.5,2.5-17.1,5.8-26,6.9-.3,0-.3.6,0,.5,4.3-.5,8.5-.9,12.7-1.6,4.2-.7,8.4-1.7,12.6-2.6,8.7-1.9,17.2-5.2,26-6.6.4,0,.4-.7,0-.7Z"/>
        </g>
        <g>
          <g>
            <path class="st5" d="M232.2,247.3c0,3.4,10.3,28.5,25.4,31.5,4.9,1,11.4-25.6,11.4-25.6l.9-1.9,13-25.9-27.2-28.7-4-3.9s-3.1,7.3-6.8,16.5c-.2.4-.4.8-.5,1.3-.2.5-.4,1-.6,1.5-.6,1.4-1.2,2.8-1.7,4.2-.4,1.1-.8,2.1-1.3,3.2-.4,1.1-.8,2.2-1.3,3.4-4.1,11.2-7.3,23-7.3,24.5Z"/>
            <path class="st10" d="M245,209.3c2.4,23.8,17.7,37,25,42l13-25.9-27.2-28.7-4-3.9s-3.1,7.3-6.8,16.5Z"/>
          </g>
          <g>
            <path class="st5" d="M333.8,195.4c-10.3,49.8-41.4,49.3-52.2,47.1-9.8-2-42.8-10.2-37.7-60.8,5.1-50.6,31.6-61.6,54.2-58.1,22.6,3.4,46,22,35.7,71.8Z"/>
            <path class="st10" d="M314.2,234c14.6-12.2,19.6-34.6,21.5-52.8,0,0,.6-8.3.6-8.3,0,0-.4,8.3-.4,8.3-1.5,18.1-6.7,41-21.7,52.7h0Z"/>
            <g>
              <path class="st10" d="M329.5,180.8c-1.1-.4-2.1-1-3.2-1.5-1.2-.6-2.3-.9-3-2.1-.4-.6,0-1.7.5-2.2,1.4-1,3.1-.7,4.6,0,1.6.7,2.7,1.6,3.5,3.2.8,1.5-.9,3.1-2.4,2.6Z"/>
              <path class="st10" d="M294.5,177.4c1.2.1,2.3,0,3.5,0,1.4,0,2.4.2,3.6-.6.6-.4.8-1.5.5-2.2-.8-1.5-2.5-1.9-4.1-2-1.8,0-3.1.3-4.6,1.3-1.4,1-.5,3.2,1,3.4Z"/>
              <g>
                <g>
                  <path class="st10" d="M299.6,191.4c0-.1-.3.1-.3.2-.6,3.4-1.8,7.2-5.2,7.7-.1,0-.1.2,0,.2,3.9.2,5.5-4.8,5.5-8.2Z"/>
                  <path class="st10" d="M297.2,187.2c-5.4-1.5-8.1,9.3-3.1,10.7,4.9,1.4,7.6-9.5,3.1-10.7Z"/>
                </g>
                <path class="st10" d="M295,187.3c-1.1.4-2.3,1.2-3.5,1.1-1.4-.2-2.1-1.6-2.7-2.9,0-.1-.2,0-.2,0-.5,2.1-.3,4.4,1.9,5.3,2,.8,3.9-.7,4.9-2.7.2-.4,0-1-.4-.9Z"/>
              </g>
              <g>
                <g>
                  <path class="st10" d="M318.5,195.3c0-.1.2.2.2.4-1,3.3-1.5,7.3,1.3,9.2,0,0,0,.2,0,.2-3.6-1.5-2.8-6.7-1.4-9.7Z"/>
                  <path class="st10" d="M322.4,192.5c5.5,1,3.2,11.9-1.9,11-5-.9-2.7-11.8,1.9-11Z"/>
                </g>
                <path class="st10" d="M324.5,193.7c.7.8,1.4,2,2.4,2.3,1.2.3,2.3-.7,3.3-1.6.1-.1.2,0,.1.2-.4,2.1-1.5,4.1-3.6,4.1-1.9,0-2.9-2.1-2.9-4.3,0-.4.4-.9.7-.6Z"/>
              </g>
              <path class="st10" d="M292.4,218.9c.6,1,1,2.3,2.2,2.8,1.1.4,2.6.3,3.8.2.1,0,.2.1,0,.2-1.2,1-3.3,1.3-4.8.6-1.4-.7-1.8-2.2-1.8-3.7,0-.2.3-.2.4,0Z"/>
              <path class="st10" d="M309.4,210s-.5,5.2-1,7.6c0,.2-.7.2-1.5,0,0,0,0,0,0,0-4.4-.3-8.3-2.8-10-6.8-.1-.3.2-.4.4-.2,2.6,3,5.9,4.4,9.7,5.4.3-.6.5-8.9.9-8.9,1.3.2,3.7,1.7,5.1,2.5,1.3-10.8.9-21.7,2.4-32.5,0-.4.6-.4.7,0,1.3,11.4,0,23.9-1.1,35.1-.1,1.4-4.6-1.5-5.5-2.2Z"/>
            </g>
            <path class="st10" d="M246.8,186.3c5.5.6,22.3-12,27.2-38.3,0,0-6,23.3-8.4,26.4-2.4,3.2,9.4-7.1,13.6-28.2,0,0,10.4,10.5,19.9,15,9.6,4.5,15.7,5.4,16.6,4.8.8-.6-13.2-7.7-16.4-13,0,0,24.7,16.9,36.8,19.9,1.4.3,8.1-28.6-8.9-44.2-17-15.6-49.4-7.3-58.9-.9,0,0-9.8-.3-22.5,12.1-12.7,12.3-5.1,45.7.9,46.4Z"/>
            <g>
              <path class="st3" d="M286.2,205.7c-6.7-2.4-11.3-9.1-10.7-16.5.8-8.8,8.6-15.3,17.3-14.5,8.8.8,15.3,8.5,14.5,17.3h0c-.8,8.8-8.6,15.3-17.3,14.5-1.4-.1-2.7-.4-3.9-.8ZM296.1,177.6c-1.1-.4-2.2-.6-3.4-.7-7.6-.7-14.4,5-15,12.6-.7,7.6,5,14.3,12.6,15,7.6.7,14.4-5,15-12.6.6-6.4-3.4-12.2-9.2-14.3Z"/>
              <path class="st3" d="M322.1,213.5c-5.8-2-9-9.8-7.1-17.9.9-4.1,3-7.7,5.7-10.2,2.9-2.5,6.2-3.5,9.4-2.8,3.2.7,5.8,3,7.3,6.5,1.5,3.4,1.8,7.5.9,11.6-1.9,8.6-8.7,14.4-15.1,13-.3,0-.7-.2-1-.3ZM330.4,184.9c-.3,0-.5-.2-.8-.2-2.5-.6-5.1.3-7.5,2.3-2.4,2.2-4.2,5.4-5.1,9-1.7,7.4,1.2,14.5,6.5,15.6,5.3,1.2,10.9-3.9,12.6-11.4.8-3.7.6-7.3-.7-10.3-1.1-2.6-2.9-4.3-5-5.1Z"/>
              <path class="st3" d="M306.5,193.7l-1-1.9c2.8-1.5,8.9-2.9,11.8,2l-1.8,1.1c-2.6-4.4-8.7-1.3-9-1.2Z"/>
              <path class="st3" d="M236,182.2l-1.6-1.4c.6-.8,6.4-7.4,11.2-7.2,4.5.3,31.9,9.1,33.1,9.5l-.7,2c-7.9-2.5-29.1-9.2-32.6-9.4-3.2-.2-7.9,4.6-9.5,6.4Z"/>
            </g>
            <g>
              <g>
                <path class="st5" d="M240,200c.7.5,1.4,1,2.1,1.3.8.4,1.6.6,2.3.7,1.1.2,2.2.2,3.1,0,.8-.2,1.6-.5,2.3-.9,1.7-1,2.7-2.2,2.7-2.2l1.2-13.8s-6.1-18.4-14.2-16.6c-8.1,1.7-6.7,26.2.6,31.6Z"/>
                <path class="st10" d="M240,175.4c-.1,0-.2.1-.1.2,5,4,6.4,10.2,6.9,16.2-1.1-2.6-3-4.4-6.5-3.3-.2,0-.1.3,0,.3,2.5.2,4,1.1,5.1,3.4.7,1.7,1,3.5,1.3,5.3.1.6,1.1.6,1.1,0,0,0,0,0,0-.1,2.3-7.2-.3-19-7.9-22.1Z"/>
              </g>
              <path class="st4" d="M241.3,198.2c-.1,1.3.8,2.4,2.1,2.6,1.3.1,2.4-.8,2.6-2.1.1-1.3-.8-2.4-2.1-2.6-1.3-.1-2.4.8-2.6,2.1Z"/>
              <path class="st4" d="M237.7,193.4c0,.9.6,1.7,1.5,1.8.9,0,1.7-.6,1.8-1.5,0-.9-.6-1.7-1.5-1.8-.9,0-1.7.6-1.8,1.5Z"/>
            </g>
            <g>
              <polygon class="st3" points="271.7 160.6 260.3 148.4 257.3 151.6 269.9 162.4 271.7 160.6"/>
              <polygon class="st3" points="269 164 255.6 153.9 253.2 157.7 267.6 166.1 269 164"/>
            </g>
          </g>
        </g>
        <g>
          <g>
            <path class="st5" d="M199.2,264.1c-31.3,33.4-107.3,160.2-83.2,183.3,24.3,23.3,158-8,195.6-25.9,11.2-5.3-31.3-74.9-44.5-76.5-10.9-1.4-66.9,24.2-68.5,21-1.8-3.6,7.1-30.4,20.5-78.9,15.5-55.9-6.1-37.8-20-23Z"/>
            <g>
              <g>
                <path class="st5" d="M322.8,322.5c27.2-3.8,34.8-.6,56-15.9,13.9-10.1,26.4-5.5,18.4,10.5-13,26.2-47.1,38.4-60.1,39.2l-14.3-33.8Z"/>
                <path class="st5" d="M250.5,348.7s30.6-16.9,59.1-23.8c19.8-4.8,63.9-10.3,106.2,33.1,10,10.3,17,32.1-5.5,21.2-16-7.7-23.8-17.5-33.9-20.3,0,0,5.5,28.7-5.2,38.3-4.8,4.3-18.2,15.7-29.9,23.1,0,0-2.3-2.1-4.8-5.2,0,0-10.9,8-31.4,6.1l-54.6-72.5Z"/>
                <g>
                  <path class="st5" d="M329.3,323.3c9.4,4.9,29.3,15.7,42.5,30.1,14.6,16,38.5,50.8,26.5,61.5-8.8,7.8-19.1-4.7-19.1-4.7,0,0,6.8,16.5-2.7,21.8-8.6,4.9-16-5.3-16-5.3,0,0,2.4,10.7-6.8,13.8-11.1,3.7-14.3-19.3-28.8-25.2-3.3-1.3,4.4-91.9,4.4-91.9Z"/>
                  <g>
                    <path class="st10" d="M352.2,366c8.1,6.1,23,24.6,27.2,43.8,0,.4-.2.7-.4.4-9-20.2-21.3-37.1-27-44,0,0,0-.2.2-.1Z"/>
                    <path class="st10" d="M336.4,381.2c6.5,6,21,25.7,24.5,45.3,0,.4-.2.7-.4.3-8.6-21.4-19.1-38.3-24.3-45.5,0,0,0-.2.2-.1Z"/>
                  </g>
                </g>
              </g>
              <path class="st10" d="M376.4,358.7c8.9,2.6,14.6,6.9,22.1,12.1,3.7,2.6,7.5,5.1,11.4,7.2,3.6,1.9,8.9,4.9,12.8,1.8,2.1-1.7,2.1-4.8,1.6-7.2-.5-2.7-3.2-7.8-4.9-10.1,0-.1.1-.3.2-.1,1.5,2,4.5,6.6,5.3,9,.8,2.1,1.4,4.6.8,6.9-1.3,4.9-7.1,5.5-11.1,4.2-2.4-.8-4.8-2.1-7-3.4-2.1-1.2-4.2-2.6-6.3-3.9-4.2-2.8-8.3-5.9-12.4-8.8-4.6-3.2-7.8-4.7-12.7-7.4-.2,0,0-.3.1-.3Z"/>
              <path class="st10" d="M395,389.8c-2.3-5-14.7-26-18.7-30.9-.1-.1,0-.3.2-.2,6.9,6.5,18,23.9,20.6,29.4,2.6,5.5,5.5,12.5,5.5,18.6,0,9.2-6.1,11-8.4,11.4-2.7.5-5.4,0-7.9-1.3-2.7-1.4-5.3-4.3-7.1-6.7,0-.1,0-.3.2-.2,3.2,3.6,8.5,7.2,13.6,6.6,2.2-.3,4.4-1.3,5.7-3.1,1.6-2.1,1.7-4.9,1.5-7.4-.5-5.7-2.7-11.2-5.1-16.3Z"/>
            </g>
          </g>
          <g>
            <path class="st3" d="M250.5,348.7l42.9,89.9s-167.6,37.6-182.1,8.4c-14.5-29.1,50.6-143,80-176.2,34-38.4,38.3-25.4,30.9,8.7-7.8,35.7-23,87.3-23,87.3l51.4-18.2Z"/>
            <path class="st3" d="M293.4,438.6s-10.6,2.4-26.6,5.4c-.1,0-.3,0-.4,0-.6.1-1.3.2-2,.4-.2,0-.4,0-.7.1-7.2,1.4-15.4,2.8-24.2,4.3-.2,0-.3,0-.5,0-11.5,1.9-23.9,3.8-36.4,5.3-.4,0-.8,0-1.1.1-20.6,2.6-41.3,4.1-57.7,3.4-.2,0-.5,0-.7,0-16.4-.8-28.4-4-31.9-10.9-4.4-8.9-1.4-25.6,5.7-45.5,0-.3.2-.6.3-.9,4.4-12.3,10.4-25.8,17.2-39.3.1-.3.3-.6.5-.9.6-1.3,1.3-2.6,1.9-3.8.1-.2.2-.5.3-.7,5.3-10.3,10.9-20.6,16.7-30.3.1-.2.3-.4.4-.6,4.2-7.2,8.5-14.1,12.7-20.5.2-.3.3-.6.5-.8,8.9-13.7,17.2-25.2,23.8-32.6,3.3-3.7,6.3-7,9.1-9.8l.5-.5c5.4-5.4,9.7-9,13.1-11,.2-.1.4-.2.6-.3,9.8-5.5,12.1,2,9.9,17.3,0,.3,0,.5-.1.8-.5,3.7-1.3,7.8-2.3,12.2-3.2,14.8-7.8,32.3-11.9,47.7,0,.3-.1.6-.2.9-3,11.1-5.8,21.1-7.8,28.1,0,.4-.2.8-.3,1.1-1.7,5.9-2.7,9.4-2.7,9.4l4.8-1.7.7-.2,29.9-10.6.7-.2,15.4-5.4,2.1,4.4.2.5,21,44.1.6,1.3,4,8.4.7,1.4,14.2,29.7Z"/>
            <path class="st6" d="M278.5,407.4c0,1.3-.1,2.7-.5,4-1.6,6-5.9,10.7-8.9,16-1.3,2.4-2.4,5-2.8,7.8-.4,2.9,0,5.9,0,8.8.1,0,.3,0,.4,0,0-3.6-.4-7.3.6-10.8,1.9-6.8,7.4-11.7,10.1-18.1.8-1.9,1.5-4.1,1.7-6.2l-.7-1.4ZM262.2,399.3c.8-.7,1.6-1.2,2.6-1.6,2.2-.8,4.7-.8,6.8,0,1.1.3,2.1.8,2.9,1.4l-.6-1.3c-3.3-1.8-7.5-1.9-10.7-.1-.5.3-1,.6-1.4,1-1.3-2.1-2.9-4.1-4.8-5.9-3.6-3.5-7.8-6.5-10.7-10.7-2.8-3.9-3.9-8.7-3.4-13.5.8-6.6,4.6-12,10-14.9l-.2-.5c-3.9,2.1-7.2,5.5-9,9.9-1.6,3.9-2,8.4-1.1,12.5,1.1,4.8,4.1,8.5,7.5,11.8,3.9,3.7,8.2,7,11.1,11.6,0,0,0,0,0,0-1.4,1.3-2.4,2.9-3.3,4.6-1.5,3-2.7,6.1-4.8,8.8-3.9,4.9-9.2,8.4-13,13.3-3.7,4.8-5.1,10.6-3.8,16.5.5,2.4,1.4,4.7,2.7,6.8.2,0,.3,0,.5,0-3.6-5.9-4.2-13.7-.8-19.8,2.7-4.9,7.2-8.4,11.2-12.2,1.9-1.8,3.7-3.7,5.1-5.9,1.5-2.4,2.5-5,3.8-7.4.8-1.5,1.7-2.8,2.9-3.9,2.8,4.7,4.2,10.2,4,15.7-.4,9.9-5.7,19.8-2,29.3.2,0,.5,0,.7-.1-1-2.6-1.5-5.3-1.4-8.2.2-5.8,2.2-11.4,3-17.1,1.1-7.1-.3-14-3.9-19.9ZM174.5,367.7c-4.2-.8-8.6-.4-12.8-1.1s-1.7-.3-2.6-.6c1-4.5,1.7-9,4.3-13.1,2.9-4.5,6.3-8.5,6.5-14.1.1-4.8-2.4-8.8-6.5-11.2-2.6-1.5-5.8-2.5-9.1-2.8-.1.2-.2.4-.4.6,2.5.2,5,.9,7.1,1.8,4.5,1.9,8,5.5,8.2,10.6.2,5.2-2.6,9.2-5.4,13.2-2.8,4-4.1,8-5,12.7-.1.6-.2,1.3-.4,2-3.1-.9-6.1-2.2-8.9-3.8-3.7-2.1-7.3-4.6-11.4-5.9s-.6-.2-.9-.3c0,.2-.2.4-.3.7,3.1.9,6,2.5,8.8,4.2,3.1,1.8,6.1,3.7,9.5,4.9,1,.4,2,.7,3,.9-.8,4.2-2,9-6,10.5-4.7,1.7-9.5-1.8-12.1-5.4-2.4-3.4-4-7.3-5.3-11.3-.2.3-.3.6-.5.9,1.1,3.4,2.5,6.7,4.4,9.6,2.3,3.6,5.8,6.9,10.3,7.2,5.5.4,8-4.1,9.2-8.7.2-.9.4-1.8.6-2.7,2.3.5,4.6.9,6.9,1,4.1.2,8.5,0,12.4,1.8,3,1.4,5.6,3.9,7,6.9,3.4,7,.2,14.9-6.2,18.8-5.5,3.4-12,4.4-17.5,7.8-5.5,3.5-9.4,9.3-15.5,11.9-7.7,3.3-15.6-.8-21.3-6-2.7-2.5-5.3-5.3-7.6-8.3-.1.3-.2.6-.3.9.9,1.2,1.9,2.3,2.9,3.4,5.2,5.8,11.6,11.6,19.8,11.9,7.5.3,12.6-5.1,17.8-9.7,2.9-2.6,6-4.6,9.7-6.1,3.2-1.3,6.5-2.4,9.7-3.9,6.3-3,11-8.6,10.5-15.9-.5-7-6-12.4-12.8-13.7ZM208.2,327.6c-.3,0-.2.6.1.5.5-.1,1.1-.2,1.6-.3-4.2,1.9-8.3,4.5-10.7,8.6-3.2,5.6-1.3,11.5,1,17.1.5,1.3,1,2.6,1.5,3.9,0-.4.2-.7.3-1.1-2.2-5.5-5.3-11.3-3.4-17.2,1.6-5.1,6.3-8.8,11.2-10.9,0-.3.2-.6.2-.9-.7,0-1.3.2-2,.4ZM231.1,363.3c1.8-2.9,3.3-6,4-9.2l-.7.2c-.5,2.2-1.4,4.3-2.5,6.3-2.6,4.5-6,8.6-8,13.5-.8,2-1.3,4.2-1.3,6.5,0,3.2,1.2,6.4.7,9.7-1,6.3-10.7,8.5-15.3,4.7-5.1-4.3-3.7-11.7-3.1-17.4.4-4.2.3-8.5-.4-12.6l-.7.2c.6,3.2.8,6.5.7,9.8-.3,6.3-2.6,13.5,1.7,19,3.3,4.2,9.8,4.2,14.1,1.6,6-3.7,2.6-10.6,3-16.2.4-6.2,4.7-11.2,7.8-16.2ZM214.9,440c-3.1,5.5-7.5,10.2-12.3,14.3-.4,0-.8,0-1.1.1.7-.6,1.4-1.2,2.1-1.8,5.1-4.5,9.7-9.9,12.4-16.2,2.9-6.6,3.6-14.9.3-21.5-1.7-3.4-4.5-5.8-8.3-6.2-3.4-.4-6.8.7-9.8,2.4-6,3.4-10.6,8.8-16.4,12.6-6.1,4-12.8,6.8-19.2,10.4-6,3.4-11.9,7.7-15.5,13.7-1.8,3-3,6.6-3.3,10.1-.2,0-.5,0-.7,0,.1-4,1.5-7.9,3.6-11.3,4.4-7,11.8-11.5,19-15.3,7.4-3.9,14.9-7.4,21.4-12.8,5.3-4.4,10.8-9.8,18.1-10.4,3-.3,6,.4,8.4,2.3,2.6,2.1,4.1,5.5,4.8,8.7,1.7,7.1,0,14.6-3.5,21ZM224.2,266.6c-1.5.2-3,.4-4.5.5.8-2.7,1.1-5.4.6-8.2-.6-3.9-2.9-7.2-5.9-9.6-.2,0-.4.2-.6.3,1.8,1.4,3.3,3.1,4.4,5.2,2.1,4,1.8,8.3.6,12.4-3,.2-6,.2-9-.6-3.6-.9-7-2.9-9.1-6l-.5.5c1.2,1.8,2.9,3.2,4.7,4.3,4.1,2.5,9,2.9,13.7,2.6-.9,2.9-2.2,5.7-3.4,8.3-2.9,6.2-4.5,12.6-6.5,19.1-2,6.5-5,13-11.1,16.6-5.9,3.5-13.5,3.9-19.8,1.1-4.4-2-8-5.4-10.4-9.6-.2.3-.4.6-.5.8,1.5,2.4,3.3,4.6,5.5,6.4,5.4,4.4,12.6,6.1,19.4,4.5,7-1.6,12.1-6.4,15.1-12.7,3.3-6.9,4.3-14.6,7.1-21.6,1.7-4.2,4.1-8.5,5.5-13h.2c1.6-.1,3.1-.4,4.7-.6,0-.3,0-.5.1-.8,0,0-.2,0-.3,0Z"/>
            <g>
              <path class="st10" d="M148.2,390.8c7.7-5.4,16-10.1,24.4-14.3,8.4-4.2,17.1-7.5,26-10.4,5.1-1.7,10.2-3.1,15.3-4.5.2,0,.2.2,0,.2-9,2.8-17.7,6.4-26.3,10.2-8.5,3.8-17,7.7-25.4,11.8-4.7,2.3-9.4,4.9-14,7.3-.2.1-.4-.2-.2-.3Z"/>
              <path class="st10" d="M250.1,348.4c-.8.2-46.7,15.3-48.2,16,.2-.7,8.4-25,9.6-28.6.1-.4.2-.7.3-1.1.8-1.6,1.7-3.2,2.5-4.8,1-2.1,2-4.2,2.9-6.2,0,0,0-.1,0,0-1.1,2-2.1,4.1-3.2,6.1-.5.9-.9,1.9-1.4,2.9.8-2.5,1.6-5,2.4-7.6,1.2-4,2.3-8.1,3.4-12.2,0-.1-.2-.2-.2,0-2.4,7.1-5.1,14.1-7.5,21.2-2.4,7.1-11.9,33.2-11.8,33.2,0,0,50.5-17.8,51.5-18.2.4-.2.2-.7-.2-.6Z"/>
              <path class="st10" d="M253.2,407.1c-4.7-10-9.4-20.1-14.4-30-2.9-5.6-5.8-11.2-8.7-16.8-.1-.2-.5,0-.4.2,4.3,10.3,8.7,20.5,13.5,30.6,4.8,10,9.5,20.1,14.4,30,2.8,5.7,5.7,11.2,8.9,16.7,0,.1.3,0,.2,0-4-10.4-8.7-20.5-13.4-30.6Z"/>
              <path class="st10" d="M295.6,440c-1.7-2.8-3.8-6.8-5.6-9.5-.5-.7-1-.6-.6.2,1.3,2.5,2.3,5.3,3.6,7.9-2.4.5-4.7.9-7.1,1.4-2.7.6-5.4,1.1-8.2,1.7-5.3,1.1-10.7,2.1-16,3.1-10.8,2-21.7,3.8-32.6,5.3-21.9,3.1-43.9,5.4-65.9,6.2-6.2.2-12.4.3-18.5.2-6.3,0-13-.2-18.2-.9-.2,0-.2.3,0,.3,5.4,1.1,10.4,1.8,15.9,2.1,5.6.3,11.2.4,16.8.3,11.1-.1,22.3-.8,33.4-1.9,22-2,43.9-5,65.7-8.8,6.1-1.1,12.2-2.2,18.3-3.4,3.1-.6,6.1-1.2,9.2-1.9,3.1-.7,10.4-1.9,10.1-2.4Z"/>
            </g>
          </g>
        </g>
      </g>
    </g>
  </g>
  <g>
    <g>
      <g>
        <path class="st3" d="M885.2,497.2s62-8.7,47.5-83.3c0,0-69.3,15.5-47.5,83.3Z"/>
        <path class="st9" d="M885.2,497.2s62-8.7,47.5-83.3c0,0-69.3,15.5-47.5,83.3Z"/>
        <path class="st10" d="M888.3,481.7c1.2-3.8,2.6-7.5,4.2-11.1,0-.5.1-1,.2-1.4,0-1,.2-2.1.3-3.1.2-2.2.3-4.5.4-6.7.3-4.5.6-8.9.6-13.4,0-.2.4-.2.4,0,0,4.5.1,8.9,0,13.4,0,2.2-.2,4.5-.4,6.7,0,.5,0,1-.1,1.5,3.5-7.4,7.7-14.6,12.4-21.2,2.1-3,4.4-5.8,6.8-8.6,2.5-2.8,5.1-5.5,7.6-8.3.2-.2.4,0,.3.3-4.6,4.7-8.3,10.4-12,15.8-1.9,2.8-3.7,5.8-5.4,8.7.2,0,.4-.1.6-.2.7-.3,1.5-.6,2.2-.9,1.7-.6,3.4-1.3,5.1-1.9,3.3-1.2,6.7-2.4,10-3.7.2,0,.3.3.1.3-3.3,1.3-6.6,2.7-9.8,4.1-1.6.7-3.2,1.4-4.8,2.1-.8.3-1.6.7-2.4,1-.5.2-1.1.5-1.6.6-1.3,2.2-2.5,4.5-3.6,6.8-2.9,5.8-5.4,11.7-7.6,17.8-.2.4-.3.9-.4,1.3,1.5-1,3.5-1.7,5.1-2.4,2.1-1,4.3-1.9,6.4-2.9,4.3-2,8.7-4,12.8-6.4.2-.1.4.2.2.3-4.3,2.3-8.4,4.8-12.7,7.1-2.1,1.2-4.3,2.3-6.5,3.3-1.8.9-3.8,2.1-5.8,2.3-1.9,5.7-3.6,11.5-4.1,17.5-.7,8.4-.6,17-.8,25.4,0,.1-.2.1-.2,0-.6-7.7-1-15.4-1-23.1,0-7.3,1.4-14.1,3.7-21.1Z"/>
        <path class="st10" d="M897.9,437.8c.5,4.3.9,8.8.6,13.2,0,.1-.2.1-.2,0-.2-4.4-.3-8.7-.8-13.1,0-.2.3-.3.4,0Z"/>
        <path class="st10" d="M915.6,441.5c2.7-1.2,5.5-2.3,8-3.9.2-.1.4.2.2.3-2.5,1.6-5.2,3.1-8.1,3.8-.2,0-.3-.2-.1-.3Z"/>
      </g>
      <path class="st10" d="M883.2,615.8c0-6.8.2-13.7.3-20.5.1-22.7.3-45.4.7-68.1.3-18,.8-36,1.3-54,0-.1,0-.2.2-.2,0-4.9,0-9.8,0-14.8,0-.1.1-.2.3-.2.1,0,.3,0,.3.2,0,4.9,0,9.9,0,14.8,0,0,.1.1.1.2.9,32.1,1.7,64.1,1.9,96.2,0,6.5,0,13,0,19.6.2,20.9.3,41.8.2,62.7,0,3.3,0,6.7,0,10,0,19.1-.2,38.3-.2,57.4,0,1-1.1,1.5-2.4,1.6-1.4,0-2.9-.5-2.9-1.7,0-21.1-.1-42.2-.1-63.3,0-13.3-.1-26.6,0-39.9Z"/>
      <g>
        <path class="st3" d="M909.1,595s29.8-22,58.1-7.1c28.3,14.9,32.8,72.3,32.8,72.3,0,0-41.6,5.9-67.8-18.9-25.2-23.9-23.1-46.2-23.1-46.2Z"/>
        <path class="st10" d="M901,596.4c5.4-2.3,11.4-2.8,17.3-2.2,1.2-.3,2.5-.3,3.7-.4,1.4-.1,2.8-.2,4.2-.3,2.9-.2,5.8-.4,8.7-.6,5.9-.4,11.8-.8,17.7-1.4.2,0,.3.3,0,.4-5.8.7-11.6,1.6-17.4,2.2-3,.3-6,.6-9,.8-.7,0-1.4.1-2.2.2.9.2,1.8.4,2.6.7,4.7,1.3,9.2,3.2,13.5,5.5,2.4.4,4.7,1.1,7,1.6,3.7.9,7.4,1.8,11,2.8,7.2,1.9,14.4,4,21.6,6.1.2,0,.1.4-.1.4-7.2-1.8-14.4-3.4-21.6-5.1-3.5-.8-7-1.6-10.5-2.5-.9-.2-1.8-.4-2.7-.6,8,4.9,15.3,11.3,21.2,18.4,5.9,7.1,10.7,14.9,14.7,23.2.1.2-.2.4-.3.2-4.8-8.4-10.9-16.4-17.8-23.3.1.4.3.8.4,1.2.6,1.8,1.1,3.5,1.7,5.3,1.1,3.5,2.2,7,3.3,10.5,0,.2-.3.3-.4,0-1.3-3.4-2.4-6.8-3.7-10.2-.6-1.7-1.2-3.3-1.8-5-.3-.9-.6-1.7-.9-2.6,0-.3-.2-.5-.3-.8-3.4-3.2-6.9-6.3-10.6-9-4.9-3.6-10.2-6.6-15.8-9.1.1.5.2,1,.3,1.5.3,1.4.6,2.7.9,4.1.6,2.8,1.1,5.6,1.7,8.5,1.1,5.8,1.8,11.6,2.9,17.3,0,.2-.3.3-.4,0-1.3-5.8-3.1-11.5-4.4-17.3-.6-2.9-1.3-5.8-1.9-8.7-.3-1.4-.6-2.7-.8-4.1-.2-.8-.3-1.5-.4-2.3-.5-.2-1.1-.5-1.6-.7-7.8-2.9-16.5-5-24.8-3.4-8,1.5-14.8,6.9-18,14.3-.3.6-1.3.2-1.1-.4,1.6-7.1,7.6-12.5,14.2-15.2Z"/>
        <path class="st10" d="M946.6,620.9c.8,3.8,1.7,7.5,2.5,11.3.8,3.6,1.8,7.3,2.1,11,0,.1-.2.1-.2,0-1.2-3.5-1.8-7.4-2.5-11.1-.7-3.7-1.5-7.4-2.2-11.2,0-.2.3-.3.4,0Z"/>
        <path class="st10" d="M975.5,630.5c3.8,1.9,7.5,4.1,11.4,5.7.3.1,0,.5-.2.3-3.8-1.9-7.8-3.6-11.4-5.9,0,0,0-.2,0-.1Z"/>
      </g>
      <g>
        <path class="st3" d="M902.4,554.5s36.5,2.3,53.4-21.7c17-24,13.2-58.2,13.2-58.2,0,0-38.3,4.6-53.5,21.9-15.2,17.2-13.1,58-13.1,58Z"/>
        <path class="st10" d="M885.3,590.4c1.3-3.9,2.8-7.7,4.3-11.6,1.4-3.7,2.9-7.3,4.5-10.9,3.3-7.3,6.9-14.5,10.9-21.4,2.6-4.4,5.3-8.7,8.2-12.9,0-.6.2-1.3.3-1.9.2-1.1.3-2.3.5-3.4.4-2.3.8-4.6,1.2-6.9.8-5,1.9-10,2.7-15,0-.2.4-.2.4,0-.7,5-1.2,10-1.9,14.9-.3,2.4-.7,4.9-1,7.3-.1.9-.3,1.8-.4,2.6,5.6-8.1,11.6-15.9,18-23.3.9-1,1.8-2,2.7-3,0-.3.2-.5.3-.8.3-.7.5-1.4.8-2.1.5-1.4,1.1-2.9,1.6-4.3,1-2.8,1.9-5.7,2.7-8.6,0-.2.4-.1.4.1-.7,3-1.5,6-2.4,8.9-.4,1.4-.9,2.8-1.4,4.2,0,.2-.2.5-.3.7,4.7-5.1,9.5-9.9,14.4-14.8.2-.2.4,0,.3.3-9.5,9.7-17.9,20.5-25.8,31.6.9-.3,1.8-.5,2.7-.7,2.8-.5,5.6-.9,8.5-1.3,5.9-.8,11.9-1.5,17.8-2.4.2,0,.3.3,0,.4-5.6,1.1-11.2,2.4-16.9,3.7-2.6.6-5.3,1.1-8,1.6-2.2.4-4.3,1.1-6.4,1.8-.6.8-1.2,1.7-1.8,2.5-2.7,3.9-5.2,7.8-7.8,11.8,1.2-.2,2.5-.5,3.7-.7,2.8-.5,5.6-1.1,8.5-1.5,5.6-.9,11.1-1.9,16.6-3.1.2,0,.3.3,0,.4-5.6,1.3-11.1,2.8-16.6,4.3-2.7.7-5.4,1.4-8.1,2-1.3.3-2.7.6-4.1.9-.6.1-1.1.3-1.6.3-5.3,8.6-10.3,17.4-14.9,26.4-2,4-4,8-5.9,12-1.9,4.1-3.6,8.3-5.4,12.5-.4.8-1.7.5-1.4-.4Z"/>
        <path class="st10" d="M922.6,506.9c.7-3.5,1.4-6.9,2.2-10.4,0-.2.4-.1.4.1-.7,3.4-1.3,6.8-2,10.2-.6,3.4-1.1,6.9-2.1,10.2,0,0-.1,0-.1,0,.2-3.4.9-6.8,1.6-10.1Z"/>
        <path class="st10" d="M943.9,505.8c1.7-.8,3.5-1.5,5.2-2.2.9-.4,1.8-.7,2.8-1.1.5-.2.9-.4,1.4-.6.5-.2,1.1-.4,1.5-.7.3-.2.5.3.2.3-.5,0-1.1.4-1.6.6-.5.2-.9.4-1.4.6-.9.4-1.8.8-2.7,1.2-1.8.8-3.5,1.6-5.4,2.1-.2,0-.3-.3-.1-.4Z"/>
      </g>
      <g>
        <path class="st3" d="M865.1,525.9s-22.1-41.1-55.6-47.5c-33.6-6.4-54.1,28.1-54.1,28.1,0,0,24.5,31.2,55.3,36.6,30.8,5.4,54.5-17.2,54.5-17.2Z"/>
        <path class="st10" d="M787,496.9c8.7-1.2,17.6-1.1,26.3.3-.5-.3-1-.6-1.5-.8-2.5-1.3-5-2.5-7.4-3.8-5.2-2.7-10.4-5.5-15.8-7.7-.3-.1,0-.5.2-.3,5.3,2.4,10.7,4.5,16,6.9,2.6,1.2,5.2,2.5,7.8,3.8,1.7.9,3.5,1.7,5.1,2.7,7.4,1.5,14.6,3.8,21.3,7.1-1.4-1.5-2.8-3-4.2-4.6-3.1-3.4-6.2-7-9.6-10.1-.2-.2,0-.4.3-.3,3.5,3.2,7.2,6.1,10.6,9.4,1.7,1.6,3.2,3.3,4.8,5,.8.9,1.5,1.7,2.3,2.6,14.6,7.9,27,19.9,35.2,34.3,4.7,8.2,7.9,17.1,9.8,26.3,0,.2-.3.4-.4.1-4.6-15.5-13.3-30.1-24.7-41.6-12.3-12.5-27.9-21.6-45-25.9-10.1-2.6-20.6-3.5-31-2.8-.4,0-.5-.6,0-.7Z"/>
        <path class="st9" d="M755.3,506.6s24.5,31.2,55.3,36.6c23.5,4.2,42.8-8.1,50.7-14.1l1.7-2.8s-15.9-13.4-45.9-21.1c-30.1-7.7-61.7,1.3-61.7,1.3Z"/>
        <path class="st10" d="M806.5,482.2c2.6,1.6,5.1,3.1,7.5,4.9,2.3,1.8,4.5,3.7,6.5,5.9.2.2,0,.4-.3.3-2.2-1.9-4.5-3.9-6.8-5.7-2.3-1.8-4.6-3.6-7.1-5.1-.2-.1,0-.4.2-.3Z"/>
        <path class="st10" d="M788,489.2c1.2.5,2.5,1,3.8,1.5,1.2.5,2.5,1,3.7,1.5.3.1.1.5-.1.4-1.2-.5-2.5-1-3.7-1.5-1.3-.5-2.5-1.1-3.7-1.6-.2,0-.1-.5.1-.4Z"/>
      </g>
      <g>
        <path class="st3" d="M869.5,577.7s-5.9,40.8-36.6,55c-30.7,14.3-68.2,0-68.2,0,0,0,14.7-88.2,104.9-55Z"/>
        <path class="st10" d="M785.8,606.2c2.8-.3,5.7-.8,8.5-1.3,1.4-.3,2.8-.5,4.1-.8.7-.1,1.4-.3,2.2-.4.8-.8,1.6-1.6,2.5-2.3,5.8-5.1,12.1-9.6,18.8-13.6,3.6-2.1,7.4-4.1,11.3-5.8-.2,0-.4,0-.6,0-3.4.1-6.7.3-10.1.4-6.7.3-13.5.5-20.2.9-.2,0-.2-.4,0-.4,6.8-.5,13.5-1.2,20.3-1.8,3.3-.3,6.6-.6,9.8-.9,1.7-.2,3.4-.3,5.1-.4.4,0,.9,0,1.3-.1,1.8-.7,3.5-1.3,5.3-1.8,8.4-2.6,17.4-3.6,26-1.4,7.7,2,15.5,7,17.5,15.2,0,.3-.4.5-.5.2-2.9-6.8-10.4-10.2-17.3-11.6-4.6-1-9.3-.9-13.9-.3-.2,2.1-1,4.2-1.6,6.2-.9,2.9-1.7,5.7-2.6,8.6-1.7,5.7-3.7,11.4-5.4,17.1,0,.2-.4.1-.4-.1,1.4-5.7,2.6-11.5,4-17.2.7-2.8,1.4-5.6,2.1-8.4.4-1.8.8-3.9,1.5-5.8-2.7.5-5.4,1.1-8,1.9-4.7,1.4-9.4,3.1-13.9,5.1-.5,2.9-1.1,5.8-1.8,8.7-.8,3.6-1.8,7.2-2.9,10.7,0,.2-.4.1-.3-.1,0-.2,0-.4.1-.7,0,0,0,0,0,0,.7-3.3,1.4-6.7,2.1-10,.6-2.7,1.1-5.4,1.7-8.1-3.8,1.7-7.6,3.6-11.2,5.7,0,.8-.3,1.7-.4,2.4-.2,1.4-.5,2.8-.7,4.2-.6,3.1-1.2,6.3-2,9.4-1.5,6-3.1,12-5.3,17.7,0,0,0,.2,0,.2,0,0-.1.1-.2.2-.1.2-.4,0-.3-.2,1.4-6,3-12,4.4-18.1.7-3,1.3-6.1,1.9-9.1.3-1.5.6-3,.9-4.6,0-.4.1-.9.2-1.4-4.1,2.4-8.2,5.1-12,8-6.6,4.9-12.8,10.6-18.3,16.7-.2.2-.7-.1-.5-.4,2.3-3.1,4.7-6.1,7.3-8.9,1.5-1.7,3.2-3.2,4.8-4.8-.2,0-.3,0-.5,0-1.4.2-2.9.5-4.3.6-2.8.4-5.7.7-8.5,1-.2,0-.3-.3,0-.4Z"/>
        <path class="st10" d="M807.4,620h0s0,0,0,0c0-.4.1-.7.2-1.1,0-.5.3-.9.4-1.3,0,0,0,0,0,0,.6-2.7,1.2-5.5,1.7-8.2,0-.2.3-.1.3,0-.1,3.6-1,7.3-2.3,10.6,0,.1-.2,0-.2,0,0,0,0,0,0,0Z"/>
        <path class="st10" d="M833.1,619.4c0-.1,0-.2.2-.2.9-3.6,1.7-7.2,2.4-10.9.4-1.9.8-3.8,1.2-5.7.2-1,.4-2.1.6-3.1.2-.9.2-1.8.7-2.7,0-.1.3-.1.3,0,.3,1.7-.5,3.8-.8,5.5-.4,2-.8,4-1.2,6-.9,4-1.9,8-3,12,0,.2-.4.2-.4,0,0-.3,0-.6,0-.9Z"/>
        <path class="st10" d="M788.6,594.4c5.6-.8,11.2-1.6,16.9-2.3.2,0,.3.3,0,.4-5.6.8-11.2,1.5-16.9,2.3-.2,0-.3-.3,0-.4Z"/>
      </g>
      <g>
        <path class="st3" d="M885.2,482.1s18.8-82.3-69.9-115.6c0,0-24.6,108.3,69.9,115.6Z"/>
        <path class="st10" d="M866.1,435.4c-.3-.2-.7-.4-1-.6-1.7-.9-3.3-1.9-5-2.8l-10.3-5.7c-6.8-3.8-13.4-7.7-20.3-11.4-.2-.1,0-.4.2-.3,6.8,3.7,13.8,7.2,20.6,10.8l10.2,5.4c1.4.7,2.8,1.5,4.2,2.2-3-5.6-6.1-11.1-9.6-16.4-4.6-7-9.7-13.8-15-20.3-.2-.3.2-.7.4-.4,7.8,7.5,14.6,16,20.5,25.1,0-.3,0-.6,0-.9-.1-2-.2-4.1-.2-6.1,0-4,.1-8,0-12.1,0-.2.4-.2.4,0,.2,4,.6,7.9.9,11.8.1,2,.2,3.9.3,5.9,0,1.1.1,2.3,0,3.5,1.8,2.9,3.6,5.8,5.2,8.8,3,5.3,5.6,10.9,7.9,16.6,0-2.1.2-4.1.3-6.1.3-4.5.8-9,1-13.5,0-.2.4-.2.4,0,0,4.5.1,9,0,13.5,0,2.3-.1,4.5-.3,6.8,0,.8,0,1.7-.2,2.5,2.8,7.4,5.1,15,6.7,22.6,1.7,8.2,2.4,16.5,3.3,24.9,0,0,0,0,0,0-.8-7.4-2.7-15-4.7-22.2-1.1-3.9-2.3-7.7-3.5-11.6-3.7-1.7-7.2-3.9-10.8-5.9-3.7-2-7.4-4-11.1-6.1-7.4-4-14.8-8.2-22.4-11.7-.2-.1,0-.4.2-.3,7.7,3.5,15.5,6.8,23.1,10.6,3.8,1.9,7.5,3.9,11.2,6,3.1,1.7,6.2,3.5,9.2,5.5-.9-2.6-1.8-5.1-2.7-7.6-2.7-6.9-5.7-13.7-9.1-20.3Z"/>
        <path class="st10" d="M873.6,416.6c0-.2.4-.2.4,0-.3,4.7-.5,9.4-1,14.1,0,.3-.4.3-.4,0,.2-4.7.7-9.4,1-14.1Z"/>
        <path class="st10" d="M831.1,432.3c5.6,2.2,11.1,4.3,16.7,6.7.2,0,0,.3,0,.3-5.6-2.1-11.1-4.4-16.7-6.5-.2,0-.1-.5.1-.4Z"/>
        <path class="st10" d="M822.6,394.3c5.4,2.5,10.7,5.3,15.8,8.4.3.2,0,.6-.2.4-5.1-3-10.4-5.9-15.7-8.5-.2-.1,0-.4.2-.3Z"/>
      </g>
    </g>
    <g>
      <rect class="st11" x="824" y="686.5" width="127.9" height="134.4" transform="translate(1775.8 1507.5) rotate(180)"/>
      <rect class="st10" x="954.1" y="734.1" width="6.5" height="230.3"/>
      <rect class="st10" x="815.9" y="734.1" width="6.5" height="230.3"/>
      <rect class="st10" x="881.5" y="734.1" width="6.5" height="230.3"/>
      <rect class="st10" x="819.1" y="812.3" width="138.2" height="18.6" transform="translate(1776.5 1643.3) rotate(180)"/>
    </g>
  </g>
  <g>
    <rect class="st11" x="82.5" y="449.7" width="874" height="31"/>
    <rect class="st6" x="82.5" y="468.6" width="874" height="12.1"/>
    <g>
      <polygon class="st6" points="113.9 964.3 101.3 964.3 137.9 480.7 169.9 480.7 113.9 964.3"/>
      <polygon class="st10" points="169.9 480.7 166.2 509.8 135.4 509.8 137.9 480.7 169.9 480.7"/>
    </g>
    <g>
      <polygon class="st6" points="925.1 964.3 937.7 964.3 901.1 480.7 869.1 480.7 925.1 964.3"/>
      <polygon class="st10" points="869.1 480.7 872.8 509.8 903.6 509.8 901.1 480.7 869.1 480.7"/>
    </g>
  </g>
  <g>
    <g>
      <rect class="st11" x="717.9" y="285.9" width="114.8" height="163.9"/>
      <rect class="st5" x="832.7" y="285.9" width="43.6" height="163.9"/>
      <polygon class="st4" points="717.9 323.8 832.7 323.8 743.1 326.6 717.9 323.8"/>
      <polygon class="st4" points="832.7 436.5 717.9 436.5 807.6 439.3 832.7 436.5"/>
      <polygon class="st4" points="832.7 345.2 717.9 345.2 807.6 348 832.7 345.2"/>
      <polygon class="st4" points="712.3 330.8 785 330.8 720.3 333.1 712.3 330.8"/>
      <polygon class="st4" points="825.4 366.6 752.7 366.6 817.3 369 825.4 366.6"/>
      <polygon class="st4" points="745.4 297.9 827.5 297.9 813.8 299.2 745.4 297.9"/>
      <polygon class="st4" points="729.1 406.5 811.1 406.5 797.4 407.9 729.1 406.5"/>
      <polygon class="st4" points="755.3 357.9 837.3 357.9 823.7 359.3 755.3 357.9"/>
      <polygon class="st4" points="779.5 321.5 832.7 321.5 842.2 325.2 779.5 321.5"/>
      <polygon class="st4" points="779.5 383 832.7 383 842.2 386.7 779.5 383"/>
      <polygon class="st4" points="779.7 310.2 832.9 310.2 842.4 313.9 779.7 310.2"/>
      <polygon class="st4" points="779.7 422.1 832.9 422.1 842.4 425.8 779.7 422.1"/>
      <polygon class="st4" points="771.5 423.9 718.3 423.9 708.8 427.6 771.5 423.9"/>
      <polygon class="st4" points="832.7 411.4 875.4 411.4 884.9 415 832.7 411.4"/>
      <polygon class="st4" points="847.6 394.7 880.7 394.7 876.3 391.7 847.6 394.7"/>
      <polygon class="st4" points="832.7 359.6 875.4 359.6 884.9 363.3 832.7 359.6"/>
      <polygon class="st4" points="847.6 420.3 880.7 420.3 876.3 417.3 847.6 420.3"/>
      <polygon class="st4" points="847.6 304.2 880.7 304.2 876.3 301.2 847.6 304.2"/>
    </g>
    <g>
      <rect class="st5" x="618.9" y="339.7" width="114.8" height="110"/>
      <rect class="st5" x="733.7" y="339.7" width="43.6" height="110"/>
      <polygon class="st7" points="618.9 394.7 733.7 394.7 644.1 397.6 618.9 394.7"/>
      <polygon class="st7" points="733.7 436.5 618.9 436.5 708.6 439.3 733.7 436.5"/>
      <polygon class="st7" points="618.9 364 691.6 364 627 366.3 618.9 364"/>
      <polygon class="st7" points="733.7 420.3 661 420.3 725.6 422.6 733.7 420.3"/>
      <polygon class="st7" points="646.4 351.7 728.5 351.7 714.8 353.1 646.4 351.7"/>
      <polygon class="st7" points="630.1 406.5 712.1 406.5 698.4 407.9 630.1 406.5"/>
      <polygon class="st7" points="680.5 374.5 733.7 374.5 743.2 378.2 680.5 374.5"/>
      <polygon class="st6" points="604.3 374.5 657.5 374.5 667 378.2 604.3 374.5"/>
      <polygon class="st6" points="672.5 423.9 619.3 423.9 609.8 427.6 672.5 423.9"/>
      <polygon class="st7" points="733.7 411.4 776.4 411.4 785.9 415 733.7 411.4"/>
      <polygon class="st7" points="748.6 394.7 781.7 394.7 777.3 391.7 748.6 394.7"/>
    </g>
  </g>
  <g>
    <polygon class="st6" points="461.3 449.7 326.2 449.7 326.2 439.3 461.3 434.9 461.3 449.7"/>
    <g>
      <path class="st11" d="M567.4,449.5h-89.1c-7.6,0,3.4-21.6,31.1-29.9,27.7-8.3,66.7,21.8,57.9,29.9Z"/>
      <g>
        <path class="st10" d="M532.4,449.5c.6-9.7,6-19.7,15.2-23.6-1,.7-2.1,1.3-3,2.1-6.7,5.2-10.5,13.4-12.2,21.5h0Z"/>
        <path class="st10" d="M543,429c8.6,3.1,23.3,10.4,24.4,20.5-.3-1.4-.8-2.6-1.5-3.8-2.1-3.5-5.4-6.1-8.7-8.5-4.5-3.2-9.3-5.8-14.2-8.3h0Z"/>
      </g>
    </g>
    <g>
      <g>
        <polygon class="st6" points="631.3 407.8 414.8 407.8 449.2 247 665.7 247 631.3 407.8"/>
        <polygon class="st11" points="639.3 407.8 422.8 407.8 457.2 247 673.8 247 639.3 407.8"/>
        <g>
          <polygon class="st10" points="522.5 350.1 517.4 350.1 525.2 314 530.2 314 522.5 350.1"/>
          <polygon class="st10" points="532.5 350.1 527.5 350.1 535.2 314 540.3 314 532.5 350.1"/>
          <polygon class="st10" points="542.6 350.1 537.5 350.1 545.2 314 550.3 314 542.6 350.1"/>
          <polygon class="st10" points="552.6 350.1 547.5 350.1 555.2 314 560.3 314 552.6 350.1"/>
          <polygon class="st10" points="562.6 350.1 557.5 350.1 565.2 314 570.3 314 562.6 350.1"/>
          <polygon class="st10" points="572.6 350.1 567.5 350.1 575.3 314 580.3 314 572.6 350.1"/>
          <polygon class="st10" points="582.6 350.1 577.6 350.1 585.3 314 590.4 314 582.6 350.1"/>
        </g>
      </g>
      <g>
        <polygon class="st6" points="578.1 449.7 471.6 449.7 471.6 441.5 578.1 438.1 578.1 449.7"/>
        <polygon class="st6" points="607 449.7 549.9 449.7 515.4 359.6 572.6 359.6 607 449.7"/>
        <polygon class="st10" points="616.4 449.7 559.3 449.7 524.8 359.6 582 359.6 616.4 449.7"/>
      </g>
    </g>
  </g>
</svg>