<?xml version="1.0" encoding="UTF-8"?>
<svg id="Layer_1" xmlns="http://www.w3.org/2000/svg" version="1.1" viewBox="0 0 24 24">
  <!-- Generator: Adobe Illustrator 29.3.1, SVG Export Plug-In . SVG Version: 2.1.0 Build 151)  -->
  <defs>
    <style>
      .st0 {
        fill: #fff;
      }

      .st1 {
        fill: #112d38;
      }

      .st2 {
        fill: #ff3d2e;
      }
    </style>
  </defs>
  <rect class="st1" width="24" height="24" rx="2.44" ry="2.44"/>
  <g>
    <path class="st0" d="M15.52,14.95c-.71.64-1.66,1-2.69,1-2.29,0-3.96-1.68-3.96-3.98s1.62-3.91,3.96-3.91c1.02,0,1.98.34,2.72.98l.49.43,2.21-2.21-.55-.5c-1.31-1.18-3.03-1.83-4.87-1.83-4.1,0-7.09,2.96-7.09,7.03s3.05,7.12,7.09,7.12c1.87,0,3.63-.66,4.91-1.86l.54-.5-2.25-2.21-.5.45h0Z"/>
    <path class="st2" d="M12.71,9.63c1.31,0,2.38,1.06,2.38,2.38s-1.06,2.38-2.38,2.38-2.38-1.06-2.38-2.38,1.06-2.38,2.38-2.38"/>
  </g>
</svg>