<?xml version="1.0" encoding="UTF-8"?>
<svg id="Layer_1" data-name="Layer 1" xmlns="http://www.w3.org/2000/svg" viewBox="0 0 100 100">
  <defs>
    <style>
      .cls-1 {
        fill: #e0d9ff;
      }

      .cls-2 {
        fill: #673ddb;
      }
    </style>
  </defs>
  <g>
    <path class="cls-2" d="M50,50v47.55c0,1.41-1.18,2.51-2.59,2.44-.01,0-.03,0-.04,0-.72-.04-1.38-.42-1.82-.99-9.14-11.81-29.63-15.32-34.45-20.8-7.51-8.55,0-15.63,0-15.63l38.9-12.57Z"/>
    <path class="cls-2" d="M52.59,0s.03,0,.04,0c.73.04,1.38.42,1.83,1,9.15,11.81,29.62,15.33,34.44,20.8,7.5,8.53,0,15.62,0,15.62l-38.9,12.57V2.46c0-1.41,1.19-2.53,2.6-2.46Z"/>
  </g>
  <g>
    <path class="cls-1" d="M50,50H2.45c-1.41,0-2.51-1.18-2.44-2.59,0-.01,0-.03,0-.04.04-.72.42-1.38.99-1.82,11.81-9.14,15.32-29.63,20.8-34.45,8.55-7.51,15.63,0,15.63,0l12.57,38.9Z"/>
    <path class="cls-1" d="M100,52.59s0,.03,0,.04c-.04.73-.42,1.38-1,1.83-11.81,9.15-15.33,29.62-20.8,34.44-8.53,7.5-15.62,0-15.62,0l-12.57-38.9h47.54c1.41,0,2.53,1.19,2.46,2.6Z"/>
  </g>
</svg>