<?xml version="1.0" encoding="UTF-8"?>
<svg id="Layer_1" data-name="Layer 1" xmlns="http://www.w3.org/2000/svg" viewBox="0 0 869.65 830.06">
  <defs>
    <style>
      .cls-1 {
        fill: #231c6a;
      }

      .cls-2 {
        fill: #afa5ff;
      }

      .cls-3 {
        fill: #fff;
      }

      .cls-4 {
        fill: #673ddb;
      }
    </style>
  </defs>
  <path class="cls-4" d="M416.12,124.82c-.45,0-.91-.07-1.36-.23-2.16-.75-3.29-3.11-2.54-5.27.49-1.41,12.28-34.78,35.88-65.55,31.81-41.48,69.75-57.63,109.69-46.71,2.2.6,3.5,2.88,2.9,5.08-.6,2.2-2.88,3.5-5.08,2.9-88.6-24.21-135.12,105.69-135.58,107.01-.6,1.7-2.2,2.77-3.9,2.77Z"/>
  <g>
    <circle class="cls-4" cx="444.3" cy="141.77" r="43.77" transform="translate(-2.1 6.75) rotate(-.87)"/>
    <path d="M444.3,187.61c-25.28,0-45.84-20.56-45.84-45.84s20.56-45.84,45.84-45.84,45.84,20.56,45.84,45.84-20.56,45.84-45.84,45.84ZM444.3,100.06c-23,0-41.71,18.71-41.71,41.71s18.71,41.71,41.71,41.71,41.71-18.71,41.71-41.71-18.71-41.71-41.71-41.71Z"/>
  </g>
  <g>
    <g>
      <path class="cls-3" d="M153.35,19.06c9.25-8.77,18.43,3.71,18.43,3.71,0,0,1.7-15.54,14.89-14.56,8.54.63,9.34,16.02,9.34,16.02,0,0,.5-6.11,1.44-12.7.82-5.72,5.92-9.83,11.69-9.44.07,0,.13,0,.2.01,5.66.37,10.14,4.95,10.34,10.61.22,6.27.2,12.01.2,12.01,6.68-15.91,24.36-15.01,22.32,5.18-1.36,13.41,7.12,70.28,7.12,70.28l8.26,24.3c-6,13.04.46,64.52.46,64.52-34.29,20.79-68.12,22.03-101.49,3.58,0,0-9.38-59.79-11.67-75.96-3.19-22.58-.78-88.78,8.47-97.54Z"/>
      <path d="M203.82,207.57c-16.24,0-32.36-4.39-48.26-13.19-.56-.31-.95-.86-1.04-1.49-.09-.6-9.41-59.99-11.67-76-2.99-21.18-1.16-89.61,9.09-99.33,2.87-2.72,6.02-3.93,9.45-3.65,3.81.34,7.06,2.58,9.22,4.55,1.85-5.96,6.64-13.04,16.23-12.32,4.11.3,6.73,3.14,8.39,6.48.06-.46.13-.93.19-1.4.96-6.74,7.09-11.62,13.88-11.21,6.95.45,12.22,5.87,12.46,12.61.06,1.67.1,3.3.13,4.81,3.85-4.56,8.93-6.73,13.73-5.52,4.95,1.26,9.81,6.69,8.65,18.18-1.28,12.63,6.55,66.01,7.08,69.58l8.2,24.12c.17.5.14,1.05-.08,1.53-5.68,12.36.57,62.88.64,63.39.1.81-.28,1.6-.98,2.03-18.48,11.21-36.97,16.81-55.3,16.81ZM158.44,191.25c31.83,17.25,64.59,16.13,97.39-3.34-.98-8.23-5.62-50.18-.46-63.51l-8.01-23.55c-.04-.12-.07-.24-.09-.36-.35-2.33-8.5-57.27-7.13-70.79.75-7.42-1.38-12.69-5.56-13.75-3.94-1.01-9.61,1.97-12.8,9.58-.38.91-1.34,1.43-2.32,1.23-.97-.2-1.66-1.05-1.66-2.03,0-.06.02-5.78-.2-11.93-.16-4.62-3.78-8.32-8.4-8.62-4.87-.29-9.05,3.05-9.71,7.66-.92,6.44-1.42,12.52-1.43,12.58-.09,1.07-.99,1.9-2.06,1.9-.01,0-.02,0-.03,0-1.09-.01-1.98-.87-2.04-1.96,0-.14-.91-13.58-7.43-14.06-11.14-.79-12.62,12.17-12.68,12.73-.09.84-.69,1.54-1.52,1.77-.82.22-1.69-.08-2.2-.77-.04-.06-4.16-5.54-9.13-5.97-2.19-.2-4.23.64-6.22,2.53-8.1,7.68-11.3,71.31-7.84,95.75,2.09,14.82,10.27,67.01,11.51,74.93Z"/>
    </g>
    <g>
      <path class="cls-3" d="M219.88,24.72s-2.21,27.66.58,42.86"/>
      <path d="M220.45,69.65c-.98,0-1.85-.7-2.03-1.69-2.81-15.29-.69-42.26-.6-43.4.09-1.14,1.05-1.96,2.23-1.9,1.14.09,1.99,1.09,1.9,2.23-.02.27-2.16,27.57.55,42.32.21,1.12-.54,2.2-1.66,2.41-.13.02-.25.03-.38.03Z"/>
    </g>
    <g>
      <path class="cls-3" d="M196.02,24.23s-2.34,19.08,2.18,40.71"/>
      <path d="M198.2,67c-.96,0-1.82-.67-2.02-1.64-4.54-21.71-2.31-40.59-2.21-41.38.14-1.13,1.16-1.94,2.3-1.8,1.13.14,1.94,1.17,1.8,2.3-.02.19-2.24,19.02,2.15,40.03.23,1.12-.48,2.21-1.6,2.45-.14.03-.29.04-.43.04Z"/>
    </g>
    <g>
      <path class="cls-3" d="M171.78,22.78s-2.64,21.09,1.5,38.69"/>
      <path d="M173.28,63.53c-.94,0-1.79-.64-2.01-1.6-4.17-17.76-1.64-38.54-1.53-39.42.14-1.13,1.16-1.92,2.31-1.8,1.13.14,1.94,1.18,1.8,2.31-.03.21-2.54,20.94,1.46,37.96.26,1.11-.43,2.23-1.54,2.49-.16.04-.32.05-.47.05Z"/>
    </g>
  </g>
  <g>
    <path class="cls-3" d="M255.3,149.62c6.11-13.94,40.12-53.54,30.11-64.91-20.23-22.99-50.14,26.78-50.14,26.78"/>
    <path d="M255.3,151.69c-.28,0-.56-.05-.83-.17-1.05-.46-1.52-1.68-1.06-2.72,1.9-4.34,6.23-10.81,11.23-18.29,10.03-14.99,25.18-37.65,19.22-44.43-3.5-3.97-7.37-5.71-11.83-5.31-16.59,1.5-34.8,31.48-34.98,31.78-.59.98-1.86,1.29-2.84.71-.98-.59-1.29-1.86-.71-2.84.79-1.31,19.48-32.08,38.15-33.77,5.79-.51,10.94,1.73,15.31,6.69,8.06,9.16-6.26,30.57-18.89,49.46-4.9,7.32-9.13,13.64-10.88,17.65-.34.78-1.1,1.24-1.9,1.24Z"/>
  </g>
  <path class="cls-4" d="M453.32,330.11s-24.75-2.13-59.58,3.04c-35.61,5.28-109.85,35.18-109.85,35.18l-4.45-205.34-138.41,30.05s13.3,250.7,90.84,294.23c77.54,43.53,237.79-33.71,237.79-33.71l-16.34-123.44Z"/>
  <path class="cls-4" d="M358.78,676.52c-1.63,43.26,279.46,107.11,349.73,38.29l6.3-278.45c2.89-36.79-18.49-67.64-50.91-77.24,0,0-81.4-19.32-108.65-23.1-25.45-3.53-99.65-6.91-99.65-6.91-34.71.42-64.19,25.55-70.11,59.76l-26.72,287.65Z"/>
  <path d="M358.78,678.58c-.06,0-.13,0-.19,0-1.14-.11-1.97-1.11-1.87-2.25l26.72-287.65c.11-1.14,1.08-1.97,2.25-1.87,1.14.11,1.97,1.11,1.87,2.25l-26.72,287.65c-.1,1.07-1,1.88-2.06,1.88Z"/>
  <path d="M283.89,370.39c-1.12,0-2.04-.9-2.07-2.02l-4.4-202.83-135.96,29.51c-1.11.24-2.22-.46-2.46-1.58-.24-1.11.47-2.22,1.58-2.46l138.41-30.05c.61-.13,1.24.01,1.72.4.48.38.77.96.79,1.58l4.45,205.34c.02,1.14-.88,2.09-2.02,2.11h-.04Z"/>
  <g>
    <g>
      <path class="cls-3" d="M608.5,348.2s-11.05-86.92-3.25-140.11l-100.36,46.96,11.95,78.46c-7.13,36.31,46.13,28.9,91.66,14.68Z"/>
      <path d="M547.1,361.98c-11.15,0-20.81-2-26.77-7.34-5.43-4.87-7.31-11.98-5.59-21.16l-11.9-78.11c-.14-.91.34-1.8,1.17-2.18l100.36-46.96c.68-.33,1.5-.24,2.11.21.61.45.92,1.21.81,1.96-7.67,52.29,3.14,138.68,3.26,139.54.13.99-.48,1.93-1.44,2.23-16.73,5.23-41.81,11.81-62.01,11.81ZM507.17,256.28l11.72,76.93c.04.24.03.47-.01.71-1.56,7.93-.18,13.7,4.22,17.64,10.98,9.84,41.24,8.07,83.15-4.82-1.45-12.21-9.74-86.3-3.55-135.16l-95.52,44.7Z"/>
    </g>
    <g>
      <path class="cls-3" d="M556.7,276.18c-26.1,23.58-71.94,18.55-94.88,5.65-94.34-53.03-5.54-214.98-5.54-214.98l124.64-8.47s42.58,89.39,43.54,87.61c.96-1.79-10.09,80.73-10.09,80.73"/>
      <path d="M507.65,294.76c-17.85,0-35.23-4.59-46.85-11.13-39.45-22.18-52.98-67-39.15-129.63,10.35-46.86,32.59-87.74,32.81-88.15.34-.62.97-1.02,1.67-1.07l124.64-8.47c.84-.06,1.64.41,2.01,1.18,15.41,32.35,39,81.06,42.71,86.63,1.47.55,1.35,1.52-.26,14.8-.92,7.58-2.21,17.68-3.51,27.77-2.62,20.17-5.31,40.31-5.31,40.31-.15,1.13-1.18,1.92-2.32,1.78-1.13-.15-1.93-1.19-1.77-2.32,3.94-29.41,9.69-73.53,10.11-79.68-2.19-2.94-7.12-12.5-22.28-43.67-9.08-18.68-18.11-37.56-20.49-42.55l-122.09,8.3c-3.43,6.49-22.56,43.87-31.89,86.14-13.56,61.49-1.06,103.57,37.16,125.05,22.36,12.57,66.94,17.7,92.49-5.38.84-.77,2.15-.7,2.92.15.77.85.7,2.15-.15,2.92-13.61,12.29-32.27,17.05-50.43,17.05Z"/>
    </g>
    <path d="M600.28,226.69s-.58-52.37-6.71-41.55c0,0-60.94,21.77-32.51-48.46,0,0-48.1,16.68-71.73-9.97,0,0-86.31.11-88.26-33.06-1.95-33.17,35.97-30.49,35.97-30.49,0,0-15.78-6.23.7-26.98,50.34-63.38,174.32,7.47,186.77,55.03,0,0,35.55,6.57,46.72,44.92,11.17,38.35,17.69,76.99-68.02,133.18l-2.92-42.62Z"/>
    <g>
      <path class="cls-3" d="M590.37,180.64s31.7-32.39,47.67-3.53c15.97,28.86-7.97,55.32-39.6,53.91"/>
      <path d="M600.87,233.15c-.84,0-1.67-.02-2.52-.06-1.14-.05-2.02-1.02-1.97-2.16.05-1.14,1.04-2.04,2.16-1.97,16.2.71,30.77-6.1,38.04-17.81,6.11-9.86,5.99-21.59-.34-33.03-3.53-6.38-8.14-9.99-13.7-10.75-14.15-1.91-30.52,14.56-30.68,14.73-.8.81-2.11.83-2.92.03-.82-.8-.83-2.11-.03-2.92.72-.75,17.93-18.14,34.19-15.93,6.93.94,12.57,5.26,16.77,12.85,7.09,12.81,7.17,26.03.24,37.21-7.67,12.36-22.54,19.82-39.22,19.82Z"/>
    </g>
    <g>
      <path class="cls-3" d="M610.97,185.55c4.56,2.55,7.65,7.53,7.9,12.75s-2.35,10.47-6.64,13.45"/>
      <path d="M612.23,213.81c-.66,0-1.3-.31-1.7-.89-.65-.94-.42-2.23.52-2.88,3.71-2.57,5.97-7.14,5.75-11.65-.22-4.51-2.9-8.84-6.84-11.04-1-.56-1.35-1.82-.8-2.81.55-1,1.81-1.35,2.81-.8,5.16,2.88,8.67,8.55,8.96,14.45.28,5.9-2.67,11.88-7.52,15.25-.36.25-.77.37-1.18.37Z"/>
    </g>
    <g>
      <path class="cls-3" d="M444.3,164.82c2.91-1.93,6.44-2.9,9.83-2.72s6.63,1.52,9.01,3.73"/>
      <path d="M463.15,167.89c-.5,0-1.01-.18-1.41-.55-2.05-1.9-4.79-3.03-7.72-3.18-2.94-.15-6.06.71-8.58,2.38-.96.63-2.24.37-2.87-.58-.63-.95-.37-2.24.58-2.87,3.29-2.18,7.23-3.28,11.08-3.06,3.89.21,7.55,1.73,10.31,4.28.84.78.89,2.08.11,2.92-.41.44-.96.66-1.52.66Z"/>
    </g>
    <path d="M458.83,181.28c-.11,5.25-3.17,9.44-6.83,9.36-3.66-.08-6.54-4.4-6.43-9.64.11-5.25,3.17-9.44,6.83-9.36,3.66.08,6.54,4.4,6.43,9.64Z"/>
    <g>
      <path class="cls-3" d="M504.66,167.96c2.91-1.93,6.44-2.9,9.83-2.72,3.39.18,6.63,1.52,9.01,3.73"/>
      <path d="M523.51,171.03c-.5,0-1.01-.18-1.41-.55-2.05-1.9-4.79-3.03-7.72-3.18-2.92-.17-6.06.71-8.57,2.38-.96.63-2.24.37-2.87-.58-.63-.95-.37-2.24.58-2.87,3.29-2.18,7.26-3.25,11.08-3.07,3.89.21,7.56,1.73,10.31,4.28.84.78.89,2.08.11,2.92-.41.44-.96.66-1.52.66Z"/>
    </g>
    <path d="M519.19,184.42c-.11,5.25-3.17,9.44-6.83,9.36-3.66-.08-6.54-4.4-6.43-9.64s3.17-9.44,6.83-9.36c3.66.08,6.54,4.4,6.43,9.64Z"/>
    <path d="M499.18,255.16c-3.16,0-6.32-.47-9.33-1.46-3.57-1.17-8.33-3.54-10.67-8.2-.51-1.02-.11-2.26.91-2.78,1.02-.52,2.26-.11,2.78.91,1.71,3.39,5.44,5.2,8.27,6.13,9.99,3.27,21.83.05,28.79-7.84.76-.86,2.07-.94,2.92-.18.86.76.94,2.06.18,2.92-5.92,6.71-14.91,10.49-23.84,10.49Z"/>
    <path d="M482.07,225.72s-.07,0-.1,0c-7.53-.36-14.03-7.03-14.19-14.57-.12-5.46,2.71-10.28,5.21-14.54,2.8-4.76,5.22-9.08,6.46-13.81,1.38-5.21.99-10.14-1.1-13.87-.56-1-.2-2.26.8-2.81,1-.56,2.26-.2,2.81.8,2.61,4.68,3.14,10.7,1.49,16.95-1.38,5.23-3.94,9.82-6.9,14.84-2.33,3.96-4.74,8.06-4.64,12.35.12,5.35,4.91,10.27,10.26,10.53,1.14.05,2.02,1.02,1.97,2.16-.05,1.11-.97,1.97-2.06,1.97Z"/>
  </g>
  <g>
    <polygon class="cls-3" points="513.8 318.21 495.02 331.19 508.62 394.58 540.88 360.8 513.8 318.21"/>
    <path d="M508.62,396.65c-.19,0-.38-.03-.56-.08-.74-.21-1.3-.81-1.46-1.55l-13.6-63.39c-.18-.82.16-1.66.85-2.13l18.78-12.98c.46-.32,1.04-.43,1.59-.33.55.11,1.03.44,1.33.92l27.08,42.59c.51.8.41,1.85-.25,2.54l-32.25,33.78c-.4.41-.94.64-1.5.64ZM497.33,332.11l12.49,58.22,28.44-29.79-25.06-39.41-15.87,10.97Z"/>
  </g>
  <g>
    <path class="cls-3" d="M540.88,360.8l24.89,48.24s57.5-60.54,56.38-59.52-16.86-33.11-16.86-33.11l-64.41,44.4Z"/>
    <path d="M565.77,411.11c-.1,0-.19,0-.29-.02-.66-.09-1.24-.5-1.54-1.1l-24.89-48.24c-.48-.92-.19-2.06.66-2.65l64.41-44.4c.5-.35,1.13-.45,1.72-.29.59.16,1.07.58,1.33,1.13,6.49,14.08,14.01,29.49,15.93,32.12.2.1.39.23.55.4.97.99.99,1.58-.12,2.96l.02.03s-.09.07-.13.11c-.5.61-1.21,1.36-2.14,2.35-1.54,1.63-3.74,3.96-6.38,6.76-5.28,5.59-12.34,13.02-19.39,20.46-14.11,14.87-28.23,29.74-28.23,29.74-.39.41-.93.64-1.5.64ZM543.55,361.47l22.72,44.03c17.56-18.49,46.91-49.42,53.15-56.07-2.04-3.05-6.05-10.65-14.98-29.94l-60.89,41.97Z"/>
  </g>
  <g>
    <g>
      <g>
        <path class="cls-1" d="M389.72,824.61l-85.01-229.84L23.74,507.83c-3.72-1.15-7.77-.43-10.87,1.94l-8.15,6.23c-4.34,3.32-5.9,9.15-3.79,14.2l86.19,206.4,291.19,93.47,11.41-5.45Z"/>
        <polygon class="cls-1" points="389.72 824.61 552.57 746.82 332.14 668.92 389.72 824.61"/>
        <path class="cls-3" d="M388.15,791.69c-.74,0-1.46-.4-1.83-1.1-.54-1.01-.15-2.26.85-2.8l15.57-8.28-18.19-8.26c-1.04-.47-1.5-1.7-1.03-2.74.47-1.04,1.69-1.51,2.74-1.03l22.01,9.99c.72.33,1.19,1.03,1.21,1.82.03.79-.4,1.52-1.09,1.89l-19.28,10.25c-.31.17-.64.24-.97.24Z"/>
        <path class="cls-3" d="M416.62,779.38c-.74,0-1.46-.4-1.83-1.1-.54-1.01-.15-2.26.85-2.8l15.57-8.28-18.19-8.26c-1.04-.47-1.5-1.7-1.03-2.74.47-1.04,1.69-1.51,2.74-1.03l22.01,9.99c.72.33,1.19,1.03,1.21,1.82.03.79-.4,1.52-1.09,1.89l-19.28,10.25c-.31.17-.64.24-.97.24Z"/>
        <path class="cls-3" d="M445.1,767.06c-.74,0-1.46-.4-1.83-1.1-.54-1.01-.15-2.26.85-2.8l15.57-8.28-18.19-8.26c-1.04-.47-1.5-1.7-1.03-2.74.47-1.04,1.69-1.51,2.74-1.03l22.01,9.99c.72.33,1.19,1.03,1.21,1.82.03.79-.4,1.52-1.09,1.89l-19.28,10.25c-.31.17-.64.24-.97.24Z"/>
        <path class="cls-3" d="M378.44,763.92c-.74,0-1.46-.4-1.83-1.1-.54-1.01-.15-2.26.85-2.8l15.57-8.28-18.19-8.26c-1.04-.47-1.5-1.7-1.03-2.74.47-1.04,1.69-1.51,2.74-1.03l22.01,9.99c.72.33,1.19,1.03,1.21,1.82.02.79-.4,1.52-1.1,1.89l-19.28,10.25c-.31.17-.64.24-.97.24Z"/>
        <path class="cls-3" d="M367.35,737.48c-.74,0-1.46-.4-1.83-1.1-.54-1.01-.15-2.26.85-2.8l15.57-8.28-18.19-8.26c-1.04-.47-1.5-1.7-1.03-2.74.47-1.04,1.7-1.5,2.74-1.03l22.01,9.99c.72.33,1.19,1.03,1.21,1.82.03.79-.4,1.52-1.09,1.89l-19.28,10.25c-.31.17-.64.24-.97.24Z"/>
        <path class="cls-3" d="M406.91,751.61c-.74,0-1.46-.4-1.83-1.1-.54-1.01-.15-2.26.85-2.8l15.57-8.28-18.19-8.26c-1.04-.47-1.5-1.7-1.03-2.74.47-1.04,1.69-1.51,2.74-1.03l22.01,9.99c.72.33,1.19,1.03,1.21,1.82.02.79-.4,1.52-1.1,1.89l-19.28,10.25c-.31.17-.64.24-.97.24Z"/>
      </g>
      <path class="cls-3" d="M385.94,826.46c-.85,0-1.65-.53-1.95-1.38l-51.39-144.53c-.38-1.08.18-2.26,1.26-2.64,1.07-.38,2.26.18,2.64,1.26l51.39,144.53c.38,1.08-.18,2.26-1.26,2.64-.23.08-.46.12-.69.12Z"/>
    </g>
    <polyline class="cls-2" points="552.57 746.82 554.42 760.57 378.31 830.06 551.81 746.92"/>
  </g>
  <path d="M545.64,258.54c-1.87,0-3.79-.09-5.76-.28-1.14-.11-1.97-1.12-1.86-2.26.11-1.14,1.12-2,2.26-1.86,41.41,3.96,59.92-39.32,60.11-39.76.44-1.06,1.66-1.55,2.7-1.11,1.05.44,1.55,1.65,1.11,2.7-.19.45-18.19,42.57-58.56,42.57Z"/>
  <circle cx="544.09" cy="255.77" r="10.33" transform="translate(-22.56 54.86) rotate(-5.65)"/>
  <path class="cls-4" d="M606.48,199.92c-.36,0-.73-.05-1.09-.15-2.2-.6-3.5-2.88-2.9-5.08.11-.39,10.77-39.86,9.99-81.78-1.02-54.9-20.15-87.83-56.87-97.88-2.2-.6-3.5-2.88-2.9-5.08.6-2.2,2.87-3.51,5.08-2.9,40.15,10.98,61.92,47.59,62.96,105.86.77,43.09-9.83,82.31-10.29,83.95-.5,1.84-2.17,3.04-3.99,3.04Z"/>
  <g>
    <circle class="cls-4" cx="614.93" cy="195.78" r="43.77"/>
    <path d="M614.93,241.63c-25.28,0-45.84-20.56-45.84-45.84s20.56-45.84,45.84-45.84,45.84,20.56,45.84,45.84-20.56,45.84-45.84,45.84ZM614.93,154.08c-23,0-41.71,18.71-41.71,41.71s18.71,41.71,41.71,41.71,41.71-18.71,41.71-41.71-18.71-41.71-41.71-41.71Z"/>
  </g>
  <g>
    <circle class="cls-3" cx="614.93" cy="195.78" r="20.25"/>
    <path d="M614.93,218.1c-12.31,0-22.32-10.01-22.32-22.32s10.01-22.32,22.32-22.32,22.32,10.01,22.32,22.32-10.01,22.32-22.32,22.32ZM614.93,177.6c-10.03,0-18.19,8.16-18.19,18.19s8.16,18.19,18.19,18.19,18.19-8.16,18.19-18.19-8.16-18.19-18.19-18.19Z"/>
  </g>
  <g>
    <g>
      <g>
        <path class="cls-3" d="M601.15,572.69l-5.69,88.27-81.51-8.95-21.98-4.08c11.25,8.83,4.92,18.82-6.21,23.23-9.62,3.82-42.13,7.43-49.6-1.78-7.49-9.19-6.38-17.37-6.38-17.37,0,0-10.87-.73-14.97-6.81-6.18-9.13-2.35-15.79-2.35-15.79,0,0-9.42,2.29-14.39-9.78-4.88-11.75,7.33-20.91,7.93-21.35-.6.16-12.91,3.58-29.02-1.42-16.5-5.13-20.49-12.75-15.98-21.44,4.49-8.69,113.15-47,151.24-41.84,38.1,5.14,88.91,39.1,88.91,39.1Z"/>
        <path d="M458.13,677.21c-10.04,0-19.62-1.65-23.57-6.52-5.75-7.05-6.78-13.6-6.89-16.84-3.58-.55-11.06-2.28-14.57-7.48-4.26-6.28-4.22-11.59-3.54-14.78-3.75-.31-9.75-2.31-13.4-11.15-3.31-7.97.2-14.76,3.7-19.04-5.49.51-13.88.43-23.49-2.55-9.93-3.08-16.07-7.3-18.25-12.54-1.5-3.61-1.15-7.59,1.05-11.83,4.94-9.55,114.96-48.13,153.36-42.94,38.13,5.15,87.69,38.03,89.78,39.43.61.41.96,1.11.91,1.85l-5.69,88.27c-.04.56-.3,1.09-.73,1.45-.43.36-.99.54-1.56.47l-81.51-8.95-15.91-2.95c2.1,3.2,2.34,6.15,2.02,8.35-.81,5.55-5.78,10.64-13.31,13.62-5.01,1.99-17,4.12-28.4,4.12ZM412.45,627.36c.65,0,1.28.3,1.67.84.49.66.55,1.54.14,2.26-.12.21-3.05,5.75,2.27,13.6,3.47,5.15,13.3,5.9,13.4,5.9.57.04,1.1.32,1.46.76.36.44.52,1.02.45,1.58-.04.29-.84,7.48,5.93,15.79,6.41,7.91,37.43,5.06,47.24,1.16,6.05-2.39,10.16-6.37,10.74-10.37.58-3.96-2.43-7.25-5.05-9.31-.75-.59-1-1.61-.61-2.48.39-.87,1.32-1.35,2.26-1.18l21.98,4.08,79.21,8.69,5.48-84.91c-7.26-4.71-52.76-33.49-87.04-38.12-37.5-5.07-145.04,33.61-149.13,40.75-1.63,3.14-1.92,5.86-.9,8.32,1.69,4.05,6.96,7.48,15.66,10.18,14.99,4.65,26.57,1.75,27.85,1.4.94-.27,1.97.19,2.41,1.09.43.89.18,1.97-.62,2.56-1.18.88-11.41,8.88-7.26,18.91,4.2,10.19,11.69,8.63,12.01,8.56.15-.03.3-.05.45-.05Z"/>
      </g>
      <g>
        <path class="cls-3" d="M429.78,652.02s4.12-8.42,16.39-16.37c12.27-7.95,35.61-9.68,35.61-9.68"/>
        <path d="M429.78,654.08c-.31,0-.62-.07-.91-.21-1.02-.5-1.45-1.74-.95-2.76.18-.36,4.52-9.03,17.12-17.2,12.57-8.14,35.61-9.93,36.58-10,1.17-.08,2.13.77,2.22,1.91.08,1.14-.77,2.13-1.91,2.22-.23.02-22.96,1.79-34.64,9.35-11.57,7.49-15.62,15.47-15.66,15.54-.36.73-1.1,1.15-1.86,1.15Z"/>
      </g>
      <g>
        <path class="cls-3" d="M412.47,629.42s2.16-7.18,12.99-13.37c10.83-6.19,39.95-12.68,39.95-12.68"/>
        <path d="M412.47,631.48c-.2,0-.41-.03-.61-.09-1.08-.34-1.7-1.48-1.37-2.56.1-.33,2.53-8.04,13.95-14.57,10.98-6.27,39.32-12.64,40.53-12.91,1.11-.26,2.22.45,2.47,1.57.25,1.11-.45,2.22-1.57,2.47-.29.06-28.94,6.5-39.37,12.46-9.86,5.64-12.02,12.12-12.04,12.18-.28.88-1.1,1.45-1.98,1.45Z"/>
      </g>
      <g>
        <line class="cls-3" x1="491.98" y1="647.93" x2="476.71" y2="648.65"/>
        <path d="M476.71,650.72c-1.1,0-2.01-.86-2.06-1.97-.05-1.14.83-2.11,1.97-2.16l15.26-.72c1.13-.05,2.11.83,2.16,1.97.05,1.14-.83,2.11-1.97,2.16l-15.26.72s-.07,0-.1,0Z"/>
      </g>
      <g>
        <path class="cls-3" d="M406.03,598.28s7.67-7.39,14.93-11.15c7.26-3.76,32.12-9.86,32.12-9.86"/>
        <path d="M406.03,600.35c-.54,0-1.08-.21-1.49-.63-.79-.82-.77-2.13.06-2.92.32-.31,7.97-7.64,15.41-11.5,7.39-3.84,31.55-9.78,32.58-10.03,1.1-.27,2.23.41,2.5,1.52.27,1.11-.41,2.23-1.52,2.5-.25.06-24.7,6.08-31.66,9.69-6.9,3.58-14.37,10.73-14.45,10.81-.4.39-.92.58-1.43.58Z"/>
      </g>
    </g>
    <path class="cls-4" d="M652.29,356.4s79.06,2.91,105.45,32.47c26.4,29.57,149.84,193.4,100.31,268.82-53.85,81.99-285.87,14.4-285.87,14.4l-15.48-139.39,189.43,27.18-110.94-150.83,17.11-52.64Z"/>
    <path d="M726.06,701.81h0c-86.44-.17-154-27.54-154.67-27.81-.7-.29-1.19-.93-1.27-1.68l-15.48-139.39c-.07-.64.16-1.27.62-1.71.46-.44,1.1-.65,1.73-.56l184.54,26.48-108.02-146.86c-.68-.92-.48-2.22.44-2.89.92-.68,2.21-.48,2.89.44l110.94,150.83c.49.67.54,1.57.11,2.29-.43.71-1.25,1.11-2.07.99l-186.78-26.8,15.05,135.5c9.15,3.55,72.47,26.9,151.97,27.06,1.14,0,2.07.93,2.06,2.07,0,1.14-.93,2.06-2.07,2.06Z"/>
  </g>
</svg>