<?xml version="1.0" encoding="UTF-8"?>
<svg id="Layer_1" data-name="Layer 1" xmlns="http://www.w3.org/2000/svg" viewBox="0 0 773.44 499.77">
  <defs>
    <style>
      .cls-1 {
        fill: #231c6a;
      }

      .cls-2 {
        fill: #d86713;
      }

      .cls-3 {
        fill: #e0d9ff;
      }

      .cls-4 {
        fill: #afa5ff;
      }

      .cls-5 {
        fill: #b84c42;
      }

      .cls-6 {
        fill: #fff;
      }

      .cls-7 {
        fill: #f1a34f;
      }

      .cls-8 {
        fill: #ffb93e;
      }

      .cls-9 {
        fill: #6f2ef5;
      }

      .cls-10 {
        fill: #e58638;
      }

      .cls-11 {
        fill: #ffb27d;
      }

      .cls-12 {
        fill: #cae0ff;
      }

      .cls-13 {
        fill: #ffc08d;
      }

      .cls-14 {
        fill: #673ddb;
      }

      .cls-15 {
        fill: #ee9849;
      }

      .cls-16 {
        fill: #f4f3ff;
      }

      .cls-17 {
        fill: #ffe6d2;
      }

      .cls-18 {
        fill: #e2915a;
      }

      .cls-19 {
        fill: #e9f3fe;
      }

      .cls-20 {
        fill: #b74b42;
      }
    </style>
  </defs>
  <path class="cls-10" d="M652.38,498.85s85.41,9.71,110.99-49.92c37.19-86.67-36.67-154.77-91.45-142.34-119.38,27.1-90.64-271.84-282.23-210.83-53.87,17.15-199.44-84.75-240.03,78.65-9.65,38.86-43.86,43.14-93.51,67.79-97.17,48.25-52.74,257.46,16.69,258.28,69.43.82,579.54-1.64,579.54-1.64Z"/>
  <path class="cls-20" d="M323.04,174.74l-10.01-.23c3.22,4.17,3.94,8.01,1.94,11.26-2,3.32-6.8,6.04-13.95,8.11,5.42-14.41,8.14-29.61,8.14-45.2,0-17.46-3.41-34.4-10.18-50.32-6.5-15.4-15.82-29.25-27.71-41.1-11.88-11.88-25.7-21.21-41.1-27.74-15.95-6.73-32.89-10.14-50.32-10.14s-34.4,3.41-50.36,10.14c-1.9.82-3.81,1.67-5.65,2.56,0,0-.01,0-.02,0-5.56-1.7-10.98-3.09-16.2-4.15-26.38-5.35-45.11-1.65-52.71,10.42-7.24,11.48-3.3,28.77,11.06,48.92,0,0,0,0,0,0-1.94,3.58-3.68,7.25-5.29,11.06-1.21,2.86-2.3,5.71-3.28,8.63-26.98,1.61-41.43,6.36-46.68,14.96-6.11,10.01,2.23,23.45,28.92,36.51,3.68,1.81,7.62,3.58,11.75,5.35,1.38,12.11,4.5,23.9,9.29,35.19,6.5,15.4,15.82,29.25,27.71,41.13,11.88,11.85,25.7,21.17,41.1,27.71,15.95,6.73,32.89,10.14,50.36,10.14s34.37-3.41,50.32-10.14c15.4-6.53,29.22-15.86,41.1-27.71,11.56-11.55,20.71-25.01,27.18-39.92,13.16-2.72,21.83-6.99,25.28-12.64,2.4-3.91,2.1-8.24-.69-12.84ZM292.14,195.92c-8.76,1.58-19.7,2.49-32.47,2.63-19.81.24-42.57-1.32-66.55-4.48,2.02-4.39,4-8.91,5.93-13.52,7.44,2.49,14.66,4.46,21.55,5.86,7.89,1.6,15.09,2.39,21.52,2.39,15.07,0,25.86-4.35,31.19-12.81.88-1.39,1.59-2.87,2.14-4.43h-7.68c-.13.23-.26.46-.4.69-3.96,6.29-12.81,9.53-25.23,9.53-5.94,0-12.71-.74-20.14-2.25-6.48-1.31-13.28-3.16-20.28-5.49,1.85-4.63,3.65-9.34,5.38-14.13,4.68-12.91,8.69-25.7,11.93-37.99,14.78,2.18,30.63,3.27,47.49,3.27,10.49,0,21.37-.42,32.61-1.27,1.67,8.09,2.51,16.37,2.51,24.78,0,16.38-3.18,32.27-9.49,47.24ZM132.14,260.02c-3.74-1.35-5.63-6.72-6.56-10.98-1.47-6.73-1.74-16.18-.77-27.34.49-5.64,1.28-11.64,2.34-17.91,15.31,4.08,30.47,9.33,45.24,15.65-3.33,5.73-6.69,11.05-10.05,15.87-6.41,9.18-12.67,16.27-18.12,20.49-3.45,2.67-8.34,5.57-12.07,4.22ZM175.76,213.44c-15.45-6.66-31.34-12.16-47.39-16.41.57-2.91,1.19-5.88,1.86-8.88,4.46,1.01,8.99,2,13.57,2.94,13.41,2.74,26.79,5.07,39.88,6.95-2.59,5.37-5.24,10.51-7.92,15.4ZM146.76,186.23c-5.18-1.07-10.29-2.18-15.3-3.34,2.36-9.83,5.26-20.08,8.65-30.52,17.61,10.83,35.52,19.63,52.48,25.88-2.13,5.08-4.31,10.03-6.54,14.82-12.88-1.85-26.06-4.14-39.28-6.85ZM103.75,53.55c1.12,2.3,2.67,5.15,4.76,8.38,8.9,13.76,20.66,23.73,28.96,29.68,4.76,3.41,9.85,6.58,15.24,9.49-4.92,10.72-9.6,22.15-13.91,34.03-.8,2.21-1.58,4.42-2.35,6.63-25.73-16.75-47.51-35.96-61.8-54.56,0,0,0,0,0,0,3.58-6.1,7.68-11.88,12.27-17.29,1.9-2.23,3.87-4.4,5.94-6.5.3-.3.56-.56.85-.85,3.2-3.2,6.55-6.19,10.04-8.99ZM213.75,35c3.74,1.35,5.63,6.72,6.56,10.97,1.47,6.73,1.74,16.18.77,27.34-1.06,12.21-3.51,26.08-7.15,40.84-4.39-.76-8.69-1.61-12.87-2.57-14.44-3.32-27.61-7.86-39.36-13.57,7.02-14.63,14.43-27.68,21.85-38.31,6.41-9.18,12.67-16.27,18.12-20.49,2.84-2.2,6.67-4.56,10.01-4.56.71,0,1.4.11,2.06.34ZM199.07,118.15c4.28.99,8.67,1.88,13.17,2.66-3.16,11.88-7.05,24.26-11.58,36.75-1.75,4.82-3.56,9.56-5.42,14.2-17.02-6.25-35.09-15.19-52.86-26.23.92-2.68,1.87-5.38,2.84-8.08,4.21-11.61,8.78-22.78,13.57-33.25,12.07,5.85,25.54,10.52,40.27,13.94ZM265.95,62.54c11.19,11.19,19.99,24.23,26.13,38.74,2.19,5.18,4.01,10.48,5.45,15.87-28.08,2.05-53.8,1.41-76.8-1.92,3.65-14.91,6.11-28.94,7.18-41.33,1.19-13.68,1.04-29.89-4.5-39.01,1.29.49,2.57,1.01,3.84,1.55,14.51,6.14,27.54,14.9,38.7,26.1ZM179.84,26.86c8.44,0,16.74.85,24.85,2.53-9.57,4.17-19.34,15.76-26.75,26.39-7.59,10.88-15.17,24.19-22.32,39.1-4.83-2.62-9.4-5.46-13.69-8.5-20.36-14.44-29.33-30.01-32.59-37.05,4.99-3.55,10.24-6.72,15.73-9.49,0,0,0,0,0,0,2.24-1.13,4.52-2.18,6.83-3.17.17-.07.34-.15.5-.22.04-.02.08-.03.12-.05.49-.21.99-.41,1.49-.61.13-.05.27-.11.4-.16,14.41-5.81,29.71-8.76,45.43-8.76ZM60.85,42.1c3.96-6.29,12.81-9.53,25.23-9.53,5.94,0,12.71.74,20.14,2.25,2.82.57,5.71,1.24,8.64,2.02,0,0,0,0,0,0-9.65,5.58-18.51,12.41-26.48,20.41-1.67,1.64-3.28,3.35-4.86,5.12-1.97,2.17-3.84,4.43-5.65,6.73-2.89,3.68-5.55,7.52-8.01,11.46,0,0,0,0,0,0-10.98-16.3-14.28-30.13-9.02-38.47ZM67.58,101.28c1.08-2.49,2.2-4.96,3.41-7.35,0,0,0,0,0,0,15.05,18.81,37.22,38.03,63.13,54.7-3.67,11.18-6.81,22.17-9.34,32.7-18.85-4.56-36.32-9.72-51.63-15.24-3.22-1.15-6.34-2.33-9.32-3.51-1.77-.69-3.51-1.41-5.22-2.13-.26-2.63-.46-5.29-.53-7.94-.03-1.28-.07-2.53-.07-3.81,0-1.48.03-2.99.07-4.46.43-11.06,2.3-21.86,5.58-32.3.56-1.77,1.15-3.51,1.81-5.25.66-1.81,1.35-3.61,2.1-5.38ZM45.62,154.59c-23.27-11.36-33.91-22.32-29.15-30.1,3.84-6.3,17.82-10.57,39.23-12.15-2.63,8.86-4.23,18.02-4.86,27.31-.2,2.76-.3,5.51-.33,8.31v.72c0,2.79.1,5.58.26,8.34-1.77-.79-3.48-1.61-5.15-2.43ZM63.28,168.54c3.15,1.18,6.37,2.36,9.68,3.51,15.24,5.28,32.33,10.19,50.6,14.54-.66,2.96-1.28,5.88-1.84,8.75-1.49-.36-2.99-.72-4.48-1.06-25.26-5.75-44.22-6.92-53.01-7.12-2.18-6.56-3.78-13.26-4.79-20.11,1.28.49,2.56.98,3.84,1.48ZM67.58,196.08c-.27-.65-.54-1.3-.8-1.96,9.37.38,26.75,1.8,48.95,6.85,1.59.36,3.18.74,4.76,1.13-1.14,6.66-1.99,13.03-2.51,19.02-.99,11.34-1.06,24.41,2.1,33.74-9.62-5.42-18.45-12.12-26.37-20.04-11.19-11.19-19.99-24.23-26.13-38.74ZM227.25,260.91c-15.03,6.37-30.96,9.59-47.4,9.59-12.67,0-25.05-1.91-36.94-5.7,9.01-4.72,18.06-15.57,25.04-25.56,3.6-5.15,7.19-10.86,10.74-17.02,20.45,9.26,40.12,20.64,58.59,33.9-3.26,1.74-6.6,3.34-10.03,4.79ZM265.95,234.82c-6.73,6.75-14.16,12.62-22.17,17.56-19.41-14.18-40.14-26.33-61.74-36.15,2.97-5.44,5.9-11.19,8.76-17.19,19.77,2.62,38.79,4.19,56.14,4.6,4.53.13,8.93.13,13.2.1,11.06-.13,20.91-.79,29.35-1.97-5.91,12.24-13.82,23.34-23.54,33.06Z"/>
  <path class="cls-20" d="M584.2,465.39c-2.76-10.7-21.41-2.41-36.76,6.57-.72-1.13-1.46-2.25-2.22-3.36,10.99-6.82,26.43-18.16,20.56-25.06-5.8-6.82-17.15,8.62-24.25,20.01-19.01-24.67-47.2-42.23-47.2-42.23,0,0,117.64-97.75,29.73-149.31-87.91-51.57-154.69,129.88-154.69,129.88,0,0-60.07-55.62-117.42-35.08-58.9,21.1-22.09,60.2-73.24,70.77-6.02-23.06-17.15-55.58-32.38-57.48-20.1-2.52-11.64,22.64,18.9,59.4-5.92.53-12.67.8-20.38.78-82.04-.24-60.99,58.83-60.99,58.83l474.34,1.09c-.64-5.81-2.33-11.53-4.77-17.06,16.25-2.55,33.36-7.65,30.77-17.72Z"/>
  <g>
    <g>
      <path class="cls-1" d="M338.78,238.4l-20.69,245.96s-2.17,14.91,8.92,14.94c18.23.04,90.76,0,90.76,0,0,0-13.72-3.1-13.56-10.09.2-8.23,24.18-253.13,24.18-253.13l-89.61,2.33Z"/>
      <path class="cls-4" d="M423.66,494.83c-3.59.01-72.86.23-90.61,0-7.74-.1-9.1-6.88-9.16-11.27-.03-2.1.24-3.66.24-3.66l.54-6.39,1.37-16.29,1.21-14.39,1.56-18.5,1.31-15.61,14.7-174.77,89.62-2.33s-10.1,102.49-17.24,177.09c-.8,8.31-1.56,16.28-2.26,23.72-.23,2.38-.44,4.7-.66,6.96-.66,7.06-1.27,13.54-1.8,19.26-.28,3.02-.53,5.82-.77,8.39-.91,10.06-1.45,16.49-1.45,17.71,0,.71.06,1.37.17,1.99,1.47,7.84,11.89,8.09,13.24,8.09Z"/>
      <polygon class="cls-4" points="121.15 104.56 171.53 306.95 178.43 334.67 201.9 428.94 637.88 428.94 551.39 104.56 121.15 104.56"/>
      <polygon class="cls-9" points="121.14 104.56 114.16 106.89 192.61 435.98 201.9 428.94 121.14 104.56"/>
      <polygon class="cls-1" points="192.61 435.98 625.92 435.98 637.88 428.94 201.9 428.94 192.61 435.98"/>
      <rect class="cls-1" x="344.78" y="494.93" width="93.82" height="4.46"/>
      <polygon class="cls-14" points="414.35 434.8 413.87 438.21 325.64 456.04 326.85 441.64 327.43 434.8 414.35 434.8"/>
      <path class="cls-14" d="M423.66,494.83c-3.59.01-72.86.23-90.61,0-7.74-.1-9.1-6.88-9.16-11.27l87.81-16.52c-.91,10.06-1.45,16.49-1.45,17.71,0,.71.06,1.37.17,1.99,1.47,7.84,11.89,8.09,13.24,8.09Z"/>
      <polygon class="cls-4" points="393.42 363.27 201.9 428.94 178.43 334.67 393.42 363.27"/>
      <polygon class="cls-14" points="121.14 104.56 551.39 104.56 621.19 365.26 186.05 365.26 121.14 104.56"/>
    </g>
    <path class="cls-14" d="M431.45,398.21c-1.24-6.39-7.43-11.58-13.83-11.58s-10.57,5.18-9.33,11.58c1.24,6.39,7.43,11.58,13.83,11.58s10.57-5.18,9.33-11.58Z"/>
    <polygon class="cls-6" points="600.9 353.96 198.07 353.96 152.45 172.22 148.95 158.29 145.96 146.4 138.97 118.53 536 118.53 543.68 146.4 546.96 158.29 550.8 172.22 600.9 353.96"/>
    <polygon class="cls-3" points="543.68 146.4 145.96 146.4 138.97 118.53 536 118.53 543.68 146.4"/>
    <g>
      <path class="cls-19" d="M158.01,127.64c-1.92,0-3.1,1.56-2.62,3.48.48,1.92,2.43,3.48,4.35,3.48s3.1-1.56,2.62-3.48c-.48-1.92-2.43-3.48-4.35-3.48Z"/>
      <path class="cls-19" d="M169.59,127.64c-1.92,0-3.1,1.56-2.62,3.48.48,1.92,2.43,3.48,4.35,3.48s3.1-1.56,2.62-3.48c-.48-1.92-2.43-3.48-4.35-3.48Z"/>
      <path class="cls-19" d="M186.41,131.12c-.48-1.92-2.43-3.48-4.35-3.48s-3.1,1.56-2.62,3.48c.48,1.92,2.43,3.48,4.35,3.48s3.1-1.56,2.62-3.48Z"/>
    </g>
  </g>
  <g>
    <g>
      <path class="cls-15" d="M750.16,53.64c-1.28,29.47-8.13,65.55-29.93,94.57-.8,1.07-1.61,2.12-2.42,3.17-2.44,3.16-4.93,6.23-7.46,9.21-2.82,3.32-7.74,3.85-11.22,1.24l-96.75-72.66c-1.11-.83-1.92-1.91-2.42-3.11-.34-.81-.53-1.66-.58-2.53-.08-1.55.32-3.13,1.23-4.52,2.27-3.45,4.65-6.88,7.13-10.29.78-1.07,1.57-2.14,2.37-3.2,21.8-29.02,54.53-45.67,82.48-55.11,14.76-4.99,28.18-7.97,37.95-9.7,1.62-.29,3.2-.35,4.71-.2,2.28.22,4.41.92,6.27,2.02,4.02,2.37,6.81,6.61,7.38,11.96,1.06,9.87,1.94,23.59,1.26,39.15Z"/>
      <path class="cls-14" d="M607.67,68.81c-2.82,3.88-5.51,7.78-8.05,11.69-1.66,2.55-1.04,5.95,1.39,7.77l99.2,74.5c2.84,2.13,6.84,1.69,9.15-1.01,2.84-3.32,5.64-6.75,8.38-10.3l-110.07-82.66Z"/>
      <path class="cls-20" d="M693.66,98.2c-6.31,0-12.42-2.03-17.56-5.89-6.27-4.71-10.33-11.57-11.43-19.33-1.1-7.76.88-15.48,5.59-21.75h0c4.71-6.27,11.57-10.33,19.33-11.43,7.76-1.1,15.48.88,21.75,5.59,6.27,4.71,10.33,11.57,11.43,19.33,1.1,7.76-.88,15.48-5.59,21.75-4.71,6.27-11.57,10.33-19.33,11.43-1.4.2-2.8.3-4.19.3ZM693.76,46.32c-1.07,0-2.14.08-3.22.23-5.96.85-11.23,3.96-14.84,8.77h0c-3.61,4.81-5.14,10.74-4.29,16.7.85,5.96,3.96,11.23,8.77,14.84,4.81,3.61,10.74,5.14,16.7,4.29,5.96-.85,11.23-3.96,14.84-8.77,3.61-4.81,5.14-10.74,4.29-16.7-.85-5.96-3.96-11.23-8.77-14.84-3.94-2.96-8.64-4.52-13.48-4.52Z"/>
      <path class="cls-13" d="M743.73,9.33c-.27-2.54-1.05-4.84-2.22-6.8-1.86-1.1-3.98-1.8-6.27-2.02.02.13.03.26.05.39,1.06,9.86,1.94,23.59,1.26,39.15-1.28,29.47-8.13,65.55-29.93,94.57-.8,1.07-1.6,2.12-2.42,3.17-.54.7-1.08,1.39-1.62,2.07l9.47,7.12c.2-.25.4-.51.6-.76.81-1.05,1.61-2.1,2.42-3.17,21.8-29.02,28.65-65.1,29.93-94.57.67-15.56-.21-29.29-1.26-39.15Z"/>
      <path class="cls-14" d="M748.9,14.49c-1.01-9.47-8.98-15.45-18.36-13.79-9.77,1.74-23.19,4.72-37.95,9.7l57.57,43.24c.68-15.56-.2-29.29-1.26-39.15Z"/>
    </g>
    <g>
      <path class="cls-20" d="M615.73,108.54c-9.43-6.27-24.28-.5-33.17,12.87-8.88,13.38,1,35.56,1,35.56,0,0,24.28.5,33.17-12.87,8.88-13.38,8.44-29.3-1-35.56Z"/>
      <path class="cls-20" d="M668.76,147.5c-9.43-6.27-24.28-.5-33.17,12.87-8.88,13.38,1,35.56,1,35.56,0,0,24.28.5,33.17-12.87,8.88-13.38,8.44-29.3-1-35.56Z"/>
    </g>
    <g>
      <path class="cls-15" d="M605.7,123.54c-6.51-4.32-16.76-.35-22.89,8.88-6.13,9.23.69,24.55.69,24.55,0,0,16.76.35,22.89-8.88,6.13-9.23,5.82-20.22-.69-24.55Z"/>
      <path class="cls-15" d="M658.84,162.45c-6.51-4.32-16.76-.35-22.89,8.88-6.13,9.23.69,24.55.69,24.55,0,0,16.76.35,22.89-8.88,6.13-9.23,5.82-20.22-.69-24.55Z"/>
    </g>
    <path class="cls-17" d="M680.56,83.45l30.42-5.38c-3.38,6.12-9.89,10.27-17.38,10.27-4.99,0-9.55-1.85-13.04-4.89Z"/>
    <path class="cls-17" d="M713.43,67.84l-38.53,7.3c-.74-2.08-1.14-4.31-1.14-6.64,0-10.96,8.88-19.84,19.84-19.84s19.48,8.53,19.83,19.18Z"/>
  </g>
  <g>
    <path class="cls-11" d="M757.12,331.42l1.91,3.1c.99,1.14,1.26,1.78,2.05,2.17,1.9.94,5.41,3.33,5.67,8.37,0,0-.06,2.85-1.97,1.93-1.91-.92-1.08-.84-3.79-2.08-2.72-1.25-3.73-5.21-3.96-6.56l-2.22-2.91,2.32-4.01Z"/>
    <g>
      <path class="cls-11" d="M700.91,496.65c-.1,1.12-.72,1.83-1.71,2.27,0,0,0,0-.01,0-1.82.8-4.86.62-8.15.17-.42-.06-.8-.1-1.14-.13-.09,0-.18-.02-.27-.02-.07,0-.14,0-.2-.02-3.28-.22-3.02.79-9.28.76-7.14-.04-9.55-2.44-9.88-3.47-.28-.87,2.85-1.54,6.34-2.32.17-.04.34-.08.51-.11.46-.1.93-.21,1.4-.32,4.17-.98,8.29-2.21,9.65-6.21,1.45-4.24,1.1-16.84,1.1-16.84h12.64s-3.32,13.91-2.97,17.92c.19,2.14,1.21,2.75,1.61,4.61.03.13.05.26.08.39.19,1.09.38,2.2.28,3.32Z"/>
      <path class="cls-14" d="M715.62,360.52c-1.07,5.99-2.59,12.18-3.91,18.62-2.12,10.35-3.73,21.35-2.09,33.19.21,1.52.32,3.21.35,5.01.32,20.93-9.03,58.85-9.03,58.85,0,0-2.54,1.1-6.8.88-2.19-.11-5.55-1.52-5.55-1.52,0,0-.88-23.51-.94-55.13-.04-22.92-4.54-53.1-5.45-70.83-.55-10.73.64-25.03.64-25.03,0,0,18.64-14.99,25.33-7.32,6.61,7.58,11.43,20.88,7.44,43.29Z"/>
      <path class="cls-1" d="M709.62,412.32c.21,1.52.32,3.21.35,5.01-13.96-20.22-17.05-64.32-17.05-64.32l15.33,7.44s1.68,8.27,3.45,18.68c-2.12,10.35-3.73,21.35-2.09,33.19Z"/>
      <path class="cls-11" d="M741.23,496.65c-.1,1.12-.72,1.83-1.71,2.27,0,0,0,0-.01,0-1.82.8-4.86.62-8.15.17-.42-.06-.8-.1-1.14-.13-.09,0-.18-.02-.27-.02-.07,0-.14,0-.2-.02-3.28-.22-3.02.79-9.28.76-7.14-.04-9.55-2.44-9.88-3.47-.28-.87,2.85-1.54,6.34-2.32.17-.04.34-.08.51-.11.46-.1.93-.21,1.4-.32,4.17-.98,8.29-2.21,9.65-6.21,1.45-4.24-.62-16.65-.62-16.65l11.71-.98s-.73,14.13-.38,18.14c.19,2.14,1.28,3.32,1.67,5.17.03.13.05.26.08.39.19,1.09.38,2.2.28,3.32Z"/>
      <path class="cls-14" d="M739.58,477.25s-3.01,1.42-5.18,1.86c-2.17.43-6.67-.41-6.67-.41-.81-9.11-2.7-23.34-6.37-39.41-4.18-18.29-10.39-39.91-19.05-60.38-1.85-4.37-9.48-25.07-10.77-30.29-3.92-15.78.02-14.08.02-14.08l34.22-4.02s4.22,2.17,6.16,24.45c.58,6.67.65,35.48,1.53,40.95.83,5.17,1.8,9.47,2.94,12.27,6.36,15.61,3.18,69.07,3.18,69.07Z"/>
      <path class="cls-5" d="M741.23,496.65c-.1,1.12-.72,1.83-1.71,2.27,0,0,0,0-.01,0-1.92.68-4.92.54-8.14.15-.42-.05-.8-.09-1.15-.11-.09,0-.18-.02-.27-.02-.07,0-.14,0-.2-.02-3.28-.22-3.02.79-9.28.76-7.14-.04-9.55-2.44-9.88-3.47-.28-.87,2.85-1.54,6.34-2.32.92.45,5.32,2.44,10.78,1.91,4.81-.46,9.71-2.39,13.16-2.87.03.13.05.26.08.39.19,1.09.38,2.2.28,3.32Z"/>
      <path class="cls-5" d="M700.91,496.65c-.1,1.12-.72,1.83-1.71,2.27,0,0,0,0-.01,0-1.92.68-4.92.54-8.14.15-.42-.05-.8-.09-1.15-.11-.09,0-.18-.02-.27-.02-.07,0-.14,0-.2-.02-3.28-.22-3.02.79-9.28.76-7.14-.04-9.55-2.44-9.88-3.47-.28-.87,2.85-1.54,6.34-2.32.92.45,5.32,2.44,10.78,1.91,4.81-.46,9.71-2.39,13.16-2.87.03.13.05.26.08.39.19,1.09.38,2.2.28,3.32Z"/>
      <path class="cls-20" d="M687.22,228.05c-1.16-9.44,1.79-24.55,20.63-22.13,18.84,2.41,24.78,20.93,20.98,29.16-3.8,8.23,5.47,10.22,8.38,19.07,2.5,7.61,3.37,17.05,7.42,21.29,13.04,13.66-12.52,34.68-27.94,30.25-28.07-8.07-31.69-9.28-30.69-31.33.51-11.3,9.3-15.68,3.72-18.95-13.49-7.9.11-6-2.5-27.36Z"/>
      <path class="cls-11" d="M714.91,252.76l-5.19,13.41-11.2.55-5.59-8.35c3.53-2.68,5.02-6.71,5.56-10.31.45-2.88.32-5.49.2-6.91-.07-.72-.15-1.14-.15-1.14l13.96-4.25.05-.02c.17,3.7.37,6.61.6,8.87.79,7.97,1.76,8.15,1.76,8.15Z"/>
      <path class="cls-11" d="M692.88,252.29c.72,0,12.96-2.49,33.62,2.8,0,0-11.32,51.85-7.47,61.62,3.84,9.77,5.31,18.45,5.31,18.45l-41.71.52s.58-33.54-1.34-45.42c-1.92-11.87,11.59-37.97,11.59-37.97Z"/>
      <path class="cls-8" d="M746.1,306.55c-2.09-14.41-9.83-44.01-15.03-48.85-4.6-4.28-14.52-4.67-14.52-4.67h0s0,0,0,0c-2.06,3.23-9.11,11.25-17.87,9.8-4.72-.78-5.68-9.27-5.79-10.41l.03-.13s-.02,0-.04,0c0,0,0,0,0,0-.03,0-.07.01-.1.02-1.38.2-12.35,1.99-15.61,7.59-4.81,8.28-10.04,33.11-15.19,32.74-2.36-.17-26.13-9.1-26.13-9.1,0,0-3.96,3.71-3.2,8.26,0,0,11.73,7.86,21.66,12.87,1.38.7,2.72,1.33,3.98,1.89,3.58,1.57,6.59,2.48,8.24,2.09.47-.11.97-.32,1.49-.63,2.15-1.24,4.66-3.97,7.07-7.09,1.6-2.07,3.16-4.31,4.53-6.39.03-.04.06-.09.09-.13.59,7.89,1.18,16.49.57,23.22-.47,5.12-.8,16.21.07,19.08,1.83,5.97,15.3,7.55,27.86,6.93,5.92-.29,10.11-.63,13.15-1.34,4.42-1.01,6.44-2.79,7.89-6.3,1.39-3.34-5.03-19.02-5.64-25.89-.56-6.22.4-11.29,1.97-16.26,4.44,10.25,8.95,17.57,9.54,19.16,1.24,3.34,20.18,24.48,20.18,24.48,0,0,1.53-.31,2.75-1.11,1.25-.82,1.88-1.9,1.88-1.9-3.34-7.94-13.84-27.95-13.84-27.95Z"/>
      <path class="cls-10" d="M729.26,336.01c-1.45,3.51-3.47,5.29-7.89,6.3-5.91-1.14-9.8-12-11.81-17.35-2.31-6.16,9.73-37.86,13.05-37.57,2.47.21,2.9,4.41,2.98,6.47-1.6,5.03-2.53,9.98-1.97,16.26.61,6.86,7.02,22.55,5.64,25.89Z"/>
      <path class="cls-11" d="M636.02,286.03s-2.03-4.97-4.26-5.17c-2.23-.2-9.33-1.32-9.84-.3-.51,1.01,0,4.66,1.52,5.98,1.52,1.32,10.95,3.45,10.95,3.45l1.62-3.95Z"/>
      <path class="cls-10" d="M679.63,294.55c-1.37,2.08-2.93,4.32-4.53,6.39-2.3,2.83-4.83,5.56-7.07,7.09-.52.3-1.02.52-1.49.63-1.65.39-4.66-.52-8.24-2.09,2.13.16,4.22.08,6.28-.09,3.6-.31,4.65-4.2,10.34-10.05,3.4-3.49,4.44-2.96,4.72-1.87Z"/>
      <path class="cls-18" d="M712.5,235.77c-2.11,3.45-7.2,10.56-14.01,12.3.45-2.88.32-5.49.2-6.91-.07-.72-.15-1.14-.15-1.14l13.96-4.25Z"/>
      <path class="cls-11" d="M694.88,240.97s16.78,3.37,18.72-7.11c1.94-10.48,5.41-17.11-5.22-19.7-10.63-2.6-13.46,1.02-14.96,4.36-1.5,3.34-2.85,21.31,1.46,22.46Z"/>
      <path class="cls-20" d="M703.08,211.53s-.29,3.56,5.23,9.59c5.52,6.03,4.44,18.24,4.44,18.24,0,0,9.06-18.93,4.1-24.51-4.96-5.58-13.77-3.31-13.77-3.31Z"/>
      <path class="cls-20" d="M709.83,206.9s-8.34-2.79-16.62,5.37c-3.57,3.52-3.03,10.42-1.12,14.43,0,0,2.93-8.59,8.27-10.47,5.34-1.87,9.47-9.34,9.47-9.34Z"/>
      <path class="cls-6" d="M700.11,235.81s-.45,1.24-3.61.68c0,0-2.65-.47-2.41-1.87,0,0,2.71-.7,6.02,1.19Z"/>
    </g>
  </g>
  <g>
    <g>
      <path class="cls-14" d="M440.73,239.82c4.55,25.81-10.52,46.74-33.65,46.74-1.51,0-3.05-1.04-4.55-1.22,20.6-2.48,33.54-21.39,29.28-45.52-4.25-24.13-24.15-43.99-45.63-46.47,1.43-.18,2.9-.26,4.41-.26,23.14,0,45.58,20.92,50.14,46.73Z"/>
      <path class="cls-14" d="M459.23,253.31c6.59,0,10.85-6.09,9.53-13.6-1.32-7.51-7.74-13.6-14.33-13.6-.33,0-.65.03-.97.06-.99-2.78-2.13-5.48-3.39-8.12,3.32-2.3,5.06-6.8,4.15-11.97-1.29-7.29-7.36-13.24-13.74-13.58l-7.76.1c-.39,0-.77.02-1.14.06-.78-.74-1.58-1.46-2.38-2.16,1.07-2.26,1.46-5.05.92-8.07-1.32-7.51-7.74-13.6-14.33-13.6-.05,0-.1,0-.15,0h0s-6.47.12-6.47.12c-.18,0-.37-.02-.55-.02-.33,0-.65.02-.96.05h0c-1.82.17-3.44.83-4.77,1.85-1.33,1.03-2.38,2.43-3.08,4.08-.16-.04-.31-.08-.47-.11-.04-.46-.1-.92-.18-1.39-1.32-7.51-7.74-13.6-14.32-13.6l-7.08.12s-.06,0-.09,0c-.11,0-.22,0-.33,0h-.13s0,0,0,0c-.52.02-1.02.08-1.5.18,0,0,0,0,0,0-.31.11-10.71,3.89-7.16,16.99l-.73.32s-2.06-4.18-5.76-6.44c-4.58-2.8-7.56-2.14-7.96-2.09l-6.17.03h0c-6.43.17-10.57,6.19-9.26,13.6.62,3.5,2.35,6.69,4.68,9.1-.22.29-.43.58-.64.88l-2.15.02c-.32-.03-.64-.05-.95-.05-.4,0-.8.02-1.18.07l-5.46.06s-.06,0-.09,0c-.15,0-.3,0-.44,0-.26,0-.51,0-.76.03h-.02c-.21.02-.42.04-.63.06-5.77.8-9.35,6.54-8.12,13.51,1.03,5.83,5.13,10.79,9.98,12.72-.27,2.37-.42,4.8-.43,7.28l-2.39.04c-.1,0-.21,0-.31,0-.25,0-.49.01-.73.03h-.45s0,.02,0,.04c-5.91.68-9.6,6.48-8.35,13.53,1.32,7.51,7.74,13.6,14.33,13.6l2.68-.04c.63,1.75,1.31,3.48,2.05,5.18-4.61,1.68-7.28,6.87-6.19,13.02,1.27,7.22,7.25,13.13,13.57,13.57h0s.02,0,.02,0c.25.02.49.03.74.03.33,0,.65-.02.96-.05l6.06-.06h0c.05,0,.1,0,.16,0,.83,0,1.63-.1,2.38-.29.98.99,1.98,1.96,3,2.9-1.31,2.36-1.82,5.39-1.23,8.7,1.32,7.51,7.74,13.6,14.33,13.6l7.02-.11h0c.05,0,.1,0,.16,0,4.02,0,7.16-2.27,8.71-5.74.8.21,1.59.42,2.4.6.04.45.1.91.18,1.38,1.32,7.51,7.74,13.6,14.33,13.6l7.16-.11h.49s0,0,0-.01c6.31-.29,10.34-6.26,9.05-13.59-.08-.47-.18-.93-.3-1.38.23-.06.46-.12.69-.18,2.76,3.36,6.63,5.55,10.57,5.55l6.9-.12c.09,0,.18.01.27.01,6.59,0,10.85-6.09,9.53-13.6-.5-2.83-1.73-5.46-3.41-7.64.89-1.14,1.73-2.33,2.53-3.56h8.09,0c.05,0,.1,0,.15,0,6.59,0,10.85-6.09,9.53-13.6-.97-5.49-4.65-10.2-9.14-12.35.18-1.92.27-3.88.28-5.86.33.03.66.05.99.05ZM406.78,285.57c-23.2,0-45.66-20.71-50.17-46.25-4.5-25.55,10.65-46.26,33.85-46.26s45.66,20.71,50.17,46.26c4.5,25.55-10.65,46.25-33.85,46.25Z"/>
      <path class="cls-16" d="M459.07,253.31c6.59,0,10.85-6.09,9.53-13.6-1.32-7.51-7.74-13.6-14.32-13.6-.33,0-.65.03-.97.06-.99-2.77-2.13-5.48-3.39-8.12,3.32-2.3,5.06-6.8,4.15-11.97-1.32-7.51-7.74-13.6-14.32-13.6-2.43,0-4.55.84-6.18,2.26-1.46-1.48-2.97-2.9-4.52-4.25,1.07-2.26,1.45-5.05.92-8.07-1.32-7.51-7.74-13.6-14.32-13.6-4.84,0-8.42,3.3-9.45,8.02-2.3-.83-4.64-1.51-6.99-2.04-.04-.46-.1-.92-.18-1.38-1.32-7.51-7.74-13.6-14.32-13.6s-10.85,6.09-9.53,13.6c.08.47.18.93.31,1.38-2.67.66-5.22,1.54-7.65,2.64-2.63-5.04-7.57-8.61-12.61-8.61-6.59,0-10.85,6.09-9.53,13.6.62,3.5,2.35,6.68,4.68,9.1-.98,1.3-1.9,2.67-2.76,4.09-2.41-1.95-5.26-3.12-8.15-3.12-6.59,0-10.85,6.09-9.53,13.6,1.03,5.83,5.12,10.79,9.98,12.72-.29,2.49-.44,5.04-.44,7.65-.89-.22-1.79-.34-2.69-.34-6.59,0-10.85,6.09-9.53,13.6,1.32,7.51,7.74,13.6,14.32,13.6.9,0,1.76-.12,2.57-.34.66,1.86,1.38,3.69,2.16,5.48-4.61,1.68-7.28,6.87-6.19,13.02,1.32,7.51,7.74,13.6,14.32,13.6,2.87,0,5.3-1.16,7.02-3.08,1.77,1.96,3.62,3.82,5.54,5.58-1.31,2.36-1.82,5.39-1.23,8.71,1.32,7.51,7.74,13.6,14.32,13.6,4.83,0,8.4-3.28,9.45-7.99,2.9,1.14,5.85,2.06,8.83,2.74.04.45.1.92.18,1.38,1.32,7.51,7.74,13.6,14.32,13.6s10.85-6.09,9.53-13.6c-.08-.47-.18-.93-.31-1.38,2.26-.56,4.43-1.28,6.52-2.15,2.75,4.39,7.29,7.4,11.91,7.4,6.59,0,10.85-6.09,9.53-13.6-.5-2.83-1.73-5.46-3.41-7.64,1.42-1.81,2.71-3.74,3.89-5.77,2.12,1.39,4.49,2.21,6.89,2.21,6.59,0,10.85-6.09,9.53-13.6-.97-5.49-4.66-10.2-9.14-12.35.18-1.92.27-3.88.28-5.86.33.03.66.06.99.06ZM406.78,285.57c-23.2,0-45.66-20.71-50.17-46.25-4.5-25.55,10.65-46.25,33.85-46.25s45.66,20.71,50.17,46.25c4.5,25.54-10.65,46.25-33.85,46.25Z"/>
    </g>
    <g>
      <path class="cls-2" d="M518.72,241.67c3.48,19.73-8.04,35.73-25.73,35.73-1.15,0-2.33-.8-3.48-.93,15.75-1.9,25.64-16.35,22.39-34.8-3.25-18.45-18.46-33.63-34.88-35.53,1.1-.13,2.22-.2,3.37-.2,17.69,0,34.85,16,38.33,35.73Z"/>
      <path class="cls-2" d="M532.86,251.99c5.04,0,8.3-4.66,7.29-10.4-1.01-5.74-5.92-10.4-10.95-10.4-.25,0-.5.02-.74.04-.76-2.12-1.63-4.19-2.59-6.21,2.54-1.76,3.87-5.2,3.17-9.15-.98-5.57-5.63-10.12-10.5-10.39l-5.93.07c-.3,0-.59.02-.87.05-.6-.56-1.2-1.12-1.82-1.65.82-1.73,1.11-3.86.7-6.17-1.01-5.74-5.92-10.4-10.95-10.4-.04,0-.08,0-.12,0h0s-4.94.09-4.94.09c-.14,0-.28-.01-.42-.01-.25,0-.49.01-.73.03h0c-1.39.13-2.63.63-3.65,1.42-1.02.78-1.82,1.85-2.35,3.12-.12-.03-.24-.06-.36-.09-.03-.35-.08-.7-.14-1.06-1.01-5.74-5.91-10.4-10.95-10.4l-5.41.09s-.05,0-.07,0c-.09,0-.17,0-.25,0h-.1s0,0,0,0c-.39.02-.78.06-1.15.14,0,0,0,0,0,0-.24.08-8.19,2.97-5.47,12.99l-.56.24s-1.58-3.19-4.41-4.92c-3.5-2.14-5.78-1.64-6.09-1.6l-4.72.02h0c-4.92.13-8.08,4.73-7.08,10.4.47,2.68,1.8,5.11,3.58,6.95-.16.22-.33.44-.49.67l-1.64.02c-.24-.02-.49-.03-.73-.03-.31,0-.61.02-.9.05l-4.17.04s-.05,0-.07,0c-.11,0-.23,0-.34,0-.2,0-.39,0-.58.02h-.01c-.16.01-.32.03-.48.05-4.41.61-7.15,5-6.21,10.33.79,4.45,3.92,8.25,7.63,9.73-.21,1.81-.32,3.67-.33,5.57l-1.82.03c-.08,0-.16,0-.24,0-.19,0-.38,0-.56.02h-.35s0,.01,0,.03c-4.52.52-7.34,4.95-6.39,10.35,1.01,5.74,5.92,10.4,10.95,10.4l2.05-.03c.48,1.34,1,2.66,1.57,3.96-3.53,1.29-5.56,5.25-4.73,9.96.97,5.52,5.54,10.03,10.37,10.37h0s.01,0,.01,0c.19.01.38.02.57.02.25,0,.5-.01.74-.04l4.63-.05h0s.08,0,.12,0c.64,0,1.25-.08,1.82-.22.75.76,1.51,1.5,2.29,2.21-1,1.8-1.39,4.12-.94,6.65,1.01,5.74,5.92,10.4,10.95,10.4l5.36-.08h0s.08,0,.12,0c3.07,0,5.48-1.74,6.66-4.39.61.16,1.22.32,1.83.46.03.35.08.7.14,1.06,1.01,5.74,5.92,10.4,10.95,10.4l5.48-.09h.37s0,0,0,0c4.82-.22,7.91-4.79,6.92-10.39-.06-.36-.14-.71-.23-1.06.18-.04.35-.09.52-.14,2.11,2.57,5.07,4.24,8.08,4.24l5.28-.09c.07,0,.14,0,.21,0,5.04,0,8.3-4.66,7.29-10.4-.38-2.17-1.32-4.18-2.61-5.84.68-.87,1.32-1.78,1.93-2.72h6.19,0s.08,0,.12,0c5.04,0,8.3-4.66,7.29-10.4-.74-4.19-3.56-7.8-6.99-9.44.14-1.47.21-2.96.22-4.48.25.02.5.04.76.04ZM492.77,276.65c-17.74,0-34.91-15.83-38.35-35.36-3.44-19.53,8.14-35.36,25.88-35.36s34.91,15.83,38.35,35.36c3.44,19.53-8.14,35.36-25.88,35.36Z"/>
      <path class="cls-7" d="M532.75,251.99c5.04,0,8.3-4.66,7.28-10.4-1.01-5.74-5.92-10.4-10.95-10.4-.25,0-.5.02-.74.04-.76-2.12-1.63-4.19-2.59-6.21,2.54-1.76,3.87-5.2,3.17-9.15-1.01-5.74-5.92-10.4-10.95-10.4-1.86,0-3.48.64-4.73,1.73-1.12-1.13-2.27-2.22-3.45-3.25.82-1.73,1.11-3.86.7-6.17-1.01-5.74-5.92-10.4-10.95-10.4-3.7,0-6.44,2.52-7.23,6.13-1.76-.63-3.55-1.15-5.35-1.56-.03-.35-.08-.7-.14-1.06-1.01-5.74-5.92-10.4-10.95-10.4s-8.3,4.66-7.28,10.4c.06.36.14.71.23,1.06-2.04.5-3.99,1.18-5.85,2.02-2.01-3.85-5.78-6.58-9.64-6.58-5.04,0-8.3,4.66-7.28,10.4.47,2.68,1.8,5.11,3.58,6.95-.75,1-1.45,2.04-2.11,3.12-1.84-1.49-4.02-2.39-6.23-2.39-5.04,0-8.3,4.66-7.28,10.4.79,4.46,3.92,8.25,7.63,9.73-.22,1.9-.33,3.85-.34,5.85-.68-.17-1.37-.26-2.06-.26-5.04,0-8.3,4.66-7.28,10.4,1.01,5.74,5.92,10.4,10.95,10.4.69,0,1.35-.1,1.96-.26.5,1.42,1.06,2.82,1.65,4.19-3.53,1.29-5.56,5.25-4.73,9.95,1.01,5.74,5.92,10.4,10.95,10.4,2.19,0,4.05-.88,5.36-2.36,1.35,1.5,2.77,2.92,4.23,4.27-1,1.8-1.39,4.12-.94,6.66,1.01,5.74,5.92,10.4,10.95,10.4,3.69,0,6.42-2.51,7.22-6.11,2.21.87,4.47,1.57,6.75,2.09.03.35.08.7.14,1.06,1.01,5.74,5.92,10.4,10.95,10.4s8.3-4.66,7.28-10.4c-.06-.36-.14-.71-.23-1.06,1.72-.43,3.39-.97,4.98-1.64,2.1,3.36,5.57,5.66,9.11,5.66,5.04,0,8.3-4.66,7.28-10.4-.38-2.17-1.32-4.18-2.61-5.84,1.08-1.38,2.07-2.86,2.97-4.41,1.62,1.06,3.43,1.69,5.27,1.69,5.04,0,8.3-4.66,7.28-10.4-.74-4.2-3.56-7.8-6.99-9.44.13-1.47.21-2.96.22-4.48.25.02.5.04.76.04ZM492.77,276.65c-17.74,0-34.91-15.83-38.35-35.36-3.44-19.53,8.14-35.36,25.88-35.36s34.91,15.83,38.35,35.36c3.44,19.53-8.14,35.36-25.88,35.36Z"/>
    </g>
  </g>
  <g>
    <polygon class="cls-3" points="191.32 256.82 213.17 338.39 232.59 338.39 210.73 256.82 191.32 256.82"/>
    <polygon class="cls-3" points="217.32 248.49 241.4 338.39 260.82 338.39 236.73 248.49 217.32 248.49"/>
    <polygon class="cls-3" points="241.4 234.15 269.34 338.39 288.75 338.39 260.82 234.15 241.4 234.15"/>
    <polygon class="cls-3" points="287.39 223.59 267.98 223.59 295.91 327.83 315.32 327.83 287.39 223.59"/>
    <path class="cls-3" d="M194.19,248.85l20.8-15.99,1.57,5.87c.26.97,1.05,1.86,2.03,2.28.98.44,2,.33,2.61-.25l22.22-21.24,3.11,2.79c.38.34.88.18.84-.25l-1-8.89c-.03-.31-.34-.58-.65-.59l-9.23-.3c-.45-.01-.56.51-.18.85l2.78,2.49-18.8,17.96-1.44-5.37c-.25-.93-.99-1.79-1.92-2.24-.93-.45-1.92-.41-2.57.08l-24.05,18.49c-.99.76-.91,2.33.16,3.52.69.76,1.63,1.18,2.47,1.18.47,0,.91-.13,1.26-.4Z"/>
  </g>
  <path class="cls-12" d="M188.16,316.08l.82,3.18c-.46-.92-.72-2-.82-3.18Z"/>
  <path class="cls-16" d="M600.92,353.94H198.05l-9.07-34.68c8.35,17.93,76.22-1.69,91.43-12.6,27.81-20.08,28.02-39.85,56.81-53.27,38.98-18.18,77.96,10.3,109.31,2.51,96.15-23.82,175.85-101.73,178.31-104.19-27,62.49-92.77,95.38-42.21,115.87,52.45,21.26,18.29,86.36,18.29,86.36Z"/>
  <g>
    <path class="cls-3" d="M196.76,177.57c-1.16-.71-3.53-1.68-7.09-2.92-1.68-.58-2.86-1.05-3.55-1.42-.88-.47-1.46-1.16-1.73-2.05-.33-1.08-.21-1.91.36-2.5.57-.59,1.39-.89,2.47-.89.74,0,1.75.23,3.03.69,1.29.46,2.17.69,2.64.69.66,0,1.15-.19,1.46-.57.32-.38.38-.9.18-1.55-.24-.78-.85-1.48-1.82-2.08-1.76-1.1-3.96-1.65-6.62-1.65s-4.54.68-5.89,2.05c-1.47,1.47-1.83,3.46-1.06,5.95.82,2.68,2.58,4.7,5.29,6.07,2.4.87,4.79,1.73,7.19,2.6,2.58.95,4.13,2.26,4.64,3.94.35,1.16.23,2.15-.37,2.98-.6.83-1.48,1.24-2.64,1.24-1.08,0-2.17-.16-3.26-.47-.06-.03-.8-.28-2.2-.75-1.03-.37-1.7-.55-1.98-.55-.68,0-1.19.2-1.52.59-.33.39-.39.93-.18,1.62.43,1.4,1.9,2.47,4.42,3.24,1.86.58,3.67.87,5.44.87,2.92,0,5.09-.79,6.5-2.36,1.51-1.68,1.83-3.95.96-6.82-.78-2.55-2.33-4.53-4.66-5.95Z"/>
    <path class="cls-3" d="M209.24,168.19h4.05c2.09,0,2.9-.76,2.44-2.29-.47-1.55-1.78-2.33-3.91-2.33h-12.95c-2.13,0-2.96.78-2.49,2.33.47,1.53,1.75,2.29,3.86,2.29h3.99l6.5,21.28c.66,2.16,1.81,3.24,3.46,3.24s2.22-1.08,1.56-3.24l-6.51-21.28Z"/>
    <path class="cls-3" d="M244.26,188.99l-15.27-22.82c-1.31-1.97-2.85-2.96-4.62-2.96s-2.63,1.07-2.77,3.2l-1.49,22.62c-.03.42.04.89.2,1.42.21.68.61,1.23,1.19,1.64.59.41,1.22.61,1.91.61,1.11,0,1.7-.7,1.78-2.09l.19-4.74h11.63l3,4.61c.95,1.48,2.03,2.22,3.23,2.22.68,0,1.2-.2,1.56-.61.36-.41.44-.94.24-1.6-.13-.42-.39-.92-.77-1.5ZM225.54,181.45l.47-12.16c.02-.18.04-.32.07-.39l8.1,12.55h-8.63Z"/>
    <path class="cls-3" d="M265.02,187.92l-9.61-7.93c5.07-.37,6.86-2.99,5.37-7.86-.86-2.82-2.48-4.97-4.86-6.47-2.19-1.39-4.72-2.09-7.59-2.09h-5.64c-2.08,0-2.78,1.1-2.11,3.28l6.93,22.68c.66,2.16,1.81,3.25,3.46,3.25s2.22-1.07,1.56-3.22l-2.89-9.45.26.2,12.49,10.93c1.18,1.03,2.2,1.54,3.04,1.54.66,0,1.15-.2,1.47-.61.32-.41.39-.94.18-1.6-.26-.84-.95-1.72-2.07-2.64ZM251.93,176.83c-1.53,0-2.65-.08-3.36-.24l-2.59-8.49h3.69c3.12,0,5.11,1.41,5.98,4.24.91,2.99-.32,4.48-3.71,4.48Z"/>
    <path class="cls-3" d="M272.88,168.19h4.05c2.09,0,2.9-.76,2.44-2.29-.47-1.55-1.78-2.33-3.91-2.33h-12.95c-2.13,0-2.96.78-2.49,2.33.47,1.53,1.75,2.29,3.86,2.29h3.99l6.51,21.28c.66,2.16,1.81,3.24,3.46,3.24s2.22-1.08,1.56-3.24l-6.51-21.28Z"/>
    <path class="cls-3" d="M303.42,189.26c-.23-.75-.7-1.39-1.4-1.93-.71-.54-1.43-.81-2.18-.81s-1.31.27-1.68.81c-.38.54-.45,1.18-.22,1.93.23.75.7,1.39,1.4,1.93.71.54,1.43.81,2.18.81s1.31-.27,1.68-.81c.38-.54.45-1.18.22-1.93Z"/>
    <path class="cls-3" d="M300.34,180.34l-4.4-14.4c-.64-2.09-1.77-3.13-3.39-3.13s-2.08,1.04-1.44,3.13l4.4,14.4c.66,2.16,1.8,3.24,3.42,3.24s2.06-1.08,1.4-3.24Z"/>
  </g>
  <path class="cls-3" d="M543.66,353.94h-195.57c8.35-6.86,19.77-18.75,25.82-35.81,10.24-28.79,45.23-16.9,76.12-21.87,30.94-4.97,93.35-67.96,95.48-60.7,1.14,3.89-12.81,55.07,7.68,60.85,20.23,5.69,27.97,37.65-9.53,57.52Z"/>
</svg>