<?xml version="1.0" encoding="UTF-8"?>
<svg id="Layer_1" data-name="Layer 1" xmlns="http://www.w3.org/2000/svg" viewBox="0 0 773.44 751.89">
  <defs>
    <style>
      .cls-1 {
        fill: #231c6a;
      }

      .cls-2 {
        fill: #ffc2d5;
      }

      .cls-3 {
        fill: #020006;
      }

      .cls-4 {
        fill: #afa5ff;
      }

      .cls-5 {
        fill: #f6f6f6;
      }

      .cls-6 {
        fill: #f5a4a7;
      }

      .cls-7 {
        fill: #ffa423;
      }

      .cls-8 {
        fill: #231f20;
      }

      .cls-9 {
        fill: #6f2ef5;
      }

      .cls-10 {
        fill: #f06870;
      }

      .cls-11 {
        fill: #ffa4a4;
      }

      .cls-12 {
        fill: #ffd9e3;
      }
    </style>
  </defs>
  <polygon class="cls-9" points="315.33 307.73 385.37 234.5 341.21 217.4 289.37 282.48 315.33 307.73"/>
  <path class="cls-8" d="M420.3,236.86l1.23-.06c-.18-3.95.71-7.87,2.58-11.35l-1.09-.58c-1.97,3.67-2.91,7.82-2.72,11.99Z"/>
  <g>
    <ellipse class="cls-4" cx="335.72" cy="733.17" rx="335.72" ry="18.71"/>
    <g>
      <g>
        <path class="cls-12" d="M189.95,531.28l19.39,171.8s6.62,2.67,10.49,1.87c3.88-.8,9.93-5.74,9.93-5.74,0,0,26.86-108.94,28.28-141.6,1.01-23.14,5.61-31.47,5.61-31.47l-73.7,5.15Z"/>
        <path class="cls-10" d="M228.35,703.09c.2,0,.39-.13.45-.33,15.54-50.14,26.32-106.6,33.91-177.66.03-.26-.16-.49-.42-.52-.28-.02-.49.16-.52.42-7.58,71-18.35,127.4-33.87,177.48-.08.25.06.51.31.59.05.01.09.02.14.02Z"/>
        <g>
          <polygon class="cls-1" points="230.51 695.58 207.62 693.71 123.54 715.2 124 725.94 232.38 725.01 230.51 695.58"/>
          <path class="cls-8" d="M159.95,707.17l.53-1.11c-10.96-5.18-20.37-13.79-26.5-24.25-1.31-2.24-2.61-4.88-2.25-7.51.18-1.32.79-2.43,1.67-3.04,1.39-.96,3.33-.71,4.86-.38,5.05,1.07,9.57,3.33,13.05,6.54,7.14,6.59,9.78,16.97,11.9,25.32l1.2-.27c-1.16-5.85-2.47-12.49-2.84-19.06-.2-3.57-.19-8.17,1.7-12.08.35-.73,1.66-3.09,3.66-3.09.02,0,.04,0,.05,0,1.21.03,2.39.92,3.51,2.64,3.13,4.81,4.19,11.28,2.92,17.74-1.07,5.42-3.75,11.03-7.97,16.66l.99.74c4.33-5.78,7.09-11.56,8.19-17.16,1.33-6.77.2-13.57-3.1-18.64-1.36-2.09-2.88-3.17-4.52-3.21h-.09c-2.64,0-4.2,2.64-4.76,3.79-2.02,4.17-2.04,8.97-1.83,12.69.15,2.58.44,5.16.8,7.7-1.94-5.39-4.66-10.67-8.99-14.67-3.64-3.36-8.35-5.72-13.62-6.84-1.64-.35-4.02-.67-5.82.58-1.16.81-1.96,2.22-2.19,3.89-.41,3,.99,5.88,2.41,8.3,6.26,10.67,15.86,19.46,27.04,24.74Z"/>
        </g>
      </g>
      <g>
        <g>
          <rect class="cls-1" x="475.94" y="404.44" width="1.23" height="318.68" transform="translate(-97.86 100.1) rotate(-10.88)"/>
          <rect class="cls-1" x="172.67" y="563.17" width="318.68" height="1.23" transform="translate(-284.5 782.85) rotate(-79.07)"/>
        </g>
        <ellipse class="cls-1" cx="394.2" cy="404.63" rx="104.91" ry="14.42"/>
      </g>
      <path class="cls-7" d="M445.84,284.37s19.16,31.6,19.5,64.63c.24,23.51-8.63,42.28-53.02,60.4-30.01,12.25-71.62,16.86-95.44,18.56-10.88.78-19.63,9.26-20.77,20.11l-21.75,205.98-143.92-26.17s59.53-212.93,68.03-225.04c18.51-26.34,247.37-118.48,247.37-118.48Z"/>
      <g>
        <path class="cls-8" d="M331.12,91.77c26.66,22.1,65.95,29.22,99.42,33.22,15.19,1.81,28.5,2.22,43.16-2.12-6.95-8.11-10-18.82-12.03-29.3-2.03-10.49-3.29-21.26-7.44-31.1-8.6-20.38-18.13-32.74-39.56-38.21-6.58-1.68-20.63-1.82-32.51,4.71-12.28,6.75-15.18,20.86-22.68,32.71-7.49,11.84-16.04,23.83-28.57,30.12"/>
        <g>
          <path class="cls-2" d="M383.33,112.66c-1.15-9.41-4.7-21.49-4.7-21.49l32.9-17.29s-3.55,9.82-1.91,22.66c-7.03,7.67-16.25,13.36-26.28,16.12Z"/>
          <path class="cls-12" d="M383.65,119.05c.11-1.8-.03-4.01-.32-6.38,10.04-2.75,19.25-8.44,26.28-16.12.19,1.52.44,3.07.8,4.66,3.35,15.06,16.17,25.09,16.17,25.09l-27.32,51.86-32.52-45.14s16.35-5.05,16.91-13.97Z"/>
        </g>
        <g>
          <path class="cls-2" d="M416.75,81.77c7.22.7,14.64-3.77,17.41-10.47.76-1.84,1.17-4.02.21-5.75-1.07-1.94-3.65-2.71-5.8-2.15s-3.88,2.19-5.1,4.05c-3.03,4.61-3.89,9.58-6.72,14.33Z"/>
          <path class="cls-10" d="M424.36,76.31c.62,0,1.23-.13,1.74-.37,1.21-.55,2.26-1.63,3.21-3.29.07-.12.03-.27-.09-.33-.12-.07-.27-.03-.33.09-.9,1.57-1.88,2.59-2.99,3.09-1.19.54-2.93.48-3.83-.69-.08-.11-.23-.13-.34-.05-.11.08-.13.23-.04.34.65.85,1.67,1.2,2.67,1.2Z"/>
        </g>
        <path class="cls-12" d="M371.04,53.07c-6.4,19.96-2.36,40.22,12.47,44.98,14.83,4.75,34.82-7.81,41.22-27.77,6.4-19.96-.44-39.99-15.26-44.74-14.83-4.75-32.03,7.58-38.42,27.54Z"/>
        <path class="cls-8" d="M408.44,45.39c3.22,6.76,7.99,12.7,13.38,17.89.52.5,1.07,1.01,1.74,1.27,2.37.93,4.6-1.44,6.44-3.2,2.68-2.57,6.16-4.3,9.83-4.88.31-.05-7.62-13.8-8.51-14.96-3.71-4.81-8.13-9.09-13.06-12.64-3.53-2.54-9.72-7.95-13.19-2.9-3.19,4.64,1.28,15.06,3.36,19.41Z"/>
        <path class="cls-8" d="M371.28,48.75c8.98.01,18.07-1.31,26.4-4.83,8.34-3.52,15.9-9.33,20.79-17.11-9-3.73-19.46-3.56-28.45.39-8.99,3.95-16.38,11.67-20.04,20.97-.2.52,1,1.05,1.3.58Z"/>
        <path class="cls-8" d="M367.6,52.25c3.34,2.32,6.8,3.46,10.43,4.1.54.1,1.2.12,1.7-.12.5-.24.9-.75.85-1.3-.03-.35-.2-.69-.45-.95-1.79-1.92-3.93-2.07-7.73-3.87-1.27-.6-3.31-1.66-4.69-1.27-1.88.52-1.41,2.5-.11,3.41Z"/>
        <path class="cls-8" d="M407.72,59.76c-3.91,1.11-7.55,1.06-11.19.49-.54-.09-1.18-.27-1.57-.66-.39-.39-.6-1-.38-1.5.14-.32.42-.58.73-.75,2.32-1.23,4.4-.68,8.57-1.15,1.39-.15,3.67-.49,4.85.32,1.6,1.1.53,2.82-1.01,3.26Z"/>
        <path class="cls-11" d="M368.2,67.74c3.23-.99,5.1,5.12,2,6-.73.24-1.9.3-2.03-.34-.14-.7-.16-3.95.03-5.64"/>
        <path class="cls-11" d="M406.14,73.92c-4.11-3.54-10.57,4.17-6.57,7.46,3.99,3.62,10.62-4.31,6.57-7.46"/>
        <path class="cls-10" d="M380.79,86.02c1.17,0,2.34-.37,3.29-1.06.07-.05.09-.16.04-.23-.05-.07-.16-.09-.23-.04-1.2.88-2.78,1.2-4.24.87-1.45-.33-2.73-1.32-3.43-2.64-.04-.08-.14-.11-.22-.07-.08.04-.11.14-.07.22.74,1.4,2.1,2.45,3.65,2.8.4.09.81.14,1.22.14Z"/>
        <path class="cls-6" d="M380.22,67.35c-1.48,1.97-2.89,4-2.92,6.51-.01,1.02.4,1.89,1.18,2.55,2.24,1.89,4.61-1.34,4.94-2.29.63-1.82,1.47-8.61,1.41-11.55,0-.47-.59-.67-.9-.31-1.29,1.47-2.56,3.55-3.72,5.09"/>
        <path class="cls-3" d="M396.92,65.54c0,1.15.59,2.08,1.32,2.08s1.32-.93,1.32-2.08-.59-2.08-1.32-2.08-1.32.93-1.32,2.08Z"/>
        <ellipse class="cls-3" cx="372.89" cy="59.87" rx="1.32" ry="2.08"/>
        <path class="cls-8" d="M406.75,9.35c2.25-4.37,5.92-8.58,10.8-9.17,6.39-.77,12.03,5.34,12.88,11.72.85,6.38-1.83,12.69-4.97,18.32-2.46,4.41-5.6,8.93-10.4,10.5-16.96,5.55-12.01-24.18-8.31-31.37Z"/>
      </g>
      <polygon class="cls-9" points="543.51 232.7 415.22 162.43 459.65 125.44 560.03 198.03 543.51 232.7"/>
      <path class="cls-9" d="M366.32,133.02c8.18,4.67,13.31,8.84,22.66,7.69,13.25-1.63,27.36-6.64,34.08-18.18,12.76-1.32,27.39-5.5,39.38,5.15-.12,8.08-5.39,20.79-9.38,27.83-4.75,8.37-12.75,14.59-21.57,18.45-8.82,3.86-18.45,5.51-28.04,6.3-25.77,2.12-52.83-2.2-74.22-16.74,6.93-12.17,23.72-26.33,37.09-30.51Z"/>
      <g>
        <path class="cls-12" d="M205.81,443.53l77.88,154.35s7.13.21,10.49-1.89c3.36-2.1,7.32-8.83,7.32-8.83,0,0-12.68-111.49-22.69-142.61-7.1-22.05-5.68-31.46-5.68-31.46l-67.32,30.44Z"/>
        <path class="cls-10" d="M301.35,591.31s.02,0,.03,0c.26-.01.46-.23.44-.49-2.85-52.42-12.36-109.1-29.94-178.37-.06-.25-.32-.4-.57-.34-.25.06-.4.32-.34.57,17.56,69.2,27.07,125.83,29.91,178.19.01.25.22.44.47.44Z"/>
        <g>
          <polygon class="cls-1" points="300.93 583.49 278.82 589.69 207.44 639.06 211.61 648.97 312.91 610.44 300.93 583.49"/>
          <path class="cls-8" d="M238.79,618.88l.11-1.23c-12.08-1.05-23.9-5.86-33.28-13.53-2.01-1.64-4.14-3.67-4.72-6.26-.29-1.3-.11-2.55.51-3.43.97-1.38,2.87-1.82,4.42-2.05,5.11-.76,10.13-.2,14.51,1.6,8.99,3.69,15.07,12.52,19.95,19.61l1.03-.67c-3.12-5.09-6.66-10.86-9.29-16.89-1.43-3.28-3.02-7.59-2.6-11.92.08-.82.49-3.53,2.4-4.19,1.14-.39,2.56.03,4.21,1.26,4.61,3.42,7.85,9.12,8.9,15.61.88,5.46.32,11.65-1.68,18.4l1.18.35c2.05-6.92,2.63-13.3,1.72-18.94-1.1-6.81-4.52-12.79-9.39-16.41-2-1.49-3.8-1.97-5.35-1.43-2.54.88-3.1,3.95-3.23,5.23-.45,4.61,1.21,9.12,2.7,12.53,1.03,2.37,2.2,4.69,3.43,6.94-3.7-4.38-8.08-8.39-13.53-10.63-4.58-1.88-9.82-2.46-15.15-1.68-1.66.24-4,.77-5.25,2.56-.81,1.16-1.07,2.77-.7,4.41.66,2.95,2.97,5.17,5.14,6.95,9.57,7.83,21.63,12.73,33.95,13.8Z"/>
        </g>
      </g>
      <polygon class="cls-9" points="348.6 288.07 446.76 287.1 470.77 156.94 329.53 163.55 348.6 288.07"/>
      <path class="cls-7" d="M366.8,285.36l-130.97-44.53c-27.59-9.38-56.47,10.37-57.72,39.49l-4.36,267.63,169.83,19.86s-19.08-95.02-27.81-125.14c-6.83-23.56-31.78-89.39-31.78-89.39l68.49-30.41,94.28-35.77-79.96-1.74Z"/>
      <path class="cls-8" d="M341.92,566.97l1.2-.29c-3.91-16.32-7.48-32.77-10.93-48.69-12.17-56.08-23.67-109.05-50.05-164.18l-1.11.53c26.32,55,37.8,107.9,49.96,163.91,3.46,15.92,7.03,32.38,10.94,48.71Z"/>
      <path class="cls-8" d="M282.05,355.5c16.64-6.79,69.14-30.42,77.65-36.21l-.69-1.02c-8.27,5.63-61.28,29.5-77.42,36.09l.46,1.14Z"/>
      <polygon class="cls-8" points="291.61 560.84 291.74 559.62 174.37 547.39 179.05 275.98 177.82 275.95 173.12 548.5 291.61 560.84"/>
      <path class="cls-8" d="M301.96,522.36l1.22-.18c-6.94-47.77-23.35-94.9-39.23-140.47-5.07-14.56-10.32-29.62-15.16-44.44-2.16-6.62-.5-13.48,4.44-18.36,4.91-4.84,12.03-6.46,18.59-4.22,14.59,4.99,29,10.96,42.82,17.74l.54-1.11c-13.87-6.81-28.33-12.8-42.97-17.8-7-2.39-14.61-.67-19.85,4.51-5.28,5.21-7.06,12.55-4.75,19.62,4.85,14.83,10.09,29.89,15.17,44.46,15.86,45.52,32.25,92.59,39.17,140.24Z"/>
      <g>
        <polygon class="cls-5" points="624.88 139.19 361.27 214.01 445.2 438.93 691.94 347.31 624.88 139.19"/>
        <path class="cls-4" d="M652.32,321.14s-53.24-75.69-99.13-59.23c-45.89,16.46-15.57,50.11-43.93,48.02-28.36-2.1-54.74-41.07-66.61-29.37-11.86,11.7,20.83,122.78,20.83,122.78l188.83-82.2Z"/>
        <path class="cls-7" d="M584.97,188.25c-2.78-10.48-13.54-16.72-24.02-13.94-10.48,2.78-16.72,13.54-13.94,24.02,2.78,10.48,13.54,16.72,24.02,13.94,10.48-2.78,16.72-13.54,13.94-24.02Z"/>
      </g>
      <g>
        <path class="cls-12" d="M521.15,330.71s-34.55,63.36-41.07,70.58c-6.52,7.22-13.36,12.52-20.28,12.59-6.93.06-8.86-.93-8.86-.93,0,0-3.34,1.26-6.4.32-3.06-.95-7.24-4.84-7.24-4.84,0,0-3.31,1.08-7.45-1.69-4.14-2.77-4.2-5.2-4.14-5.76.07-.55,6.15-2.78,7.18-3.58,1.04-.8,16.73-22.94,17.81-27.11,1.09-4.16-1.42-3.54-1.42-3.54,0,0-14.77,20.76-18.02,22.78-3.25,2.02-7.1,1.53-8.17,1.03-1.44-.68-2.92-4.23-.66-8.81,2.26-4.58,10.42-18.19,15.22-23.57,4.79-5.38,20.83-20.13,29.68-28.22,9.39-8.59,21.84-22.65,21.84-22.65l31.98,23.41Z"/>
        <path class="cls-10" d="M457.01,414.8s.04,0,.06,0c6.98-1.42,12.06-6.91,15.1-11.27,1.45-2.08,2.74-4.29,3.84-6.58.08-.16.01-.34-.15-.42-.15-.07-.34-.01-.42.15-1.09,2.26-2.36,4.44-3.79,6.49-2.97,4.27-7.94,9.64-14.71,11.02-.17.03-.28.2-.24.37.03.15.16.25.31.25Z"/>
        <path class="cls-10" d="M444.94,413.23h.01c4.94-.21,9.9-2.54,13.97-6.57,3.27-3.24,5.98-7.56,8.29-13.19.07-.16-.01-.34-.17-.41-.16-.06-.34.01-.41.17-2.28,5.55-4.95,9.8-8.16,12.98-3.95,3.92-8.76,6.18-13.55,6.38-.17,0-.31.15-.3.33,0,.17.15.3.31.3Z"/>
        <path class="cls-10" d="M435.16,407.16c3.58,0,7.34-1.21,10.56-3.56,4.2-3.07,7.59-7.9,10.36-14.75.06-.16-.01-.34-.17-.41-.16-.06-.34.01-.41.17-2.72,6.74-6.04,11.47-10.15,14.48-4.33,3.16-11.16,4.95-16.66,1.81-.15-.09-.34-.04-.43.12-.09.15-.03.34.12.43,2.02,1.15,4.36,1.71,6.79,1.71Z"/>
        <path class="cls-10" d="M425.06,391.08h0c4.71-.02,8.26-3.91,11.22-7.56l13.91-17.14c.11-.13.09-.33-.05-.44s-.33-.09-.44.05l-13.91,17.14c-2.87,3.54-6.31,7.31-10.74,7.33-.17,0-.31.14-.31.31s.14.31.31.31Z"/>
        <path class="cls-10" d="M424.39,388.82c.16,0,.32-.02.49-.05.69-.14,1.29-.53,1.77-.89,1.73-1.29,3.14-3,4.09-4.94,1.03-2.11.89-4.52-.32-5.5-.56-.46-1.82-.98-3.97.68-2.48,1.92-4.05,5.06-4.09,8.2,0,.59.05,1.33.51,1.87.36.41.91.64,1.52.64ZM429.11,377.6c.35,0,.66.1.92.31.97.79,1.04,2.92.15,4.75h0c-.9,1.85-2.25,3.48-3.9,4.71-.43.32-.95.67-1.52.78-.55.11-1.11-.04-1.41-.39-.33-.38-.37-.97-.36-1.45.04-2.95,1.51-5.91,3.85-7.71.86-.66,1.64-1,2.27-1Z"/>
      </g>
      <path class="cls-9" d="M471.74,322.96l39.65-59.43,12.93-21.86-99.12-59.26,47.63-47.14,117.01,84.76c10.75,7.19,10.89,19.51,4.36,30.95l-83.87,104.34-38.58-32.37Z"/>
      <rect class="cls-8" x="497.63" y="294.25" width="1.23" height="74.22" transform="translate(-77.15 495.6) rotate(-49.56)"/>
      <rect class="cls-8" x="495.55" y="296.48" width="1.23" height="39.04" transform="translate(-58.69 511.38) rotate(-51.89)"/>
    </g>
    <path class="cls-8" d="M341.46,322.56c2.41-5.35,3-11.44,1.64-17.15l-1.2.28c1.29,5.45.73,11.26-1.57,16.36l1.12.51Z"/>
    <path class="cls-8" d="M329.84,330.29c5.39-11.55,5.89-25.01,1.37-36.93l-1.15.44c4.34,11.44,3.84,24.88-1.33,35.97l1.12.52Z"/>
  </g>
  <path class="cls-1" d="M18.04,529.54c-4.55,4.55-4.55,11.92,0,16.47,4.55,4.55,11.92,4.55,16.47,0,4.55-4.55,4.55-11.92,0-16.47-4.55-4.55-11.92-4.55-16.47,0Z"/>
  <path class="cls-1" d="M521.35,441.69c-4.55,4.55-4.55,11.92,0,16.47,4.55,4.55,11.92,4.55,16.47,0,4.55-4.55,4.55-11.92,0-16.47-4.55-4.55-11.92-4.55-16.47,0Z"/>
  <path class="cls-9" d="M659.9,447.29c62.71,0,113.55,50.84,113.55,113.55s-50.84,113.55-113.55,113.55-113.55-50.84-113.55-113.55,50.84-113.55,113.55-113.55ZM659.9,612.99c28.8,0,52.15-23.35,52.15-52.15s-23.35-52.15-52.15-52.15-52.15,23.35-52.15,52.15,23.35,52.15,52.15,52.15Z"/>
</svg>