<?xml version="1.0" encoding="UTF-8"?>
<svg id="Layer_1" data-name="Layer 1" xmlns="http://www.w3.org/2000/svg" viewBox="0 0 905 801.58">
  <defs>
    <style>
      .cls-1 {
        fill: #6e51d6;
      }

      .cls-2 {
        fill: #231c6a;
      }

      .cls-3 {
        fill: #f3f1fc;
      }

      .cls-4 {
        fill: #bbbbea;
      }

      .cls-5 {
        fill: #afa5ff;
      }

      .cls-6 {
        fill: #8383ea;
      }

      .cls-7 {
        fill: #e9e7fc;
      }

      .cls-8 {
        fill: #fff;
      }

      .cls-9 {
        fill: #7466d1;
      }

      .cls-10 {
        fill: #c9c9f7;
      }

      .cls-11 {
        fill: #a9a9ff;
      }

      .cls-12 {
        fill: #d7d7ff;
      }

      .cls-13 {
        fill: #9595f9;
      }

      .cls-14 {
        fill: #7f6ae2;
      }
    </style>
  </defs>
  <path class="cls-1" d="M836.8,674.69c-293.68,198.38-753.09,177-779.37-155.68-7.94-100.56-98.59-94.16-34.85-267.2C58.07,155.45,154.14,113.63,208.46,101.11,260.4,89.14,278.77,0,412.01,0c148.47,0,248.51,47.27,280.32,115.6,39.17,84.12,10.47,84.17,133.93,215.12,123.42,130.98,81.83,295.81,10.54,343.97Z"/>
  <path class="cls-14" d="M833.82,615.57c-24.36,13.95-24.76,33.7-9.72,44.55,6.8,4.91,3,14.56-5.79,14.56,0,0-539.95,196.31-756.17,0-34.56-31.38-30.82-65.05-18.28-85.62,14.42-23.65,41.39-33.33,59.55-32.62,66.62,2.58,77.13-7.56,121.97-27.96,44.84-20.42,90.76,3.92,138.82-8.59,89.36-23.26,185.01,72.1,264.5,51.42,6.07-1.58-.59-17.65,5.64-18.2,10.23-.92,19.97-1.32,29.25-1.32,71.94,0,130.69,25.46,169.83,46,7.59,3.97,7.8,13.54.4,17.77Z"/>
  <g>
    <ellipse class="cls-9" cx="256.81" cy="644.86" rx="150.18" ry="17.98"/>
    <ellipse class="cls-9" cx="338.15" cy="663.2" rx="130.08" ry="15.57"/>
    <ellipse class="cls-11" cx="468.23" cy="628.36" rx="124.98" ry="14.96"/>
    <ellipse class="cls-9" cx="578.2" cy="648.24" rx="189.3" ry="22.66"/>
  </g>
  <g>
    <g>
      <g>
        <g>
          <g>
            <g>
              <path class="cls-5" d="M331.01,186.19c31.2,16.47,122.92,60.62,122.92,60.62l2.1-2.1c6.5,0,13.56-13.5,13.56-13.5,0,0-.05-.05-.05-.15-2.15-5.32-71.31-177.15-80.57-190.5-9.16-13.2-13.3-27.16-32.18-21.64,0,0-.15,0-.41.1-.26.1-.56.15-.87.31-.05,0-.1,0-.15.05h-.1c-20.21,6.75-93.66,83.84-98.37,102.67s42.92,47.68,74.12,64.15Z"/>
              <path class="cls-2" d="M359.25,42.14c13.66,21.59,106.91,183.13,110.29,188.91-2.15-5.32-71.31-177.15-80.57-190.5-9.16-13.2-13.3-27.16-32.18-21.64,0,0-.15,0-.41.1-.26.1-.56.15-.87.31-.05,0-.1,0-.15.05-2.56,1.23-6.8,5.88,3.89,22.76Z"/>
              <path class="cls-5" d="M491.33,231.05l19.95,17.9s165.07-24.45,183.59-46.5c18.57-22.05-37.6-129.62-75.25-131.47-37.65-1.89-128.29,160.06-128.29,160.06Z"/>
              <path class="cls-2" d="M511.28,248.95s165.07-24.45,183.59-46.5c0,0,1.79-25.94-32.07-22.05-33.81,3.89-151.52,68.55-151.52,68.55Z"/>
            </g>
            <g>
              <path class="cls-13" d="M717.54,320v315.7c0,7.06-5.74,12.8-12.82,12.8h-341.57v-328.5h354.39Z"/>
              <path class="cls-6" d="M363.15,320v328.5h-122.44c-7.08,0-12.82-5.74-12.82-12.8v-315.7h135.27Z"/>
              <path class="cls-12" d="M293.72,648.49h-11.12c-7.06,0-12.8-5.74-12.8-12.8v-315.71h11.09v315.71c0,7.06,5.74,12.8,12.83,12.8Z"/>
              <path class="cls-12" d="M357.51,253.52v66.47h366.85c3.83,0,6.93-3.1,6.93-6.93v-52.61c0-3.83-3.1-6.93-6.93-6.93h-366.85Z"/>
              <path class="cls-10" d="M215.97,260.45v52.61c0,3.83,3.1,6.93,6.93,6.93h134.61v-66.47h-134.61c-3.83,0-6.93,3.1-6.93,6.93Z"/>
            </g>
          </g>
          <rect class="cls-3" x="525.17" y="253.52" width="38.45" height="66.48"/>
          <rect class="cls-7" x="521.11" y="320" width="38.45" height="328.5"/>
          <rect class="cls-7" x="363.08" y="465.02" width="354.46" height="38.45"/>
          <rect class="cls-12" x="227.88" y="465.02" width="135.2" height="38.45"/>
        </g>
        <g>
          <path class="cls-2" d="M453.72,247.7s-84.07-53.62-223.95-38.31l18.26,13.96-8.59,21.48s136.65-27.38,209.41,5.1l4.88-2.23Z"/>
          <g>
            <path class="cls-3" d="M646.25,443.08v-65.43c0-1.29-.47-2.54-1.33-3.51l-22.61-25.54c-2.11-2.38-5.82-2.38-7.93,0l-22.61,25.54c-.86.97-1.33,2.22-1.33,3.51v65.43c0,2.92,2.37,5.29,5.29,5.29h45.22c2.92,0,5.29-2.37,5.29-5.29Z"/>
            <path class="cls-12" d="M623.19,364.02c0,2.68-2.17,4.85-4.85,4.85s-4.85-2.17-4.85-4.85,2.17-4.85,4.85-4.85,4.85,2.17,4.85,4.85Z"/>
            <path class="cls-13" d="M621.83,364.02c0,1.93-1.56,3.49-3.49,3.49s-3.48-1.56-3.48-3.49,1.56-3.48,3.48-3.48,3.49,1.56,3.49,3.48Z"/>
          </g>
          <path class="cls-8" d="M618.34,365.51c-.64,0-1.15-.52-1.15-1.15v-111.84c0-.64.52-1.15,1.15-1.15s1.15.52,1.15,1.15v111.84c0,.64-.52,1.15-1.15,1.15Z"/>
          <path class="cls-2" d="M489.55,253.75s176.76-42.84,169.87,109.8l22.03-14.05,18.87,7.52s-11.25-161.89-210.77-103.27Z"/>
        </g>
      </g>
      <path class="cls-2" d="M512.73,253.52h-67.72c0-14.41,15.16-26.08,33.86-26.08s33.86,11.67,33.86,26.08Z"/>
    </g>
    <g>
      <g>
        <g>
          <g>
            <g>
              <path class="cls-12" d="M196.71,422.1c15.28,8.07,60.2,29.69,60.2,29.69l1.03-1.03c3.18,0,6.64-6.61,6.64-6.61,0,0-.03-.02-.03-.08-1.05-2.61-34.92-86.75-39.45-93.29-4.48-6.46-6.51-13.3-15.76-10.6,0,0-.08,0-.2.05s-.28.08-.43.15c-.03,0-.05,0-.08.03h-.05c-9.89,3.31-45.87,41.06-48.17,50.28-2.3,9.22,21.02,23.35,36.3,31.41Z"/>
              <path class="cls-4" d="M210.53,351.55c6.69,10.57,52.36,89.68,54.01,92.51-1.05-2.61-34.92-86.75-39.45-93.29-4.48-6.46-6.51-13.3-15.76-10.6,0,0-.08,0-.2.05s-.28.08-.43.15c-.03,0-.05,0-.08.03-1.25.6-3.33,2.88,1.9,11.15Z"/>
              <path class="cls-12" d="M275.22,444.07l9.77,8.77s80.84-11.97,89.91-22.77c9.09-10.8-18.41-63.48-36.85-64.38-18.44-.93-62.83,78.38-62.83,78.38Z"/>
              <path class="cls-4" d="M284.99,452.83s80.84-11.97,89.91-22.77c0,0,.88-12.7-15.71-10.8-16.56,1.9-74.2,33.57-74.2,33.57Z"/>
            </g>
            <g>
              <path class="cls-10" d="M385.99,487.62v154.6c0,3.46-2.81,6.27-6.28,6.27h-167.27v-160.87h173.55Z"/>
              <path class="cls-4" d="M212.44,487.62v160.87h-59.96c-3.47,0-6.28-2.81-6.28-6.27v-154.6h66.24Z"/>
              <path class="cls-12" d="M178.44,648.49h-5.45c-3.46,0-6.27-2.81-6.27-6.27v-154.61h5.43v154.61c0,3.46,2.81,6.27,6.28,6.27Z"/>
              <path class="cls-12" d="M209.68,455.07v32.55h179.65c1.87,0,3.39-1.52,3.39-3.39v-25.76c0-1.87-1.52-3.39-3.39-3.39h-179.65Z"/>
              <path class="cls-10" d="M140.37,458.46v25.76c0,1.87,1.52,3.39,3.39,3.39h65.92v-32.55h-65.92c-1.87,0-3.39,1.52-3.39,3.39Z"/>
            </g>
          </g>
          <rect class="cls-3" x="291.79" y="455.07" width="18.83" height="32.55"/>
          <rect class="cls-7" x="289.8" y="487.62" width="18.83" height="160.87"/>
          <rect class="cls-7" x="212.41" y="558.64" width="173.58" height="18.83"/>
          <rect class="cls-12" x="146.2" y="558.64" width="66.21" height="18.83"/>
        </g>
        <g>
          <path class="cls-4" d="M256.8,452.22s-41.17-26.26-109.67-18.76l8.94,6.84-4.21,10.52s66.92-13.41,102.55,2.5l2.39-1.09Z"/>
          <path class="cls-4" d="M274.34,455.18s86.56-20.98,83.19,53.77l10.79-6.88,9.24,3.68s-5.51-79.28-103.22-50.57Z"/>
        </g>
      </g>
      <path class="cls-4" d="M285.7,455.07h-33.17c0-7.06,7.42-12.77,16.58-12.77s16.58,5.71,16.58,12.77Z"/>
    </g>
    <path class="cls-13" d="M631.59,412.03l-10.96,10.96c-.78.75-2,.75-2.75,0l-10.96-10.96c-3.04-3.04-3.53-7.99-.8-11.29,3.15-3.79,8.79-3.99,12.18-.6.35.36.67.75.95,1.15.27-.4.6-.8.95-1.15,3.39-3.39,9.03-3.19,12.16.6,2.75,3.31,2.26,8.25-.78,11.29Z"/>
  </g>
</svg>