<?xml version="1.0" encoding="UTF-8"?>
<svg id="Layer_1" data-name="Layer 1" xmlns="http://www.w3.org/2000/svg" viewBox="0 0 500 364">
  <defs>
    <style>
      .cls-1 {
        fill: #999;
      }

      .cls-1, .cls-2, .cls-3 {
        fill-rule: evenodd;
      }

      .cls-2, .cls-4 {
        fill: #e6e6e6;
      }

      .cls-3 {
        fill: #b3b3b3;
      }
    </style>
  </defs>
  <path class="cls-1" d="M313,355.55h-125.99c-1.17,0-2.21.48-2.98,1.24-.76.77-1.24,1.83-1.24,2.99,0,2.32,1.9,4.22,4.23,4.22h125.98c2.32,0,4.22-1.9,4.22-4.22s-1.9-4.23-4.22-4.23ZM307.62,322.95h-115.25c-1.16,0-2.22.48-2.98,1.24-.77.76-1.25,1.83-1.25,2.98,0,2.33,1.91,4.23,4.23,4.23v20.02h115.25v-20.02c2.33,0,4.23-1.9,4.23-4.23s-1.9-4.22-4.23-4.22ZM311.68,156.17c0-.18-.08-.4-.24-.7-.34-.6-.28-.88-1.47-2.06-.06-.06-.12-.1-.18-.14l-14.17-8.01c-.1-.06-.22-.12-.35-.13-.38-.06-.73.17-.84.52,0,0-.04.16-.06.29l-.36,2.64-.41-.48c-.05-.06-.12-.13-.19-.18-.33-.22-.77-.15-1.02.15-.06.06.05-.08-.26.37l-4.03,6.15c-.69-.55-1.8-1.35-2.72-2.01-1.75-1.27-3.19-2.39-4.57-4.1-.28-.35-.53-.68-.73-.98-.64-1.38-1.18-2.77-1.25-3.66-1.3-4.3-.82-9.45-4.33-12.86-1.28-1.24-5.55-5.08-7.16-5.35-.17-.13-.41-.24-.7-.35.64-1.31-2.48-4.77-3.03-7.42-.25-1.18-1.35-2.11.11-2.81,2.92-1.4.85-5.69-.24-8.1-.51-1.12-1.18-.84-1.03-2.04.06-.5.26-1.08.82-1.13.87-.08,1.34-1.55.49-2.46-.24-.27-.57-.57-.85-.9-.38-.44.52-1.77.21-3.58.07-.12.15-.24.21-.36l13.67-1.05c.17,0,.28-.14.29-.3,0-.17-.13-.29-.28-.31l-12.62-1.28c.08-.46.12-.94.12-1.4,0-.59-.06-1.16-.17-1.72l9.72-4.68c.14-.07.21-.24.16-.39-.05-.15-.2-.24-.36-.2l-10.72,2.29c-.76-1.22-1.8-2.32-3.07-3.25-.11-.07-.22-.16-.33-.23l6.66-8.08c.1-.13.1-.3-.02-.41-.11-.12-.29-.13-.42-.03l-8.73,7.11c-1.93-.85-4.14-1.39-6.51-1.51l-2.07-10.91c-.03-.17-.17-.28-.34-.26-.16.02-.28.15-.28.31l.06,10.89c-2.64.2-5.08.92-7.12,2.02l-9.94-6.87c-.14-.09-.31-.06-.42.06-.1.13-.09.31.03.42l7.96,7.97c-1.32,1.1-2.36,2.4-3.02,3.83l-10.88.16c-.06-.96-.06-2-.06-3.1s-.07-2.34-.39-3.48h0c-.88-9.62-4.87-19.35-5.17-21.63-.88-6.63,1.36-10.9.49-16.03-.39-2.27-4.51-6.36-3.29-8.15,1.08-.84,1.82-2.09,1.94-3.53h1.34c2.1,0,3.82-1.73,3.82-3.83,0-.66-.17-1.28-.46-1.82-.35-1.02-1.47-1.75-1.2-2.87.13-.53.66-.67,1.08-1.25.36-.49.81-1.93.17-2.33-.56-.36-1.09.86-2.18.69-.31-.66-.05-1.08-.24-1.31-.85-1.04-1.29,1.46-2.41.83-.44-.25.13-1.64-.75-1.53-.54.06-1.28,1.05-1.69.8-.21-.13-.6-.66-.04-1.58.62-1,2.01-1.64,2.3-2.39,1.4-3.47-1.01-4.66,1.19-8.03,1.31-2.01.39-7.69-.44-8.07-.4-.18-1.25,0-1.51.77-.28.85-.42,2.13-.54,3.39-.04.79-.67.86-.84.72-.28-.21-.54-.85-.78-1.42-.32-.77-1.08-2.46-2.16-1.5-.78.64-.74,1.91-.7,3.21.03,1.03.38,2.61-1.02,2.1-.47-.17-.75-.64-1-1.06-.34-.57-.65-1.09-1.33-1.33-.19-.05-.76-.17-.99.49-.03.07-.04.16-.04.23-.03.41.06.75.16,1.14.13.48.28,1.06.1,1.94-.17.85-.51,1.62-.84,2.34-.75,1.71-1.41,3.22-.27,5.53.32.64.52.84.67.98.03.03.89,1.96.92,2.16-.75.06-.49.83-.9.89-.55.11-.73-.46-1.14-.68-.44-.23-.84-.26-1.16.58-.03.08-.1.15-.19.18-.08.03-.17.02-.26-.03-.35-.2-.79-.5-.95-.5-1.39-.06-.56,1.6-2.54.5-.1-.06-.34-.09-.43-.03-1.23.79-.59,1.77.26,2.37.17.13.28.28.34.48.13.39.23.8.2,1.19,0,.19-.06.39-.14.61-.07.17-.19.31-.35.42-1.08.7-1.74,1.9-1.74,3.2,0,1.71,1.13,3.16,2.67,3.65.85.36,1.76.35,2.52.49.17,1.04.63,1.97,1.33,2.7l-.05-.02c.36.86.32,1.51-.12,2.01h0c-.25.2-.49.45-.52.71-.28,1.41-.08,2.03.22,2.34-.91,1.64.16,2.53.06,2.94-.36.76-.96,2.07-.96,2.71,0,1,.59,2.25,1.2,3.53,1.56,3.28,1.04,3.74,1,3.86-.06.2-.12.55-.04.73.16.4.36.48.54.62l-.18.43c-.06.11-.18.4-.18.43-.06.25,0,.51.17.71.82,1.13,1.39,3.05,1.73,5.13.43,2.63.49,5.5.25,7.42-.41,3.25-.31,7.42.2,11.48.5,3.99,1.4,7.89,2.6,10.73.36.84.82,2.98,1.29,5.64-.35.42-.8,1.32-1.25,2.37-1.51,3.48-2.79,5.87-4.22,9.05-.28.62-.63,1.49-.93,2.32-.22.63-.4,1.28-.5,1.83-.07.5-.04,4.03.65,6.96.28,1.2.68,2.33,1.23,3.17.47.71,1.09,1.29,1.96,1.45.6.11,1.2.18,1.74.24.64.06,1.17.42,1.47,1,.29.58.28,1.21-.03,1.77-.5.89-1.09,1.84-1.21,2.81-.16,1.29,1.06,2.23,2.25,1.51.89-.54,1.28,3.27,2.6,3.54.14.38-.3,4.31.09,5.23.07.74.58.73,1.07.62.17.43-1.91,3.36-2.12,5.1-.07.59-.58,3.9,1.06,3.6.09,0,1.78,3.22,2.3,4,.39.58.9.91,1.52,1.35-.28,1.01-.25,2.06.11,3.02l-.45,1.88c-.25,1.06-9.19,19.42-8.34,21.52.03.06.05.11.09.16.55.96,1.26,2.18,2.12,3.27,1.81,2.27,5.34,3.08,5.28,5.51-.04,1.24-.77,2.82-1.87,4.84-1.7,3.15-2.58,5.73-2.64,8.22-.06,2.52.73,4.88,2.32,7.58.02.02-.02.11-.06.24-.32.93-.88,2.54,2.37,8.01.89,1.51.51,4.32.54,7.07.04,3.57.24,7.11-.44,9.02-1.66,4.68-1.34,9.94-1.13,13.27.08,1.3.14,2.29.06,2.71l-.26,1.25c-2.87,13.98.44,24.72-.47,30.16-.1.61-.3,1.17-.59,1.66-.07.13-.11.27-.11.39,0,.16.05.31.14.44.67,1.18,1.47,3.08,1.75,4.87.19,1.19-.03,1.73-.11,2.2-.17.94-.46,1.16-.45,3.04,0,.52,0-.26,0,.81.05,3.02-.31,6.41-5.96,7.67-.46.1-.6.14-.66.17-.46.28-.81,1.29-.56,1.97.04.1.1.18.17.26h-13.84c-.64,0-1.17.52-1.17,1.18v13.2c0,.64.52,1.17,1.17,1.17h104.01c.64,0,1.17-.52,1.17-1.17v-13.2c0-.65-.52-1.18-1.17-1.18h-15.97c-.03-.1-.06-.2-.12-.32-2.99-6.08-2.7-15.06-2.41-24.24.04-1.03.06-2.07.09-3.09,1.5-1.09,2.62-2.93,2.62-4.79,0-1.62-.66-6.51-.66-9.07,0-3.13-.61-3.77-.63-6.08.51-.18,1.34-.14,1.63-.75-.05-.07-.77-2.82-.63-3.21,1.7-.59,2.16,0,1.31-4.17-1.21-5.94,2.82-2.67,2.08-6.7-.14-1.6-.24-3-.33-4.35-.3-4.29-.57-8.02-1.63-13.26-.93-4.57-1.43-8.94-1.7-13.37-.12-2.01-.19-4.05-.23-6.13.74-.54,1.9-2.14,2.87-2.46,1.76-.57,3.2.02,4.29-.75,4.21-2.95,4.89-15.88,4.69-21.25,1.22.07,2.54-.03,2.59-.05.74-.29,3.35-3.25,3.73-3.8,1.24-1.86,5.54-8.49,5.67-9.33.32-1.94-.62-2.97-1.38-4.36-.52-.97,3.2-5.03,3.09-5.61-.05-.2-1.2-.99-1.35-.99.34-.61,1.82-1.12,2.06-1.98ZM284.14,154.2c0-.12.06-.22.17-.28.11-.05.23-.04.33.03.95.69,1.22,1.06,1.62,1.35.77.58.61.66-.05,1.24-.56.5-1.09,1.43-2.06,3.28-.73,1.4-1.49,2.83-3.01,3.28l-.12-.75c.31-.2.62-.49.89-.84.83-1.07,1.53-2.89,1.91-4.7.18-.88.29-1.78.32-2.6ZM284.61,163.2c-.69,2.58-1.75,4.34-2.53,5.6-.21-1.29-.42-2.59-.63-3.87l-.05-.28c1.19-.29,2.02-.93,2.67-1.73.09-.12.25-.15.39-.08.13.07.19.21.16.36ZM279.85,150.67c.36-.18.77-.13,1.07.15,1.48,1.4,2.1,2.22,1.38,5.66-.33,1.58-.91,3.12-1.58,4.02-.49-3-.95-5.98-1.37-8.87-.06-.4.14-.78.5-.96ZM265.3,130.87c.47-.08.9.03,1.27.33.59.49,1.24,1.06,1.84,1.61-.08,2.34,1.29,8.13-2.28,8.17-4.39.05-2.56,6.15-2.56,11.58,0,.87.59,3.26,1.54,1.4.8-.84,1.51-11,2.04-7.51.22,1.5.94.76,1,.34.06-.02.26-.37.48-.82.14-.26.42-.39.71-.32.28.06.48.31.48.61,0,2.02-.04,2.49-.69,5.64-.15.73-.31,1.34-.31,2.16,1.34.33,1.71-2.34,2.41-2.04.28.12.72,1.08.87,2.06.07.44.72,4.4,1.52,7.78-.23-.41-.47-.89-.72-1.48-1.5-3.52-5.65-4.01-7.76-2.29-2.01,1.64-2.19,5.21.76,5.81,2.44.5,2.23,4.64,1.82,6.66-1.17,5.7-2.82,5.89-7.13,9.12-1.46,1.08-2.38,2.03-2.94,2.9-.14-7.81-.22-14.93.11-17.57.43-3.52.81-7.84,1.03-12.62.19-4,.28-8.31.19-12.73,1.58-2.24,3.97-5.86,5.24-8.03.24-.41.61-.66,1.07-.74ZM275.64,203.33c-.07,1.81,3.31,16.33,3.74,17.07.61,4.42,1.59,10.35,2.48,15.39.25,1.43-.39,2.8-1.66,3.52-2.58,1.45-5.4,4.17-5.96,4.46-1.1.59-1.15.6-2.05,1.1-2.29,1.28-2.91,1.76-3.28-1.63-1.37-12.38-3.54-57.17-5.26-56.57-3.15,1.09-.28,51.93-.7,63.1-.06,1.65-2.58,2.4-3.15,2.66-1.07.5-2.06,1.31-3.34,2.07-4.34,2.58.43-36.56.75-40.77.21-1.51.34-3.37.43-4.92.07-.62.13-1.42.17-2.38.02-.15.03-.28.05-.39l-.03.04c.1-3.12.07-7.72,0-12.75.17.75.73-6.77.95-7.15,2.05-4.61,3.02-.58,4.32-1.4.35-.21.28-2.63.54-3.08,2.35-3.97,3.88-2.26,4.77-4.97,1.12-3.41,1.63-3.76,1.76-4.88.03-.28.24-.5.52-.55s.55.1.67.37c1.35,3.12,3.77,9.78,3.77,11.83,0,3.21-.86,7.85-.83,9.33.07,3.77,1.38,8.96,1.31,10.48ZM282.48,306.3h-4.66c-1.2-4.31-2.57-14.15-1.96-23.14.63-9.56.46-18.81,4.7-15.17,1.11.95,1.46,4.53,1.56,7.43-.03,2.07-.1,4.18-.17,6.27-.29,9.1-2.24,18.21.52,24.62ZM269.12,295.62c.95,10.95-1.59,10.03-2.17,10.69h-15.11c-.22-.71-2.31-2.76.32-5.1.89-2.41,8.89-.98,10.21-1,1.96-.04,2.39-1.91,2.31-4.39-.1-3.05-.28-4.54.06-7.19.55-4.39.95-9.38,1.14-11.02.21-1.76.09-15.09,3.68-13.71,1.38-.04.95,10.15.84,11.58-.38,4.58-1.58,16.58-1.28,20.15ZM222.5,222.79c0-10.78,3.45-13.73,7.3-23.41,1.21-3.01,3.55-10.44,3.7-10.68,1.56-4.08,3.78-9.42,6.02-14.51.02-.04,9.97-22.59,12.09-26.58.07-.1.19-.25.35-.42.3-.32.76-.39,1.14-.18.38.2.57.62.47,1.05-.69,2.74-1.24,5.3-2.18,7.86-1.07,2.97-2.2,6.06-3.51,9.55-.15.4.06.84.46,1,.4.15.85-.06,1-.46.5-1.32.95-2.56,1.39-3.73.17-.48.68-.73,1.16-.57.48.15.75.64.62,1.12-.95,3.62-1.96,7.44-2.98,11.24-3.72,13.91-7.43,27.77-7.31,32.52l-.08.39h0s0,.05,0,.06c-.38,1.62-1.45,6.43-1.55,7.48-.04.42.28.8.7.84.43.04.81-.28.85-.71.19-2.02,1.17-4.26,1.69-7.05,1.88-10.19,4.81-24.12,6.09-28.91.4-1.51,1.84-2.48,3.4-2.29,1.55.19,2.71,1.49,2.74,3.05.04,2.21.07,4.52.12,6.83.15,8.19.39,13.71.16,18-.04.72-1.36,5.22-1.83,5.76-9.3,10.83-15.63,14.61-18.38,22.58-.5,1.42-3.74,5.7-7.24,9.68-.76.85-1.83,1.22-2.95.99-1.12-.22-1.97-.96-2.35-2.04-1.29-3.77-1.83-4.58-1.17-9.78.04-.16.05-.28.06-.37.17-1.45.27-3.02.27-4.56v-.37c0-1.17-.08-2.32-.23-3.4ZM230.57,278.76c.62-.85,3.86-18.24,7.91-22.81.5-1.37,1.4-3.13,1.76-4.17,2.54-7.36,3.31-8.92,4.92-16.86,1-4.95,4.7-13.36,9.25-17.08-1.25,9.2-2.94,41.59-3.19,52.05-2.26.99-4.77,2.07-7.24,3.48-2.54,1.46-5.27,2.31-6.61,3.64-.66.66-1.18,1.32-1.58,1.96-1.49,1.91-.48,2.83-3.76,5.54-.2.17-.96.86-1,1.04-.04,0-2.01,1.71-3.25,2.42,1-4.14,1.76-7.74,2.8-9.21ZM263.76,129.41c.21.09.35.28.37.5.04.23-.06.43-.24.57-3.15,2.43-11.73,11.56-12.69,13.34l-.3.29c-1.83,1.74-7.7,7.67-9.77,9.74-1.24,1.24-8.43,7.78-9.51,8.23-1.58-1.82,7.66-10.94,8.84-13.77.76-1.84,4.18-2.99,5.34-5.72.52-1.23,5.84-5.54,7.65-8.92.34-.64,2.54-3.3,4.17-4.95.7-.7,1.66-.93,2.6-.61,1.22.42,2.39.8,3.54,1.3ZM241.16,138.31c-2.29-.61-.7-6.13-2.39-2.18-.44,1.02-2.54,5.68-3.25,7.95-.19.62-.52,1.11-1.04,1.52-.5.39-1.02.78-1.53,1.17-.28.21-.62.25-.95.1-.32-.14-.52-.42-.55-.78-.17-2.23.33-5.54,1.03-8.99,1.24-6.1,3.09-12.42,4.26-14.76.3-.39.57-1.11.93-1.51,1.29-1.39-.28,3.26-.44,3.51-.34.52-1.19,3.5-1.35,4.23-.09.41-.23,2.48.94,1.57,2.32-1.83,2.69-8.55,4.03-10.34l.07-.1c.31-.65,1.27,1.29,2.3-.25.48-.73,1.1-1.85,1.32-2.83,1.89,3.13,2.28,5.88,5.57,7.78.63.37,1.29.67,1.96.93.14.07.49.21.99.39.82.28,1.39.9,1.6,1.73.22.84.02,1.65-.56,2.29-.17.19-.36.39-.53.6-1.61,1.8-3.36,3.76-6.02,5.38l-.41.25c-.81.16-1.74-.2-2.41-.76-.1-.08-.23-.09-.34-.04-.12.06-.18.17-.17.3.17,2.07-.19,3.59-3.07,2.82ZM229.3,149.58c0,.27-.08.5-.27.69-.34.34-.69.71-1.03,1.07-.28.28-.68.37-1.04.22-.37-.15-.59-.49-.58-.88v-.22c0-.35.02-.77,0-1.39-.03-1.32.97-4.97,1.96-8.56.72-2.58,1.41-5.13,1.75-6.89.16-.49.25-.97.23-1.41-.06-1.76.68-4.49,1.14-6.21.15-.56,1.08-2.66.6-3.36-1.23-1.04-4.35,3.35-4.92,4.4l-.08.15c-.59,1.08-1.42,1.75-1.67,3.3-.31,1.89-2.03,6.43-3.29,7.94-.05.06-.17.19-.29.3-.07.06-.16.09-.25.08-.1,0-.17-.06-.23-.14-1.02-1.55,2.53-7.61,2.64-8.93.14-1.78,4.47-6.13,5.48-8.07.86-1.67,2.03-3.98,2.25-5.99.02-.13-.05-.25-.17-.31-.12-.06-.25-.05-.35.04-.99.87-2.76,2.86-2.42,1.2.07-.38.36-1.06.7-1.84,3.69-1.62,2.98-2.99,6.22-1.84,3.28,1.17,1.96.29,4.17,2.44.06.14.07.26,0,.36-.41.58-.7.13-1.37.29-.04.07-.9,2-1.01,2.28-.53,1.27-1.4,1.89-1.97,3.09,0,.03-.06.08-.08.12-1.22,2.36-3.18,8.97-4.45,15.29-.89,4.38-1.78,9.79-1.66,12.78ZM224.84,150.42c-.03,1.04.06,2.18.38,3.2.09.33.02.66-.22.91-.4.43-.81.84-1.19,1.24-.09.09-.24.12-.36.06-.13-.06-.19-.19-.17-.32.75-4.67-.14-7.2,2.77-12.43-.69,2.6-1.23,4.89-1.2,6.03.02.58,0,.98,0,1.31ZM258.05,122.31c-.38-1.46-.44-2.87.13-3.34.78-.45,1.71,2.41,2.42,4.49.07.21.03.43-.12.61-.15.17-.58.12-.81.07-1.09-.21-1.64-1.17-1.43-1.77.02-.05-.08.02-.19-.06ZM250.5,90.9c-.13-.12-.29-.18-.48-.16-.18.02-.33.1-.44.25-2.81,3.81-6.62,5.08-11.06,4.37-.08,0-.15-.06-.17-.13-.03-.08-.03-.16.03-.22,2.19-3.14,6.44-5.26,11.3-5.26,5.16,0,9.61,2.4,11.68,5.84.05.07.05.16,0,.23-.05.07-.12.12-.2.12-4.11-.05-8.66-3.24-10.66-5.04ZM250.8,103c0,.94.14,1.88-.18,1.96-1.13.28-2.04-.1-2.41.06-.3.13-.25.39-.24.51.06.5,1.73.89-.3,1.75-.44.18-.68.21-.68.41,0,.17.16.53.59.46.24-.04.82-.03,1.29-.02.64,0,1.18.06,1.02.65-.06.24-.95.36-1.54.39-.11,0-.2.09-.23.2-.02.11.03.24.13.28,1.11.35,1.63,1,1.56,1.62-.09,1-1.86,1.75-5.92-.35-.03-.05-.06-.08-.07-.12-.28-.63-.63-2.76-.54-4.31l-.06-.47h0c.27-1.62-.21-2.22,1.13-2.94.48-.25,1.5-.35,2.52-.73,2.63-.97,3.47-4.52-.07-4.1-1.25.15-1.29-.81-1.05-1.29.33-.62,1.15-.52,1.95-.87.63-.27,1.34-.71,2-1.69.12-.19.22-.28.32-.33.22-.13.39,0,.62.36.74,1.15,4.31,2.67,2.75,3.16-.8.25-1.6,0-2.31.64-.25.22-.28.73-.28,1.09,0,.48.03,2.19.04,3.65ZM240.12,85.47c2.42-1.77,5.78-2.87,9.51-2.87s7.08,1.1,9.49,2.87c2.22,1.62,3.64,3.82,3.8,6.23-1.67-4.23-6.97-7.33-13.26-7.33s-11.79,3.21-13.35,7.56c.08-2.51,1.51-4.78,3.8-6.46ZM236.03,96.67c.09.15.18.29.28.44.55,1.52,1.65,2.07.77,4.79-.3.95.73,1.73.26,3.3-.02,0-1.04.99-1.85,2.07-2.45.62-3.34-1.77-3.26-3.71.06-1.66-1.29-4.99-2.75-7.06l6.56.16ZM234.8,91.27c-.03.29-.05.59-.05.88,0,.73.1,1.47.28,2.18l-6.88.73c-.07-.05-.13-.09-.19-.13-2.22-1.31-2.97-3.13-3.22-5.41l10.05,1.73ZM208.35,15.9c-.83-1.65-.3-2.85.3-4.2.35-.78.72-1.62.93-2.65.06-.29.09-.57.11-.82.25.23.55.43.94.57,1.7.62,2.51.06,2.9-1.02.27-.73.23-1.67.2-2.6,0-.28-.02-.55-.02-.8.28.67.62,1.37,1.13,1.78.49.38,1.02.53,1.62.27-.15,1.37-.34,2.27-.78,1.78-1.13-1.26-1.88,2.65-2.1,3.73-.54,2.65-1.64,2.07-2.22,1.29-.07-.09-.18-.14-.3-.12-.12.02-.21.1-.25.21-.11.34-.22.71-.37,1.19-.65,2.12,1.55,5.06.11,6.05-.29.2-.87-.15-.93-.6,0-.73-.35-2.96-.91-3.5-.07-.06-.16-.15-.36-.56ZM203.3,25.11c.07-.5.04-1.01-.08-1.51,1.26-.19,8.4-.3,11.06,0,1.96.24,1.45,1.52-.66,1.5h-10.32ZM207.08,41.38c.69-.04,1.89-.04,3.09.03,1.27.07,1.48.21,2.6.5.84.22,1.15.76,1.18,1.27,0,.08-.03.17-.08.23-.06.06-.14.09-.22.1-.44,0-.57.04-1-.02-.59-.07-1.4-.24-1.87-.33-.14-.04-.26-.06-.35-.07h-.04c-.66-.13-1.08-.12-1.95-.1-.34,0-.75,0-1.28,0-.29-.35-.32-.67-.33-.91,0-.25.05-.43.26-.71ZM206.94,39.32c.02-.27.13-.49.34-.65.1-.09.21-.18.32-.28.18-.15.39-.22.64-.21.73.04,1.47.03,2.2.05.31,0,.57.15.74.4.18.25.22.54.12.84-.03.09-.08.19-.15.29-.06.1-.17.16-.29.15-.2-.02-.4-.03-.62-.05-1.11-.06-2.23-.06-2.98-.05-.16,0-.29-.1-.31-.26-.02-.07-.02-.15-.02-.23ZM206.89,47.17c-.07.09-.19.13-.3.11-.12-.03-.21-.11-.24-.23-.06-.22-.09-.42-.09-.59,0-.17.19-.67.42-1.17.19-.46.62-.73,1.12-.74.25,0,.47,0,.66,0,1.76-.04,2.93.5,4.46.54h.12c.15,0,.28.11.3.26.04.2,0,.41-.1.61-.19.37-.59.55-.99.49-1.18-.22-4.43-.4-5.36.74ZM208.58,53.75c.06-.33.05-.69,0-1.06-.03-.16-.04-.19-.04-.35,0-3.08,4.31-2.25,4.92-.9.25,1.65.17,1.77.14,2.52,0,.16-.15.28-.31.28h-3.83c-.48,0-.31.03-.7-.14-.13-.06-.2-.2-.17-.35ZM209.17,56.17c-.11,0-.2-.06-.27-.15-.06-.09-.06-.2-.02-.3.06-.09.1-.18.14-.28.06-.11.16-.17.28-.17h3.97c.17,0,.3.13.31.29,0,.11,0,.21,0,.31,0,.08-.03.17-.09.22-.06.06-.13.09-.22.09h-4.11ZM210.22,60.33c-.12-.51-.25-1.02-.39-1.51-.03-.09,0-.19.06-.28.06-.08.15-.13.25-.13h2.04c.11,0,.19.05.26.13.06.08.07.17.05.28-.15.5-.28,1.02-.43,1.56-.12.42-.5.7-.93.68-.44,0-.8-.3-.89-.73ZM210.92,80.6c-.1-.78-.18-1.57-.25-2.34-.05-.48.28-.9.73-1,.46-.1.92.16,1.07.61,1.56,4.42,3.51,8.67,4.04,13,.17,1.35,2.79,9.95,4.17,12.7-1.45,2.67-2.95,5.34-4.09,7-.17-2.35-.59-6.31-1.26-10.45-.66-4.12-1.4-7.9-1.94-9.19-1.14-2.7-2-6.46-2.49-10.33ZM213.69,120.64c-.76.9-1.46,1.61-1.8,1.69-.39.06-.62.41-1.17.46-.44.03-.84-.28-1.17-.78-.43-.66-.76-1.62-1.01-2.66-.64-2.74-.7-5.92-.62-6.36.07-.44.23-1,.43-1.57.28-.82.62-1.62.87-2.19,2.18-4.86,1.88-3.63,4.23-9.07.08-.18.16-.37.24-.54l.12.75c.09.53.17,1.06.25,1.59.15.98-.15,1.89-.84,2.62-.02.02-.05.05-.06.07-.5.52-1,1.02-1.23,1.18-.36.24-.46.72-.22,1.08.24.35.72.45,1.07.22.25-.17.52-.41.79-.67.11-.1.28-.12.4-.03.12.09.16.25.09.39-.17.35-.38.65-.61.83-.62.5-1.3,1.6-2.15,1.93-1.63.65-2.72,2.86-1.16,2.9.09,0,2.41-1.64,3.07-1.18.26.18.89.35.06,1.61h0c-.5.54-.85,1.16-1.17,1.82-.19.41-.35.73-.51,1.05-.55,1.09-1.09,2.18-1.42,3.37-.12.41.12.84.53.96.41.11.85-.13.96-.54.3-1.06.81-2.07,1.32-3.1.19-.39.39-.78.53-1.07.2-.44.48-.95.89-1.42.28-.31.62-.62,1.07-.84.09.06.19.09.29.1.28.1.58.05.8-.17,1.52-1.46,4.16-6.33,6.45-10.58.5-.94,1-1.85,1.49-2.74.31-.56.62-1.14.88-1.67.16-.29.28-.57.39-.81.06-.14.2-.21.35-.18.15.04.25.16.25.3.02.83-.12,1.3-.16,1.63-.09.76-.29.85-1.33,3.59-1.14,2.99.69-.14-2.24,4.98-1.07,1.88-2.36,3.8-3.2,4.98-.28.4-.72.99-1.16,1.58-.68.91-1.35,1.82-1.51,2.1-.41.75-1.8,2.84-3.14,4.42ZM218.4,119.1c-.33.17-1.07.77-1.85,1.43-.12.1-.3.09-.41-.02-.12-.1-.13-.28-.04-.4.95-1.29,1.78-2.57,2.09-3.14.11-.18.75-1.06,1.4-1.93.44-.6.89-1.19,1.18-1.6.86-1.21,2.19-3.19,3.28-5.1,1.03-1.79,1.64-3.34,2.34-5.2.44-1.16.95-2.51,1.18-3.13,1.11-1.44-.11,4.85-.39,5.46.52-.16.67-1,1.34-.9.15.03.26.14.27.28.04.53-.09,1.03-.3,1.65-.64,1.36-2.59,4.74-3.02,5.1-.14.12-1.73,1.96-1.78,2.04-1.18,1.95-3.23,4.38-5.27,5.44ZM219.14,173.47c-.08.17-.4.58-.77,1.07-.31.2-.68.42-1.06.67-.36.22-.8.19-1.11-.07-.32-.28-.42-.71-.26-1.08,2.42-5.6,5.94-12.69,6.19-13.71.5-2.15,3.98-4.74,5.55-6.4,2.02-2.16,4.03-4.31,5.38-5.31,1.91-1.4,3.65-2.85,5.41-4.29,1.95-1.61,3.9-3.21,6.08-4.77.13-.09.3-.07.41.04.1.12.11.29,0,.41-6.36,7.52-15.18,19.85-16.46,21.77-1.42,2.13-3.7,5.67-5.92,8.52.09-1.24.16-2.51.57-3.64v-.19c.03-.15,1.42-3.5,1.65-4.63.16-.73.86-3.54-.65-.98-.62,1.36-2.16,5.17-2.64,6.56-.14.11-1.81,4.98-2.37,6.03ZM219.36,207.4c-.08.41-.42.72-.84.75-.41.04-.8-.2-.95-.6-.53-1.38-.78-2.68-.76-4.02.06-2.22.86-4.58,2.45-7.51,1.21-2.22,2.01-3.98,2.06-5.54,0-.2,0-.39-.05-.59-.19-3.32.35-10.24,4.17-14.42,2.77-3.03,1.45-4.97,6.01-9.53.28-.28.66-.62,1.12-.99.12-.09.28-.09.4,0,.11.09.15.26.07.39-.79,1.51-1.52,2.96-2.44,4.56-.44.79-1.66,3.2-1.9,3.56-1.77,2.65-.74,2.65-.8,3.4,1.53,0,3.07-3.83,3.66-5.13,1.07-2.37,8.25-11.97,9.79-13.23l.06-.06c.89-.65,1.73-1.27,2.41-1.81.12-.09.28-.08.39.02.12.1.15.27.06.39-1.84,3.03-3.31,5.7-3.54,5.96-1.18,2.06-8.49,18.44-8.51,18.52-.7,1.83-3.67,8.24-5.63,14.53-1.48,4.78-2.25,7.61-2.91,9.74-.06.22-.6,1.32-1.29,2.71-.06.14-.22.2-.37.16-.14-.04-.24-.17-.22-.32.25-2.75.47-5.35.81-6.41,2.09-6.31,2.81-9.87,5.96-16.62.36-.77,2.91-6.92,2.51-8.07-1.01-1.63-5.67,8.64-7.26,13.71-1,3.21-3.3,10.58-4.48,16.45ZM222.64,300.7c2.19-3.31,3.69-6.92,4.76-11.17,1.27,1.92.26,5.05-.41,7.04-.21.35-.28,1.57-.5,1.95.16.28.1.43.35.45,1.07.52,2.64-6.43,2.86-6.92.06-.13.89-3.38,1.35-1.13.17.89.05,2.47-.1,3.46-.21,1.46-.59,2.33-1.05,3.53-1.16,3-1.37,2.74-2.86,6.12-.69,1.58,2.02-.79,2.29-1.35.31-.68,3.01-6.95,3.05-7.24,1.01-2.63.02-7,.81-8.92.18-1.72,1.65-2.94,2.68-2.72,1.65.35,1.31,2.79.88,4.91-.2,1-.11,1.36.12,1.4.47.07,1.51-1.31,1.51-1.31.28,1.02-.54,4.14-.8,5.37-.33,1.55-1.18,2.63-.59,4.36,1.95,0,1.99-4.4,2.31-6.06-.02-.45.79-4.8,1.41-4.78.76-.29.79,3.42,1.62,1.18.17-.42.2-2.39.17-4.64.5-1.73.72-4.33.68-5.96,0-.39-.14-.56.17-.81.69-.55.75.72.86,1.19h0c.71,2.97.44,5.32.19,7.52-.3,2.7-.31,3.19-1.5,6.28-.39,1.05-.79,2.07-1.05,3.08-.11.42.14.84.55.95.42.11.84-.14.95-.56.23-.87.62-1.88,1.01-2.9.56-1.46,1.48-5.73,1.58-6.66.24-2.07.28-4.23.22-6.13-.03-1.15-.25-2.15-.06-3.12,0,0,1.55-3.15,1.54.18,0,1.66.89,24.96-5.31,27.83-.74.35-2.39.28-3.57.12-.84-.11-1.39-.13-1.54-.7-.32-1.12,1.1-4.39-.21-4.2-.9.12-1.3,3.61-3.98,4.42-2.67.84-5.6.31-8.4.44.06-.43.11-.96.24-1.4.18-.58,2.25-2.32,1.94-3.79-.07-.31-.64-.24-1.02.08-1.44,1.22-1.15,1.94-3.58,3.52-2.26,1.46-5.58,2.43-8.25,1.63,3.05,0,6.69-1.55,8.66-4.53ZM207.09,319.51h-7.92v-10.86h7.92v10.86ZM291.33,308.65v10.86h-81.9v-10.86h81.9ZM283.9,221.81c0-3.78-.04-7.3-1.47-10.84-.12-1.29-.99-5.72-.99-5.91-.73-5.99,2.55-2.16.96-9.98-.89-4.39-2.08-6.02-1.16-10.58,1.04-5.09-4.47-12.2-5.61-17.8.17-.2-3.09-21.74-3.35-23.05-.26-1.29-.93-5.3-1.56-8.4,1.67,1.72,1.9,2.58,3.19,4.17.54.67,2.09,4.7,2.65,5.94,1.27,2.82,2.67,15.78,3.34,19.82,1.92,11.7,3.89,23.69,3.89,33.86,0,4.88.04,9.42.3,13.93.18,3.13.49,6.23.97,9.39-.76-.34-1.57-.69-1.18-.55ZM285.62,225.51c.07.35.14.7.21,1.06,1.05,5.12.44,8.99.73,13.23.05.66.1,1.34.16,2.04-.76.03-1.17-.03-1.69-.68-.28-5.16.17-11.97.59-15.64ZM306.86,156.65s1.55.74,1.63.79c0,.02-4.25,4.32-3.31,5.54.73.93,2.33,1.95,2.13,2.96-.85.84-2.69-.77-3.44-1.47-2.03-1.88-2.81-.74-1.99.17,1.23,1.39,3.93,3.51,3.13,4.24-.54.5-2.84-1.99-3.8-2.44-1.43-.65-1.58.37-.82,1.26.76.88,1.87,1.87,2.23,2.27.28.32.67.62.65,1.01-.04.64-.72.66-1.18.48-1.1-.46-2.52-1.97-3.17-2.36-.74-.46-1.36-.05-1.07.77.12.22.33.49.59.78.91,1.01.89.62,1.83,2.17.8,1.31-.21,1.73-.8,1.3-.47-.36-1.89-2.47-2.75-2.88-.94-.45-.82.62-.42,1.28.23.38.49.78.63,1.03.55.96.64,1.9-.41,3.24-.88,1.11-.79,1.79-2.1,3.48-.44.56-2.98,5.72-3.47,6.18-.05.06-3.28,6.19-3.35,6.47-.11,0-1.69-.5-2.49-.75-.46-6.62-1.49-13.71-2.63-20.86.06-.3.39-.81.81-1.49,1.1-1.76,2.83-4.53,3.4-9.16.19-1.51.94-2.54,1.48-3.27,0-.02.03-.04.04-.06.28-.37.51-.69.64-1l4.23-6.44.89,1.04c.28.32.77.37,1.1.08.16-.14.25-.34.27-.54l.45-3.3,13.17,7.44c-.44.56-1.63,1.52-2.08,2.07Z"/>
  <path class="cls-2" d="M286.72,241.84c-.76.03-1.17-.03-1.69-.68-.28-5.16.17-11.97.59-15.64.07.35.14.7.21,1.06,1.05,5.12.44,8.99.73,13.23.05.66.1,1.34.16,2.04Z"/>
  <path class="cls-2" d="M216.46,6.43c-.15,1.37-.34,2.27-.78,1.78-1.13-1.26-1.88,2.65-2.1,3.73-.54,2.65-1.64,2.07-2.22,1.29-.07-.09-.18-.14-.3-.12-.12.02-.21.1-.25.21-.11.34-.22.71-.37,1.19-.65,2.12,1.55,5.06.11,6.05-.29.2-.87-.15-.93-.6,0-.73-.35-2.96-.91-3.5-.07-.06-.16-.15-.36-.56-.83-1.65-.3-2.85.3-4.2.35-.78.72-1.62.93-2.65.06-.29.09-.57.11-.82.25.23.55.43.94.57,1.7.62,2.51.06,2.9-1.02.27-.73.23-1.67.2-2.6,0-.28-.02-.55-.02-.8.28.67.62,1.37,1.13,1.78.49.38,1.02.53,1.62.27Z"/>
  <path class="cls-2" d="M213.62,25.11h-10.32c.07-.5.04-1.01-.08-1.51,1.26-.19,8.4-.3,11.06,0,1.96.24,1.45,1.52-.66,1.5Z"/>
  <path class="cls-2" d="M211.31,39.46c-.03.09-.08.19-.15.29-.06.1-.17.16-.29.15-.2-.02-.4-.03-.62-.05-1.11-.06-2.23-.06-2.98-.05-.16,0-.29-.1-.31-.26-.02-.07-.02-.15-.02-.23.02-.27.13-.49.34-.65.1-.09.21-.18.32-.28.18-.15.39-.22.64-.21.73.04,1.47.03,2.2.05.31,0,.57.15.74.4.18.25.22.54.12.84Z"/>
  <path class="cls-2" d="M213.94,43.18c0,.08-.03.17-.08.23-.06.06-.14.09-.22.1-.44,0-.57.04-1-.02-.59-.07-1.4-.24-1.87-.33-.14-.04-.26-.06-.35-.07h-.04c-.66-.13-1.08-.12-1.95-.1-.34,0-.75,0-1.28,0-.29-.35-.32-.67-.33-.91,0-.25.05-.43.26-.71.69-.04,1.89-.04,3.09.03,1.27.07,1.48.21,2.6.5.84.22,1.15.76,1.18,1.27Z"/>
  <path class="cls-2" d="M213.25,45.94c-.19.37-.59.55-.99.49-1.18-.22-4.43-.4-5.36.74-.07.09-.19.13-.3.11-.12-.03-.21-.11-.24-.23-.06-.22-.09-.42-.09-.59,0-.17.19-.67.42-1.17.19-.46.62-.73,1.12-.74.25,0,.47,0,.66,0,1.76-.04,2.93.5,4.46.54h.12c.15,0,.28.11.3.26.04.2,0,.41-.1.61Z"/>
  <path class="cls-2" d="M213.59,53.95c0,.16-.15.28-.31.28h-3.83c-.48,0-.31.03-.7-.14-.13-.06-.2-.2-.17-.35.06-.33.05-.69,0-1.06-.03-.16-.04-.19-.04-.35,0-3.08,4.31-2.25,4.92-.9.25,1.65.17,1.77.14,2.52Z"/>
  <path class="cls-2" d="M213.59,55.87c0,.08-.03.17-.09.22-.06.06-.13.09-.22.09h-4.11c-.11,0-.2-.06-.27-.16-.06-.09-.06-.2-.02-.3.06-.09.1-.18.14-.28.06-.11.16-.17.28-.17h3.97c.17,0,.3.13.31.29,0,.11,0,.21,0,.31Z"/>
  <path class="cls-2" d="M212.47,58.83c-.15.5-.28,1.02-.43,1.56-.12.42-.5.7-.93.68-.44,0-.8-.3-.89-.73-.12-.51-.25-1.02-.39-1.51-.03-.09,0-.19.06-.28.06-.08.15-.13.25-.13h2.04c.11,0,.19.05.26.13.06.08.07.17.05.28Z"/>
  <path class="cls-2" d="M220.69,103.56c-1.45,2.67-2.95,5.34-4.09,7-.17-2.35-.59-6.31-1.26-10.45-.66-4.12-1.4-7.9-1.94-9.19-1.14-2.7-2-6.46-2.49-10.33-.1-.78-.18-1.57-.25-2.34-.05-.48.28-.9.73-1,.46-.1.92.16,1.07.61,1.56,4.42,3.51,8.67,4.04,13,.17,1.35,2.79,9.95,4.17,12.7Z"/>
  <path class="cls-2" d="M226.41,97.37c.02.83-.12,1.3-.16,1.63-.09.76-.29.85-1.33,3.59-1.14,2.99.69-.14-2.24,4.98-1.07,1.88-2.36,3.8-3.2,4.98-.28.4-.72.99-1.16,1.58-.68.91-1.35,1.82-1.51,2.1-.41.75-1.8,2.84-3.14,4.42-.76.9-1.46,1.61-1.8,1.69-.39.06-.62.41-1.17.46-.44.03-.84-.28-1.17-.78-.43-.66-.76-1.62-1.01-2.66-.64-2.74-.7-5.92-.62-6.36.07-.44.23-1,.43-1.57.28-.82.62-1.62.87-2.19,2.18-4.86,1.88-3.63,4.23-9.07.08-.18.16-.37.24-.54l.12.75c.09.53.17,1.06.25,1.59.15.98-.15,1.89-.84,2.62-.02.02-.05.05-.06.07-.5.52-1,1.02-1.23,1.18-.36.24-.46.72-.22,1.08.24.35.72.45,1.07.22.25-.17.52-.41.79-.67.11-.1.28-.12.4-.03.12.09.16.25.09.39-.17.35-.38.65-.61.83-.62.5-1.3,1.6-2.15,1.93-1.63.65-2.72,2.86-1.16,2.9.09,0,2.41-1.64,3.07-1.18.26.18.89.35.06,1.61h0c-.5.54-.85,1.16-1.17,1.82-.19.41-.35.73-.51,1.05-.55,1.09-1.09,2.18-1.42,3.37-.12.41.12.84.53.96.41.11.85-.13.96-.54.3-1.06.81-2.07,1.32-3.1.19-.39.39-.78.53-1.07.2-.44.48-.95.89-1.42.28-.31.62-.62,1.07-.84.09.06.19.09.29.1.28.1.58.05.8-.17,1.52-1.46,4.16-6.33,6.45-10.58.5-.94,1-1.85,1.49-2.74.31-.56.62-1.14.88-1.67.16-.29.28-.57.39-.81.06-.14.2-.21.35-.18.15.04.25.16.25.3Z"/>
  <path class="cls-2" d="M228.77,104.86c.04.53-.09,1.03-.3,1.65-.64,1.36-2.59,4.74-3.02,5.1-.14.12-1.73,1.96-1.78,2.04-1.18,1.95-3.23,4.38-5.27,5.44-.33.17-1.07.77-1.85,1.43-.12.1-.3.09-.41-.02-.12-.1-.13-.28-.04-.4.95-1.29,1.78-2.57,2.09-3.14.11-.18.75-1.06,1.4-1.93.44-.6.89-1.19,1.18-1.6.86-1.21,2.19-3.19,3.28-5.1,1.03-1.79,1.64-3.34,2.34-5.2.44-1.16.95-2.51,1.18-3.13,1.11-1.44-.11,4.85-.39,5.46.52-.16.67-1,1.34-.9.15.03.26.14.27.28Z"/>
  <path class="cls-2" d="M237.34,105.2s-1.04.99-1.85,2.07c-2.45.62-3.34-1.77-3.26-3.71.06-1.66-1.29-4.99-2.75-7.06l6.56.16c.09.15.18.29.28.44.55,1.52,1.65,2.07.77,4.79-.3.95.73,1.73.26,3.3Z"/>
  <path class="cls-2" d="M235.04,94.33l-6.88.73c-.07-.05-.13-.09-.19-.13-2.22-1.31-2.97-3.13-3.22-5.41l10.05,1.73c-.03.29-.05.59-.05.88,0,.73.1,1.47.28,2.18Z"/>
  <path class="cls-2" d="M262.93,91.7c-1.67-4.23-6.97-7.33-13.26-7.33s-11.79,3.21-13.35,7.56c.08-2.51,1.51-4.78,3.8-6.46,2.42-1.77,5.78-2.87,9.51-2.87s7.08,1.1,9.49,2.87c2.22,1.62,3.64,3.82,3.8,6.23Z"/>
  <path class="cls-2" d="M261.36,95.82c-.05.07-.12.12-.2.12-4.11-.05-8.66-3.24-10.66-5.04-.13-.12-.29-.18-.48-.16-.18.02-.33.1-.44.25-2.81,3.81-6.62,5.08-11.06,4.37-.08,0-.15-.06-.17-.13-.03-.08-.03-.16.03-.22,2.19-3.14,6.44-5.26,11.3-5.26,5.16,0,9.61,2.4,11.68,5.84.05.07.05.16,0,.23Z"/>
  <path class="cls-2" d="M253.36,97.61c-.8.25-1.6,0-2.31.64-.25.22-.28.73-.28,1.09,0,.48.03,2.19.04,3.65,0,.94.14,1.88-.18,1.96-1.13.28-2.04-.1-2.41.06-.3.13-.25.39-.24.51.06.5,1.73.89-.3,1.75-.44.18-.68.21-.68.41,0,.17.16.53.59.46.24-.04.82-.03,1.29-.02.64,0,1.18.06,1.02.65-.06.24-.95.36-1.54.39-.11,0-.2.09-.23.2-.02.11.03.24.13.28,1.11.35,1.63,1,1.56,1.62-.09,1-1.86,1.75-5.92-.35-.03-.05-.06-.08-.07-.12-.28-.63-.63-2.76-.54-4.31l-.06-.47h0c.27-1.62-.21-2.22,1.13-2.94.48-.25,1.5-.35,2.52-.73,2.63-.97,3.47-4.52-.07-4.1-1.25.15-1.29-.81-1.05-1.29.33-.62,1.15-.52,1.95-.87.63-.27,1.34-.71,2-1.69.12-.19.22-.28.32-.33.22-.13.39,0,.62.36.74,1.15,4.31,2.67,2.75,3.16Z"/>
  <path class="cls-2" d="M260.49,124.07c-.15.17-.58.12-.81.07-1.09-.21-1.64-1.17-1.43-1.77.02-.05-.08.02-.19-.06-.38-1.46-.44-2.87.13-3.34.78-.45,1.71,2.41,2.42,4.49.07.21.03.43-.12.61Z"/>
  <path class="cls-2" d="M225.22,153.63c.09.33.02.66-.22.91-.4.43-.81.84-1.19,1.24-.09.09-.24.12-.36.06-.13-.06-.19-.19-.17-.32.75-4.67-.14-7.2,2.77-12.43-.69,2.6-1.23,4.89-1.2,6.03.02.58,0,.98,0,1.31-.03,1.04.06,2.18.38,3.2Z"/>
  <path class="cls-2" d="M239.85,115.72c-.41.58-.7.13-1.37.29-.04.07-.9,2-1.01,2.28-.53,1.27-1.4,1.89-1.97,3.09,0,.03-.06.08-.08.12-1.22,2.36-3.18,8.97-4.45,15.29-.89,4.38-1.78,9.79-1.66,12.78,0,.27-.08.5-.27.69-.34.34-.69.71-1.03,1.07-.28.28-.68.37-1.04.22-.37-.15-.59-.49-.58-.88v-.22c0-.35.02-.77,0-1.39-.03-1.32.97-4.97,1.96-8.56.72-2.58,1.41-5.13,1.75-6.89.16-.49.25-.97.23-1.41-.06-1.76.68-4.49,1.14-6.21.15-.56,1.08-2.66.6-3.36-1.23-1.04-4.35,3.35-4.92,4.4l-.08.15c-.59,1.08-1.42,1.75-1.67,3.3-.31,1.89-2.03,6.43-3.29,7.94-.05.06-.17.19-.29.3-.07.06-.16.09-.25.08-.1,0-.17-.06-.23-.14-1.02-1.55,2.53-7.61,2.64-8.93.14-1.78,4.47-6.13,5.48-8.07.86-1.67,2.03-3.98,2.25-5.99.02-.13-.05-.25-.17-.31-.12-.06-.25-.05-.35.04-.99.87-2.76,2.86-2.42,1.2.07-.38.36-1.06.7-1.84,3.69-1.62,2.98-2.99,6.22-1.84,3.28,1.17,1.96.29,4.17,2.44.06.14.07.26,0,.36Z"/>
  <path class="cls-2" d="M254.1,129.76c-.17.19-.36.39-.53.6-1.61,1.8-3.36,3.76-6.02,5.38l-.41.25c-.81.16-1.74-.2-2.41-.76-.1-.08-.23-.09-.34-.04-.12.06-.18.17-.17.3.17,2.07-.19,3.59-3.07,2.82-2.29-.61-.7-6.13-2.39-2.18-.44,1.02-2.54,5.68-3.25,7.95-.19.62-.52,1.11-1.04,1.52-.5.39-1.02.78-1.53,1.17-.28.21-.62.25-.95.1-.32-.14-.52-.42-.55-.78-.17-2.23.33-5.54,1.03-8.99,1.24-6.1,3.09-12.42,4.26-14.76.3-.39.57-1.11.93-1.51,1.29-1.39-.28,3.26-.44,3.51-.34.52-1.19,3.5-1.35,4.23-.09.41-.23,2.48.94,1.57,2.32-1.83,2.69-8.55,4.03-10.34l.07-.1c.31-.65,1.27,1.29,2.3-.25.48-.73,1.1-1.85,1.32-2.83,1.89,3.13,2.28,5.88,5.57,7.78.63.37,1.29.67,1.96.93.14.07.49.21.99.39.82.28,1.39.9,1.6,1.73.22.84.02,1.65-.56,2.29Z"/>
  <path class="cls-2" d="M244.97,140.04c-6.36,7.52-15.18,19.85-16.46,21.77-1.42,2.13-3.7,5.67-5.92,8.52.09-1.24.16-2.51.57-3.64v-.19c.03-.15,1.42-3.5,1.65-4.63.16-.73.86-3.54-.65-.98-.62,1.36-2.16,5.17-2.64,6.56-.14.11-1.81,4.98-2.37,6.03-.08.17-.4.58-.77,1.07-.31.2-.68.42-1.06.67-.36.22-.8.19-1.11-.07-.32-.28-.42-.71-.26-1.08,2.42-5.6,5.94-12.69,6.19-13.71.5-2.15,3.98-4.74,5.55-6.4,2.02-2.16,4.03-4.31,5.38-5.31,1.91-1.4,3.65-2.85,5.41-4.29,1.95-1.61,3.9-3.21,6.08-4.77.13-.09.3-.07.41.04.1.12.11.29,0,.41Z"/>
  <path class="cls-2" d="M264.13,129.91c.04.23-.06.43-.24.57-3.15,2.43-11.73,11.56-12.69,13.34l-.3.29c-1.83,1.74-7.7,7.67-9.77,9.74-1.24,1.24-8.43,7.78-9.51,8.23-1.58-1.82,7.66-10.94,8.84-13.77.76-1.84,4.18-2.99,5.34-5.72.52-1.23,5.84-5.54,7.65-8.92.34-.64,2.54-3.3,4.17-4.95.7-.7,1.66-.93,2.6-.61,1.22.42,2.39.8,3.54,1.3.21.09.35.28.37.5Z"/>
  <path class="cls-2" d="M244.3,157.05c-1.84,3.03-3.31,5.7-3.54,5.96-1.18,2.06-8.49,18.44-8.51,18.52-.7,1.83-3.67,8.24-5.63,14.53-1.48,4.78-2.25,7.61-2.91,9.74-.06.22-.6,1.32-1.29,2.71-.06.14-.22.2-.37.16-.14-.04-.24-.17-.22-.32.25-2.75.47-5.35.81-6.41,2.09-6.31,2.81-9.87,5.96-16.62.36-.77,2.91-6.92,2.51-8.07-1.01-1.63-5.67,8.64-7.26,13.71-1,3.21-3.3,10.58-4.48,16.45-.08.41-.42.72-.84.75-.41.04-.8-.2-.95-.6-.53-1.38-.78-2.68-.76-4.02.06-2.22.86-4.58,2.45-7.51,1.21-2.22,2.01-3.98,2.06-5.54,0-.2,0-.39-.05-.59-.19-3.32.35-10.24,4.17-14.42,2.77-3.03,1.45-4.97,6.01-9.53.28-.28.66-.62,1.12-.99.12-.09.28-.09.4,0,.11.09.15.26.07.39-.79,1.51-1.52,2.96-2.44,4.56-.44.79-1.66,3.2-1.9,3.56-1.77,2.65-.74,2.65-.8,3.4,1.53,0,3.07-3.83,3.66-5.13,1.07-2.37,8.25-11.97,9.79-13.23l.06-.06c.89-.65,1.73-1.27,2.41-1.81.12-.09.28-.08.39.02.12.1.15.27.06.39Z"/>
  <path class="cls-2" d="M284.61,163.2c-.69,2.58-1.75,4.34-2.53,5.6-.21-1.29-.42-2.59-.63-3.87l-.05-.28c1.19-.29,2.02-.93,2.67-1.73.09-.12.25-.15.39-.08.13.07.19.21.16.36Z"/>
  <path class="cls-2" d="M286.2,156.55c-.56.5-1.09,1.43-2.06,3.28-.73,1.4-1.49,2.83-3.01,3.28l-.12-.75c.31-.2.62-.49.89-.84.83-1.07,1.53-2.89,1.91-4.7.18-.88.29-1.78.32-2.6,0-.12.06-.22.17-.28.11-.05.23-.04.33.03.95.69,1.22,1.06,1.62,1.35.77.58.61.66-.05,1.24Z"/>
  <path class="cls-2" d="M282.29,156.48c-.33,1.58-.91,3.12-1.58,4.02-.49-3-.95-5.98-1.37-8.87-.06-.4.14-.78.5-.96.36-.18.77-.13,1.07.15,1.48,1.4,2.1,2.22,1.38,5.66Z"/>
  <path class="cls-2" d="M285.07,222.36c-.76-.34-1.57-.69-1.18-.55,0-3.78-.04-7.3-1.47-10.84-.12-1.29-.99-5.72-.99-5.91-.73-5.99,2.55-2.16.96-9.98-.89-4.39-2.08-6.02-1.16-10.58,1.04-5.09-4.47-12.2-5.61-17.8.17-.2-3.09-21.74-3.35-23.05-.26-1.29-.93-5.3-1.56-8.4,1.67,1.72,1.9,2.58,3.19,4.17.54.67,2.09,4.7,2.65,5.94,1.27,2.82,2.67,15.78,3.34,19.82,1.92,11.7,3.89,23.69,3.89,33.86,0,4.88.04,9.42.3,13.93.18,3.13.49,6.23.97,9.39Z"/>
  <path class="cls-2" d="M273.61,161.85c-.23-.41-.47-.89-.72-1.48-1.5-3.52-5.65-4.01-7.76-2.29-2.01,1.64-2.19,5.21.76,5.81,2.44.5,2.23,4.64,1.82,6.66-1.17,5.7-2.82,5.89-7.13,9.12-1.46,1.08-2.38,2.03-2.94,2.9-.14-7.81-.22-14.93.11-17.57.43-3.52.81-7.84,1.03-12.62.19-4,.28-8.31.19-12.73,1.58-2.24,3.97-5.86,5.24-8.03.24-.41.61-.66,1.07-.74.47-.08.9.03,1.27.33.59.49,1.24,1.06,1.84,1.61-.08,2.34,1.29,8.13-2.28,8.17-4.39.05-2.56,6.15-2.56,11.58,0,.87.59,3.26,1.54,1.4.8-.84,1.51-11,2.04-7.51.22,1.5.94.76,1,.34.06-.02.26-.37.48-.82.14-.26.42-.39.71-.32.28.06.48.31.48.61,0,2.02-.04,2.49-.69,5.64-.15.73-.31,1.34-.31,2.16,1.34.33,1.71-2.34,2.41-2.04.28.12.72,1.08.87,2.06.07.44.72,4.4,1.52,7.78Z"/>
  <path class="cls-3" d="M306.86,156.65s1.55.74,1.63.79c0,.02-4.25,4.32-3.31,5.54.73.93,2.33,1.95,2.13,2.96-.85.84-2.69-.77-3.44-1.47-2.03-1.88-2.81-.74-1.99.17,1.23,1.39,3.93,3.51,3.13,4.24-.54.5-2.84-1.99-3.8-2.44-1.43-.65-1.58.37-.82,1.26.76.88,1.87,1.87,2.23,2.27.28.32.67.62.65,1.01-.04.64-.72.66-1.18.48-1.1-.46-2.52-1.97-3.17-2.36-.74-.46-1.36-.05-1.07.77.12.22.33.49.59.78.91,1.01.89.62,1.83,2.17.8,1.31-.21,1.73-.8,1.3-.47-.36-1.89-2.47-2.75-2.88-.94-.45-.82.62-.42,1.28.23.38.49.78.63,1.03.55.96.64,1.9-.41,3.24-.88,1.11-.79,1.79-2.1,3.48-.44.56-2.98,5.72-3.47,6.18-.05.06-3.28,6.19-3.35,6.47-.11,0-1.69-.5-2.49-.75-.46-6.62-1.49-13.71-2.63-20.86.06-.3.39-.81.81-1.49,1.1-1.76,2.83-4.53,3.4-9.16.19-1.51.94-2.54,1.48-3.27,0-.02.03-.04.04-.06.28-.37.51-.69.64-1l4.23-6.44.89,1.04c.28.32.77.37,1.1.08.16-.14.25-.34.27-.54l.45-3.3,13.17,7.44c-.44.56-1.63,1.52-2.08,2.07Z"/>
  <path class="cls-3" d="M256.32,204.28c-.04.72-1.36,5.22-1.83,5.76-9.3,10.83-15.63,14.61-18.38,22.58-.5,1.42-3.74,5.7-7.24,9.68-.76.85-1.83,1.22-2.95.99-1.12-.22-1.97-.96-2.35-2.04-1.29-3.77-1.83-4.58-1.17-9.78.04-.16.05-.28.06-.37.17-1.45.27-3.02.27-4.56v-.37c0-1.17-.08-2.32-.23-3.4,0-10.78,3.45-13.73,7.3-23.41,1.21-3.01,3.55-10.44,3.7-10.68,1.56-4.08,3.78-9.42,6.02-14.51.02-.04,9.97-22.59,12.09-26.58.07-.1.19-.25.35-.42.3-.32.76-.39,1.14-.18.38.2.57.62.47,1.05-.69,2.74-1.24,5.3-2.18,7.86-1.07,2.97-2.2,6.06-3.51,9.55-.15.4.06.84.46,1,.4.15.85-.06,1-.46.5-1.32.95-2.56,1.39-3.73.17-.48.68-.73,1.16-.57.48.15.75.64.62,1.12-.95,3.62-1.96,7.44-2.98,11.24-3.72,13.91-7.43,27.77-7.31,32.52l-.08.39h0s0,.05,0,.06c-.38,1.62-1.45,6.43-1.55,7.48-.04.42.28.8.7.84.43.04.81-.28.85-.71.19-2.02,1.17-4.26,1.69-7.05,1.88-10.19,4.81-24.12,6.09-28.91.4-1.51,1.84-2.48,3.4-2.29,1.55.19,2.71,1.49,2.74,3.05.04,2.21.07,4.52.12,6.83.15,8.19.39,13.71.16,18Z"/>
  <path class="cls-2" d="M254.41,217.83c-1.25,9.2-2.94,41.59-3.19,52.05-2.26.99-4.77,2.07-7.24,3.48-2.54,1.46-5.27,2.31-6.61,3.64-.66.66-1.18,1.32-1.58,1.96-1.49,1.91-.48,2.83-3.76,5.54-.2.17-.96.86-1,1.04-.04,0-2.01,1.71-3.25,2.42,1-4.14,1.76-7.74,2.8-9.21.62-.85,3.86-18.24,7.91-22.81.5-1.37,1.4-3.13,1.76-4.17,2.54-7.36,3.31-8.92,4.92-16.86,1-4.95,4.7-13.36,9.25-17.08Z"/>
  <path class="cls-2" d="M280.2,239.3c-2.58,1.45-5.4,4.17-5.96,4.46-1.1.59-1.15.6-2.05,1.1-2.29,1.28-2.91,1.76-3.28-1.63-1.37-12.38-3.54-57.17-5.26-56.57-3.15,1.09-.28,51.93-.7,63.1-.06,1.65-2.58,2.4-3.15,2.66-1.07.5-2.06,1.31-3.34,2.07-4.34,2.58.43-36.56.75-40.77.21-1.51.34-3.37.43-4.92.07-.62.13-1.42.17-2.38.02-.15.03-.28.05-.39l-.03.04c.1-3.12.07-7.72,0-12.75.17.75.73-6.77.95-7.15,2.05-4.61,3.02-.58,4.32-1.4.35-.21.28-2.63.54-3.08,2.35-3.97,3.88-2.26,4.77-4.97,1.12-3.41,1.63-3.76,1.76-4.88.03-.28.24-.5.52-.55s.55.1.67.37c1.35,3.12,3.77,9.78,3.77,11.83,0,3.21-.86,7.85-.83,9.33.07,3.77,1.38,8.96,1.31,10.48-.07,1.81,3.31,16.33,3.74,17.07.61,4.42,1.59,10.35,2.48,15.39.25,1.43-.39,2.8-1.66,3.52Z"/>
  <path class="cls-3" d="M282.48,306.3h-4.66c-1.2-4.31-2.57-14.15-1.96-23.14.63-9.56.46-18.81,4.7-15.17,1.11.95,1.46,4.53,1.56,7.43-.03,2.07-.1,4.18-.17,6.27-.29,9.1-2.24,18.21.52,24.62Z"/>
  <path class="cls-3" d="M270.39,275.47c-.38,4.58-1.58,16.58-1.28,20.15.95,10.95-1.59,10.03-2.17,10.69h-15.11c-.22-.71-2.31-2.76.32-5.1.89-2.41,8.89-.98,10.21-1,1.96-.04,2.39-1.91,2.31-4.39-.1-3.05-.28-4.54.06-7.19.55-4.39.95-9.38,1.14-11.02.21-1.76.09-15.09,3.68-13.71,1.38-.04.95,10.15.84,11.58Z"/>
  <path class="cls-2" d="M242.35,305.1c-.74.35-2.39.28-3.57.12-.84-.11-1.39-.13-1.54-.7-.32-1.12,1.1-4.39-.21-4.2-.9.12-1.3,3.61-3.98,4.42-2.67.84-5.6.31-8.4.44.06-.43.11-.96.24-1.4.18-.58,2.25-2.32,1.94-3.79-.07-.31-.64-.24-1.02.08-1.44,1.22-1.15,1.94-3.58,3.52-2.26,1.46-5.58,2.43-8.25,1.63,3.05,0,6.69-1.55,8.66-4.53,2.19-3.31,3.69-6.92,4.76-11.17,1.27,1.92.26,5.05-.41,7.04-.21.35-.28,1.57-.5,1.95.16.28.1.43.35.45,1.07.52,2.64-6.43,2.86-6.92.06-.13.89-3.38,1.35-1.13.17.89.05,2.47-.1,3.46-.21,1.46-.59,2.33-1.05,3.53-1.16,3-1.37,2.74-2.86,6.12-.69,1.58,2.02-.79,2.29-1.35.31-.68,3.01-6.95,3.05-7.24,1.01-2.63.02-7,.81-8.92.18-1.72,1.65-2.94,2.68-2.72,1.65.35,1.31,2.79.88,4.91-.2,1-.11,1.36.12,1.4.47.07,1.51-1.31,1.51-1.31.28,1.02-.54,4.14-.8,5.37-.33,1.55-1.18,2.63-.59,4.36,1.95,0,1.99-4.4,2.31-6.06-.02-.45.79-4.8,1.41-4.78.76-.29.79,3.42,1.62,1.18.17-.42.2-2.39.17-4.64.5-1.73.72-4.33.68-5.96,0-.39-.14-.56.17-.81.69-.55.75.72.86,1.19h0c.71,2.97.44,5.32.19,7.52-.3,2.7-.31,3.19-1.5,6.28-.39,1.05-.79,2.07-1.05,3.08-.11.42.14.84.55.95.42.11.84-.14.95-.56.23-.87.62-1.88,1.01-2.9.56-1.46,1.48-5.73,1.58-6.66.24-2.07.28-4.23.22-6.13-.03-1.15-.25-2.15-.06-3.12,0,0,1.55-3.15,1.54.18,0,1.66.89,24.96-5.31,27.83Z"/>
  <rect class="cls-4" x="209.43" y="308.65" width="81.9" height="10.86"/>
  <rect class="cls-4" x="199.17" y="308.65" width="7.92" height="10.86"/>
</svg>