<?xml version="1.0" encoding="UTF-8"?>
<svg id="Layer_1" xmlns="http://www.w3.org/2000/svg" version="1.1" viewBox="0 0 20 20">
  <!-- Generator: Adobe Illustrator 29.3.1, SVG Export Plug-In . SVG Version: 2.1.0 Build 151)  -->
  <defs>
    <style>
      .st0 {
        fill: #fff;
      }
    </style>
  </defs>
  <path class="st0" d="M20,13.77h0V2.8c0-.95-.77-1.72-1.72-1.72H1.72c-.95,0-1.72.77-1.72,1.72v10.97h20ZM6.8,4.74c0-.62.67-1,1.21-.69l4.8,2.85c.52.31.52,1.07,0,1.38l-4.8,2.85c-.53.31-1.21-.07-1.21-.69v-5.69ZM6.8,4.74"/>
  <path class="st0" d="M20,14.42H0v2.78c0,.95.77,1.72,1.72,1.72h16.56c.95,0,1.72-.77,1.72-1.72v-2.78h0ZM17.1,16.83H5.01v.53c0,.18-.15.32-.32.32s-.32-.15-.32-.32v-.53h-1.47c-.18,0-.32-.15-.32-.32s.15-.32.32-.32h1.47v-.53c0-.18.14-.32.32-.32s.32.14.32.32v.53h12.09c.18,0,.32.14.32.32s-.14.32-.32.32h0ZM17.1,16.83"/>
</svg>