<?xml version="1.0" encoding="UTF-8"?>
<svg id="Layer_1" data-name="Layer 1" xmlns="http://www.w3.org/2000/svg" viewBox="0 0 100 20">
  <defs>
    <style>
      .cls-1 {
        fill: #fff;
      }
    </style>
  </defs>
  <path class="cls-1" d="M71.7,19.81l-.09-.22c.05-.04.06-.07.06-.12,0-.08-.06-.13-.16-.13h-.12v.48h.07v-.22h.08l.09.22h.07ZM71.46,19.54v-.15h.05c.07,0,.09.03.09.07,0,.04-.02.08-.09.08h-.05Z"/>
  <path class="cls-1" d="M71.53,20c-.24,0-.44-.2-.44-.44s.2-.44.44-.44.44.2.44.44-.2.44-.44.44ZM71.53,19.18c-.21,0-.38.17-.38.38s.17.38.38.38.38-.17.38-.38-.17-.38-.38-.38Z"/>
  <path class="cls-1" d="M48.56,15.5l-1.17,3.64-1.41-3.62h-.36l1.7,4.44h.16l1.21-3.91,1.23,3.91h.16l1.69-4.44h-.37l-1.39,3.61-1.19-3.63h-.26Z"/>
  <path class="cls-1" d="M53.23,15.52v4.4h2.15v-.28h-1.81v-4.12h-.34Z"/>
  <path class="cls-1" d="M56.01,15.52v4.4h2.15v-.28h-1.81v-4.12h-.34Z"/>
  <path class="cls-1" d="M58.76,19.93h.34v-4.4h-.34v4.4Z"/>
  <path class="cls-1" d="M52.26,19.93h.34v-4.4h-.34v4.4Z"/>
  <path class="cls-1" d="M61.41,15.5l-1.82,4.43h.32l.62-1.52h1.92l.62,1.52h.32l-1.82-4.43h-.17ZM61.49,16.05l.85,2.07h-1.69l.84-2.07Z"/>
  <path class="cls-1" d="M67.56,15.53l-1.68,2.04-1.68-2.04h-.34v4.39h.34v-3.9h.01l1.66,2.05,1.66-2.05h.01v3.9h.34v-4.39h-.34Z"/>
  <path class="cls-1" d="M70.73,16.24c-.28-.36-.67-.44-.98-.44-.53,0-.93.36-.93.84,0,1.17,2.09.61,2.09,2.15,0,.68-.56,1.2-1.28,1.2-.36,0-.75-.1-1.13-.39v-.4c.43.41.77.47,1.11.47.52,0,.93-.38.93-.88,0-1.25-2.09-.7-2.09-2.15,0-.65.57-1.17,1.26-1.17.35,0,.81.14,1.01.39v.37Z"/>
  <path class="cls-1" d="M34.6,15.54v4.4h2.26v-.57h-1.63v-3.83h-.63Z"/>
  <path class="cls-1" d="M37.27,15.54v4.4h2.26v-.57h-1.63v-3.83h-.63Z"/>
  <path class="cls-1" d="M39.94,15.54v4.4h2.56v-.57h-1.92v-1.37h1.8v-.57h-1.8v-1.33h1.87v-.57h-2.5Z"/>
  <path class="cls-1" d="M45.75,19.94l-.82-2.06c.48-.4.54-.67.53-1.11,0-.76-.55-1.23-1.45-1.23h-1.11v4.4h.63v-1.97s.52,0,.75,0l.8,1.97h.65ZM43.54,17.46v-1.38h.41c.61,0,.86.25.87.66,0,.37-.19.72-.87.72h-.41Z"/>
  <path class="cls-1" d="M31.64,15.54v4.39h2.55v-.57h-1.92v-1.37h1.8v-.57h-1.8v-1.33h1.86v-.57h-2.49Z"/>
  <path class="cls-1" d="M30.51,15.54l-.22.24-1.62,1.76v-2.01h-.63v4.39h.63v-1.51l.7-.77.92,2.28h.65s-.23-.57-.23-.57l-.89-2.2.96-1.05.52-.57h-.78Z"/>
  <path class="cls-1" d="M28.03,0v13.32h1.86v-3.12l1.36-1.35,1.89,4.48h1.88l-2.5-5.94,1.76-1.95,3.41,7.89h.72l2.56-6.1,2.6,6.1h.71l3.89-8.98h-1.91l-2.34,5.45-2.27-5.45h-1.31l-2.29,5.45-2.36-5.45h-2.47l-3.31,3.3V0h-1.86Z"/>
</svg>