<?xml version="1.0" encoding="UTF-8"?>
<svg id="Layer_1" data-name="Layer 1" xmlns="http://www.w3.org/2000/svg" viewBox="0 0 100 20">
  <defs>
    <style>
      .cls-1 {
        fill: #fff;
      }
    </style>
  </defs>
  <path class="cls-1" d="M14.02,7v-.13c0-1.75-.54-3.23-1.62-4.25-1.21-1.15-3.03-1.75-5.19-1.75H0v18.26h4.11v-5.93h2.36l3.5,5.93h4.65l-4.04-6.74c1.55-.74,3.44-2.22,3.44-5.39h0ZM9.91,7.07c0,1.68-1.15,2.7-3.03,2.7h-2.76v-5.32h2.76c1.95,0,3.03.88,3.03,2.63ZM71.77.8l-6.87,18.33h4.11l1.42-3.91h6.4l1.42,3.91h4.25L75.61.8h-3.84ZM75.54,11.79h-3.91l1.95-5.59,1.95,5.59ZM94.41,9.83l5.46-8.89h-4.51l-3.23,5.8-3.17-5.8h-4.72l5.39,8.96-5.66,9.3h4.51l3.44-6.13,3.44,6.13h4.65l-5.59-9.37ZM22.44,15.63v-3.91h7.35v-3.5h-7.35v-3.77h8.29V.87h-12.33v18.26h7.68l1.89-3.5h-5.53ZM57.48.87l-4.11,5.93-4.18-5.93h-.07l-4.18,7.95v10.31h3.98V7.81l4.31,5.59v.07h.2l4.38-5.66v11.32h3.98V.87h-4.31Z"/>
  <polygon class="cls-1" points="39.9 .87 30.26 19.13 35.25 19.13 44.89 .87 39.9 .87"/>
</svg>