<?xml version="1.0" encoding="UTF-8"?>
<svg id="Layer_1" data-name="Layer 1" xmlns="http://www.w3.org/2000/svg" viewBox="0 0 100 20">
  <defs>
    <style>
      .cls-1 {
        fill: #fff;
      }
    </style>
  </defs>
  <path class="cls-1" d="M51.21,10.95c0,1.32-1.07,2.38-2.39,2.38-1.31,0-2.38-1.07-2.38-2.38v-6.34h-2.04v6.34c0,2.45,1.99,4.44,4.44,4.44s4.44-1.99,4.44-4.44v-6.34h-2.07v6.34ZM5.24,6.67c.85,0,1.66.32,2.28.91l1.21-1.7c-2.28-1.91-5.67-1.62-7.58.66-1.91,2.28-1.62,5.67.66,7.58,2,1.68,4.92,1.68,6.93,0l-1.19-1.71c-.62.59-1.44.92-2.3.91-1.84,0-3.33-1.49-3.33-3.33s1.49-3.33,3.33-3.33ZM28.45,11.85l-5.01-7.24h-2.05v10.78h2.05v-7.25l5.01,7.25h2.06V4.61h-2.06v7.24ZM33.24,4.61v2.06h3.18v8.72h2.06V6.67h3.18v-2.06h-8.41ZM89.99,4.61v2.06h1.12v8.72h2.06V4.61h-3.18ZM11.45,4.61v10.78h7.18v-2.06h-5.13v-2.3h4.11v-2.05h-4.11v-2.3h5.13v-2.06h-7.18ZM64.3,8.23c0-2-1.62-3.62-3.62-3.62h-4.65v10.78h2.06v-3.54h1.31l2.45,3.54h2.45l-2.54-3.7c1.51-.48,2.54-1.88,2.54-3.46ZM60.68,9.79h-2.59v-3.12h2.59c.86,0,1.56.7,1.56,1.56s-.7,1.56-1.56,1.56ZM73.72,4.61l-3.02,4.36-3.02-4.36h-2.44l4.43,6.4v4.37h2.06v-4.37l4.43-6.4h-2.45ZM87.08,9.99l.06-.08c1.05-1.56.63-3.68-.93-4.72-1.56-1.05-3.68-.63-4.72.93-.37.56-.58,1.22-.58,1.89v.13h2.06v-.13c0-.74.61-1.34,1.35-1.34.72-.02,1.33.54,1.35,1.26,0,.03,0,.06,0,.08-.07.37-.22.73-.44,1.03l-4.37,6.34h7.07v-2.06h-3.17l2.33-3.33ZM95.58,15.18c-.17-.12-.28-.31-.28-.52v-.1s0-.04.05-.04h.36s.05,0,.05.04v.08c0,.12.06.23.16.3.12.09.27.13.42.12.14,0,.27-.03.39-.11.09-.06.15-.16.15-.27,0-.07-.03-.14-.08-.2-.06-.07-.13-.12-.21-.16-.09-.05-.22-.11-.4-.18s-.35-.15-.47-.22c-.11-.06-.21-.14-.29-.24-.08-.1-.12-.22-.11-.35,0-.2.1-.38.26-.49.21-.13.45-.19.7-.18.18,0,.37.03.54.09.14.05.27.14.36.26.08.11.13.24.13.38v.09s0,.04-.05.04h-.36s-.05,0-.05-.04v-.08c0-.12-.06-.23-.15-.3-.13-.08-.27-.12-.42-.11-.13,0-.26.03-.37.1-.09.06-.14.16-.13.27,0,.07.02.14.07.2.06.06.12.11.2.15.09.05.22.11.4.18.17.07.34.15.5.24.11.06.21.14.29.23.07.09.11.21.11.33,0,.21-.1.4-.27.52-.22.14-.48.21-.74.2-.26,0-.52-.07-.74-.21ZM97.9,15.31v-2.59s0-.04.05-.04h.37s.04,0,.06,0l.63,1.06.63-1.06s.04-.01.06,0h.36s.05,0,.05.04v2.59s0,.04-.05.04h-.36s-.05,0-.05-.04v-1.83l-.51.82h-.28l-.52-.82v1.83s0,.04-.04.04h-.37s-.03,0-.03-.03h0Z"/>
</svg>