<?xml version="1.0" encoding="UTF-8"?>
<svg id="Layer_1" data-name="Layer 1" xmlns="http://www.w3.org/2000/svg" viewBox="0 0 100 20">
  <defs>
    <style>
      .cls-1 {
        fill: #fff;
      }
    </style>
  </defs>
  <g id="g10">
    <g id="g12">
      <path id="path14" class="cls-1" d="M39.63,7.46c-.02-.87-.28-1.55-.8-2.04-.52-.49-1.24-.73-2.16-.73-.87,0-1.57.25-2.08.75-.51.5-.82,1.17-.94,2.02h5.98ZM33.65,9.65c.1.87.44,1.55,1.02,2.04.58.49,1.29.73,2.11.73.73,0,1.34-.15,1.83-.45.49-.3.93-.68,1.3-1.13l2.09,1.58c-.68.84-1.44,1.44-2.28,1.8-.84.36-1.73.53-2.65.53-.87,0-1.7-.15-2.48-.44-.78-.29-1.45-.7-2.02-1.24-.57-.53-1.02-1.18-1.35-1.93-.33-.75-.5-1.59-.5-2.51s.17-1.76.5-2.51c.33-.75.78-1.4,1.35-1.93.57-.53,1.24-.95,2.02-1.24.78-.29,1.6-.44,2.48-.44.81,0,1.55.14,2.22.43.67.28,1.25.69,1.73,1.23.48.53.85,1.19,1.12,1.98.27.79.4,1.69.4,2.71v.8h-8.89"/>
      <path id="path16" class="cls-1" d="M66.35,8.63c0-.45-.08-.89-.23-1.31-.15-.42-.38-.79-.68-1.12-.3-.32-.66-.58-1.08-.78-.42-.19-.9-.29-1.43-.29s-1.01.1-1.43.29c-.42.19-.78.45-1.08.78-.3.32-.53.7-.68,1.12-.15.42-.23.86-.23,1.31s.08.89.23,1.31c.15.42.38.79.68,1.12.3.32.66.58,1.08.78.42.19.9.29,1.43.29s1.01-.1,1.43-.29c.42-.19.78-.45,1.08-.78.3-.32.53-.7.68-1.12.15-.42.23-.86.23-1.31h0ZM56.68,2.8h2.77v1.75h.05c.42-.73.99-1.25,1.7-1.57.71-.32,1.48-.47,2.31-.47.89,0,1.69.16,2.41.47.71.32,1.32.75,1.82,1.3.5.55.88,1.2,1.14,1.94.26.75.39,1.55.39,2.41s-.14,1.66-.41,2.41c-.28.75-.66,1.39-1.15,1.94-.49.55-1.09.98-1.79,1.3-.7.32-1.46.47-2.28.47-.53,0-1.02-.06-1.45-.17-.43-.11-.81-.26-1.13-.44-.32-.18-.6-.37-.83-.57-.23-.2-.41-.4-.56-.6h-.07v7.02h-2.92V2.8"/>
      <path id="path18" class="cls-1" d="M50.77,8.63l4.45,5.83h-3.55l-2.68-3.51-2.67,3.51h-3.55L53.8,0h3.55l-6.58,8.63"/>
      <path id="path20" class="cls-1" d="M46.32,2.8h-3.55l3.59,4.71,1.77-2.33-1.81-2.38"/>
      <path id="path22" class="cls-1" d="M34.74,17.99c.24,0,.44-.21.44-.46,0-.24-.21-.43-.44-.43h-.73v.89h.73ZM33.43,16.64s.04-.09.08-.09h1.28c.54,0,.97.43.97.96,0,.41-.27.75-.66.9l.61,1.14c.03.06,0,.13-.08.13h-.47s-.06-.02-.07-.04l-.59-1.18h-.5v1.14s-.04.08-.09.08h-.41s-.08-.04-.08-.08v-2.96"/>
      <path id="path24" class="cls-1" d="M37.66,16.64s.04-.09.08-.09h1.82s.08.04.08.09v.37s-.04.09-.08.09h-1.32v.73h1.1s.08.04.08.08v.37s-.04.08-.08.08h-1.1v.78h1.32s.08.04.08.08v.37s-.04.08-.08.08h-1.82s-.08-.04-.08-.08v-2.96"/>
      <path id="path26" class="cls-1" d="M42.79,18.62l-.45-.98h-.01l-.44.98h.9ZM40.86,19.57l1.39-3.01s.04-.05.08-.05h.04s.06.02.08.05l1.38,3.01c.03.06,0,.12-.08.12h-.39c-.07,0-.1-.03-.13-.09l-.22-.48h-1.34l-.22.48s-.06.09-.13.09h-.39c-.07,0-.1-.06-.08-.12"/>
      <path id="path28" class="cls-1" d="M45.13,16.64s.04-.09.08-.09h.41s.08.04.08.09v2.51h1.14s.08.04.08.08v.37s-.04.08-.08.08h-1.64s-.08-.04-.08-.08v-2.96"/>
      <path id="path30" class="cls-1" d="M48.87,17.1h-.68s-.09-.04-.09-.09v-.37s.04-.09.09-.09h1.95s.08.04.08.09v.37s-.04.09-.08.09h-.68v2.51s-.04.08-.08.08h-.42s-.08-.04-.08-.08v-2.51"/>
      <path id="path32" class="cls-1" d="M52.69,18.18l-1.02-1.49c-.04-.06,0-.13.07-.13h.46s.06.02.07.04l.72,1.03.71-1.03s.04-.04.07-.04h.46c.07,0,.11.07.07.13l-1.03,1.49v1.43s-.04.08-.08.08h-.41s-.08-.04-.08-.08v-1.42"/>
      <path id="path34" class="cls-1" d="M67.12,1.35V.23h-.4v-.23h1.07v.23h-.4v1.12h-.27"/>
      <path id="path36" class="cls-1" d="M67.96,1.35V0h.41l.24.92.24-.92h.41v1.35h-.25V.29l-.27,1.06h-.26l-.27-1.06v1.06h-.25"/>
    </g>
  </g>
</svg>