<?xml version="1.0" encoding="UTF-8"?>
<svg id="Layer_1" data-name="Layer 1" xmlns="http://www.w3.org/2000/svg" viewBox="0 0 100 20">
  <defs>
    <style>
      .cls-1 {
        fill: #fff;
      }
    </style>
  </defs>
  <path class="cls-1" d="M21.86,14.91c-1.99,0-3.77-1.19-4.56-3.02s-.35-3.96,1.05-5.36c1.4-1.4,3.5-1.83,5.36-1.08,1.83.75,3.05,2.56,3.05,4.53-.03,2.72-2.21,4.93-4.91,4.93M21.86,3.26c-2.75-.03-5.2,1.62-6.25,4.12-1.05,2.51-.49,5.42,1.43,7.36,1.91,1.94,4.82,2.51,7.36,1.48s4.18-3.5,4.18-6.23c-.03-3.72-3.02-6.71-6.71-6.74"/>
  <path class="cls-1" d="M46.74,3.64c-.05,0-.11.03-.16.08l-6.9,9.38-6.9-9.38c-.03-.05-.08-.08-.16-.08-.11,0-.19.08-.19.19v12.51h1.83v-7.39l5.31,7.17s.05.05.11.05.08-.03.11-.05l5.31-7.17v7.39h1.83V3.83c0-.05-.03-.11-.05-.13s-.08-.05-.13-.05"/>
  <path class="cls-1" d="M58.11,9.95h-4.26v-4.47h4.26c1.24,0,2.24,1,2.24,2.24s-1.02,2.24-2.24,2.24M58.11,3.64h-6.09v12.7h1.83v-4.53h4.26c2.24,0,4.07-1.83,4.07-4.07s-1.83-4.1-4.07-4.1"/>
  <path class="cls-1" d="M6.77,14.91c-2.29,0-4.31-1.59-4.82-3.83-.51-2.24.62-4.56,2.7-5.53,2.1-.97,4.58-.38,5.98,1.46l1.32-1.29c-1.83-2.18-4.8-3.02-7.49-2.05C1.78,4.64,0,7.17,0,10s1.78,5.36,4.45,6.33c2.67.97,5.66.13,7.47-2.05l-1.32-1.29c-.89,1.21-2.32,1.91-3.83,1.91"/>
  <path class="cls-1" d="M83.83,8.84l-1.4-.32c-1.51-.32-1.62-1.35-1.62-1.67,0-1.05.84-1.64,2.26-1.64s2.56,1,2.91,1.35l1.29-1.27c-1.21-1.27-2.56-1.89-4.18-1.89-2.45,0-4.1,1.37-4.1,3.42,0,.65,0,2.64,3.29,3.45l1.54.35c1.43.4,2.1,1.08,2.1,2.1,0,1.19-1.16,2.02-2.8,2.02-1.75,0-2.83-1.21-3.18-1.62l-1.27,1.24c.86,1,2.34,2.16,4.45,2.16,2.64,0,4.61-1.64,4.61-3.83.03-1.91-1.32-3.26-3.91-3.85"/>
  <path class="cls-1" d="M96.14,8.84l-1.4-.32c-1.51-.32-1.62-1.35-1.62-1.67,0-1.05.84-1.64,2.26-1.64s2.56,1,2.88,1.35l1.29-1.27c-1.21-1.27-2.59-1.89-4.18-1.89-2.45,0-4.1,1.37-4.1,3.42,0,.65,0,2.64,3.29,3.45l1.54.35c1.43.4,2.1,1.08,2.1,2.1,0,1.19-1.16,2.02-2.8,2.02-1.75,0-2.86-1.21-3.18-1.62l-1.29,1.27c.86,1,2.34,2.16,4.45,2.16,2.64,0,4.61-1.64,4.61-3.83.05-1.91-1.29-3.29-3.85-3.88"/>
  <path class="cls-1" d="M67.49,11.24l2.1-3.99,2.1,3.99h-4.2ZM69.59,3.53c-.08,0-.13.05-.16.11l-6.66,12.7h2.08l1.7-3.26h6.12l1.7,3.26h2.08l-6.68-12.7c-.03-.05-.08-.11-.16-.11Z"/>
  <path class="cls-1" d="M18.98,11.59l1.29,1.29,4.47-4.5-1.29-1.29-4.47,4.5Z"/>
</svg>