<?xml version="1.0" encoding="UTF-8"?>
<svg id="Layer_1" data-name="Layer 1" xmlns="http://www.w3.org/2000/svg" viewBox="0 0 100 20">
  <defs>
    <style>
      .cls-1 {
        fill: #fff;
      }
    </style>
  </defs>
  <path id="corporate" class="cls-1" d="M62.85,5.52h-1.17V.12h1.17v5.4h0ZM28.32,5.52h-3.44V.12h3.33c1.1,0,1.73.53,1.73,1.46,0,.67-.42,1-.68,1.14.51.22.83.7.83,1.28,0,.94-.68,1.53-1.77,1.53h0ZM26.01,2.28h2.03c.65,0,.79-.32.79-.59,0-.38-.28-.59-.79-.59h-2.03v1.18h0ZM28.19,4.53c.48,0,.77-.25.77-.64s-.3-.64-.77-.64h-2.19v1.29h2.19ZM35.96,4.5h-3.77v-1.24h3.38v-1.01h-3.38v-1.11h3.77V.12h-4.93v5.4h4.93v-1.02h0ZM75.12,1.14V.12h-4.93v5.4h4.93v-1.02h-3.77v-1.24h3.38v-1.01h-3.38v-1.11h3.77ZM41,3.42l1.29,2.1h-1.27l-1.18-1.98h-1.66v1.98h-1.17V.12h3.18c1.22,0,1.94.64,1.94,1.71,0,.78-.41,1.36-1.14,1.59h0ZM40.97,1.84c0-.46-.32-.72-.9-.72h-1.9v1.43h1.9c.57,0,.9-.26.9-.71ZM65.26,5.52h-1.17V.12h3.18c1.22,0,1.94.64,1.94,1.71,0,.78-.41,1.36-1.14,1.59l1.29,2.1h-1.27l-1.18-1.98h-1.66v1.98ZM65.26,2.55h1.9c.57,0,.9-.26.9-.71s-.32-.72-.9-.72h-1.9v1.43ZM51.66,4.59c-.54,0-1.55-.14-2.19-1.05l-.03-.04-.74.82.02.03c.48.74,1.68,1.26,2.9,1.26,1.57,0,2.55-.69,2.55-1.79,0-1.17-1.02-1.39-2.46-1.56-1.26-.15-1.51-.24-1.51-.59,0-.3.27-.62,1.2-.62.84,0,1.54.3,1.91.81l.03.04.74-.75-.02-.03c-.46-.65-1.49-1.08-2.61-1.08-1.43,0-2.39.7-2.39,1.74,0,1.13,1.04,1.34,2.2,1.48h.03c1.39.16,1.69.21,1.69.67,0,.39-.49.66-1.33.66h0ZM30.23,11.29v-3.14h-1.17v2.12h-3.02v-2.12h-1.17v5.4h1.17v-2.26h3.02v2.26h1.17v-2.26h0ZM35.51,12.31h-2.78l-.59,1.24h-1.26l2.6-5.4h1.28l2.6,5.4h-1.27l-.58-1.24h0ZM35.04,11.31l-.92-1.95-.92,1.95h1.84ZM52.99,8.15l2.6,5.4h-1.27l-.58-1.24h-2.78l-.59,1.24h-1.26l2.6-5.4h1.28,0ZM53.26,11.31l-.92-1.95-.92,1.95h1.84ZM68.5,13.55l-.58-1.24h-2.78l-.59,1.24h-1.26l2.6-5.4h1.28l2.6,5.4h-1.28ZM67.45,11.31l-.92-1.95-.92,1.95h1.84ZM36.75,9.17h2.18v4.38h1.17v-4.38h2.18v-1.02h-5.53v1.02ZM44.21,5.52h.06v-1.65l.79-.7,2.07,2.35h1.53l-2.75-3.11L48.53.12h-1.64l-2.62,2.37V.12h-1.17v5.4h1.1,0ZM48.46,11.29v-3.14h-1.17v2.12h-3.02v-2.12h-1.17v5.4h1.17v-2.26h3.02v2.26h1.17v-2.26h0ZM56.27,5.52v-2.26h3.02v2.26h1.17V.12h-1.17v2.12h-3.02V.12h-1.17v5.4h1.17ZM63.78,8.15l-1.78,5.4h-1.25l-1.19-3.98-1.21,3.98h-1.24v-.03s-1.78-5.38-1.78-5.38h1.22l1.24,3.87,1.18-3.87h1.19l1.17,3.87,1.24-3.87h1.2ZM57.82,12.06h0,0s0,0,0,0h0ZM73.8,8.15h-.08l-1.7,2.06-1.7-2.06h-1.43l2.53,3.08v2.33h1.17v-2.33l2.52-3.08h-1.32ZM26.87,18.1h-1.47v-1.31h-.52v3.1h.52v-1.31h1.47v1.31h.52v-3.1h-.52v1.31h0ZM32.17,17.5c.12.24.18.52.18.84s-.06.6-.18.84c-.12.24-.29.43-.51.57-.22.14-.49.2-.8.2s-.58-.07-.8-.2c-.22-.14-.39-.32-.51-.57-.12-.24-.18-.52-.18-.84s.06-.6.18-.84.29-.43.51-.57.49-.2.8-.2.58.07.8.2c.22.14.39.33.51.57ZM31.8,18.35c0-.23-.03-.42-.1-.59-.07-.17-.17-.3-.31-.39-.14-.09-.31-.14-.52-.14-.21,0-.38.04-.52.14-.14.09-.24.22-.31.39-.07.17-.1.37-.1.59s.03.42.1.59c.07.17.17.3.31.39.14.09.31.14.52.14.21,0,.38-.04.52-.14.14-.09.24-.22.31-.39.07-.17.1-.37.1-.59h0ZM35.87,18.99l-1.07-2.2h-.47v3.1h.49v-1.99l.95,1.99h.21l.95-1.99v1.99h.48v-3.1h-.47l-1.07,2.2h0ZM39.57,19.9h2v-.49h-1.49v-.88h1.23v-.49h-1.23v-.77h1.49v-.49h-2v3.1ZM45.69,18.37c-.09-.06-.18-.11-.27-.14-.09-.03-.18-.06-.26-.08l-.56-.16c-.07-.02-.14-.04-.21-.07-.07-.03-.13-.07-.17-.11s-.07-.11-.07-.19c0-.08.03-.15.08-.21s.13-.11.21-.14.18-.05.29-.05c.11,0,.21.02.3.06s.17.1.24.18.11.17.13.28l.56-.1c-.05-.19-.13-.35-.24-.49s-.25-.24-.42-.31-.36-.11-.57-.11c-.21,0-.4.03-.57.1s-.31.17-.41.3-.15.3-.15.5c0,.14.02.25.07.34.04.09.1.17.17.23s.15.11.23.14c.08.03.15.06.22.08l.8.24c.06.02.11.04.15.06.04.02.08.05.11.08.03.03.05.06.06.1s.02.08.02.12c0,.1-.03.18-.09.24-.06.07-.14.12-.24.15-.1.03-.2.05-.31.05-.19,0-.35-.05-.49-.15-.14-.1-.24-.24-.28-.43l-.54.08c.03.2.11.38.22.52.12.15.27.26.45.34s.39.12.61.12c.16,0,.31-.02.46-.06.15-.04.27-.1.39-.18s.2-.18.27-.3c.07-.12.1-.26.1-.42s-.03-.28-.09-.38c-.06-.1-.13-.18-.22-.24h0ZM48.01,19.9h2v-.49h-1.49v-.88h1.23v-.49h-1.23v-.77h1.49v-.49h-2v3.1ZM53.89,18.72l.57,1.18h-.59l-.53-1.08h-.74v1.08h-.52v-3.1h1.28s.07,0,.12,0c.05,0,.09,0,.13.01.18.03.33.09.45.18.12.09.2.21.26.35s.09.3.09.47c0,.25-.06.47-.19.65-.08.12-.19.2-.33.26h0ZM52.61,18.33h.74s.06,0,.1,0c.04,0,.07,0,.1-.02.09-.02.15-.06.2-.11.05-.06.09-.12.11-.19.02-.07.03-.14.03-.2s-.01-.13-.03-.2-.06-.13-.11-.19c-.05-.06-.12-.09-.2-.11-.03,0-.06-.01-.1-.02-.04,0-.07,0-.1,0h-.74v1.05ZM57.57,19.39l-.82-2.6h-.54l.98,3.1h.76l.98-3.1h-.54l-.83,2.6ZM60.85,19.9h.52v-3.1h-.52v3.1ZM64.37,17.36c.14-.09.31-.14.52-.14.23,0,.42.06.56.17s.25.27.31.48l.52-.14c-.1-.3-.26-.54-.5-.72s-.54-.27-.89-.27c-.31,0-.58.07-.8.2-.22.14-.39.33-.51.57s-.18.52-.18.84.06.6.18.84c.12.24.29.43.51.57s.49.2.8.2c.36,0,.66-.09.89-.27.24-.18.41-.42.5-.72l-.52-.14c-.06.2-.16.36-.31.47-.14.12-.33.17-.56.17-.21,0-.38-.05-.52-.14-.14-.09-.24-.22-.31-.39-.07-.17-.1-.37-.1-.59s.04-.42.11-.59c.07-.17.17-.3.31-.39h0ZM68.31,19.9h2v-.49h-1.49v-.88h1.23v-.49h-1.23v-.77h1.49v-.49h-2v3.1ZM74.43,18.37c-.09-.06-.18-.11-.27-.14-.09-.03-.18-.06-.26-.08l-.56-.16c-.07-.02-.14-.04-.21-.07-.07-.03-.13-.07-.17-.11s-.07-.11-.07-.19c0-.08.03-.15.08-.21s.13-.11.21-.14c.09-.03.18-.05.29-.05.11,0,.21.02.3.06.09.04.17.1.24.18.07.08.11.17.13.28l.56-.1c-.05-.19-.13-.35-.24-.49s-.25-.24-.42-.31c-.17-.07-.36-.11-.57-.11-.21,0-.4.03-.57.1-.17.07-.31.17-.41.3s-.15.3-.15.5c0,.14.02.25.07.34.04.09.1.17.17.23.07.06.15.11.23.14s.15.06.22.08l.8.24c.06.02.11.04.15.06.04.02.08.05.11.08.03.03.05.06.06.1s.02.08.02.12c0,.1-.03.18-.09.24s-.14.12-.24.15-.2.05-.31.05c-.19,0-.35-.05-.49-.15s-.24-.24-.28-.43l-.54.08c.03.2.11.38.22.52.12.15.27.26.45.34s.39.12.61.12c.16,0,.31-.02.46-.06.15-.04.27-.1.39-.18.11-.08.2-.18.27-.3.07-.12.1-.26.1-.42s-.03-.28-.09-.38c-.06-.1-.13-.18-.22-.24h0Z"/>
</svg>