<?xml version="1.0" encoding="UTF-8"?>
<svg id="Layer_1" data-name="Layer 1" xmlns="http://www.w3.org/2000/svg" viewBox="0 0 100 20">
  <defs>
    <style>
      .cls-1 {
        fill: #fff;
      }
    </style>
  </defs>
  <g>
    <g>
      <path class="cls-1" d="M10.17,18.4s-.25-.11-.26-.17c.11-.4.28-.66.32-1.09.46-5.03-.36-10.75,0-15.85.07-.46-.73-1.07.04-1.16,1.43-.17,4.08-.07,5.58,0,4.04.2,7.8,1.43,7.45,6.21-.17,2.27-1.46,4.15-3.65,4.84l4.61,7.52c.24.22.74.23.66.7-2.78,1.2-4.46.45-6.02-1.92-1.22-1.86-2.17-3.92-3.45-5.74h-1.57v6.51l-.15.15c-1.08-.12-2.51.16-3.55,0ZM13.87,9.21h2.58c.71,0,1.81-.4,2.34-.9,1.23-1.19,1.2-4.19-.36-5.1-.28-.17-1.07-.45-1.37-.45h-3.19v6.46Z"/>
      <g>
        <path class="cls-1" d="M38.2,18.4V2.75c4.05.19,10.47-1.06,12.44,3.61.95,2.24.98,6,0,8.24-2.05,4.72-8.28,3.66-12.45,3.8ZM41.74,15.77h2.79c.67,0,1.84-.64,2.28-1.16,1.26-1.5,1.27-6.34.15-7.91-.43-.61-1.69-1.32-2.43-1.32h-2.79v10.39Z"/>
        <polygon class="cls-1" points="35.76 2.75 35.76 5.28 29.38 5.28 29.38 9.21 33.53 9.21 33.53 11.74 29.38 11.74 29.38 15.77 35.76 15.77 35.76 18.4 25.83 18.4 25.83 2.75 35.76 2.75"/>
      </g>
    </g>
    <g>
      <polygon class="cls-1" points="81.57 11.63 81.57 2.75 85.12 2.75 85.12 18.4 82.23 18.4 75.83 9.44 75.59 9.31 75.59 18.4 72.05 18.4 72.05 2.75 74.83 2.75 81.57 11.63"/>
      <polygon class="cls-1" points="63.53 2.75 63.53 5.38 57.15 5.38 57.15 9.21 61.3 9.21 61.3 11.74 57.15 11.74 57.15 18.4 53.6 18.4 53.6 2.75 63.53 2.75"/>
      <rect class="cls-1" x="65.76" y="2.75" width="3.65" height="15.64"/>
    </g>
  </g>
  <g>
    <path class="cls-1" d="M88.58,17.39h-.4v1.08h-.27v-1.08h-.39v-.22h1.05v.22Z"/>
    <path class="cls-1" d="M89.08,17.18l.33.94.33-.94h.35v1.29h-.27v-.35l.03-.61-.35.96h-.18l-.35-.96.03.61v.35h-.27v-1.29h.35Z"/>
  </g>
</svg>