<?xml version="1.0" encoding="UTF-8"?>
<svg id="Layer_1" data-name="Layer 1" xmlns="http://www.w3.org/2000/svg" viewBox="0 0 100 20">
  <defs>
    <style>
      .cls-1 {
        fill: #fff;
      }
    </style>
  </defs>
  <path class="cls-1" d="M75.82,6.63c.35,0,.62-.28.62-.62,0-.35-.28-.62-.62-.62-.35,0-.62.28-.62.62s.28.62.62.62M65.06,13.92h-1.88v-4.62h1.02c1.45,0,1.58.63,1.58,1.68h.22v-3.67h-.22c0,.9-.13,1.77-1.57,1.77h-1.03v-4.45h2.17c1.47,0,2.52.53,2.52,2.13h.22l-.17-2.35h-6.72v.22h.58v9.28h-.58v.22h7.42v-2.83h-.23c0,2.35-1.08,2.62-3.32,2.62M76.5,8.17c-.28.28-.72.3-1.17.3h-.47v.22h.47v5.22h-.47v.22h2.1v-.22h-.47v-5.73h0ZM71.29,13.92h-.47V3.98c-.28.32-.72.35-1.17.35h-.47v.22h.47v9.37h-.47v.22h2.1v-.22h0ZM74.15,13.92h-.47V3.98c-.28.32-.72.35-1.17.35h-.47v.22h.47v9.37h-.47v.22h2.1v-.22h0ZM99.53,13.92v-4.18c0-.82-.42-1.57-1.88-1.57-1,0-1.7.75-2.05,1.42h-.03v-1.42c-.25.3-.5.3-1.17.3h-.45v.22h.45v5.22h-.45v.22h2.03v-.22h-.42v-3.88c.25-.47.85-1.63,2-1.63.45,0,.82.25.82,1v4.52h-.45v.22h2.07v-.22h-.47v.02ZM91.43,12.92c0,.28-.45,1.05-1.48,1.05-.88,0-1-.58-1-1.35,0-1.48,1.25-1.5,2.27-1.5h.23v1.8h-.02ZM93,14c-.37,0-.42-.35-.42-.6v-3.62c0-1.07-1.25-1.6-2.28-1.6-1.38,0-2.13.77-2.13,1.48,0,.47.22.77.6.77s.63-.25.63-.58c0-.62-.45-.47-.45-.8,0-.5.93-.65,1.33-.65.52,0,1.13.15,1.13.8v1.7h-.27c-1.42,0-3.48.38-3.48,1.93,0,.93.65,1.48,1.73,1.48.92,0,1.53-.23,2-.85h.03c.1.48.57.85,1.22.85.6,0,.95-.28,1.22-.75l-.15-.12c-.2.28-.4.55-.72.55M13.16,9.13v1.42h-1.9v4.02c1.57-.73,2.7-2.23,2.9-4.02h1.42c-.27,3.07-2.68,5.53-5.73,5.87V3.58c2.95.32,5.3,2.63,5.7,5.55h-1.43c-.28-1.65-1.38-3.02-2.85-3.7v3.7h1.9ZM8.45,16.42c-3.23-.35-5.75-3.1-5.75-6.42s2.52-6.07,5.75-6.42v12.83ZM9.13,2.57c-4.1,0-7.43,3.33-7.43,7.43s3.33,7.43,7.43,7.43,7.43-3.33,7.43-7.43-3.33-7.43-7.43-7.43M9.13,18.22C4.6,18.22.92,14.53.92,10S4.6,1.78,9.13,1.78s8.22,3.68,8.22,8.22-3.68,8.22-8.22,8.22M9.13.87C4.1.87,0,4.97,0,10s4.1,9.13,9.13,9.13,9.13-4.1,9.13-9.13S14.16.87,9.13.87M7.03,14.58V5.43c-1.73.8-2.92,2.55-2.92,4.57-.02,2.03,1.18,3.77,2.92,4.58M79.52,13.92h-.42v-3.9c.4-.98,1.02-1.63,1.85-1.63.55,0,.9.27.9.95v4.57h-.45v.22h2.03v-.22h-.42v-3.68c.28-.97.98-1.83,1.78-1.83.52,0,.97.22.97,1.22v4.3h-.45v.22h2.07v-.22h-.45v-4.05c0-.87-.47-1.67-1.88-1.68-1.03-.02-1.73.68-2,1.48h-.03c-.12-1.23-1-1.48-1.88-1.48-1.03,0-1.62.68-1.98,1.35h-.03v-1.35c-.25.3-.5.3-1.17.3h-.45v.22h.45v5.22h-.45v.22h2.03v-.2h-.02Z"/>
  <path class="cls-1" d="M28.75,7.3c-.07-.17-.15-.35-.23-.52.08.15.17.33.23.52M23.98,13.87h-1.15V4.67h.63c3.6,0,4.02,2.63,4.02,4.6.02,3.8-1.88,4.6-3.5,4.6M24.4,4.37h-3.73v.3h.68v9.2h-.68v.3h3.73c2.88,0,4.73-1.92,4.73-4.9,0-1.12-.37-2.3-.98-3.15-.82-1.13-2.12-1.75-3.75-1.75M54.14,12.92c0,.25-.43,1.02-1.45,1.02-.82,0-.97-.48-.97-1.32,0-1.47,1.28-1.47,2.22-1.47h.2v1.77ZM56.44,13.42c-.2.28-.38.53-.68.53-.27,0-.37-.18-.37-.57v-3.62c0-.5-.27-.93-.77-1.23-.43-.27-1-.4-1.57-.4-1.4,0-2.17.78-2.17,1.52,0,.5.25.82.65.82s.67-.27.67-.62c0-.38-.17-.48-.3-.58-.08-.07-.15-.1-.15-.22,0-.45.9-.62,1.3-.62.5,0,1.1.13,1.1.77v1.65h-.22c-1.7,0-3.52.52-3.52,1.97,0,.95.67,1.52,1.77,1.52.95,0,1.55-.25,2-.83.13.5.63.83,1.23.83.55,0,.95-.25,1.25-.77l.02-.03-.22-.15-.03.03ZM66.49,17.62h1.53v-.43h-1.53v-.8h1.65v-.47h-2.18v3.03h2.22v-.47h-1.68v-.87h0ZM63.14,17.3h-.87v-.95h.87c.28,0,.53.08.53.47-.02.32-.2.48-.53.48M63.69,17.52h0c.1-.05.5-.18.5-.77,0-.52-.33-.82-1-.82h-1.45v3.03h.53v-1.25h.78c.48,0,.6.25.6.8,0,.15,0,.32.08.45h.57c-.12-.12-.17-.45-.17-.8,0-.48-.27-.62-.45-.65M33.91,11.77c0,1.33-.12,2.27-1.57,2.27s-1.57-.93-1.57-2.27v-1.08c0-1.33.12-2.27,1.57-2.27s1.57.93,1.57,2.27v1.08ZM32.36,8.12c-1.85,0-2.97,1.58-2.97,3.1s1.12,3.1,2.97,3.1,2.97-1.58,2.97-3.1-1.12-3.1-2.97-3.1M44.39,12.05c-1.1,0-1.1-.92-1.1-1.82,0-.72,0-1.82,1.1-1.82s1.1.72,1.1,1.82c0,.97,0,1.82-1.1,1.82M45.74,14.6c.85,0,1.25.28,1.25.88,0,1.1-1.03,2.23-2.75,2.23-1.88,0-2.03-1.2-2.03-1.58,0-.87.38-1.37,1.22-1.55h2.32v.02ZM47.08,8.12c-.47,0-.82.3-1.07.58-.38-.37-.95-.58-1.62-.58-1.28,0-2.33.98-2.33,2.2,0,.78.47,1.22.98,1.57-.88.03-1.3.48-1.3,1.4,0,.8.38,1.27,1.05,1.32-.62.3-1.3.88-1.3,1.6,0,1.35,1.4,1.82,2.7,1.82.87,0,1.67-.27,2.25-.77.65-.53.98-1.3.98-2.18,0-1.07-.55-1.63-1.57-1.63h-3.23c-.33,0-.57-.22-.57-.53,0-.53.43-.82,1.3-.83.02,0,.03.02.05.02.17.08.47.22,1,.22s1.13-.22,1.57-.6c.48-.4.75-.93.75-1.48,0-.48-.2-1.02-.53-1.38.17-.22.42-.4.63-.45-.05.08-.1.18-.1.4,0,.23.2.47.48.47.27,0,.58-.13.58-.52.02-.35-.27-.62-.72-.62M40.89,8.07l-.07.07c-.27.27-.7.3-1.13.3h-.5v.3h.45v3.23c0,1.05-.88,2.07-1.78,2.07-.5,0-.82-.35-.82-.93v-5.03l-.07.07c-.27.27-.7.3-1.13.3h-.5v.3h.47v4.03c0,.47.18,1.57,1.92,1.57,1.17,0,1.75-1,1.92-1.33v1.17h1.7v-.3h-.47v-5.8h.02ZM49.58,3.87l-.07.08c-.27.3-.7.33-1.13.33h-.5v.3h.47v9.28h-.47v.3h2.17v-.3h-.47V3.87ZM59.27,10.5l-.47-.03c-.98-.07-1.42-.35-1.42-.98s.48-1.07,1.23-1.07c1.15,0,1.48.8,1.57,1.47v.03h.25l-.05-1.72h-.27v.15c0,.18-.02.25-.05.25s-.12-.05-.2-.1c-.25-.15-.67-.38-1.2-.38-1.03,0-1.77.75-1.77,1.82,0,1.5.95,1.6,1.8,1.7l.13.02c.68.07,1.38.15,1.38,1.13,0,.73-.53,1.25-1.3,1.25-1.03,0-1.68-.67-1.88-1.92v-.03h-.25l.03,2.12v.03h.28v-.03c0-.07.02-.13.02-.18.02-.22.02-.3.12-.3.08,0,.18.07.3.15.27.18.67.45,1.4.45,1.13,0,1.97-.92,1.97-2.17-.02-1.03-.57-1.58-1.63-1.65M70.59,17.75l.47-1.3h.02l.45,1.3h-.93ZM70.77,15.92l-1.17,3.03h.55l.28-.8h1.22l.28.8h.57l-1.17-3.03h-.57ZM97.93,17.62h1.53v-.43h-1.53v-.8h1.65v-.47h-2.18v3.03h2.22v-.47h-1.68v-.87h0ZM91.03,17.75l.47-1.3h.02l.45,1.3h-.93ZM91.22,15.92l-1.17,3.03h.55l.28-.8h1.22l.28.8h.57l-1.17-3.03h-.57ZM93.75,16.38h.97v2.58h.53v-2.58h.97v-.47h-2.45v.47h-.02ZM74.62,15.92h-.53v3.03h2.07v-.47h-1.55v-2.57h.02ZM85.2,17.3c-.15-.05-.83-.22-.88-.23-.22-.07-.37-.18-.37-.38,0-.3.32-.4.55-.4.37,0,.63.15.65.53h.53c0-.63-.53-.97-1.17-.97-.55,0-1.12.28-1.12.9,0,.32.15.63.67.77.42.12.7.17.9.25.12.05.25.13.25.37s-.17.47-.65.47c-.42,0-.77-.18-.77-.65h-.53c.02.75.57,1.08,1.27,1.08.6,0,1.2-.27,1.2-.95.05-.32-.13-.67-.53-.78M86.89,16.38h.97v2.58h.53v-2.58h.97v-.47h-2.45v.47h-.02ZM79.99,17.62h1.53v-.43h-1.53v-.8h1.65v-.47h-2.18v3.03h2.22v-.47h-1.68v-.87h0ZM91.48,6.85h.33v-1.32h.48v-.28h-1.3v.28h.48v1.32h0ZM94.63,6.85h.32v-1.58h-.25s0,.03-.02.07c-.02.05-.03.08-.07.12s-.08.07-.15.08c-.03.02-.1.02-.2.02v.22h.37v1.08ZM97.65,6.85h.32v-1.58h-.27s0,.03-.02.07c-.02.05-.03.08-.07.12s-.08.07-.15.08c-.03.02-.1.02-.2.02v.22h.37v1.08h.02ZM88.87,6.55h-.88v-.42h.78v-.28h-.78v-.33h.85v-.28h-1.17v1.6h1.22v-.28h-.02ZM99.02,6.85h.32v-1.58h-.27s0,.03-.02.07c-.02.05-.03.08-.07.12s-.08.07-.15.08c-.03.02-.1.02-.2.02v.22h.37v1.08h.02ZM92.82,6.52h-.33v.33h.33v-.33ZM96.08,5.57s.08-.05.13-.05c.07,0,.13.03.17.08s.07.12.07.22c0,.12-.03.18-.1.23-.03.02-.08.03-.12.03-.08,0-.13-.02-.18-.07-.03-.05-.05-.12-.05-.22,0-.12.03-.2.08-.23M96.17,6.33c.08,0,.15-.02.22-.05.03-.02.07-.05.08-.08,0,.12-.02.22-.05.27-.05.12-.12.17-.22.17-.05,0-.1-.02-.13-.05-.03-.03-.05-.07-.07-.12h-.32c.02.13.07.23.17.3s.2.1.32.1c.25,0,.42-.12.52-.37.05-.13.07-.28.07-.48s-.03-.35-.08-.47c-.08-.22-.25-.32-.5-.32-.15,0-.28.05-.38.15s-.15.23-.15.42c0,.17.05.28.15.37.13.12.25.17.38.17M90.17,6.58s-.12.03-.2.03c-.13,0-.23-.03-.28-.1-.03-.03-.05-.08-.07-.17h-.32c0,.17.07.3.18.4.12.1.28.15.5.15.2,0,.37-.05.48-.15s.17-.22.17-.37-.05-.25-.15-.33c-.07-.05-.15-.08-.28-.12l-.28-.07c-.1-.03-.18-.05-.22-.07-.05-.03-.08-.07-.08-.13s.03-.12.08-.15c.05-.03.12-.05.22-.05.08,0,.15.02.2.03.08.03.12.12.13.2h.32c0-.17-.07-.3-.18-.38s-.27-.13-.43-.13c-.2,0-.37.05-.47.15s-.17.22-.17.35c0,.15.05.27.17.35.07.05.18.08.35.12l.17.03c.1.02.18.05.22.07.05.03.07.07.07.12.03.13-.02.18-.12.22"/>
</svg>