<?xml version="1.0" encoding="UTF-8"?>
<svg id="Layer_1" xmlns="http://www.w3.org/2000/svg" version="1.1" viewBox="0 0 124.41 40">
  <!-- Generator: Adobe Illustrator 29.2.1, SVG Export Plug-In . SVG Version: 2.1.0 Build 116)  -->
  <defs>
    <style>
      .st0 {
        fill: #e0d9ff;
      }

      .st1 {
        fill: #673ddb;
      }
    </style>
  </defs>
  <g>
    <path class="st0" d="M58.03,18.9c0-3.41-1.85-5.16-4.65-5.16s-4.69,1.75-4.69,5.16v10.38h-3.84V10.71h3.84v2.12c1.25-1.52,3.3-2.43,5.53-2.43,4.35,0,7.62,2.73,7.62,7.92v10.96h-3.81v-10.38Z"/>
    <path class="st0" d="M74.21,10.41c3.14,0,5.29,1.48,6.44,3v-2.7h3.88v18.58h-3.88v-2.76c-1.18,1.58-3.41,3.07-6.51,3.07-4.82,0-8.7-3.94-8.7-9.68s3.88-9.51,8.77-9.51ZM75.02,13.75c-2.87,0-5.63,2.16-5.63,6.17s2.76,6.34,5.63,6.34,5.63-2.26,5.63-6.27-2.73-6.24-5.63-6.24Z"/>
    <path class="st0" d="M96.33,29.59c-4.45,0-7.59-2.63-7.75-6h3.98c.13,1.52,1.58,2.76,3.71,2.76s3.41-.94,3.41-2.23c0-3.64-10.79-1.55-10.79-8.36,0-2.97,2.76-5.36,7.15-5.36s6.98,2.26,7.18,5.97h-3.84c-.13-1.62-1.38-2.73-3.47-2.73s-3.14.84-3.14,2.09c0,3.74,10.48,1.65,10.69,8.36,0,3.14-2.73,5.5-7.11,5.5Z"/>
    <path class="st0" d="M124.41,29.29h-3.84v-2.23c-1.21,1.58-3.3,2.49-5.5,2.49-4.35,0-7.65-2.73-7.65-7.92v-10.92h3.81v10.35c0,3.41,1.85,5.16,4.65,5.16s4.69-1.75,4.69-5.16v-10.35h3.84v18.58Z"/>
  </g>
  <g>
    <g>
      <path class="st1" d="M20,20v19.02c0,.56-.47,1-1.04.98,0,0-.01,0-.02,0-.29-.01-.55-.17-.73-.4-3.66-4.72-11.85-6.13-13.78-8.32-3-3.42,0-6.25,0-6.25l15.56-5.03Z"/>
      <path class="st1" d="M21.04,0s.01,0,.02,0c.29.02.55.17.73.4,3.66,4.73,11.85,6.13,13.78,8.32,3,3.41,0,6.25,0,6.25l-15.56,5.03V.98c0-.56.47-1.01,1.04-.98Z"/>
    </g>
    <g>
      <path class="st0" d="M20,20H.98c-.56,0-1-.47-.98-1.04,0,0,0-.01,0-.02.01-.29.17-.55.4-.73,4.72-3.66,6.13-11.85,8.32-13.78,3.42-3,6.25,0,6.25,0l5.03,15.56Z"/>
      <path class="st0" d="M40,21.04s0,.01,0,.02c-.02.29-.17.55-.4.73-4.73,3.66-6.13,11.85-8.32,13.78-3.41,3-6.25,0-6.25,0l-5.03-15.56h19.01c.56,0,1.01.47.98,1.04Z"/>
    </g>
  </g>
</svg>